<svg width="1280" height="128" viewBox="0 0 1280 128" fill="none" xmlns="http://www.w3.org/2000/svg">
<g opacity="0.8">
<path d="M877.082 73.2114C876.331 73.2519 875.588 73.0397 874.974 72.6092C874.717 72.42 874.51 72.1714 874.372 71.8851C874.233 71.5987 874.167 71.2831 874.179 70.9656V59.3348C874.172 59.2856 874.178 59.2356 874.194 59.1887C874.21 59.1418 874.237 59.0991 874.272 59.064C874.307 59.029 874.35 59.0023 874.398 58.9862C874.445 58.9701 874.495 58.9649 874.545 58.971H876.665C876.905 58.971 877.018 59.0965 877.018 59.3348V70.0622C877.018 70.539 877.233 70.7774 877.675 70.7774C877.862 70.7851 878.049 70.7639 878.23 70.7146C878.483 70.7146 878.621 70.7899 878.634 71.0158L878.823 72.5841C878.832 72.6298 878.832 72.677 878.821 72.7223C878.81 72.7677 878.79 72.8102 878.761 72.8471C878.732 72.8839 878.696 72.9142 878.654 72.936C878.613 72.9577 878.567 72.9703 878.52 72.973C878.056 73.1255 877.571 73.2059 877.082 73.2114Z" fill="#1E1B1B"/>
<path d="M889.009 71.8691C887.944 72.7442 886.605 73.2229 885.223 73.2229C883.841 73.2229 882.502 72.7442 881.436 71.8691C880.5 70.9294 879.974 69.66 879.974 68.3372C879.974 67.0145 880.5 65.7451 881.436 64.8054C882.504 63.9348 883.842 63.459 885.223 63.459C886.604 63.459 887.942 63.9348 889.009 64.8054C889.924 65.7538 890.435 67.017 890.435 68.331C890.435 69.645 889.924 70.9082 889.009 71.8566V71.8691ZM883.431 70.213C883.925 70.6582 884.568 70.9048 885.235 70.9048C885.903 70.9048 886.546 70.6582 887.04 70.213C887.488 69.7015 887.734 69.0465 887.734 68.3686C887.734 67.6908 887.488 67.0357 887.04 66.5243C886.546 66.079 885.903 65.8324 885.235 65.8324C884.568 65.8324 883.925 66.079 883.431 66.5243C882.983 67.0357 882.737 67.6908 882.737 68.3686C882.737 69.0465 882.983 69.7015 883.431 70.213Z" fill="#1E1B1B"/>
<path d="M902.111 63.7763C902.351 63.7763 902.464 63.9018 902.464 64.1402V73.1361C902.486 73.7433 902.372 74.3477 902.13 74.9055C901.887 75.4632 901.523 75.9603 901.063 76.3606C900.043 77.2256 898.73 77.674 897.39 77.6153C896.18 77.6576 894.986 77.3291 893.97 76.6743C893.536 76.391 893.165 76.0221 892.881 75.5904C892.596 75.1587 892.404 74.6735 892.316 74.1649C892.316 73.914 892.316 73.8011 892.657 73.8011H894.778C894.868 73.8041 894.955 73.833 895.029 73.8842C895.103 73.9354 895.16 74.0068 895.194 74.0897C895.332 74.4707 895.606 74.7879 895.964 74.9805C896.401 75.2044 896.886 75.3165 897.378 75.3067C897.674 75.3228 897.971 75.2801 898.25 75.181C898.53 75.0819 898.787 74.9284 899.006 74.7295C899.206 74.5215 899.362 74.2752 899.464 74.0057C899.566 73.7362 899.612 73.4489 899.599 73.1612V72.3708C898.84 72.9259 897.916 73.2129 896.974 73.1863C896.314 73.2101 895.657 73.1013 895.041 72.8663C894.425 72.6313 893.863 72.2749 893.389 71.8187C892.479 70.8829 891.97 69.6323 891.97 68.3307C891.97 67.0292 892.479 65.7786 893.389 64.8428C893.865 64.3906 894.428 64.0377 895.044 63.805C895.659 63.5723 896.315 63.4644 896.974 63.4877C897.943 63.4623 898.892 63.7678 899.662 64.3535V64.1527C899.656 64.1046 899.661 64.0559 899.677 64.01C899.692 63.9641 899.718 63.9222 899.752 63.8873C899.786 63.8525 899.827 63.8256 899.873 63.8085C899.918 63.7915 899.967 63.7848 900.016 63.7889L902.111 63.7763ZM897.214 70.953C897.539 70.963 897.862 70.9019 898.161 70.774C898.46 70.6461 898.727 70.4545 898.943 70.2127C899.362 69.6741 899.59 69.0121 899.59 68.3307C899.59 67.6494 899.362 66.9874 898.943 66.4487C898.727 66.2103 898.462 66.0216 898.166 65.8958C897.869 65.7701 897.548 65.7105 897.226 65.721C896.897 65.7108 896.57 65.7716 896.267 65.8994C895.964 66.0273 895.693 66.219 895.472 66.4613C895.007 66.9766 894.762 67.6517 894.79 68.3433C894.767 69.0281 895.006 69.6961 895.459 70.2127C895.681 70.4544 895.952 70.6457 896.255 70.7734C896.558 70.9012 896.885 70.9624 897.214 70.953Z" fill="#1E1B1B"/>
<path d="M913.357 71.8689C912.289 72.7395 910.951 73.2153 909.57 73.2153C908.19 73.2153 906.851 72.7395 905.784 71.8689C904.868 70.9183 904.357 69.6531 904.357 68.337C904.357 67.0209 904.868 65.7556 905.784 64.8051C906.852 63.9368 908.19 63.4624 909.57 63.4624C910.951 63.4624 912.288 63.9368 913.357 64.8051C914.272 65.7535 914.783 67.0167 914.783 68.3307C914.783 69.6447 914.272 70.9079 913.357 71.8563V71.8689ZM907.765 70.2127C908.007 70.4415 908.293 70.6204 908.605 70.7388C908.917 70.8573 909.249 70.913 909.583 70.9028C909.915 70.9113 910.245 70.8548 910.555 70.7364C910.864 70.618 911.147 70.44 911.388 70.2127C911.828 69.6978 912.07 69.0441 912.07 68.3684C912.07 67.6926 911.828 67.0389 911.388 66.524C911.147 66.2967 910.864 66.1188 910.555 66.0004C910.245 65.8819 909.915 65.8254 909.583 65.8339C909.249 65.8237 908.917 65.8795 908.605 65.9979C908.293 66.1164 908.007 66.2952 907.765 66.524C907.325 67.0389 907.084 67.6926 907.084 68.3684C907.084 69.0441 907.325 69.6978 907.765 70.2127Z" fill="#1E1B1B"/>
<path d="M919.34 61.6436C919.006 61.9339 918.578 62.0939 918.134 62.0939C917.691 62.0939 917.263 61.9339 916.929 61.6436C916.778 61.5017 916.657 61.3306 916.575 61.1407C916.492 60.9508 916.45 60.7463 916.45 60.5395C916.45 60.3327 916.492 60.1281 916.575 59.9383C916.657 59.7484 916.778 59.5773 916.929 59.4354C917.266 59.1523 917.693 58.9971 918.134 58.9971C918.576 58.9971 919.003 59.1523 919.34 59.4354C919.491 59.5773 919.612 59.7484 919.694 59.9383C919.776 60.1281 919.819 60.3327 919.819 60.5395C919.819 60.7463 919.776 60.9508 919.694 61.1407C919.612 61.3306 919.491 61.5017 919.34 61.6436ZM919.605 73.2116C918.855 73.2482 918.113 73.0364 917.497 72.6094C917.244 72.4173 917.041 72.168 916.905 71.882C916.769 71.5961 916.703 71.2819 916.714 70.9658V64.1404C916.708 64.0911 916.714 64.0412 916.73 63.9942C916.746 63.9473 916.773 63.9047 916.808 63.8696C916.843 63.8345 916.886 63.8079 916.933 63.7918C916.981 63.7756 917.031 63.7704 917.08 63.7765H919.201C919.441 63.7765 919.554 63.902 919.554 64.1404V70.0624C919.554 70.5392 919.769 70.7776 920.198 70.7776C920.389 70.7844 920.581 70.7633 920.766 70.7148C921.018 70.7148 921.157 70.7901 921.17 71.0159L921.359 72.5843C921.368 72.63 921.367 72.6771 921.357 72.7225C921.346 72.7679 921.326 72.8104 921.297 72.8473C921.268 72.8841 921.232 72.9144 921.19 72.9362C921.149 72.9579 921.103 72.9705 921.056 72.9732C920.588 73.1266 920.098 73.207 919.605 73.2116Z" fill="#1E1B1B"/>
<path d="M929.16 63.4754C929.822 63.4493 930.483 63.5559 931.103 63.7886C931.723 64.0214 932.29 64.3757 932.77 64.8304C933.662 65.7826 934.159 67.0357 934.159 68.3372C934.159 69.6387 933.662 70.8918 932.77 71.844C932.292 72.3027 931.726 72.6604 931.106 72.8955C930.485 73.1306 929.823 73.2381 929.16 73.2115C928.215 73.2324 927.289 72.9461 926.522 72.396V76.9254C926.522 77.1637 926.396 77.2767 926.156 77.2767H924.035C923.987 77.2857 923.937 77.2828 923.89 77.2683C923.843 77.2538 923.8 77.2282 923.766 77.1936C923.731 77.159 923.705 77.1165 923.69 77.0697C923.676 77.023 923.673 76.9735 923.682 76.9254V66.6371C923.697 66.5365 923.688 66.4338 923.656 66.3372C923.624 66.2407 923.569 66.1529 923.497 66.081C923.424 66.0091 923.336 65.955 923.239 65.923C923.142 65.891 923.039 65.8821 922.937 65.8969H922.521C922.243 65.8969 922.104 65.7965 922.104 65.5957V64.1152C922.098 64.0236 922.123 63.9325 922.176 63.8572C922.229 63.7819 922.306 63.7268 922.395 63.7012C922.831 63.5434 923.293 63.4669 923.758 63.4754C924.221 63.4346 924.686 63.5322 925.093 63.7558C925.5 63.9793 925.83 64.3185 926.042 64.73C926.449 64.3212 926.935 63.9991 927.471 63.7834C928.007 63.5676 928.582 63.4628 929.16 63.4754ZM927.191 70.2129C927.416 70.4467 927.686 70.6328 927.986 70.7599C928.285 70.887 928.607 70.9525 928.933 70.9525C929.258 70.9525 929.58 70.887 929.88 70.7599C930.179 70.6328 930.449 70.4467 930.675 70.2129C931.149 69.6873 931.398 68.9986 931.369 68.2933C931.402 67.5873 931.152 66.8971 930.675 66.3736C930.449 66.1398 930.179 65.9538 929.88 65.8266C929.58 65.6995 929.258 65.634 928.933 65.634C928.607 65.634 928.285 65.6995 927.986 65.8266C927.686 65.9538 927.416 66.1398 927.191 66.3736C926.732 66.9063 926.493 67.5923 926.522 68.2933C926.496 68.9937 926.735 69.6783 927.191 70.2129Z" fill="#1E1B1B"/>
<path d="M940.115 73.2116C938.982 73.2579 937.859 72.9884 936.872 72.4337C936.476 72.1965 936.138 71.8738 935.885 71.4893C935.631 71.1049 935.468 70.6686 935.407 70.2129C935.407 69.962 935.496 69.8365 935.774 69.8365H937.629C937.717 69.84 937.803 69.8675 937.876 69.9162C937.95 69.9649 938.008 70.0329 938.045 70.1126C938.311 70.7901 939.005 71.1288 940.115 71.1288C940.503 71.1464 940.889 71.0689 941.239 70.903C941.36 70.8488 941.463 70.7629 941.539 70.6546C941.615 70.5464 941.659 70.4197 941.668 70.2882C941.668 69.962 941.466 69.7362 941.062 69.5856C940.583 69.4271 940.088 69.3219 939.585 69.2719C938.99 69.205 938.4 69.1002 937.818 68.9583C937.253 68.831 936.738 68.5382 936.341 68.1176C936.108 67.8318 935.936 67.5012 935.836 67.1465C935.737 66.7918 935.711 66.4205 935.762 66.0556C935.813 65.6908 935.939 65.3403 936.132 65.026C936.325 64.7116 936.581 64.44 936.884 64.2282C937.794 63.6521 938.861 63.3715 939.939 63.4252C940.982 63.3901 942.014 63.6466 942.918 64.1654C943.282 64.3705 943.595 64.6537 943.836 64.9945C944.076 65.3352 944.236 65.725 944.306 66.1353C944.306 66.3862 944.192 66.5117 943.965 66.5117H942.097C942.018 66.5163 941.94 66.4972 941.873 66.4569C941.805 66.4166 941.751 66.357 941.718 66.2858C941.594 65.9887 941.359 65.7506 941.062 65.6209C940.728 65.4469 940.354 65.3605 939.977 65.3699C939.607 65.3499 939.238 65.4233 938.904 65.5832C938.786 65.6283 938.685 65.7074 938.613 65.8103C938.541 65.9131 938.501 66.0351 938.5 66.1604C938.508 66.3319 938.571 66.4964 938.68 66.6297C938.789 66.7629 938.938 66.8579 939.106 66.9006C939.59 67.0822 940.094 67.2085 940.608 67.277C941.198 67.3542 941.784 67.4631 942.362 67.6032C942.928 67.7305 943.442 68.0233 943.839 68.4439C944.051 68.6755 944.215 68.9467 944.321 69.2418C944.427 69.5368 944.474 69.8498 944.457 70.1627C944.468 70.5965 944.366 71.0256 944.16 71.4082C943.954 71.7908 943.652 72.1139 943.284 72.3459C942.34 72.9476 941.235 73.2496 940.115 73.2116Z" fill="#1E1B1B"/>
<path d="M957.799 72.5841C957.806 72.6287 957.804 72.6742 957.793 72.718C957.783 72.7618 957.763 72.8031 957.736 72.8393C957.709 72.8755 957.675 72.906 957.636 72.929C957.597 72.952 957.554 72.9669 957.509 72.9731C957.048 73.1226 956.567 73.203 956.082 73.2114C955.603 73.2608 955.118 73.1863 954.676 72.9951C954.234 72.8038 953.849 72.5024 953.558 72.1199C952.666 72.8819 951.514 73.2728 950.339 73.2114C949.794 73.2364 949.25 73.1477 948.741 72.9511C948.232 72.7545 947.771 72.4542 947.386 72.0697C947.004 71.6668 946.707 71.1913 946.514 70.6717C946.321 70.1521 946.235 69.5992 946.262 69.046V64.1402C946.262 63.9018 946.376 63.7764 946.616 63.7764H948.736C948.976 63.7764 949.09 63.9018 949.09 64.1402V68.6696C949.067 69.2339 949.261 69.7857 949.633 70.2128C949.818 70.4085 950.044 70.5623 950.294 70.664C950.544 70.7658 950.814 70.813 951.084 70.8025C951.361 70.8145 951.637 70.7719 951.897 70.6772C952.157 70.5824 952.395 70.4374 952.599 70.2504C952.791 70.0534 952.941 69.8193 953.038 69.5624C953.136 69.3056 953.18 69.0316 953.167 68.7574V64.1402C953.167 63.9018 953.28 63.7764 953.52 63.7764H955.666C955.906 63.7764 956.019 63.9018 956.019 64.1402V70.0497C956.019 70.539 956.234 70.7774 956.65 70.7774C956.846 70.7849 957.041 70.7638 957.231 70.7147C957.279 70.7014 957.329 70.699 957.377 70.7077C957.426 70.7164 957.472 70.736 957.513 70.7649C957.553 70.7939 957.586 70.8315 957.609 70.875C957.632 70.9184 957.645 70.9666 957.647 71.0158L957.799 72.5841Z" fill="#1E1B1B"/>
<path d="M977.855 72.5842C977.866 72.6292 977.867 72.676 977.858 72.7214C977.849 72.7668 977.83 72.8096 977.802 72.8468C977.774 72.884 977.739 72.9146 977.698 72.9365C977.657 72.9583 977.611 72.9708 977.565 72.9732C977.096 73.1248 976.606 73.2052 976.113 73.2116C975.363 73.2501 974.621 73.0381 974.005 72.6093C973.739 72.4257 973.523 72.1796 973.375 71.8929C973.228 71.6062 973.154 71.2877 973.16 70.9657V68.0173C973.186 67.4546 972.997 66.903 972.629 66.474C972.452 66.2779 972.234 66.1233 971.989 66.0213C971.745 65.9194 971.481 65.8726 971.216 65.8843C970.977 65.8754 970.739 65.9204 970.521 66.016C970.302 66.1117 970.108 66.2554 969.954 66.4364C969.62 66.8568 969.45 67.3822 969.474 67.9169V72.5466C969.474 72.785 969.36 72.9104 969.121 72.9104H966.987C966.938 72.9166 966.888 72.9113 966.84 72.8952C966.793 72.8791 966.75 72.8525 966.715 72.8174C966.68 72.7823 966.653 72.7397 966.637 72.6927C966.62 72.6458 966.615 72.5958 966.621 72.5466V68.0173C966.649 67.4608 966.474 66.913 966.129 66.474C965.975 66.2896 965.782 66.1412 965.564 66.0392C965.346 65.9373 965.108 65.8844 964.867 65.8843C964.609 65.874 964.353 65.9178 964.113 66.013C963.874 66.1081 963.658 66.2524 963.479 66.4364C963.118 66.8434 962.932 67.375 962.961 67.9169V72.5466C962.967 72.5958 962.962 72.6458 962.946 72.6927C962.929 72.7397 962.903 72.7823 962.867 72.8174C962.832 72.8525 962.789 72.8791 962.742 72.8952C962.695 72.9113 962.645 72.9166 962.595 72.9104H960.538C960.298 72.9104 960.184 72.785 960.184 72.5466V66.6371C960.199 66.5365 960.19 66.4338 960.158 66.3373C960.126 66.2407 960.071 66.153 959.999 66.081C959.927 66.0091 959.838 65.955 959.741 65.923C959.644 65.8911 959.541 65.8821 959.44 65.8969H959.023C958.745 65.8969 958.606 65.7965 958.606 65.5958V64.1152C958.6 64.0236 958.625 63.9326 958.678 63.8572C958.731 63.7819 958.808 63.7268 958.897 63.7012C959.333 63.5434 959.795 63.4669 960.26 63.4754C960.706 63.4376 961.153 63.526 961.551 63.7302C961.948 63.9344 962.28 64.2463 962.507 64.6297C962.932 64.2285 963.437 63.9189 963.989 63.7203C964.54 63.5217 965.127 63.4383 965.713 63.4754C966.281 63.4478 966.849 63.5538 967.368 63.7849C967.888 64.016 968.346 64.3655 968.704 64.8053C969.122 64.354 969.635 64.0006 970.207 63.7706C970.779 63.5406 971.395 63.4398 972.011 63.4754C972.562 63.4497 973.112 63.538 973.627 63.7345C974.142 63.931 974.61 64.2316 975.002 64.6171C975.386 65.0192 975.683 65.4946 975.876 66.0144C976.069 66.5341 976.154 67.0875 976.126 67.6409V70.0624C976.126 70.5391 976.34 70.7775 976.744 70.7775C976.94 70.7866 977.136 70.7654 977.325 70.7148C977.586 70.7148 977.724 70.8152 977.741 71.0159L977.855 72.5842Z" fill="#1E1B1B"/>
<path d="M829.851 62.1456C830.782 58.4251 832.939 55.1212 835.977 52.7601C839.016 50.3989 842.762 49.1162 846.619 49.1162C850.476 49.1162 854.222 50.3989 857.261 52.7601C860.299 55.1212 862.456 58.4251 863.387 62.1456H861.872C859.317 62.1082 856.815 62.8672 854.716 64.3161C854.595 64.4033 854.468 64.4829 854.337 64.5545H854.161C854.029 64.4829 853.903 64.4033 853.782 64.3161C851.664 62.9008 849.171 62.1448 846.619 62.1448C844.067 62.1448 841.573 62.9008 839.456 64.3161C839.335 64.4033 839.208 64.4829 839.077 64.5545H838.901C838.77 64.4829 838.643 64.4033 838.522 64.3161C836.423 62.8672 833.92 62.1082 831.365 62.1456H829.851ZM859.146 70.0123C859.924 69.4104 860.887 69.0955 861.872 69.1215H863.905V65.094H861.872C860.137 65.0732 858.442 65.6101 857.038 66.6247C856.249 67.2035 855.293 67.5157 854.312 67.5157C853.331 67.5157 852.375 67.2035 851.586 66.6247C850.147 65.629 848.435 65.0952 846.682 65.0952C844.929 65.0952 843.217 65.629 841.778 66.6247C840.989 67.2035 840.033 67.5157 839.052 67.5157C838.071 67.5157 837.116 67.2035 836.326 66.6247C834.905 65.5971 833.185 65.0595 831.428 65.094H829.333V69.1215H831.365C832.351 69.0955 833.314 69.4104 834.092 70.0123C835.528 71.0087 837.237 71.543 838.989 71.543C840.741 71.543 842.45 71.0087 843.886 70.0123C844.665 69.4123 845.628 69.0976 846.613 69.1215C847.598 69.0934 848.562 69.4085 849.339 70.0123C850.778 71.0081 852.489 71.5418 854.243 71.5418C855.996 71.5418 857.707 71.0081 859.146 70.0123ZM859.146 77.2141C859.924 76.6122 860.887 76.2973 861.872 76.3233H863.905V72.2958H861.872C860.137 72.2749 858.442 72.8118 857.038 73.8265C856.249 74.4053 855.293 74.7175 854.312 74.7175C853.331 74.7175 852.375 74.4053 851.586 73.8265C850.147 72.8308 848.435 72.297 846.682 72.297C844.929 72.297 843.217 72.8308 841.778 73.8265C840.989 74.4053 840.033 74.7175 839.052 74.7175C838.071 74.7175 837.116 74.4053 836.326 73.8265C834.905 72.7989 833.185 72.2613 831.428 72.2958H829.333V76.3233H831.365C832.351 76.2973 833.314 76.6122 834.092 77.2141C835.528 78.2105 837.237 78.7448 838.989 78.7448C840.741 78.7448 842.45 78.2105 843.886 77.2141C844.665 76.614 845.628 76.2994 846.613 76.3233C847.598 76.2952 848.562 76.6103 849.339 77.2141C850.778 78.2099 852.489 78.7436 854.243 78.7436C855.996 78.7436 857.707 78.2099 859.146 77.2141Z" fill="#1E1B1B"/>
<path d="M333.197 54.0291H337.004V72.5076H333.197V54.0291Z" fill="#1E1B1B"/>
<path d="M339.136 66.1774C339.136 64.848 339.527 63.5484 340.261 62.4436C340.995 61.3387 342.038 60.4782 343.257 59.9712C344.477 59.4642 345.818 59.3335 347.112 59.5957C348.405 59.8579 349.592 60.5011 350.522 61.4439C351.452 62.3866 352.084 63.5865 352.336 64.8913C352.589 66.1962 352.452 67.5473 351.942 68.7733C351.432 69.9994 350.572 71.0453 349.471 71.7783C348.371 72.5114 347.079 72.8987 345.76 72.8911C344.885 72.898 344.017 72.7288 343.208 72.3933C342.399 72.0579 341.664 71.563 341.047 70.9377C340.43 70.3124 339.943 69.5692 339.615 68.7518C339.287 67.9344 339.124 67.0592 339.136 66.1774ZM348.678 66.1774C348.663 65.6043 348.481 65.0483 348.154 64.579C347.827 64.1097 347.37 63.748 346.841 63.539C346.311 63.3301 345.731 63.2832 345.175 63.4042C344.619 63.5252 344.111 63.8088 343.714 64.2194C343.317 64.6301 343.049 65.1496 342.943 65.713C342.837 66.2764 342.899 66.8586 343.12 67.3869C343.341 67.9152 343.712 68.3662 344.186 68.6833C344.66 69.0004 345.216 69.1696 345.785 69.1698C346.172 69.1774 346.557 69.1044 346.915 68.9554C347.273 68.8064 347.597 68.5845 347.866 68.3036C348.135 68.0228 348.344 67.689 348.48 67.3232C348.615 66.9573 348.674 66.5673 348.653 66.1774H348.678Z" fill="#1E1B1B"/>
<path d="M367.447 59.8477V71.8811C367.447 76.1267 364.147 77.9298 360.81 77.9298C359.633 78.0272 358.452 77.7915 357.4 77.2492C356.349 76.707 355.469 75.8798 354.858 74.8607L358.069 72.9936C358.329 73.5222 358.743 73.9584 359.255 74.244C359.768 74.5295 360.354 74.651 360.937 74.5921C361.308 74.6382 361.685 74.6011 362.04 74.4834C362.395 74.3657 362.72 74.1703 362.992 73.9113C363.263 73.6523 363.475 73.336 363.611 72.985C363.747 72.634 363.805 72.2571 363.779 71.8811V70.7174C363.336 71.2587 362.774 71.6884 362.138 71.9726C361.501 72.2567 360.807 72.3874 360.112 72.3543C358.429 72.3543 356.815 71.6806 355.625 70.4815C354.436 69.2824 353.767 67.6561 353.767 65.9603C353.767 64.2645 354.436 62.6382 355.625 61.4391C356.815 60.24 358.429 59.5663 360.112 59.5663C360.807 59.5332 361.501 59.6639 362.138 59.948C362.774 60.2321 363.336 60.6619 363.779 61.2032V59.9244L367.447 59.8477ZM363.779 65.9219C363.805 65.3101 363.648 64.7046 363.329 64.1834C363.01 63.6621 362.544 63.2489 361.99 62.9969C361.436 62.7449 360.82 62.6656 360.221 62.7692C359.622 62.8727 359.068 63.1545 358.629 63.5782C358.19 64.0019 357.888 64.5481 357.759 65.1467C357.631 65.7453 357.684 66.3688 357.91 66.9371C358.136 67.5054 358.526 67.9925 359.029 68.3357C359.533 68.6789 360.126 68.8626 360.734 68.8631C361.13 68.8919 361.528 68.8366 361.902 68.7007C362.276 68.5648 362.618 68.3514 362.905 68.0742C363.192 67.797 363.418 67.4622 363.569 67.0915C363.719 66.7208 363.791 66.3223 363.779 65.9219Z" fill="#1E1B1B"/>
<path d="M369.591 66.1775C369.591 64.8491 369.982 63.5506 370.715 62.4463C371.447 61.342 372.489 60.4815 373.707 59.9737C374.925 59.4659 376.265 59.3337 377.558 59.5938C378.85 59.8539 380.037 60.4946 380.968 61.4348C381.9 62.375 382.533 63.5724 382.789 64.8756C383.044 66.1788 382.911 67.5291 382.404 68.7556C381.898 69.9822 381.042 71.0298 379.945 71.766C378.848 72.5021 377.559 72.8937 376.24 72.8912C375.364 72.8998 374.494 72.7319 373.683 72.3974C372.871 72.0628 372.134 71.5684 371.515 70.9431C370.896 70.3178 370.407 69.5742 370.076 68.7559C369.746 67.9375 369.581 67.0609 369.591 66.1775ZM379.134 66.1775C379.119 65.6038 378.936 65.0474 378.609 64.5778C378.281 64.1083 377.823 63.7466 377.293 63.538C376.762 63.3294 376.183 63.2833 375.626 63.4053C375.07 63.5274 374.561 63.8122 374.165 64.2241C373.768 64.6361 373.501 65.1567 373.397 65.721C373.293 66.2852 373.356 66.8678 373.579 67.3959C373.802 67.924 374.175 68.374 374.651 68.6896C375.126 69.0051 375.684 69.1722 376.253 69.1699C376.641 69.1775 377.025 69.1045 377.383 68.9555C377.741 68.8065 378.065 68.5846 378.334 68.3037C378.604 68.0229 378.812 67.6891 378.948 67.3233C379.083 66.9574 379.142 66.5674 379.121 66.1775H379.134Z" fill="#1E1B1B"/>
<path d="M384.654 56.4586C384.654 56.0084 384.786 55.5683 385.034 55.194C385.283 54.8197 385.635 54.5279 386.048 54.3556C386.461 54.1834 386.915 54.1383 387.353 54.2261C387.791 54.3139 388.194 54.5307 388.51 54.8491C388.826 55.1674 389.041 55.573 389.128 56.0146C389.215 56.4561 389.17 56.9138 388.999 57.3297C388.828 57.7456 388.539 58.1011 388.167 58.3513C387.796 58.6014 387.359 58.7349 386.913 58.7349C386.316 58.7282 385.745 58.4863 385.323 58.0608C384.9 57.6354 384.66 57.0603 384.654 56.4586ZM385.022 59.8474H388.829V72.5075H385.022V59.8474Z" fill="#1E1B1B"/>
<path d="M405.122 66.1777C405.165 67.0196 405.042 67.8618 404.761 68.6557C404.479 69.4495 404.044 70.1795 403.482 70.8035C402.919 71.4274 402.24 71.9331 401.483 72.2915C400.725 72.6498 399.905 72.8536 399.069 72.8913C398.36 72.9389 397.65 72.8244 396.99 72.5565C396.331 72.2886 395.741 71.8741 395.262 71.344V77.5973H391.456V59.8476H395.262V61.0369C395.741 60.5084 396.332 60.0958 396.991 59.8301C397.651 59.5643 398.361 59.4523 399.069 59.5024C399.902 59.5401 400.719 59.7428 401.473 60.0987C402.228 60.4546 402.906 60.9568 403.468 61.5767C404.03 62.1965 404.465 62.9219 404.749 63.7113C405.033 64.5008 405.16 65.3388 405.122 66.1777ZM401.316 66.1777C401.301 65.5837 401.112 65.0075 400.773 64.5211C400.435 64.0347 399.961 63.6599 399.412 63.4436C398.863 63.2273 398.263 63.1791 397.687 63.3051C397.11 63.4311 396.584 63.7257 396.173 64.1519C395.762 64.5782 395.486 65.1171 395.378 65.7012C395.27 66.2852 395.335 66.8884 395.566 67.4352C395.796 67.982 396.182 68.448 396.674 68.7748C397.167 69.1016 397.744 69.2747 398.333 69.2723C398.737 69.2896 399.14 69.2207 399.516 69.07C399.891 68.9194 400.231 68.6905 400.512 68.3982C400.794 68.106 401.011 67.7572 401.15 67.3745C401.288 66.9918 401.344 66.5839 401.316 66.1777Z" fill="#1E1B1B"/>
<path d="M416.708 68.7097C416.708 71.6253 414.17 72.8658 411.48 72.8658C410.383 72.9653 409.281 72.7309 408.317 72.1929C407.354 71.6549 406.572 70.838 406.074 69.8478L409.348 67.9808C409.478 68.4371 409.759 68.8347 410.145 69.107C410.531 69.3794 410.997 69.51 411.467 69.477C412.368 69.477 412.825 69.1956 412.825 68.6841C412.825 67.2902 406.645 68.0319 406.645 63.6457C406.645 60.8835 408.955 59.5024 411.569 59.5024C412.563 59.4575 413.55 59.6847 414.426 60.1598C415.301 60.6349 416.033 61.3401 416.543 62.2006L413.269 63.9398C413.125 63.6099 412.888 63.3293 412.589 63.1318C412.289 62.9344 411.939 62.8286 411.582 62.8272C410.922 62.8272 410.528 63.083 410.528 63.5306C410.528 64.9884 416.708 64.0293 416.708 68.7097Z" fill="#1E1B1B"/>
<path d="M430.502 59.8477V72.5077H426.695V71.3184C426.263 71.8449 425.713 72.2615 425.092 72.5347C424.47 72.8079 423.794 72.9301 423.117 72.8913C420.579 72.8913 418.409 71.0627 418.409 67.6483V59.8477H422.216V67.0728C422.186 67.3749 422.221 67.6799 422.32 67.9668C422.418 68.2537 422.577 68.5156 422.786 68.7345C422.995 68.9533 423.248 69.1239 423.529 69.2345C423.809 69.345 424.11 69.3928 424.411 69.3747C425.781 69.3747 426.746 68.5562 426.746 66.8171V59.8477H430.502Z" fill="#1E1B1B"/>
<path d="M452.074 64.7325V72.5076H448.267V65.065C448.267 63.7862 447.671 62.9934 446.465 62.9934C445.26 62.9934 444.498 63.8757 444.498 65.3719V72.5076H440.692V65.065C440.692 63.7862 440.095 62.9934 438.89 62.9934C437.684 62.9934 436.923 63.8757 436.923 65.3719V72.5076H433.116V59.8475H436.923V61.0112C437.317 60.4971 437.832 60.09 438.421 59.8265C439.01 59.5631 439.655 59.4517 440.298 59.5023C440.942 59.4684 441.583 59.6039 442.16 59.8953C442.736 60.1868 443.227 60.6242 443.585 61.1647C444.003 60.6 444.556 60.1514 445.193 59.8607C445.83 59.57 446.53 59.4466 447.227 59.5023C450.196 59.5023 452.074 61.5739 452.074 64.7325Z" fill="#1E1B1B"/>
<path d="M310.52 50.7042V45.2693H293.516V82.6101H310.52V77.1752C307.037 77.1752 303.696 75.7807 301.233 73.2986C298.77 70.8165 297.386 67.4499 297.386 63.9397C297.386 60.4294 298.77 57.0629 301.233 54.5808C303.696 52.0986 307.037 50.7042 310.52 50.7042Z" fill="#1E1B1B"/>
<path d="M310.52 50.7041V77.1751C314.004 77.1751 317.344 75.7807 319.807 73.2985C322.27 70.8164 323.654 67.4499 323.654 63.9396C323.654 60.4293 322.27 57.0628 319.807 54.5807C317.344 52.0986 314.004 50.7041 310.52 50.7041Z" fill="#1E1B1B"/>
<path d="M455.272 59.7707C456.814 59.7707 458.064 58.5112 458.064 56.9574C458.064 55.4036 456.814 54.144 455.272 54.144C453.731 54.144 452.481 55.4036 452.481 56.9574C452.481 58.5112 453.731 59.7707 455.272 59.7707Z" fill="#1E1B1B"/>
<path d="M52.2793 62.4792C51.801 62.9622 51.4347 63.5451 51.2065 64.1864C50.9783 64.8277 50.8938 65.5117 50.9591 66.1895L50.9364 66.1667C51.0035 66.9645 50.8963 67.7675 50.6223 68.5194C50.3482 69.2714 49.914 69.9543 49.3499 70.5205C48.7857 71.0867 48.1052 71.5225 47.3559 71.7975C46.6066 72.0725 45.8066 72.18 45.0116 72.1127L45.0343 72.1355C44.0833 72.0467 43.1282 72.2544 42.2991 72.7303C41.4701 73.2061 40.8075 73.9271 40.4016 74.7947C39.9958 75.6624 39.8665 76.6346 40.0314 77.5787C40.1962 78.5228 40.6472 79.3929 41.3229 80.0704C41.9985 80.7479 42.8659 81.1997 43.8068 81.3643C44.7477 81.5289 45.7163 81.3983 46.5805 80.9902C47.4447 80.5821 48.1625 79.9165 48.6359 79.084C49.1094 78.2515 49.3154 77.2928 49.2261 76.3385L49.2501 76.3613C49.183 75.5635 49.2901 74.7605 49.5642 74.0085C49.8382 73.2566 50.2724 72.5736 50.8366 72.0075C51.4007 71.4413 52.0812 71.0055 52.8305 70.7305C53.5798 70.4555 54.3798 70.3479 55.1748 70.4153L55.1509 70.3925C55.9277 70.4626 56.7096 70.3348 57.4241 70.0209C58.1386 69.707 58.7625 69.2171 59.2382 68.5968C59.7138 67.9764 60.0257 67.2456 60.145 66.472C60.2642 65.6985 60.187 64.9072 59.9204 64.1716C59.6538 63.436 59.2065 62.7798 58.62 62.2639C58.0334 61.748 57.3266 61.389 56.5649 61.2202C55.8033 61.0514 55.0116 61.0783 54.2631 61.2984C53.5146 61.5185 52.8336 61.9247 52.2831 62.4792H52.2793Z" fill="#1E1B1B"/>
<path d="M42.9678 69.1486L42.9439 69.1258C43.6196 69.1941 44.3019 69.1109 44.9417 68.8822C45.5814 68.6534 46.1624 68.2848 46.6428 67.8031C47.1232 67.3213 47.4909 66.7384 47.7193 66.0966C47.9478 65.4548 48.0312 64.77 47.9636 64.0918L47.9876 64.1146C47.9205 63.3168 48.0277 62.5138 48.3017 61.7619C48.5757 61.0099 49.01 60.327 49.5741 59.7608C50.1383 59.1946 50.8188 58.7588 51.568 58.4838C52.3173 58.2088 53.1174 58.1013 53.9124 58.1686L53.8884 58.1458C54.8395 58.2354 55.7949 58.0285 56.6245 57.5531C57.454 57.0777 58.1172 56.3572 58.5236 55.4896C58.9301 54.6221 59.06 53.6498 58.8956 52.7055C58.7312 51.7611 58.2806 50.8906 57.6052 50.2127C56.9297 49.5349 56.0623 49.0826 55.1214 48.9176C54.1804 48.7527 53.2116 48.883 52.3471 49.291C51.4827 49.6989 50.7647 50.3645 50.291 51.197C49.8174 52.0295 49.6111 52.9883 49.7004 53.9428L49.6777 53.9187C49.7451 54.7166 49.638 55.5197 49.3641 56.2717C49.0901 57.0238 48.6559 57.7068 48.0917 58.2731C47.5275 58.8393 46.8469 59.2751 46.0975 59.55C45.3481 59.8249 44.548 59.9323 43.7529 59.8648L43.7757 59.8888C43.1 59.8205 42.4176 59.9037 41.7779 60.1325C41.1381 60.3613 40.5571 60.7298 40.0767 61.2116C39.5963 61.6933 39.2286 62.2762 39.0002 62.918C38.7717 63.5599 38.6883 64.2446 38.7559 64.9228L38.7332 64.9C38.8 65.6978 38.6927 66.5006 38.4186 67.2525C38.1445 68.0044 37.7103 68.6872 37.1462 69.2534C36.5821 69.8195 35.9017 70.2553 35.1525 70.5304C34.4033 70.8054 33.6033 70.9132 32.8084 70.846L32.8311 70.8688C31.88 70.7792 30.9246 70.9862 30.0951 71.4615C29.2655 71.9369 28.6023 72.6575 28.1959 73.525C27.7894 74.3926 27.6595 75.3648 27.8239 76.3092C27.9883 77.2535 28.4389 78.124 29.1144 78.8019C29.7898 79.4798 30.6572 79.932 31.5982 80.097C32.5392 80.262 33.5079 80.1316 34.3724 79.7237C35.2368 79.3158 35.9548 78.6502 36.4285 77.8177C36.9022 76.9852 37.1084 76.0263 37.0191 75.0719L37.0431 75.0947C36.976 74.2968 37.0831 73.4939 37.3572 72.7419C37.6312 71.9899 38.0654 71.307 38.6296 70.7408C39.1937 70.1746 39.8742 69.7389 40.6235 69.4639C41.3728 69.1889 42.1728 69.0813 42.9678 69.1486Z" fill="#1E1B1B"/>
<path d="M34.5087 66.6063C34.9871 66.1234 35.3534 65.5405 35.5814 64.8991C35.8094 64.2578 35.8935 63.5738 35.8277 62.896L35.8517 62.9188C35.7846 62.1208 35.8918 61.3176 36.166 60.5654C36.4401 59.8132 36.8746 59.1302 37.439 58.564C38.0035 57.9977 38.6843 57.562 39.4339 57.2872C40.1835 57.0124 40.9838 56.9051 41.779 56.9728L41.7551 56.95C42.7058 57.0394 43.6608 56.8323 44.49 56.357C45.3191 55.8817 45.982 55.1612 46.3882 54.294C46.7944 53.4267 46.9242 52.4548 46.7598 51.5108C46.5954 50.5668 46.1449 49.6966 45.4697 49.019C44.7945 48.3414 43.9275 47.8893 42.9868 47.7243C42.0462 47.5594 41.0778 47.6896 40.2136 48.0973C39.3494 48.5049 38.6316 49.1702 38.158 50.0023C37.6843 50.8344 37.478 51.7929 37.5671 52.747L37.5443 52.7242C37.6114 53.522 37.5043 54.325 37.2302 55.077C36.9562 55.829 36.522 56.5119 35.9578 57.078C35.3937 57.6442 34.7132 58.08 33.9639 58.355C33.2146 58.63 32.4146 58.7376 31.6196 58.6702L31.6423 58.693C30.8655 58.6231 30.0837 58.7511 29.3693 59.0652C28.6549 59.3792 28.0311 59.8691 27.5556 60.4896C27.0801 61.11 26.7683 61.8408 26.6492 62.6144C26.5301 63.3879 26.6075 64.1791 26.8741 64.9146C27.1408 65.6501 27.5882 66.3062 28.1747 66.8221C28.7613 67.3379 29.4682 67.6968 30.2297 67.8655C30.9913 68.0342 31.783 68.0072 32.5315 67.7871C33.2799 67.567 33.9609 67.1608 34.5113 66.6063H34.5087Z" fill="#1E1B1B"/>
<path d="M73.6078 53.9719H77.3565V72.28H73.6078V53.9719Z" fill="#1E1B1B"/>
<path d="M79.4797 66.0108C79.4744 64.6951 79.8584 63.4075 80.5829 62.3109C81.3074 61.2144 82.3399 60.3584 83.5496 59.8513C84.7593 59.3441 86.0917 59.2087 87.3782 59.4621C88.6646 59.7156 89.8472 60.3465 90.776 61.275C91.7049 62.2034 92.3383 63.3877 92.596 64.6777C92.8537 65.9677 92.7241 67.3055 92.2236 68.5215C91.7231 69.7376 90.8743 70.7772 89.7846 71.5087C88.6949 72.2402 87.4134 72.6307 86.1025 72.6307C85.2322 72.6407 84.3687 72.4764 83.5625 72.1476C82.7562 71.8188 82.0234 71.332 81.4067 70.7156C80.7901 70.0993 80.3021 69.3657 79.9712 68.5579C79.6403 67.7501 79.4732 66.8842 79.4797 66.0108ZM88.9765 66.0108C88.9609 65.4437 88.779 64.8938 88.4536 64.4298C88.1283 63.9659 87.6739 63.6085 87.1473 63.4023C86.6206 63.1961 86.0451 63.1503 85.4926 63.2706C84.9402 63.3909 84.4353 63.6719 84.0412 64.0786C83.647 64.4853 83.3811 64.9996 83.2765 65.5571C83.172 66.1147 83.2336 66.6908 83.4536 67.2134C83.6735 67.736 84.0421 68.182 84.5133 68.4955C84.9844 68.809 85.5372 68.9762 86.1025 68.9762C86.4896 68.9866 86.8747 68.9163 87.2334 68.7699C87.5922 68.6235 87.9168 68.404 88.1868 68.1254C88.4569 67.8468 88.6664 67.5151 88.8024 67.1511C88.9383 66.7872 88.9976 66.3989 88.9765 66.0108Z" fill="#1E1B1B"/>
<path d="M107.666 59.7406V71.6479C107.666 75.861 104.392 77.642 101.068 77.642C99.8983 77.7299 98.7266 77.4927 97.6819 76.9565C96.6373 76.4202 95.7599 75.6055 95.1461 74.6019L98.3446 72.7461C98.6026 73.2693 99.0136 73.7009 99.5227 73.9832C100.032 74.2655 100.615 74.385 101.193 74.3257C101.563 74.3772 101.94 74.3445 102.295 74.2301C102.651 74.1157 102.976 73.9226 103.247 73.665C103.518 73.4074 103.728 73.0919 103.862 72.7419C103.995 72.3918 104.048 72.0162 104.017 71.6428V70.4964C103.578 71.0355 103.019 71.4637 102.385 71.7468C101.752 72.03 101.061 72.1601 100.368 72.1267C98.7192 72.0745 97.1554 71.3806 96.0076 70.1917C94.8597 69.0028 94.2179 67.4124 94.2179 65.757C94.2179 64.1015 94.8597 62.5111 96.0076 61.3222C97.1554 60.1333 98.7192 59.4394 100.368 59.3872C101.061 59.3538 101.752 59.4839 102.385 59.7671C103.019 60.0502 103.578 60.4784 104.017 61.0175V59.7381L107.666 59.7406ZM104.018 65.7589C104.043 65.1525 103.887 64.5525 103.57 64.0361C103.252 63.5196 102.788 63.1103 102.237 62.8608C101.686 62.6113 101.073 62.5331 100.477 62.6362C99.8809 62.7394 99.3294 63.0191 98.8933 63.4394C98.4571 63.8597 98.1563 64.4015 98.0295 64.9948C97.9028 65.5882 97.9558 66.206 98.1819 66.7688C98.408 67.3317 98.7967 67.8137 99.2981 68.153C99.7995 68.4922 100.391 68.6731 100.995 68.6723C101.389 68.6999 101.784 68.6444 102.156 68.5094C102.527 68.3743 102.866 68.1628 103.15 67.8883C103.435 67.6139 103.66 67.2826 103.809 66.9158C103.958 66.549 104.03 66.1549 104.018 65.7589V65.7589Z" fill="#1E1B1B"/>
<path d="M109.789 66.0108C109.784 64.6951 110.167 63.4075 110.892 62.3109C111.617 61.2144 112.649 60.3584 113.859 59.8513C115.068 59.3441 116.401 59.2087 117.687 59.4621C118.974 59.7156 120.156 60.3465 121.085 61.275C122.014 62.2034 122.647 63.3877 122.905 64.6777C123.163 65.9677 123.033 67.3055 122.533 68.5215C122.032 69.7376 121.183 70.7772 120.094 71.5087C119.004 72.2402 117.723 72.6307 116.412 72.6307C115.541 72.6407 114.678 72.4764 113.872 72.1476C113.065 71.8188 112.332 71.332 111.716 70.7156C111.099 70.0993 110.611 69.3657 110.28 68.5579C109.949 67.7501 109.782 66.8842 109.789 66.0108ZM119.286 66.0108C119.27 65.4437 119.088 64.8938 118.763 64.4298C118.437 63.9659 117.983 63.6085 117.456 63.4023C116.93 63.1961 116.354 63.1503 115.802 63.2706C115.249 63.3909 114.744 63.6719 114.35 64.0786C113.956 64.4853 113.69 64.9996 113.586 65.5571C113.481 66.1147 113.543 66.6908 113.763 67.2134C113.983 67.736 114.351 68.182 114.822 68.4955C115.293 68.809 115.846 68.9762 116.412 68.9762C116.799 68.9866 117.184 68.9163 117.543 68.7699C117.901 68.6235 118.226 68.404 118.496 68.1254C118.766 67.8468 118.976 67.5151 119.111 67.1511C119.247 66.7872 119.307 66.3989 119.286 66.0108Z" fill="#1E1B1B"/>
<path d="M124.783 56.3799C124.783 55.9334 124.915 55.497 125.162 55.1258C125.409 54.7546 125.76 54.4652 126.171 54.2944C126.582 54.1235 127.034 54.0788 127.471 54.1659C127.907 54.253 128.308 54.468 128.622 54.7837C128.937 55.0994 129.151 55.5016 129.238 55.9395C129.325 56.3774 129.28 56.8312 129.11 57.2437C128.94 57.6562 128.651 58.0087 128.282 58.2568C127.912 58.5048 127.477 58.6372 127.032 58.6372C126.437 58.6312 125.869 58.3915 125.448 57.9695C125.028 57.5474 124.789 56.9767 124.783 56.3799ZM125.161 59.7405H128.911V72.2811H125.156L125.161 59.7405Z" fill="#1E1B1B"/>
<path d="M145.098 66.0108C145.141 66.8396 145.021 67.6688 144.744 68.4507C144.467 69.2327 144.038 69.9519 143.483 70.5671C142.928 71.1824 142.257 71.6814 141.51 72.0355C140.762 72.3897 139.951 72.5919 139.125 72.6307C138.431 72.6687 137.736 72.5511 137.092 72.2865C136.449 72.0218 135.871 71.6167 135.403 71.1005V77.2961H131.654V59.7404H135.403V60.9185C135.872 60.4027 136.449 59.9979 137.093 59.7334C137.736 59.469 138.431 59.3515 139.125 59.3896C139.951 59.4281 140.762 59.6303 141.51 59.9845C142.258 60.3387 142.929 60.8378 143.484 61.4532C144.039 62.0686 144.468 62.788 144.745 63.5702C145.022 64.3524 145.142 65.1818 145.098 66.0108ZM141.349 66.0108C141.335 65.4238 141.148 64.8543 140.812 64.3734C140.477 63.8925 140.007 63.5217 139.463 63.3073C138.918 63.0928 138.322 63.0444 137.751 63.1679C137.179 63.2915 136.656 63.5816 136.247 64.0019C135.839 64.4222 135.563 64.9541 135.454 65.531C135.346 66.1079 135.409 66.7041 135.636 67.245C135.864 67.786 136.245 68.2477 136.732 68.5723C137.22 68.8969 137.792 69.07 138.377 69.0699C138.778 69.0878 139.179 69.0204 139.553 68.872C139.927 68.7235 140.265 68.4975 140.546 68.2086C140.827 67.9198 141.043 67.5746 141.182 67.1959C141.32 66.8171 141.377 66.4132 141.349 66.0108Z" fill="#1E1B1B"/>
<path d="M156.666 68.5178C156.666 71.4021 154.168 72.6308 151.469 72.6308C150.379 72.7299 149.284 72.4985 148.326 71.9665C147.368 71.4344 146.592 70.6263 146.096 69.6464L149.344 67.7907C149.475 68.2436 149.757 68.6376 150.143 68.9068C150.529 69.1761 150.996 69.3044 151.464 69.2702C152.363 69.2702 152.814 68.994 152.814 68.4937C152.814 67.113 146.665 67.8413 146.665 63.5028C146.665 60.7679 148.965 59.3897 151.564 59.3897C152.541 59.3587 153.508 59.5912 154.365 60.0631C155.222 60.535 155.937 61.229 156.436 62.0726L153.238 63.803C153.097 63.4745 152.864 63.1947 152.566 62.9985C152.269 62.8023 151.92 62.6984 151.564 62.6997C150.914 62.6997 150.514 62.953 150.514 63.4014C150.519 64.8316 156.666 63.8777 156.666 68.5178Z" fill="#1E1B1B"/>
<path d="M170.36 59.7407V72.2814H166.611V71.102C166.179 71.6224 165.629 72.0324 165.009 72.2984C164.388 72.5644 163.713 72.6788 163.039 72.6322C160.515 72.6322 158.369 70.8271 158.369 67.4386V59.7407H162.118V66.8876C162.086 67.1863 162.12 67.4882 162.217 67.7724C162.314 68.0567 162.471 68.3163 162.678 68.5333C162.885 68.7503 163.136 68.9195 163.415 69.0291C163.693 69.1386 163.992 69.1859 164.291 69.1677C165.666 69.1677 166.615 68.3659 166.615 66.5849V59.7445L170.36 59.7407Z" fill="#1E1B1B"/>
<path d="M191.855 64.5808V72.28H188.106V64.9063C188.106 63.6523 187.507 62.8504 186.308 62.8504C185.058 62.8504 184.358 63.7283 184.358 65.2078V72.28H180.61V64.9063C180.61 63.6523 180.01 62.8504 178.81 62.8504C177.561 62.8504 176.861 63.7283 176.861 65.2078V72.28H173.113V59.7393H176.861V60.892C177.25 60.3807 177.76 59.9751 178.345 59.7124C178.93 59.4498 179.571 59.3384 180.21 59.3884C180.851 59.357 181.49 59.4928 182.064 59.7827C182.637 60.0727 183.126 60.5068 183.483 61.0428C183.898 60.482 184.448 60.0362 185.082 59.7468C185.716 59.4575 186.412 59.3342 187.107 59.3884C189.976 59.3897 191.855 61.4456 191.855 64.5808Z" fill="#1E1B1B"/>
<path d="M195.026 59.6633C196.562 59.6633 197.807 58.4134 197.807 56.8715C197.807 55.3296 196.562 54.0796 195.026 54.0796C193.489 54.0796 192.244 55.3296 192.244 56.8715C192.244 58.4134 193.489 59.6633 195.026 59.6633Z" fill="#1E1B1B"/>
<path d="M608.25 57.031H612.057V72.3964H608.25V57.031ZM613.567 66.5948C613.567 62.7946 615.902 60.5272 619.506 60.5272C623.11 60.5272 625.445 62.7946 625.445 66.5948C625.445 70.395 623.16 72.6751 619.506 72.6751C615.851 72.6751 613.567 70.4583 613.567 66.5948ZM621.625 66.5948C621.625 64.5047 620.8 63.276 619.506 63.276C618.211 63.276 617.399 64.5427 617.399 66.5948C617.399 68.6469 618.199 69.8883 619.506 69.8883C620.813 69.8883 621.625 68.7229 621.625 66.6075V66.5948ZM626.879 73.1438H630.533C630.707 73.5295 631.001 73.8489 631.372 74.0543C631.742 74.2597 632.169 74.3402 632.589 74.2839C634.036 74.2839 634.797 73.4985 634.797 72.3584V70.2303H634.721C634.418 70.8826 633.925 71.4291 633.308 71.7994C632.69 72.1697 631.976 72.3468 631.257 72.3078C628.477 72.3078 626.637 70.1923 626.637 66.5568C626.637 62.9213 628.389 60.6285 631.307 60.6285C632.049 60.5995 632.782 60.7975 633.408 61.1959C634.034 61.5944 634.523 62.1743 634.81 62.858V60.7425H638.617V72.2698C638.617 75.0439 636.167 76.7667 632.551 76.7667C629.188 76.7667 627.094 75.2592 626.879 73.1565V73.1438ZM634.81 66.5821C634.81 64.7327 633.959 63.5673 632.614 63.5673C631.269 63.5673 630.444 64.7201 630.444 66.5821C630.444 68.4442 631.257 69.4956 632.614 69.4956C633.972 69.4956 634.81 68.4696 634.81 66.5948V66.5821ZM640.051 66.5821C640.051 62.782 642.385 60.5145 645.989 60.5145C649.593 60.5145 651.941 62.782 651.941 66.5821C651.941 70.3823 649.657 72.6624 645.989 72.6624C642.322 72.6624 640.051 70.4583 640.051 66.5948V66.5821ZM648.109 66.5821C648.109 64.492 647.284 63.2633 645.989 63.2633C644.695 63.2633 643.946 64.5427 643.946 66.6075C643.946 68.6723 644.746 69.901 646.04 69.901C647.334 69.901 648.109 68.7229 648.109 66.6075V66.5821ZM653.387 57.9811C653.377 57.5974 653.482 57.2194 653.687 56.895C653.893 56.5706 654.19 56.3144 654.542 56.1589C654.893 56.0034 655.283 55.9556 655.662 56.0215C656.041 56.0874 656.391 56.2641 656.669 56.5292C656.947 56.7943 657.14 57.1359 657.224 57.5106C657.307 57.8853 657.277 58.2762 657.138 58.6339C656.998 58.9915 656.755 59.2998 656.44 59.5196C656.125 59.7394 655.751 59.8608 655.367 59.8685C655.112 59.886 654.857 59.8506 654.616 59.7648C654.376 59.6789 654.155 59.5443 653.97 59.3694C653.784 59.1945 653.636 58.9832 653.536 58.7486C653.436 58.5141 653.385 58.2614 653.387 58.0064V57.9811ZM653.387 60.7679H657.194V72.3964H653.387V60.7679ZM671.014 66.5821C671.014 70.3823 669.326 72.5484 666.433 72.5484C665.691 72.596 664.952 72.4149 664.317 72.0298C663.681 71.6447 663.179 71.074 662.879 70.395H662.803V76.1206H658.996V60.7425H662.803V62.82H662.879C663.165 62.1297 663.658 61.5442 664.289 61.1431C664.92 60.7419 665.66 60.5445 666.407 60.5778C669.326 60.6285 671.064 62.8073 671.064 66.6075L671.014 66.5821ZM667.207 66.5821C667.207 64.7327 666.356 63.5547 665.024 63.5547C663.692 63.5547 662.841 64.7454 662.829 66.5821C662.816 68.4189 663.692 69.597 665.024 69.597C666.356 69.597 667.207 68.4442 667.207 66.6075V66.5821ZM677.549 60.5018C680.709 60.5018 682.625 61.9966 682.714 64.3907H679.249C679.249 63.5673 678.564 63.048 677.511 63.048C676.457 63.048 675.988 63.4533 675.988 64.0487C675.988 64.6441 676.407 64.8341 677.257 65.0114L679.693 65.5054C682.016 65.9994 683.005 66.9368 683.005 68.6976C683.005 71.1044 680.81 72.6498 677.574 72.6498C674.338 72.6498 672.219 71.1044 672.054 68.7356H675.721C675.836 69.597 676.521 70.1037 677.638 70.1037C678.754 70.1037 679.262 69.7363 679.262 69.1283C679.262 68.5202 678.907 68.3936 677.993 68.2036L675.798 67.7349C673.526 67.2662 672.333 66.0628 672.333 64.2894C672.359 62.0093 674.402 60.5272 677.549 60.5272V60.5018ZM695.708 72.3711H692.04V70.205H691.964C691.763 70.9323 691.318 71.5688 690.704 72.0089C690.09 72.449 689.344 72.6662 688.589 72.6244C688.01 72.6573 687.432 72.5658 686.892 72.3562C686.352 72.1466 685.863 71.8237 685.459 71.4094C685.055 70.9951 684.745 70.4991 684.549 69.9547C684.353 69.4104 684.277 68.8305 684.325 68.2542V60.7425H688.132V67.3802C688.132 68.7609 688.843 69.4956 690.023 69.4956C690.3 69.4962 690.573 69.4377 690.825 69.3241C691.078 69.2104 691.303 69.0443 691.485 68.8368C691.668 68.6292 691.804 68.3851 691.884 68.1208C691.965 67.8565 691.988 67.5781 691.952 67.3042V60.7425H695.759L695.708 72.3711ZM697.548 60.7425H701.228V62.9846H701.304C701.506 62.267 701.941 61.6365 702.54 61.1918C703.139 60.7471 703.869 60.5134 704.616 60.5272C705.376 60.4665 706.13 60.6934 706.73 61.1628C707.329 61.6323 707.73 62.3098 707.852 63.0606H707.928C708.158 62.3018 708.635 61.641 709.283 61.1823C709.931 60.7236 710.713 60.4931 711.507 60.5272C712.024 60.5098 712.54 60.6014 713.02 60.7959C713.5 60.9905 713.933 61.2836 714.292 61.6564C714.651 62.0291 714.928 62.4731 715.104 62.9594C715.28 63.4458 715.351 63.9637 715.313 64.4794V72.3964H711.507V65.4928C711.507 64.226 710.936 63.6433 709.87 63.6433C709.632 63.6413 709.397 63.6902 709.179 63.7868C708.962 63.8833 708.768 64.0252 708.611 64.2028C708.453 64.3805 708.336 64.5899 708.266 64.8168C708.196 65.0437 708.176 65.2828 708.207 65.5181V72.3964H704.591V65.4421C704.591 64.2767 704.02 63.6433 702.979 63.6433C702.739 63.6434 702.501 63.6944 702.282 63.7928C702.063 63.8913 701.867 64.0351 701.707 64.2146C701.548 64.3942 701.428 64.6055 701.357 64.8345C701.285 65.0636 701.263 65.3052 701.291 65.5434V72.3964H697.484L697.548 60.7425Z" fill="#1E1B1B"/>
<path d="M597.604 57.7278C596.958 56.2538 596.103 54.8801 595.066 53.6489C593.532 51.7746 591.618 50.2457 589.45 49.163C587.282 48.0802 584.908 47.468 582.486 47.3668C580.064 47.2656 577.648 47.6776 575.397 48.5757C573.145 49.4738 571.11 50.8376 569.425 52.5775C567.74 54.3173 566.443 56.3936 565.619 58.6699C564.796 60.9461 564.465 63.3706 564.648 65.7837C564.831 68.1969 565.524 70.5441 566.681 72.6707C567.838 74.7973 569.433 76.6552 571.361 78.1222C572.598 79.0822 573.966 79.8626 575.422 80.4403C577.464 81.2755 579.649 81.7058 581.856 81.707C586.41 81.6969 590.775 79.8845 593.994 76.6671C597.212 73.4496 599.021 69.0896 599.025 64.5428C599.028 62.1975 598.544 59.877 597.604 57.7278ZM581.843 50.8495C583.824 50.8493 585.782 51.2816 587.579 52.1162C587.141 52.3052 586.68 52.4371 586.208 52.5089C584.656 52.7332 583.218 53.4527 582.108 54.5599C580.999 55.6672 580.278 57.1028 580.054 58.6525C579.955 59.5217 579.559 60.3302 578.932 60.9417C578.306 61.5533 577.487 61.9304 576.615 62.0094C575.062 62.2337 573.624 62.9532 572.515 64.0604C571.406 65.1676 570.685 66.6033 570.46 68.153C570.384 68.9794 570.031 69.756 569.458 70.3571C568.469 68.2711 568.024 65.9693 568.166 63.6659C568.308 61.3624 569.031 59.1322 570.269 57.1828C571.506 55.2334 573.217 53.6281 575.243 52.5163C577.269 51.4045 579.544 50.8224 581.856 50.8241L581.843 50.8495ZM571.348 73.4099C571.501 73.2706 571.653 73.1439 571.805 72.9919C572.934 71.8993 573.659 70.457 573.861 68.9004C573.943 68.0254 574.334 67.2081 574.965 66.5949C575.572 65.9643 576.389 65.5769 577.262 65.5055C578.814 65.2812 580.253 64.5617 581.362 63.4545C582.471 62.3472 583.192 60.9116 583.416 59.3619C583.471 58.4467 583.865 57.5845 584.52 56.9424C585.142 56.3241 585.967 55.9507 586.843 55.8911C588.269 55.6952 589.599 55.0623 590.65 54.0796C591.846 55.0703 592.859 56.2621 593.644 57.6011C593.596 57.6662 593.541 57.7257 593.479 57.7785C592.874 58.4146 592.058 58.8106 591.183 58.8932C589.628 59.1136 588.188 59.8318 587.078 60.9398C585.968 62.0477 585.249 63.4855 585.028 65.0368C584.939 65.9089 584.55 66.7233 583.928 67.342C583.306 67.9607 582.488 68.3456 581.614 68.4317C580.057 68.6543 578.614 69.3723 577.498 70.4791C576.383 71.5859 575.654 73.0225 575.422 74.5753C575.354 75.1944 575.141 75.7888 574.8 76.3107C573.498 75.5391 572.332 74.5591 571.348 73.4099ZM581.843 78.2995C580.555 78.3009 579.274 78.1218 578.036 77.7675C578.459 76.9796 578.735 76.1209 578.848 75.234C578.937 74.3639 579.324 73.551 579.943 72.9326C580.563 72.3141 581.377 71.9279 582.249 71.8392C583.804 71.6174 585.245 70.899 586.356 69.7915C587.468 68.6841 588.191 67.2471 588.416 65.6955C588.505 64.8254 588.892 64.0126 589.512 63.3941C590.131 62.7757 590.945 62.3895 591.817 62.3007C592.987 62.1488 594.102 61.7139 595.066 61.034C595.601 63.0581 595.664 65.1776 595.251 67.23C594.838 69.2824 593.959 71.213 592.683 72.8738C591.406 74.5346 589.765 75.8814 587.886 76.811C586.007 77.7405 583.94 78.228 581.843 78.2362V78.2995Z" fill="#1E1B1B"/>
<path d="M1132.46 57.2717H1136.53V73.7392H1132.46V57.2717ZM1138.15 67.5449C1138.15 63.466 1140.69 61.0212 1144.5 61.0212C1148.31 61.0212 1150.84 63.466 1150.84 67.5449C1150.84 71.6237 1148.39 74.0938 1144.5 74.0938C1140.6 74.0938 1138.15 71.7124 1138.15 67.5449ZM1146.81 67.5449C1146.81 65.3027 1145.93 63.9853 1144.54 63.9853C1143.14 63.9853 1142.28 65.2521 1142.28 67.5449C1142.28 69.8376 1143.14 71.0917 1144.54 71.0917C1145.93 71.0917 1146.83 69.8376 1146.83 67.5575L1146.81 67.5449ZM1152.47 74.5879H1156.4C1156.58 75.0106 1156.89 75.3633 1157.29 75.592C1157.69 75.8207 1158.15 75.913 1158.61 75.8546C1160.17 75.8546 1160.98 75.0186 1160.98 73.7772V71.497H1161C1160.66 72.207 1160.12 72.7988 1159.44 73.1945C1158.76 73.5902 1157.97 73.7712 1157.19 73.7138C1154.21 73.7138 1152.23 71.4464 1152.23 67.5449C1152.23 63.6433 1154.12 61.2112 1157.3 61.2112C1158.11 61.1682 1158.91 61.3754 1159.59 61.8042C1160.27 62.233 1160.8 62.8622 1161.11 63.6053H1161V61.3125H1165.03V73.6505C1165.03 76.6273 1162.39 78.4894 1158.51 78.4894C1154.98 78.4767 1152.72 76.868 1152.49 74.6005L1152.47 74.5879ZM1161 67.5449C1161 65.5561 1160.08 64.302 1158.64 64.302C1157.19 64.302 1156.3 65.5688 1156.3 67.5449C1156.3 69.5209 1157.18 70.6863 1158.64 70.6863C1160.09 70.6863 1161 69.6096 1161 67.5449ZM1166.64 67.5449C1166.64 63.466 1169.18 61.0212 1172.99 61.0212C1176.79 61.0212 1179.33 63.466 1179.33 67.5449C1179.33 71.6237 1176.87 74.0938 1172.99 74.0938C1169.1 74.0938 1166.67 71.7124 1166.67 67.5449H1166.64ZM1175.3 67.5449C1175.3 65.3027 1174.41 63.9853 1173.03 63.9853C1171.64 63.9853 1170.77 65.2521 1170.77 67.5449C1170.77 69.8376 1171.63 71.0917 1173.03 71.0917C1174.42 71.0917 1175.32 69.8376 1175.32 67.5575L1175.3 67.5449ZM1180.98 58.3104C1180.96 57.8962 1181.07 57.4862 1181.29 57.1331C1181.51 56.78 1181.82 56.5 1182.2 56.3291C1182.58 56.1581 1183 56.1041 1183.41 56.174C1183.82 56.2439 1184.2 56.4344 1184.5 56.7211C1184.8 57.0078 1185.01 57.3775 1185.1 57.7827C1185.18 58.1879 1185.15 58.6101 1184.99 58.9949C1184.84 59.3797 1184.57 59.7095 1184.23 59.9419C1183.88 60.1744 1183.48 60.2988 1183.06 60.2992C1182.8 60.3059 1182.53 60.2599 1182.29 60.164C1182.04 60.068 1181.81 59.9239 1181.62 59.74C1181.43 59.5562 1181.28 59.3363 1181.17 59.093C1181.07 58.8498 1181.01 58.5881 1181.01 58.3231L1180.98 58.3104ZM1180.98 61.2999H1185.11V73.7898H1181.05L1180.98 61.2999ZM1199.94 67.5449C1199.94 71.6111 1198.11 73.9672 1195 73.9672C1194.21 74.0162 1193.42 73.8202 1192.74 73.4056C1192.05 72.9911 1191.52 72.3779 1191.2 71.6491H1191.12V77.8054H1187.05V61.3379H1191.1V63.5673H1191.17C1191.48 62.8241 1192.01 62.1942 1192.69 61.7635C1193.38 61.3328 1194.17 61.1223 1194.98 61.1605C1198.18 61.1352 1200.02 63.4787 1200.02 67.5575L1199.94 67.5449ZM1195.79 67.5449C1195.79 65.5688 1194.86 64.2894 1193.43 64.2894C1192 64.2894 1191.1 65.5561 1191.08 67.5449C1191.07 69.5336 1192 70.7877 1193.43 70.7877C1194.86 70.7877 1195.87 69.6096 1195.87 67.5575L1195.79 67.5449ZM1206.89 61.0085C1210.31 61.0085 1212.43 62.6173 1212.45 65.2014H1208.73C1208.73 64.302 1207.99 63.7447 1206.87 63.7447C1205.75 63.7447 1205.22 64.1754 1205.22 64.8214C1205.22 65.4674 1205.69 65.6701 1206.63 65.8601L1209.24 66.3921C1211.78 66.9242 1212.79 67.9375 1212.79 69.825C1212.79 72.3584 1210.45 74.0812 1206.96 74.0812C1203.47 74.0812 1201.2 72.4091 1201.03 69.863H1204.98C1205.09 70.7877 1205.83 71.3324 1207.02 71.3324C1208.21 71.3324 1208.77 70.9524 1208.77 70.281C1208.77 69.6096 1208.39 69.4956 1207.41 69.2929L1205.05 68.7989C1202.61 68.2796 1201.32 67.0002 1201.32 65.0874C1201.4 62.6046 1203.53 61.0212 1206.97 61.0212L1206.89 61.0085ZM1226.44 73.7772H1222.49V71.4337H1222.41C1222.19 72.2154 1221.71 72.8985 1221.05 73.3706C1220.39 73.8427 1219.58 74.0754 1218.77 74.0305C1218.16 74.0504 1217.55 73.9407 1216.98 73.7084C1216.41 73.4762 1215.9 73.1267 1215.48 72.6829C1215.05 72.2391 1214.73 71.7111 1214.53 71.1334C1214.32 70.5557 1214.24 69.9414 1214.29 69.3309V61.3125H1218.37V68.4569C1218.37 69.9263 1219.14 70.7243 1220.41 70.7243C1220.71 70.7221 1221 70.6561 1221.27 70.5309C1221.54 70.4056 1221.78 70.224 1221.97 69.9982C1222.17 69.7725 1222.31 69.5079 1222.39 69.2224C1222.48 68.9368 1222.5 68.6369 1222.45 68.3429V61.3125H1226.51L1226.44 73.7772ZM1228.4 61.2999H1232.36V63.7067H1232.45C1232.67 62.9357 1233.14 62.2588 1233.78 61.7821C1234.43 61.3053 1235.21 61.0555 1236.02 61.0719C1236.82 61.0019 1237.63 61.2345 1238.27 61.7241C1238.91 62.2137 1239.35 62.9252 1239.49 63.7193H1239.67C1239.93 62.9209 1240.44 62.2286 1241.12 61.7498C1241.81 61.271 1242.64 61.0327 1243.48 61.0719C1244.04 61.0507 1244.59 61.1472 1245.11 61.3551C1245.63 61.5629 1246.09 61.8774 1246.48 62.278C1246.87 62.6786 1247.16 63.1562 1247.35 63.6796C1247.54 64.2031 1247.62 64.7605 1247.58 65.3154V73.7898H1243.48V66.3541C1243.48 65.0874 1242.88 64.378 1241.73 64.378C1241.47 64.3738 1241.22 64.425 1240.98 64.5279C1240.75 64.6309 1240.54 64.7833 1240.37 64.9746C1240.2 65.1659 1240.07 65.3916 1240 65.6363C1239.92 65.881 1239.9 66.1388 1239.94 66.3921V73.7898H1236.06V66.3161C1236.06 65.0494 1235.43 64.378 1234.32 64.378C1234.06 64.376 1233.8 64.4292 1233.57 64.5341C1233.33 64.6391 1233.12 64.7933 1232.95 64.9865C1232.77 65.1796 1232.65 65.4073 1232.57 65.6541C1232.49 65.9009 1232.47 66.1612 1232.5 66.4175V73.7898H1228.43L1228.4 61.2999Z" fill="#1E1B1B"/>
<path d="M1124.4 58.3487C1124.4 55.8275 1123.64 53.365 1122.21 51.2839C1120.78 49.2027 1118.76 47.5999 1116.41 46.6853C1114.06 45.7707 1111.48 45.587 1109.02 46.1583C1106.56 46.7296 1104.33 48.0292 1102.62 49.8869H1086.79V83.2526H1120.22V67.6591C1121.54 66.4874 1122.59 65.0525 1123.31 63.4482C1124.02 61.844 1124.4 60.1063 1124.4 58.3487ZM1117.96 58.3487C1117.97 59.5568 1117.61 60.7385 1116.94 61.7442C1116.27 62.7499 1115.31 63.5345 1114.2 63.9986C1113.08 64.4626 1111.85 64.5853 1110.66 64.3512C1109.48 64.117 1108.38 63.5365 1107.53 62.6831C1106.67 61.8298 1106.09 60.7419 1105.85 59.5571C1105.61 58.3724 1105.73 57.1441 1106.2 56.0277C1106.66 54.9113 1107.44 53.957 1108.45 53.2856C1109.45 52.6141 1110.64 52.2557 1111.85 52.2557C1113.47 52.2557 1115.02 52.8972 1116.17 54.0395C1117.32 55.1818 1117.96 56.7315 1117.96 58.3487ZM1113.79 76.8302H1093.22V56.3092H1099.49C1099.37 56.9824 1099.3 57.6647 1099.3 58.3487C1099.3 61.6703 1100.62 64.8548 1102.98 67.2036C1105.33 69.5523 1108.52 70.8733 1111.85 70.8766C1112.5 70.8732 1113.15 70.8181 1113.79 70.7119V76.8302Z" fill="#1E1B1B"/>
</g>
</svg>
