<svg width="1280" height="129" viewBox="0 0 1280 129" fill="none" xmlns="http://www.w3.org/2000/svg">
<g opacity="0.8">
<path d="M877.082 73.6958C876.331 73.7362 875.588 73.5241 874.974 73.0936C874.717 72.9043 874.51 72.6558 874.372 72.3694C874.233 72.0831 874.167 71.7675 874.179 71.45V59.8192C874.172 59.77 874.178 59.72 874.194 59.6731C874.21 59.6261 874.237 59.5835 874.272 59.5484C874.307 59.5133 874.35 59.4867 874.398 59.4706C874.445 59.4545 874.495 59.4493 874.545 59.4554H876.665C876.905 59.4554 877.018 59.5808 877.018 59.8192V70.5466C877.018 71.0234 877.233 71.2618 877.675 71.2618C877.862 71.2694 878.049 71.2483 878.23 71.199C878.483 71.199 878.621 71.2743 878.634 71.5001L878.823 73.0685C878.832 73.1142 878.832 73.1613 878.821 73.2067C878.81 73.2521 878.79 73.2946 878.761 73.3314C878.732 73.3683 878.696 73.3986 878.654 73.4203C878.613 73.4421 878.567 73.4547 878.52 73.4574C878.056 73.6099 877.571 73.6903 877.082 73.6958Z" fill="#1E1B1B"/>
<path d="M889.009 72.3535C887.944 73.2286 886.605 73.7073 885.223 73.7073C883.841 73.7073 882.502 73.2286 881.436 72.3535C880.5 71.4137 879.974 70.1444 879.974 68.8216C879.974 67.4988 880.5 66.2295 881.436 65.2897C882.504 64.4192 883.842 63.9434 885.223 63.9434C886.604 63.9434 887.942 64.4192 889.009 65.2897C889.924 66.2382 890.435 67.5013 890.435 68.8154C890.435 70.1294 889.924 71.3925 889.009 72.341V72.3535ZM883.431 70.6973C883.925 71.1426 884.568 71.3892 885.235 71.3892C885.903 71.3892 886.546 71.1426 887.04 70.6973C887.488 70.1859 887.734 69.5308 887.734 68.853C887.734 68.1751 887.488 67.5201 887.04 67.0086C886.546 66.5634 885.903 66.3168 885.235 66.3168C884.568 66.3168 883.925 66.5634 883.431 67.0086C882.983 67.5201 882.737 68.1751 882.737 68.853C882.737 69.5308 882.983 70.1859 883.431 70.6973Z" fill="#1E1B1B"/>
<path d="M902.111 64.2607C902.351 64.2607 902.464 64.3862 902.464 64.6245V73.6205C902.486 74.2277 902.372 74.8321 902.13 75.3898C901.887 75.9476 901.523 76.4447 901.063 76.845C900.043 77.71 898.73 78.1583 897.39 78.0996C896.18 78.1419 894.986 77.8134 893.97 77.1586C893.536 76.8754 893.165 76.5065 892.881 76.0748C892.596 75.6431 892.404 75.1579 892.316 74.6493C892.316 74.3984 892.316 74.2855 892.657 74.2855H894.778C894.868 74.2885 894.955 74.3174 895.029 74.3686C895.103 74.4198 895.16 74.4911 895.194 74.574C895.332 74.9551 895.606 75.2723 895.964 75.4648C896.401 75.6888 896.886 75.8009 897.378 75.7911C897.674 75.8072 897.971 75.7645 898.25 75.6654C898.53 75.5663 898.787 75.4128 899.006 75.2139C899.206 75.0058 899.362 74.7596 899.464 74.4901C899.566 74.2205 899.612 73.9333 899.599 73.6456V72.8551C898.84 73.4102 897.916 73.6973 896.974 73.6707C896.314 73.6945 895.657 73.5857 895.041 73.3506C894.425 73.1156 893.863 72.7593 893.389 72.3031C892.479 71.3673 891.97 70.1167 891.97 68.8151C891.97 67.5136 892.479 66.263 893.389 65.3272C893.865 64.8749 894.428 64.5221 895.044 64.2894C895.659 64.0566 896.315 63.9488 896.974 63.9721C897.943 63.9467 898.892 64.2522 899.662 64.8378V64.6371C899.656 64.589 899.661 64.5402 899.677 64.4943C899.692 64.4484 899.718 64.4065 899.752 64.3717C899.786 64.3369 899.827 64.31 899.873 64.2929C899.918 64.2759 899.967 64.2692 900.016 64.2732L902.111 64.2607ZM897.214 71.4374C897.539 71.4474 897.862 71.3863 898.161 71.2583C898.46 71.1304 898.727 70.9388 898.943 70.6971C899.362 70.1584 899.59 69.4964 899.59 68.8151C899.59 68.1338 899.362 67.4718 898.943 66.9331C898.727 66.6947 898.462 66.5059 898.166 66.3802C897.869 66.2545 897.548 66.1948 897.226 66.2054C896.897 66.1951 896.57 66.256 896.267 66.3838C895.964 66.5116 895.693 66.7033 895.472 66.9457C895.007 67.461 894.762 68.1361 894.79 68.8277C894.767 69.5125 895.006 70.1804 895.459 70.6971C895.681 70.9388 895.952 71.13 896.255 71.2578C896.558 71.3856 896.885 71.4468 897.214 71.4374Z" fill="#1E1B1B"/>
<path d="M913.357 72.3532C912.289 73.2238 910.951 73.6996 909.57 73.6996C908.19 73.6996 906.851 73.2238 905.784 72.3532C904.868 71.4027 904.357 70.1375 904.357 68.8214C904.357 67.5053 904.868 66.24 905.784 65.2895C906.852 64.4211 908.19 63.9468 909.57 63.9468C910.951 63.9468 912.288 64.4211 913.357 65.2895C914.272 66.2379 914.783 67.5011 914.783 68.8151C914.783 70.1291 914.272 71.3923 913.357 72.3407V72.3532ZM907.765 70.6971C908.007 70.9259 908.293 71.1047 908.605 71.2232C908.917 71.3416 909.249 71.3974 909.583 71.3872C909.915 71.3957 910.245 71.3392 910.555 71.2207C910.864 71.1023 911.147 70.9244 911.388 70.6971C911.828 70.1822 912.07 69.5285 912.07 68.8527C912.07 68.177 911.828 67.5233 911.388 67.0084C911.147 66.7811 910.864 66.6031 910.555 66.4847C910.245 66.3663 909.915 66.3098 909.583 66.3183C909.249 66.3081 908.917 66.3638 908.605 66.4823C908.293 66.6007 908.007 66.7796 907.765 67.0084C907.325 67.5233 907.084 68.177 907.084 68.8527C907.084 69.5285 907.325 70.1822 907.765 70.6971Z" fill="#1E1B1B"/>
<path d="M919.34 62.128C919.006 62.4183 918.578 62.5783 918.134 62.5783C917.691 62.5783 917.263 62.4183 916.929 62.128C916.778 61.9861 916.657 61.8149 916.575 61.6251C916.492 61.4352 916.45 61.2306 916.45 61.0239C916.45 60.8171 916.492 60.6125 916.575 60.4227C916.657 60.2328 916.778 60.0617 916.929 59.9198C917.266 59.6367 917.693 59.4814 918.134 59.4814C918.576 59.4814 919.003 59.6367 919.34 59.9198C919.491 60.0617 919.612 60.2328 919.694 60.4227C919.776 60.6125 919.819 60.8171 919.819 61.0239C919.819 61.2306 919.776 61.4352 919.694 61.6251C919.612 61.8149 919.491 61.9861 919.34 62.128ZM919.605 73.696C918.855 73.7326 918.113 73.5208 917.497 73.0937C917.244 72.9017 917.041 72.6523 916.905 72.3664C916.769 72.0805 916.703 71.7663 916.714 71.4501V64.6248C916.708 64.5755 916.714 64.5255 916.73 64.4786C916.746 64.4317 916.773 64.3891 916.808 64.354C916.843 64.3189 916.886 64.2923 916.933 64.2761C916.981 64.26 917.031 64.2548 917.08 64.2609H919.201C919.441 64.2609 919.554 64.3864 919.554 64.6248V70.5468C919.554 71.0235 919.769 71.2619 920.198 71.2619C920.389 71.2688 920.581 71.2476 920.766 71.1992C921.018 71.1992 921.157 71.2745 921.17 71.5003L921.359 73.0687C921.368 73.1144 921.367 73.1615 921.357 73.2069C921.346 73.2522 921.326 73.2948 921.297 73.3316C921.268 73.3685 921.232 73.3988 921.19 73.4205C921.149 73.4423 921.103 73.4549 921.056 73.4576C920.588 73.611 920.098 73.6914 919.605 73.696Z" fill="#1E1B1B"/>
<path d="M929.16 63.9597C929.822 63.9337 930.483 64.0402 931.103 64.273C931.723 64.5058 932.29 64.8601 932.77 65.3148C933.662 66.267 934.159 67.5201 934.159 68.8216C934.159 70.123 933.662 71.3761 932.77 72.3283C932.292 72.7871 931.726 73.1448 931.106 73.3799C930.485 73.6149 929.823 73.7225 929.16 73.6959C928.215 73.7168 927.289 73.4305 926.522 72.8804V77.4097C926.522 77.6481 926.396 77.761 926.156 77.761H924.035C923.987 77.77 923.937 77.7672 923.89 77.7527C923.843 77.7382 923.8 77.7126 923.766 77.678C923.731 77.6434 923.705 77.6009 923.69 77.5541C923.676 77.5074 923.673 77.4578 923.682 77.4097V67.1215C923.697 67.0209 923.688 66.9182 923.656 66.8216C923.624 66.7251 923.569 66.6373 923.497 66.5654C923.424 66.4935 923.336 66.4394 923.239 66.4074C923.142 66.3754 923.039 66.3665 922.937 66.3812H922.521C922.243 66.3812 922.104 66.2809 922.104 66.0801V64.5996C922.098 64.508 922.123 64.4169 922.176 64.3416C922.229 64.2662 922.306 64.2112 922.395 64.1856C922.831 64.0278 923.293 63.9512 923.758 63.9597C924.221 63.919 924.686 64.0166 925.093 64.2401C925.5 64.4637 925.83 64.8029 926.042 65.2144C926.449 64.8056 926.935 64.4835 927.471 64.2677C928.007 64.052 928.582 63.9472 929.16 63.9597ZM927.191 70.6973C927.416 70.9311 927.686 71.1171 927.986 71.2443C928.285 71.3714 928.607 71.4369 928.933 71.4369C929.258 71.4369 929.58 71.3714 929.88 71.2443C930.179 71.1171 930.449 70.9311 930.675 70.6973C931.149 70.1717 931.398 69.483 931.369 68.7776C931.402 68.0717 931.152 67.3815 930.675 66.858C930.449 66.6242 930.179 66.4381 929.88 66.311C929.58 66.1839 929.258 66.1184 928.933 66.1184C928.607 66.1184 928.285 66.1839 927.986 66.311C927.686 66.4381 927.416 66.6242 927.191 66.858C926.732 67.3907 926.493 68.0767 926.522 68.7776C926.496 69.478 926.735 70.1627 927.191 70.6973Z" fill="#1E1B1B"/>
<path d="M940.115 73.696C938.982 73.7423 937.859 73.4728 936.872 72.9181C936.476 72.6809 936.138 72.3581 935.885 71.9737C935.631 71.5892 935.468 71.153 935.407 70.6973C935.407 70.4464 935.496 70.3209 935.774 70.3209H937.629C937.717 70.3243 937.803 70.3519 937.876 70.4006C937.95 70.4493 938.008 70.5173 938.045 70.5969C938.311 71.2744 939.005 71.6132 940.115 71.6132C940.503 71.6308 940.889 71.5532 941.239 71.3874C941.36 71.3331 941.463 71.2473 941.539 71.139C941.615 71.0307 941.659 70.9041 941.668 70.7726C941.668 70.4464 941.466 70.2205 941.062 70.07C940.583 69.9115 940.088 69.8063 939.585 69.7563C938.99 69.6893 938.4 69.5846 937.818 69.4426C937.253 69.3154 936.738 69.0226 936.341 68.602C936.108 68.3162 935.936 67.9856 935.836 67.6309C935.737 67.2761 935.711 66.9048 935.762 66.54C935.813 66.1752 935.939 65.8247 936.132 65.5103C936.325 65.196 936.581 64.9244 936.884 64.7126C937.794 64.1365 938.861 63.8559 939.939 63.9096C940.982 63.8745 942.014 64.131 942.918 64.6498C943.282 64.8549 943.595 65.1381 943.836 65.4789C944.076 65.8196 944.236 66.2093 944.306 66.6196C944.306 66.8706 944.192 66.996 943.965 66.996H942.097C942.018 67.0007 941.94 66.9816 941.873 66.9413C941.805 66.901 941.751 66.8414 941.718 66.7702C941.594 66.473 941.359 66.2349 941.062 66.1052C940.728 65.9313 940.354 65.8449 939.977 65.8543C939.607 65.8343 939.238 65.9077 938.904 66.0676C938.786 66.1127 938.685 66.1918 938.613 66.2946C938.541 66.3975 938.501 66.5194 938.5 66.6447C938.508 66.8163 938.571 66.9808 938.68 67.114C938.789 67.2473 938.938 67.3422 939.106 67.385C939.59 67.5666 940.094 67.6929 940.608 67.7614C941.198 67.8386 941.784 67.9475 942.362 68.0876C942.928 68.2149 943.442 68.5077 943.839 68.9282C944.051 69.1599 944.215 69.4311 944.321 69.7261C944.427 70.0212 944.474 70.3342 944.457 70.6471C944.468 71.0808 944.366 71.5099 944.16 71.8926C943.954 72.2752 943.652 72.5983 943.284 72.8302C942.34 73.432 941.235 73.734 940.115 73.696Z" fill="#1E1B1B"/>
<path d="M957.799 73.0685C957.806 73.113 957.804 73.1586 957.793 73.2024C957.783 73.2462 957.763 73.2874 957.736 73.3237C957.709 73.3599 957.675 73.3904 957.636 73.4134C957.597 73.4363 957.554 73.4513 957.509 73.4574C957.048 73.607 956.567 73.6873 956.082 73.6958C955.603 73.7452 955.118 73.6707 954.676 73.4794C954.234 73.2882 953.849 72.9868 953.558 72.6043C952.666 73.3662 951.514 73.7572 950.339 73.6958C949.794 73.7208 949.25 73.6321 948.741 73.4355C948.232 73.2388 947.771 72.9386 947.386 72.5541C947.004 72.1511 946.707 71.6757 946.514 71.1561C946.321 70.6365 946.235 70.0835 946.262 69.5303V64.6246C946.262 64.3862 946.376 64.2607 946.616 64.2607H948.736C948.976 64.2607 949.09 64.3862 949.09 64.6246V69.1539C949.067 69.7182 949.261 70.2701 949.633 70.6972C949.818 70.8928 950.044 71.0467 950.294 71.1484C950.544 71.2501 950.814 71.2973 951.084 71.2869C951.361 71.2989 951.637 71.2563 951.897 71.1616C952.157 71.0668 952.395 70.9218 952.599 70.7348C952.791 70.5378 952.941 70.3036 953.038 70.0468C953.136 69.79 953.18 69.516 953.167 69.2418V64.6246C953.167 64.3862 953.28 64.2607 953.52 64.2607H955.666C955.906 64.2607 956.019 64.3862 956.019 64.6246V70.5341C956.019 71.0234 956.234 71.2618 956.65 71.2618C956.846 71.2693 957.041 71.2482 957.231 71.199C957.279 71.1857 957.329 71.1834 957.377 71.1921C957.426 71.2008 957.472 71.2203 957.513 71.2493C957.553 71.2783 957.586 71.3159 957.609 71.3594C957.632 71.4028 957.645 71.4509 957.647 71.5002L957.799 73.0685Z" fill="#1E1B1B"/>
<path d="M977.855 73.0686C977.866 73.1135 977.867 73.1604 977.858 73.2058C977.849 73.2512 977.83 73.294 977.802 73.3312C977.774 73.3684 977.739 73.399 977.698 73.4208C977.657 73.4427 977.611 73.4552 977.565 73.4576C977.096 73.6092 976.606 73.6896 976.113 73.6959C975.363 73.7344 974.621 73.5225 974.005 73.0937C973.739 72.91 973.523 72.6639 973.375 72.3772C973.228 72.0905 973.154 71.7721 973.16 71.4501V68.5016C973.186 67.939 972.997 67.3874 972.629 66.9584C972.452 66.7623 972.234 66.6077 971.989 66.5057C971.745 66.4037 971.481 66.357 971.216 66.3687C970.977 66.3597 970.739 66.4048 970.521 66.5004C970.302 66.596 970.108 66.7398 969.954 66.9208C969.62 67.3412 969.45 67.8666 969.474 68.4013V73.031C969.474 73.2694 969.36 73.3948 969.121 73.3948H966.987C966.938 73.4009 966.888 73.3957 966.84 73.3796C966.793 73.3635 966.75 73.3368 966.715 73.3018C966.68 73.2667 966.653 73.224 966.637 73.1771C966.62 73.1302 966.615 73.0802 966.621 73.031V68.5016C966.649 67.9452 966.474 67.3974 966.129 66.9584C965.975 66.774 965.782 66.6255 965.564 66.5236C965.346 66.4217 965.108 66.3688 964.867 66.3687C964.609 66.3584 964.353 66.4022 964.113 66.4973C963.874 66.5925 963.658 66.7368 963.479 66.9208C963.118 67.3278 962.932 67.8594 962.961 68.4013V73.031C962.967 73.0802 962.962 73.1302 962.946 73.1771C962.929 73.224 962.903 73.2667 962.867 73.3018C962.832 73.3368 962.789 73.3635 962.742 73.3796C962.695 73.3957 962.645 73.4009 962.595 73.3948H960.538C960.298 73.3948 960.184 73.2694 960.184 73.031V67.1215C960.199 67.0209 960.19 66.9182 960.158 66.8216C960.126 66.7251 960.071 66.6373 959.999 66.5654C959.927 66.4935 959.838 66.4394 959.741 66.4074C959.644 66.3754 959.541 66.3665 959.44 66.3813H959.023C958.745 66.3813 958.606 66.2809 958.606 66.0801V64.5996C958.6 64.508 958.625 64.4169 958.678 64.3416C958.731 64.2663 958.808 64.2112 958.897 64.1856C959.333 64.0278 959.795 63.9513 960.26 63.9597C960.706 63.922 961.153 64.0103 961.551 64.2146C961.948 64.4188 962.28 64.7306 962.507 65.114C962.932 64.7128 963.437 64.4033 963.989 64.2047C964.54 64.0061 965.127 63.9227 965.713 63.9597C966.281 63.9322 966.849 64.0382 967.368 64.2693C967.888 64.5003 968.346 64.8499 968.704 65.2897C969.122 64.8384 969.635 64.485 970.207 64.255C970.779 64.025 971.395 63.9241 972.011 63.9597C972.562 63.9341 973.112 64.0224 973.627 64.2189C974.142 64.4154 974.61 64.7159 975.002 65.1015C975.386 65.5036 975.683 65.9789 975.876 66.4987C976.069 67.0185 976.154 67.5719 976.126 68.1252V70.5467C976.126 71.0235 976.34 71.2619 976.744 71.2619C976.94 71.271 977.136 71.2498 977.325 71.1992C977.586 71.1992 977.724 71.2995 977.741 71.5003L977.855 73.0686Z" fill="#1E1B1B"/>
<path d="M829.851 62.6299C830.782 58.9094 832.939 55.6056 835.977 53.2444C839.016 50.8833 842.762 49.6006 846.619 49.6006C850.476 49.6006 854.222 50.8833 857.261 53.2444C860.299 55.6056 862.456 58.9094 863.387 62.6299H861.872C859.317 62.5925 856.815 63.3516 854.716 64.8005C854.595 64.8877 854.468 64.9673 854.337 65.0389H854.161C854.029 64.9673 853.903 64.8877 853.782 64.8005C851.664 63.3851 849.171 62.6292 846.619 62.6292C844.067 62.6292 841.573 63.3851 839.456 64.8005C839.335 64.8877 839.208 64.9673 839.077 65.0389H838.901C838.77 64.9673 838.643 64.8877 838.522 64.8005C836.423 63.3516 833.92 62.5925 831.365 62.6299H829.851ZM859.146 70.4967C859.924 69.8948 860.887 69.5799 861.872 69.6059H863.905V65.5784H861.872C860.137 65.5575 858.442 66.0944 857.038 67.1091C856.249 67.6879 855.293 68.0001 854.312 68.0001C853.331 68.0001 852.375 67.6879 851.586 67.1091C850.147 66.1134 848.435 65.5796 846.682 65.5796C844.929 65.5796 843.217 66.1134 841.778 67.1091C840.989 67.6879 840.033 68.0001 839.052 68.0001C838.071 68.0001 837.116 67.6879 836.326 67.1091C834.905 66.0814 833.185 65.5439 831.428 65.5784H829.333V69.6059H831.365C832.351 69.5799 833.314 69.8948 834.092 70.4967C835.528 71.4931 837.237 72.0273 838.989 72.0273C840.741 72.0273 842.45 71.4931 843.886 70.4967C844.665 69.8966 845.628 69.582 846.613 69.6059C847.598 69.5778 848.562 69.8929 849.339 70.4967C850.778 71.4924 852.489 72.0262 854.243 72.0262C855.996 72.0262 857.707 71.4924 859.146 70.4967ZM859.146 77.6985C859.924 77.0966 860.887 76.7817 861.872 76.8077H863.905V72.7802H861.872C860.137 72.7593 858.442 73.2962 857.038 74.3109C856.249 74.8897 855.293 75.2019 854.312 75.2019C853.331 75.2019 852.375 74.8897 851.586 74.3109C850.147 73.3151 848.435 72.7814 846.682 72.7814C844.929 72.7814 843.217 73.3151 841.778 74.3109C840.989 74.8897 840.033 75.2019 839.052 75.2019C838.071 75.2019 837.116 74.8897 836.326 74.3109C834.905 73.2832 833.185 72.7457 831.428 72.7802H829.333V76.8077H831.365C832.351 76.7817 833.314 77.0966 834.092 77.6985C835.528 78.6949 837.237 79.2291 838.989 79.2291C840.741 79.2291 842.45 78.6949 843.886 77.6985C844.665 77.0984 845.628 76.7838 846.613 76.8077C847.598 76.7796 848.562 77.0947 849.339 77.6985C850.778 78.6942 852.489 79.228 854.243 79.228C855.996 79.228 857.707 78.6942 859.146 77.6985Z" fill="#1E1B1B"/>
<path d="M333.197 54.5134H337.004V72.992H333.197V54.5134Z" fill="#1E1B1B"/>
<path d="M339.136 66.6618C339.136 65.3323 339.527 64.0328 340.261 62.9279C340.995 61.8231 342.038 60.9626 343.257 60.4556C344.477 59.9486 345.818 59.8179 347.112 60.0801C348.405 60.3423 349.592 60.9855 350.522 61.9283C351.452 62.871 352.084 64.0709 352.336 65.3757C352.589 66.6806 352.452 68.0316 351.942 69.2577C351.432 70.4838 350.572 71.5296 349.471 72.2627C348.371 72.9958 347.079 73.3831 345.76 73.3755C344.885 73.3824 344.017 73.2131 343.208 72.8777C342.399 72.5423 341.664 72.0474 341.047 71.4221C340.43 70.7968 339.943 70.0536 339.615 69.2362C339.287 68.4188 339.124 67.5435 339.136 66.6618ZM348.678 66.6618C348.663 66.0887 348.481 65.5327 348.154 65.0634C347.827 64.5941 347.37 64.2324 346.841 64.0234C346.311 63.8145 345.731 63.7676 345.175 63.8886C344.619 64.0096 344.111 64.2932 343.714 64.7038C343.317 65.1145 343.049 65.634 342.943 66.1974C342.837 66.7607 342.899 67.343 343.12 67.8713C343.341 68.3996 343.712 68.8505 344.186 69.1676C344.66 69.4848 345.216 69.654 345.785 69.6542C346.172 69.6618 346.557 69.5888 346.915 69.4398C347.273 69.2907 347.597 69.0689 347.866 68.788C348.135 68.5072 348.344 68.1734 348.48 67.8076C348.615 67.4417 348.674 67.0517 348.653 66.6618H348.678Z" fill="#1E1B1B"/>
<path d="M367.447 60.332V72.3655C367.447 76.6111 364.147 78.4142 360.81 78.4142C359.633 78.5115 358.452 78.2758 357.4 77.7336C356.349 77.1914 355.469 76.3642 354.858 75.3451L358.069 73.478C358.329 74.0066 358.743 74.4428 359.255 74.7283C359.768 75.0139 360.354 75.1354 360.937 75.0765C361.308 75.1226 361.685 75.0855 362.04 74.9678C362.395 74.8501 362.72 74.6547 362.992 74.3957C363.263 74.1366 363.475 73.8203 363.611 73.4694C363.747 73.1184 363.805 72.7414 363.779 72.3655V71.2018C363.336 71.743 362.774 72.1728 362.138 72.4569C361.501 72.7411 360.807 72.8718 360.112 72.8386C358.429 72.8386 356.815 72.165 355.625 70.9659C354.436 69.7668 353.767 68.1404 353.767 66.4447C353.767 64.7489 354.436 63.1225 355.625 61.9234C356.815 60.7243 358.429 60.0507 360.112 60.0507C360.807 60.0176 361.501 60.1482 362.138 60.4324C362.774 60.7165 363.336 61.1463 363.779 61.6875V60.4088L367.447 60.332ZM363.779 66.4063C363.805 65.7945 363.648 65.189 363.329 64.6678C363.01 64.1465 362.544 63.7333 361.99 63.4813C361.436 63.2293 360.82 63.15 360.221 63.2535C359.622 63.3571 359.068 63.6389 358.629 64.0626C358.19 64.4862 357.888 65.0325 357.759 65.6311C357.631 66.2296 357.684 66.8532 357.91 67.4214C358.136 67.9897 358.526 68.4768 359.029 68.8201C359.533 69.1633 360.126 69.347 360.734 69.3475C361.13 69.3763 361.528 69.321 361.902 69.1851C362.276 69.0492 362.618 68.8357 362.905 68.5586C363.192 68.2814 363.418 67.9466 363.569 67.5759C363.719 67.2052 363.791 66.8067 363.779 66.4063Z" fill="#1E1B1B"/>
<path d="M369.591 66.6619C369.591 65.3335 369.982 64.035 370.715 62.9307C371.447 61.8263 372.489 60.9658 373.707 60.4581C374.925 59.9503 376.265 59.8181 377.558 60.0782C378.85 60.3383 380.037 60.979 380.968 61.9192C381.9 62.8594 382.533 64.0568 382.789 65.36C383.044 66.6632 382.911 68.0134 382.404 69.24C381.898 70.4665 381.042 71.5142 379.945 72.2503C378.848 72.9865 377.559 73.3781 376.24 73.3756C375.364 73.3841 374.494 73.2162 373.683 72.8817C372.871 72.5472 372.134 72.0528 371.515 71.4275C370.896 70.8022 370.407 70.0586 370.076 69.2402C369.746 68.4219 369.581 67.5453 369.591 66.6619ZM379.134 66.6619C379.119 66.0882 378.936 65.5317 378.609 65.0622C378.281 64.5927 377.823 64.2309 377.293 64.0224C376.762 63.8138 376.183 63.7677 375.626 63.8897C375.07 64.0118 374.561 64.2966 374.165 64.7085C373.768 65.1204 373.501 65.6411 373.397 66.2053C373.293 66.7695 373.356 67.3522 373.579 67.8803C373.802 68.4083 374.175 68.8584 374.651 69.1739C375.126 69.4895 375.684 69.6566 376.253 69.6543C376.641 69.6619 377.025 69.5889 377.383 69.4399C377.741 69.2908 378.065 69.069 378.334 68.7881C378.604 68.5073 378.812 68.1735 378.948 67.8077C379.083 67.4418 379.142 67.0518 379.121 66.6619H379.134Z" fill="#1E1B1B"/>
<path d="M384.654 56.943C384.654 56.4928 384.786 56.0527 385.034 55.6784C385.283 55.3041 385.635 55.0123 386.048 54.84C386.461 54.6677 386.915 54.6227 387.353 54.7105C387.791 54.7983 388.194 55.0151 388.51 55.3334C388.826 55.6518 389.041 56.0574 389.128 56.4989C389.215 56.9405 389.17 57.3982 388.999 57.8141C388.828 58.23 388.539 58.5855 388.167 58.8356C387.796 59.0858 387.359 59.2193 386.913 59.2193C386.316 59.2126 385.745 58.9707 385.323 58.5452C384.9 58.1198 384.66 57.5446 384.654 56.943ZM385.022 60.3318H388.829V72.9919H385.022V60.3318Z" fill="#1E1B1B"/>
<path d="M405.122 66.662C405.165 67.504 405.042 68.3462 404.761 69.14C404.479 69.9339 404.044 70.6639 403.482 71.2878C402.919 71.9118 402.24 72.4175 401.483 72.7758C400.725 73.1342 399.905 73.338 399.069 73.3757C398.36 73.4232 397.65 73.3088 396.99 73.0409C396.331 72.7729 395.741 72.3585 395.262 71.8284V78.0817H391.456V60.332H395.262V61.5213C395.741 60.9928 396.332 60.5802 396.991 60.3144C397.651 60.0487 398.361 59.9367 399.069 59.9867C399.902 60.0245 400.719 60.2271 401.473 60.583C402.228 60.939 402.906 61.4412 403.468 62.061C404.03 62.6809 404.465 63.4063 404.749 64.1957C405.033 64.9851 405.16 65.8232 405.122 66.662ZM401.316 66.662C401.301 66.0681 401.112 65.4918 400.773 65.0055C400.435 64.5191 399.961 64.1443 399.412 63.928C398.863 63.7117 398.263 63.6635 397.687 63.7895C397.11 63.9155 396.584 64.2101 396.173 64.6363C395.762 65.0625 395.486 65.6015 395.378 66.1855C395.27 66.7696 395.335 67.3728 395.566 67.9196C395.796 68.4663 396.182 68.9323 396.674 69.2591C397.167 69.586 397.744 69.759 398.333 69.7567C398.737 69.774 399.14 69.705 399.516 69.5544C399.891 69.4038 400.231 69.1748 400.512 68.8826C400.794 68.5904 401.011 68.2415 401.15 67.8588C401.288 67.4761 401.344 67.0683 401.316 66.662Z" fill="#1E1B1B"/>
<path d="M416.708 69.1941C416.708 72.1097 414.17 73.3502 411.48 73.3502C410.383 73.4497 409.281 73.2153 408.317 72.6773C407.354 72.1393 406.572 71.3224 406.074 70.3322L409.348 68.4652C409.478 68.9215 409.759 69.319 410.145 69.5914C410.531 69.8637 410.997 69.9943 411.467 69.9614C412.368 69.9614 412.825 69.68 412.825 69.1685C412.825 67.7746 406.645 68.5163 406.645 64.1301C406.645 61.3679 408.955 59.9868 411.569 59.9868C412.563 59.9419 413.55 60.1691 414.426 60.6442C415.301 61.1193 416.033 61.8245 416.543 62.685L413.269 64.4242C413.125 64.0943 412.888 63.8136 412.589 63.6162C412.289 63.4188 411.939 63.313 411.582 63.3116C410.922 63.3116 410.528 63.5674 410.528 64.015C410.528 65.4728 416.708 64.5137 416.708 69.1941Z" fill="#1E1B1B"/>
<path d="M430.502 60.332V72.9921H426.695V71.8028C426.263 72.3292 425.713 72.7459 425.092 73.0191C424.47 73.2923 423.794 73.4145 423.117 73.3757C420.579 73.3757 418.409 71.5471 418.409 68.1327V60.332H422.216V67.5572C422.186 67.8593 422.221 68.1643 422.32 68.4512C422.418 68.7381 422.577 69 422.786 69.2188C422.995 69.4377 423.248 69.6083 423.529 69.7188C423.809 69.8294 424.11 69.8772 424.411 69.859C425.781 69.859 426.746 69.0406 426.746 67.3015V60.332H430.502Z" fill="#1E1B1B"/>
<path d="M452.074 65.2169V72.992H448.267V65.5494C448.267 64.2706 447.671 63.4778 446.465 63.4778C445.26 63.4778 444.498 64.3601 444.498 65.8563V72.992H440.692V65.5494C440.692 64.2706 440.095 63.4778 438.89 63.4778C437.684 63.4778 436.923 64.3601 436.923 65.8563V72.992H433.116V60.3319H436.923V61.4956C437.317 60.9815 437.832 60.5744 438.421 60.3109C439.01 60.0475 439.655 59.936 440.298 59.9866C440.942 59.9528 441.583 60.0883 442.16 60.3797C442.736 60.6712 443.227 61.1086 443.585 61.6491C444.003 61.0844 444.556 60.6358 445.193 60.345C445.83 60.0543 446.53 59.931 447.227 59.9866C450.196 59.9866 452.074 62.0583 452.074 65.2169Z" fill="#1E1B1B"/>
<path d="M310.52 51.1885V45.7537H293.516V83.0944H310.52V77.6596C307.037 77.6596 303.696 76.2651 301.233 73.783C298.77 71.3008 297.386 67.9343 297.386 64.424C297.386 60.9138 298.77 57.5473 301.233 55.0651C303.696 52.583 307.037 51.1885 310.52 51.1885Z" fill="#1E1B1B"/>
<path d="M310.52 51.1885V77.6595C314.004 77.6595 317.344 76.2651 319.807 73.7829C322.27 71.3008 323.654 67.9343 323.654 64.424C323.654 60.9137 322.27 57.5472 319.807 55.0651C317.344 52.5829 314.004 51.1885 310.52 51.1885Z" fill="#1E1B1B"/>
<path d="M455.272 60.2551C456.814 60.2551 458.064 58.9955 458.064 57.4418C458.064 55.888 456.814 54.6284 455.272 54.6284C453.731 54.6284 452.481 55.888 452.481 57.4418C452.481 58.9955 453.731 60.2551 455.272 60.2551Z" fill="#1E1B1B"/>
<path d="M52.2793 62.9636C51.801 63.4466 51.4347 64.0295 51.2065 64.6708C50.9783 65.3121 50.8938 65.996 50.9591 66.6738L50.9364 66.651C51.0035 67.4489 50.8963 68.2518 50.6223 69.0038C50.3482 69.7558 49.914 70.4387 49.3499 71.0049C48.7857 71.571 48.1052 72.0068 47.3559 72.2818C46.6066 72.5568 45.8066 72.6644 45.0116 72.5971L45.0343 72.6199C44.0833 72.531 43.1282 72.7387 42.2991 73.2146C41.4701 73.6905 40.8075 74.4114 40.4016 75.2791C39.9958 76.1468 39.8665 77.119 40.0314 78.0631C40.1962 79.0072 40.6472 79.8773 41.3229 80.5548C41.9985 81.2322 42.8659 81.6841 43.8068 81.8487C44.7477 82.0133 45.7163 81.8826 46.5805 81.4746C47.4447 81.0665 48.1625 80.4008 48.6359 79.5684C49.1094 78.7359 49.3154 77.7772 49.2261 76.8229L49.2501 76.8457C49.183 76.0478 49.2901 75.2449 49.5642 74.4929C49.8382 73.7409 50.2724 73.058 50.8366 72.4918C51.4007 71.9257 52.0812 71.4899 52.8305 71.2149C53.5798 70.9399 54.3798 70.8323 55.1748 70.8997L55.1509 70.8769C55.9277 70.947 56.7096 70.8191 57.4241 70.5052C58.1386 70.1913 58.7625 69.7015 59.2382 69.0811C59.7138 68.4608 60.0257 67.7299 60.145 66.9564C60.2642 66.1828 60.187 65.3916 59.9204 64.656C59.6538 63.9204 59.2065 63.2642 58.62 62.7483C58.0334 62.2323 57.3266 61.8734 56.5649 61.7046C55.8033 61.5358 55.0116 61.5627 54.2631 61.7828C53.5146 62.0029 52.8336 62.409 52.2831 62.9636H52.2793Z" fill="#1E1B1B"/>
<path d="M42.9678 69.633L42.9439 69.6102C43.6196 69.6785 44.3019 69.5953 44.9417 69.3665C45.5814 69.1378 46.1624 68.7692 46.6428 68.2874C47.1232 67.8057 47.4909 67.2228 47.7193 66.581C47.9478 65.9391 48.0312 65.2544 47.9636 64.5762L47.9876 64.599C47.9205 63.8012 48.0277 62.9982 48.3017 62.2462C48.5757 61.4943 49.01 60.8113 49.5741 60.2452C50.1383 59.679 50.8188 59.2432 51.568 58.9682C52.3173 58.6932 53.1174 58.5856 53.9124 58.653L53.8884 58.6302C54.8395 58.7198 55.7949 58.5128 56.6245 58.0375C57.454 57.5621 58.1172 56.8415 58.5236 55.974C58.9301 55.1064 59.06 54.1342 58.8956 53.1898C58.7312 52.2455 58.2806 51.375 57.6052 50.6971C56.9297 50.0192 56.0623 49.567 55.1214 49.402C54.1804 49.2371 53.2116 49.3674 52.3471 49.7753C51.4827 50.1832 50.7647 50.8488 50.291 51.6813C49.8174 52.5138 49.6111 53.4727 49.7004 54.4272L49.6777 54.4031C49.7451 55.201 49.638 56.004 49.3641 56.7561C49.0901 57.5082 48.6559 58.1912 48.0917 58.7574C47.5275 59.3237 46.8469 59.7594 46.0975 60.0344C45.3481 60.3093 44.548 60.4167 43.7529 60.3491L43.7757 60.3732C43.1 60.3049 42.4176 60.3881 41.7779 60.6169C41.1381 60.8456 40.5571 61.2142 40.0767 61.696C39.5963 62.1777 39.2286 62.7606 39.0002 63.4024C38.7717 64.0443 38.6883 64.729 38.7559 65.4072L38.7332 65.3844C38.8 66.1822 38.6927 66.985 38.4186 67.7369C38.1445 68.4888 37.7103 69.1716 37.1462 69.7377C36.5821 70.3039 35.9017 70.7397 35.1525 71.0147C34.4033 71.2898 33.6033 71.3975 32.8084 71.3304L32.8311 71.3532C31.88 71.2636 30.9246 71.4706 30.0951 71.9459C29.2655 72.4213 28.6023 73.1419 28.1959 74.0094C27.7894 74.877 27.6595 75.8492 27.8239 76.7936C27.9883 77.7379 28.4389 78.6084 29.1144 79.2863C29.7898 79.9641 30.6572 80.4164 31.5982 80.5814C32.5392 80.7463 33.5079 80.616 34.3724 80.2081C35.2368 79.8002 35.9548 79.1346 36.4285 78.3021C36.9022 77.4696 37.1084 76.5107 37.0191 75.5562L37.0431 75.579C36.976 74.7812 37.0831 73.9782 37.3572 73.2263C37.6312 72.4743 38.0654 71.7914 38.6296 71.2252C39.1937 70.659 39.8742 70.2232 40.6235 69.9482C41.3728 69.6732 42.1728 69.5656 42.9678 69.633Z" fill="#1E1B1B"/>
<path d="M34.5087 67.0907C34.9871 66.6078 35.3534 66.0248 35.5814 65.3835C35.8094 64.7421 35.8935 64.0582 35.8277 63.3804L35.8517 63.4032C35.7846 62.6051 35.8918 61.802 36.166 61.0498C36.4401 60.2976 36.8746 59.6146 37.439 59.0483C38.0035 58.4821 38.6843 58.0464 39.4339 57.7716C40.1835 57.4967 40.9838 57.3894 41.779 57.4572L41.7551 57.4344C42.7058 57.5238 43.6608 57.3167 44.49 56.8414C45.3191 56.366 45.982 55.6456 46.3882 54.7783C46.7944 53.9111 46.9242 52.9392 46.7598 51.9952C46.5954 51.0512 46.1449 50.181 45.4697 49.5034C44.7945 48.8258 43.9275 48.3736 42.9868 48.2087C42.0462 48.0437 41.0778 48.174 40.2136 48.5816C39.3494 48.9893 38.6316 49.6545 38.158 50.4867C37.6843 51.3188 37.478 52.2772 37.5671 53.2314L37.5443 53.2086C37.6114 54.0064 37.5043 54.8094 37.2302 55.5613C36.9562 56.3133 36.522 56.9962 35.9578 57.5624C35.3937 58.1286 34.7132 58.5644 33.9639 58.8394C33.2146 59.1144 32.4146 59.222 31.6196 59.1546L31.6423 59.1774C30.8655 59.1075 30.0837 59.2355 29.3693 59.5495C28.6549 59.8636 28.0311 60.3535 27.5556 60.9739C27.0801 61.5944 26.7683 62.3252 26.6492 63.0987C26.5301 63.8723 26.6075 64.6635 26.8741 65.399C27.1408 66.1345 27.5882 66.7906 28.1747 67.3064C28.7613 67.8223 29.4682 68.1812 30.2297 68.3499C30.9913 68.5186 31.783 68.4916 32.5315 68.2715C33.2799 68.0514 33.9609 67.6452 34.5113 67.0907H34.5087Z" fill="#1E1B1B"/>
<path d="M73.6079 54.4563H77.3566V72.7644H73.6079V54.4563Z" fill="#1E1B1B"/>
<path d="M79.4797 66.4952C79.4744 65.1795 79.8584 63.8918 80.5829 62.7953C81.3074 61.6988 82.3399 60.8428 83.5496 60.3356C84.7593 59.8285 86.0917 59.6931 87.3782 59.9465C88.6646 60.2 89.8472 60.8309 90.776 61.7593C91.7049 62.6878 92.3383 63.872 92.596 65.1621C92.8537 66.4521 92.7241 67.7898 92.2236 69.0059C91.7231 70.2219 90.8743 71.2616 89.7846 71.9931C88.6949 72.7246 87.4134 73.1151 86.1025 73.1151C85.2322 73.125 84.3687 72.9608 83.5625 72.632C82.7562 72.3032 82.0234 71.8163 81.4067 71.2C80.7901 70.5836 80.3021 69.8501 79.9712 69.0423C79.6403 68.2345 79.4732 67.3685 79.4797 66.4952ZM88.9765 66.4952C88.9609 65.928 88.779 65.3781 88.4536 64.9142C88.1283 64.4502 87.6739 64.0928 87.1473 63.8867C86.6206 63.6805 86.0451 63.6347 85.4926 63.755C84.9402 63.8753 84.4353 64.1563 84.0412 64.563C83.647 64.9697 83.3811 65.4839 83.2765 66.0415C83.172 66.599 83.2336 67.1751 83.4536 67.6978C83.6735 68.2204 84.0421 68.6663 84.5133 68.9799C84.9844 69.2934 85.5372 69.4606 86.1025 69.4606C86.4896 69.4709 86.8747 69.4007 87.2334 69.2543C87.5922 69.1078 87.9168 68.8884 88.1868 68.6098C88.4569 68.3312 88.6664 67.9994 88.8024 67.6355C88.9383 67.2715 88.9976 66.8833 88.9765 66.4952Z" fill="#1E1B1B"/>
<path d="M107.666 60.225V72.1323C107.666 76.3454 104.392 78.1264 101.068 78.1264C99.8981 78.2143 98.7265 77.9771 97.6818 77.4408C96.6372 76.9046 95.7598 76.0899 95.146 75.0863L98.3444 73.2305C98.6024 73.7537 99.0135 74.1853 99.5226 74.4676C100.032 74.7499 100.615 74.8694 101.193 74.8101C101.563 74.8615 101.94 74.8289 102.295 74.7145C102.651 74.6001 102.976 74.407 103.247 74.1494C103.518 73.8918 103.728 73.5763 103.861 73.2262C103.995 72.8762 104.048 72.5006 104.017 72.1272V70.9808C103.578 71.5198 103.019 71.9481 102.385 72.2312C101.752 72.5143 101.061 72.6444 100.368 72.6111C98.7191 72.5589 97.1553 71.8649 96.0075 70.6761C94.8596 69.4872 94.2178 67.8967 94.2178 66.2413C94.2178 64.5859 94.8596 62.9954 96.0075 61.8066C97.1553 60.6177 98.7191 59.9238 100.368 59.8716C101.061 59.8382 101.752 59.9683 102.385 60.2514C103.019 60.5346 103.578 60.9628 104.017 61.5019V60.2225L107.666 60.225ZM104.018 66.2432C104.043 65.6369 103.887 65.0369 103.57 64.5204C103.252 64.004 102.788 63.5946 102.237 63.3452C101.686 63.0957 101.073 63.0175 100.477 63.1206C99.8808 63.2237 99.3293 63.5035 98.8931 63.9238C98.457 64.3441 98.1562 64.8858 98.0294 65.4792C97.9027 66.0725 97.9557 66.6904 98.1818 67.2532C98.4079 67.816 98.7966 68.2981 99.298 68.6373C99.7994 68.9766 100.39 69.1574 100.995 69.1567C101.389 69.1843 101.784 69.1288 102.155 68.9938C102.527 68.8587 102.866 68.6472 103.15 68.3727C103.435 68.0982 103.659 67.7669 103.809 67.4002C103.958 67.0334 104.03 66.6393 104.018 66.2432Z" fill="#1E1B1B"/>
<path d="M109.789 66.4952C109.784 65.1795 110.167 63.8918 110.892 62.7953C111.617 61.6988 112.649 60.8428 113.859 60.3356C115.068 59.8285 116.401 59.6931 117.687 59.9465C118.974 60.2 120.156 60.8309 121.085 61.7593C122.014 62.6878 122.647 63.872 122.905 65.1621C123.163 66.4521 123.033 67.7898 122.533 69.0059C122.032 70.2219 121.183 71.2616 120.094 71.9931C119.004 72.7246 117.723 73.1151 116.412 73.1151C115.541 73.125 114.678 72.9608 113.872 72.632C113.065 72.3032 112.332 71.8163 111.716 71.2C111.099 70.5836 110.611 69.8501 110.28 69.0423C109.949 68.2345 109.782 67.3685 109.789 66.4952ZM119.286 66.4952C119.27 65.928 119.088 65.3781 118.763 64.9142C118.437 64.4502 117.983 64.0928 117.456 63.8867C116.93 63.6805 116.354 63.6347 115.802 63.755C115.249 63.8753 114.744 64.1563 114.35 64.563C113.956 64.9697 113.69 65.4839 113.586 66.0415C113.481 66.599 113.543 67.1751 113.763 67.6978C113.983 68.2204 114.351 68.6663 114.822 68.9799C115.293 69.2934 115.846 69.4606 116.412 69.4606C116.799 69.4709 117.184 69.4007 117.543 69.2543C117.901 69.1078 118.226 68.8884 118.496 68.6098C118.766 68.3312 118.976 67.9994 119.111 67.6355C119.247 67.2715 119.307 66.8833 119.286 66.4952Z" fill="#1E1B1B"/>
<path d="M124.783 56.8642C124.783 56.4178 124.915 55.9814 125.162 55.6102C125.409 55.2389 125.76 54.9496 126.171 54.7788C126.582 54.6079 127.034 54.5632 127.471 54.6503C127.907 54.7374 128.308 54.9524 128.622 55.2681C128.937 55.5838 129.151 55.986 129.238 56.4239C129.325 56.8617 129.28 57.3156 129.11 57.7281C128.94 58.1406 128.651 58.4931 128.282 58.7411C127.912 58.9892 127.477 59.1216 127.032 59.1216C126.437 59.1156 125.869 58.8759 125.448 58.4538C125.028 58.0318 124.789 57.4611 124.783 56.8642ZM125.161 60.2249H128.911V72.7655H125.156L125.161 60.2249Z" fill="#1E1B1B"/>
<path d="M145.098 66.4951C145.141 67.3239 145.021 68.1531 144.744 68.9351C144.467 69.717 144.038 70.4363 143.483 71.0515C142.928 71.6667 142.257 72.1658 141.51 72.5199C140.762 72.874 139.951 73.0763 139.125 73.1151C138.431 73.1531 137.736 73.0355 137.092 72.7709C136.449 72.5062 135.871 72.1011 135.403 71.5848V77.7804H131.654V60.2248H135.403V61.4029C135.872 60.887 136.449 60.4822 137.093 60.2178C137.736 59.9534 138.431 59.8359 139.125 59.8739C139.951 59.9125 140.762 60.1147 141.51 60.4689C142.258 60.823 142.929 61.3222 143.484 61.9376C144.039 62.5529 144.468 63.2724 144.745 64.0546C145.022 64.8368 145.142 65.6662 145.098 66.4951ZM141.349 66.4951C141.335 65.9082 141.148 65.3387 140.812 64.8578C140.477 64.3769 140.007 64.0061 139.463 63.7916C138.918 63.5772 138.322 63.5287 137.751 63.6523C137.179 63.7759 136.656 64.066 136.247 64.4863C135.839 64.9066 135.563 65.4385 135.454 66.0154C135.346 66.5922 135.409 67.1885 135.636 67.7294C135.864 68.2704 136.245 68.7321 136.732 69.0567C137.22 69.3812 137.792 69.5543 138.377 69.5543C138.778 69.5722 139.179 69.5048 139.553 69.3563C139.927 69.2079 140.265 68.9818 140.546 68.693C140.827 68.4041 141.043 68.059 141.182 67.6802C141.32 67.3015 141.377 66.8976 141.349 66.4951Z" fill="#1E1B1B"/>
<path d="M156.666 69.0021C156.666 71.8865 154.168 73.1152 151.469 73.1152C150.379 73.2143 149.284 72.9829 148.326 72.4509C147.368 71.9188 146.592 71.1106 146.096 70.1308L149.344 68.275C149.475 68.7279 149.757 69.1219 150.143 69.3912C150.529 69.6605 150.996 69.7887 151.464 69.7546C152.363 69.7546 152.814 69.4784 152.814 68.9781C152.814 67.5973 146.665 68.3257 146.665 63.9872C146.665 61.2523 148.965 59.8741 151.564 59.8741C152.541 59.8431 153.508 60.0756 154.365 60.5475C155.222 61.0194 155.937 61.7133 156.436 62.557L153.238 64.2874C153.097 63.9589 152.864 63.6791 152.566 63.4829C152.269 63.2867 151.92 63.1828 151.564 63.184C150.914 63.184 150.514 63.4374 150.514 63.8858C150.519 65.316 156.666 64.3621 156.666 69.0021Z" fill="#1E1B1B"/>
<path d="M170.36 60.2251V72.7657H166.611V71.5864C166.179 72.1068 165.629 72.5168 165.009 72.7828C164.388 73.0488 163.713 73.1632 163.039 73.1166C160.515 73.1166 158.369 71.3115 158.369 67.923V60.2251H162.118V67.372C162.086 67.6707 162.12 67.9726 162.217 68.2568C162.314 68.541 162.471 68.8007 162.678 69.0177C162.885 69.2347 163.136 69.4039 163.415 69.5134C163.693 69.623 163.992 69.6703 164.291 69.6521C165.666 69.6521 166.615 68.8503 166.615 67.0692V60.2289L170.36 60.2251Z" fill="#1E1B1B"/>
<path d="M191.855 65.0651V72.7643H188.106V65.3907C188.106 64.1366 187.507 63.3348 186.308 63.3348C185.058 63.3348 184.358 64.2126 184.358 65.6922V72.7643H180.61V65.3907C180.61 64.1366 180.01 63.3348 178.81 63.3348C177.561 63.3348 176.861 64.2126 176.861 65.6922V72.7643H173.113V60.2237H176.861V61.3764C177.25 60.865 177.76 60.4595 178.345 60.1968C178.93 59.9342 179.571 59.8228 180.21 59.8728C180.851 59.8413 181.49 59.9772 182.064 60.2671C182.637 60.557 183.126 60.9912 183.483 61.5272C183.898 60.9664 184.448 60.5205 185.082 60.2312C185.716 59.9419 186.412 59.8186 187.107 59.8728C189.976 59.8741 191.855 61.93 191.855 65.0651Z" fill="#1E1B1B"/>
<path d="M195.026 60.1477C196.562 60.1477 197.807 58.8977 197.807 57.3558C197.807 55.8139 196.562 54.564 195.026 54.564C193.489 54.564 192.244 55.8139 192.244 57.3558C192.244 58.8977 193.489 60.1477 195.026 60.1477Z" fill="#1E1B1B"/>
<path d="M608.25 57.5154H612.057V72.8808H608.25V57.5154ZM613.567 67.0792C613.567 63.279 615.902 61.0116 619.506 61.0116C623.11 61.0116 625.445 63.279 625.445 67.0792C625.445 70.8794 623.16 73.1595 619.506 73.1595C615.851 73.1595 613.567 70.9427 613.567 67.0792ZM621.625 67.0792C621.625 64.9891 620.8 63.7604 619.506 63.7604C618.211 63.7604 617.399 65.0271 617.399 67.0792C617.399 69.1313 618.199 70.3727 619.506 70.3727C620.813 70.3727 621.625 69.2073 621.625 67.0919V67.0792ZM626.879 73.6282H630.533C630.707 74.0139 631.001 74.3332 631.372 74.5387C631.742 74.7441 632.169 74.8246 632.589 74.7682C634.036 74.7682 634.797 73.9829 634.797 72.8428V70.7147H634.721C634.418 71.3669 633.925 71.9135 633.308 72.2838C632.69 72.6541 631.976 72.8311 631.257 72.7921C628.477 72.7921 626.637 70.6767 626.637 67.0412C626.637 63.4057 628.389 61.1129 631.307 61.1129C632.049 61.0839 632.782 61.2818 633.408 61.6803C634.034 62.0788 634.523 62.6587 634.81 63.3423V61.2269H638.617V72.7541C638.617 75.5283 636.167 77.251 632.551 77.251C629.188 77.251 627.094 75.7436 626.879 73.6408V73.6282ZM634.81 67.0665C634.81 65.2171 633.959 64.0517 632.614 64.0517C631.269 64.0517 630.444 65.2044 630.444 67.0665C630.444 68.9286 631.257 69.98 632.614 69.98C633.972 69.98 634.81 68.9539 634.81 67.0792V67.0665ZM640.051 67.0665C640.051 63.2663 642.385 60.9989 645.989 60.9989C649.593 60.9989 651.941 63.2663 651.941 67.0665C651.941 70.8667 649.657 73.1468 645.989 73.1468C642.322 73.1468 640.051 70.9427 640.051 67.0792V67.0665ZM648.109 67.0665C648.109 64.9764 647.284 63.7477 645.989 63.7477C644.695 63.7477 643.946 65.0271 643.946 67.0919C643.946 69.1566 644.746 70.3854 646.04 70.3854C647.334 70.3854 648.109 69.2073 648.109 67.0919V67.0665ZM653.387 58.4654C653.377 58.0817 653.482 57.7037 653.687 57.3793C653.893 57.0549 654.19 56.7987 654.542 56.6432C654.893 56.4877 655.283 56.4399 655.662 56.5059C656.041 56.5718 656.391 56.7485 656.669 57.0136C656.947 57.2787 657.14 57.6203 657.224 57.9949C657.307 58.3696 657.277 58.7606 657.138 59.1183C656.998 59.4759 656.755 59.7842 656.44 60.004C656.125 60.2238 655.751 60.3452 655.367 60.3529C655.112 60.3703 654.857 60.335 654.616 60.2491C654.376 60.1632 654.155 60.0286 653.97 59.8538C653.784 59.6789 653.636 59.4676 653.536 59.233C653.436 58.9984 653.385 58.7457 653.387 58.4908V58.4654ZM653.387 61.2522H657.194V72.8808H653.387V61.2522ZM671.014 67.0665C671.014 70.8667 669.326 73.0328 666.433 73.0328C665.691 73.0804 664.952 72.8993 664.317 72.5142C663.681 72.129 663.179 71.5584 662.879 70.8794H662.803V76.605H658.996V61.2269H662.803V63.3043H662.879C663.165 62.6141 663.658 62.0286 664.289 61.6274C664.92 61.2263 665.66 61.0289 666.407 61.0622C669.326 61.1129 671.064 63.2917 671.064 67.0919L671.014 67.0665ZM667.207 67.0665C667.207 65.2171 666.356 64.039 665.024 64.039C663.692 64.039 662.841 65.2298 662.829 67.0665C662.816 68.9033 663.692 70.0813 665.024 70.0813C666.356 70.0813 667.207 68.9286 667.207 67.0919V67.0665ZM677.549 60.9862C680.709 60.9862 682.625 62.481 682.714 64.8751H679.249C679.249 64.0517 678.564 63.5323 677.511 63.5323C676.457 63.5323 675.988 63.9377 675.988 64.5331C675.988 65.1284 676.407 65.3184 677.257 65.4958L679.693 65.9898C682.016 66.4838 683.005 67.4212 683.005 69.182C683.005 71.5887 680.81 73.1342 677.574 73.1342C674.338 73.1342 672.219 71.5887 672.054 69.22H675.721C675.836 70.0813 676.521 70.588 677.638 70.588C678.754 70.588 679.262 70.2207 679.262 69.6126C679.262 69.0046 678.907 68.8779 677.993 68.6879L675.798 68.2192C673.526 67.7506 672.333 66.5472 672.333 64.7737C672.359 62.4936 674.402 61.0116 677.549 61.0116V60.9862ZM695.708 72.8555H692.04V70.6894H691.964C691.763 71.4166 691.318 72.0532 690.704 72.4933C690.09 72.9334 689.344 73.1506 688.589 73.1088C688.01 73.1416 687.432 73.0502 686.892 72.8405C686.352 72.6309 685.863 72.3081 685.459 71.8938C685.055 71.4795 684.745 70.9834 684.549 70.4391C684.353 69.8948 684.277 69.3149 684.325 68.7386V61.2269H688.132V67.8646C688.132 69.2453 688.843 69.98 690.023 69.98C690.3 69.9806 690.573 69.9221 690.825 69.8084C691.078 69.6948 691.303 69.5287 691.485 69.3211C691.668 69.1136 691.804 68.8695 691.884 68.6052C691.965 68.3409 691.988 68.0624 691.952 67.7886V61.2269H695.759L695.708 72.8555ZM697.548 61.2269H701.228V63.469H701.304C701.506 62.7514 701.941 62.1209 702.54 61.6762C703.139 61.2315 703.869 60.9978 704.616 61.0116C705.376 60.9508 706.13 61.1778 706.73 61.6472C707.329 62.1166 707.73 62.7942 707.852 63.545H707.928C708.158 62.7862 708.635 62.1254 709.283 61.6667C709.931 61.208 710.713 60.9775 711.507 61.0116C712.024 60.9942 712.54 61.0858 713.02 61.2803C713.5 61.4748 713.933 61.768 714.292 62.1407C714.651 62.5135 714.928 62.9574 715.104 63.4438C715.28 63.9302 715.351 64.448 715.313 64.9638V72.8808H711.507V65.9771C711.507 64.7104 710.936 64.1277 709.87 64.1277C709.632 64.1257 709.397 64.1746 709.179 64.2711C708.962 64.3676 708.768 64.5095 708.611 64.6872C708.453 64.8649 708.336 65.0743 708.266 65.3011C708.196 65.528 708.176 65.7672 708.207 66.0025V72.8808H704.591V65.9265C704.591 64.7611 704.02 64.1277 702.979 64.1277C702.739 64.1278 702.501 64.1787 702.282 64.2772C702.063 64.3757 701.867 64.5194 701.707 64.699C701.548 64.8786 701.428 65.0898 701.357 65.3189C701.285 65.5479 701.263 65.7896 701.291 66.0278V72.8808H697.484L697.548 61.2269Z" fill="#1E1B1B"/>
<path d="M597.604 58.2122C596.958 56.7382 596.103 55.3645 595.066 54.1333C593.532 52.259 591.618 50.7301 589.45 49.6473C587.282 48.5645 584.908 47.9524 582.486 47.8512C580.064 47.75 577.648 48.162 575.397 49.0601C573.145 49.9582 571.11 51.322 569.425 53.0618C567.74 54.8017 566.443 56.878 565.619 59.1542C564.796 61.4305 564.465 63.8549 564.648 66.2681C564.831 68.6813 565.524 71.0284 566.681 73.1551C567.838 75.2817 569.433 77.1396 571.361 78.6065C572.598 79.5666 573.966 80.347 575.422 80.9246C577.464 81.7599 579.649 82.1902 581.856 82.1914C586.41 82.1813 590.775 80.3689 593.994 77.1515C597.212 73.934 599.021 69.574 599.025 65.0272C599.028 62.6819 598.544 60.3613 597.604 58.2122ZM581.843 51.3338C583.824 51.3336 585.782 51.766 587.579 52.6006C587.141 52.7895 586.68 52.9215 586.208 52.9933C584.656 53.2176 583.218 53.9371 582.108 55.0443C580.999 56.1516 580.278 57.5872 580.054 59.1369C579.955 60.006 579.559 60.8146 578.932 61.4261C578.306 62.0377 577.487 62.4147 576.615 62.4937C575.062 62.7181 573.624 63.4375 572.515 64.5448C571.406 65.652 570.685 67.0876 570.46 68.6374C570.384 69.4638 570.031 70.2404 569.458 70.8415C568.469 68.7555 568.024 66.4537 568.166 64.1503C568.308 61.8468 569.031 59.6166 570.269 57.6672C571.506 55.7177 573.217 54.1124 575.243 53.0007C577.269 51.8889 579.544 51.3068 581.856 51.3085L581.843 51.3338ZM571.348 73.8943C571.501 73.755 571.653 73.6283 571.805 73.4763C572.934 72.3837 573.659 70.9414 573.861 69.3847C573.943 68.5097 574.334 67.6925 574.965 67.0793C575.572 66.4487 576.389 66.0612 577.262 65.9899C578.814 65.7656 580.253 65.0461 581.362 63.9389C582.471 62.8316 583.192 61.396 583.416 59.8463C583.471 58.9311 583.865 58.0688 584.52 57.4268C585.142 56.8085 585.967 56.4351 586.843 56.3754C588.269 56.1795 589.599 55.5466 590.65 54.564C591.846 55.5547 592.859 56.7464 593.644 58.0855C593.596 58.1506 593.541 58.21 593.479 58.2629C592.874 58.899 592.058 59.2949 591.183 59.3776C589.628 59.598 588.188 60.3162 587.078 61.4242C585.968 62.5321 585.249 63.9699 585.028 65.5212C584.939 66.3933 584.55 67.2076 583.928 67.8263C583.306 68.445 582.488 68.83 581.614 68.916C580.057 69.1387 578.614 69.8567 577.498 70.9635C576.383 72.0703 575.654 73.5068 575.422 75.0597C575.354 75.6788 575.141 76.2732 574.8 76.7951C573.498 76.0235 572.332 75.0435 571.348 73.8943ZM581.843 78.7839C580.555 78.7853 579.274 78.6062 578.036 78.2518C578.459 77.4639 578.735 76.6053 578.848 75.7184C578.937 74.8483 579.324 74.0354 579.943 73.417C580.563 72.7985 581.377 72.4123 582.249 72.3235C583.804 72.1017 585.245 71.3834 586.356 70.2759C587.468 69.1685 588.191 67.7315 588.416 66.1799C588.505 65.3098 588.892 64.497 589.512 63.8785C590.131 63.26 590.945 62.8739 591.817 62.7851C592.987 62.6332 594.102 62.1983 595.066 61.5183C595.601 63.5425 595.664 65.662 595.251 67.7144C594.838 69.7667 593.959 71.6974 592.683 73.3582C591.406 75.019 589.765 76.3658 587.886 77.2953C586.007 78.2249 583.94 78.7124 581.843 78.7205V78.7839Z" fill="#1E1B1B"/>
<path d="M1132.46 57.756H1136.53V74.2235H1132.46V57.756ZM1138.15 68.0292C1138.15 63.9504 1140.69 61.5056 1144.5 61.5056C1148.31 61.5056 1150.84 63.9504 1150.84 68.0292C1150.84 72.1081 1148.39 74.5782 1144.5 74.5782C1140.6 74.5782 1138.15 72.1968 1138.15 68.0292ZM1146.81 68.0292C1146.81 65.7871 1145.93 64.4697 1144.54 64.4697C1143.14 64.4697 1142.28 65.7364 1142.28 68.0292C1142.28 70.322 1143.14 71.5761 1144.54 71.5761C1145.93 71.5761 1146.83 70.322 1146.83 68.0419L1146.81 68.0292ZM1152.47 75.0722H1156.4C1156.58 75.495 1156.89 75.8477 1157.29 76.0764C1157.69 76.3051 1158.15 76.3973 1158.61 76.339C1160.17 76.339 1160.98 75.5029 1160.98 74.2615V71.9814H1161C1160.66 72.6914 1160.12 73.2832 1159.44 73.6789C1158.76 74.0745 1157.97 74.2556 1157.19 74.1982C1154.21 74.1982 1152.23 71.9308 1152.23 68.0292C1152.23 64.1277 1154.12 61.6956 1157.3 61.6956C1158.11 61.6526 1158.91 61.8598 1159.59 62.2886C1160.27 62.7173 1160.8 63.3466 1161.11 64.0897H1161V61.7969H1165.03V74.1349C1165.03 77.1117 1162.39 78.9738 1158.51 78.9738C1154.98 78.9611 1152.72 77.3524 1152.49 75.0849L1152.47 75.0722ZM1161 68.0292C1161 66.0405 1160.08 64.7864 1158.64 64.7864C1157.19 64.7864 1156.3 66.0531 1156.3 68.0292C1156.3 70.0053 1157.18 71.1707 1158.64 71.1707C1160.09 71.1707 1161 70.094 1161 68.0292ZM1166.64 68.0292C1166.64 63.9504 1169.18 61.5056 1172.99 61.5056C1176.79 61.5056 1179.33 63.9504 1179.33 68.0292C1179.33 72.1081 1176.87 74.5782 1172.99 74.5782C1169.1 74.5782 1166.67 72.1968 1166.67 68.0292H1166.64ZM1175.3 68.0292C1175.3 65.7871 1174.41 64.4697 1173.03 64.4697C1171.64 64.4697 1170.77 65.7364 1170.77 68.0292C1170.77 70.322 1171.63 71.5761 1173.03 71.5761C1174.42 71.5761 1175.32 70.322 1175.32 68.0419L1175.3 68.0292ZM1180.98 58.7948C1180.96 58.3806 1181.07 57.9706 1181.29 57.6175C1181.51 57.2644 1181.82 56.9843 1182.2 56.8134C1182.58 56.6425 1183 56.5885 1183.41 56.6584C1183.82 56.7282 1184.2 56.9188 1184.5 57.2055C1184.8 57.4921 1185.01 57.8619 1185.1 58.2671C1185.18 58.6723 1185.15 59.0945 1184.99 59.4793C1184.84 59.864 1184.57 60.1939 1184.23 60.4263C1183.88 60.6587 1183.48 60.7832 1183.06 60.7835C1182.8 60.7903 1182.53 60.7443 1182.29 60.6483C1182.04 60.5523 1181.81 60.4083 1181.62 60.2244C1181.43 60.0406 1181.28 59.8207 1181.17 59.5774C1181.07 59.3342 1181.01 59.0724 1181.01 58.8074L1180.98 58.7948ZM1180.98 61.7842H1185.11V74.2742H1181.05L1180.98 61.7842ZM1199.94 68.0292C1199.94 72.0954 1198.11 74.4515 1195 74.4515C1194.21 74.5006 1193.42 74.3045 1192.74 73.89C1192.05 73.4754 1191.52 72.8623 1191.2 72.1334H1191.12V78.2897H1187.05V61.8223H1191.1V64.0517H1191.17C1191.48 63.3085 1192.01 62.6786 1192.69 62.2479C1193.38 61.8172 1194.17 61.6067 1194.98 61.6449C1198.18 61.6196 1200.02 63.963 1200.02 68.0419L1199.94 68.0292ZM1195.79 68.0292C1195.79 66.0531 1194.86 64.7737 1193.43 64.7737C1192 64.7737 1191.1 66.0405 1191.08 68.0292C1191.07 70.018 1192 71.2721 1193.43 71.2721C1194.86 71.2721 1195.87 70.094 1195.87 68.0419L1195.79 68.0292ZM1206.89 61.4929C1210.31 61.4929 1212.43 63.1016 1212.45 65.6858H1208.73C1208.73 64.7864 1207.99 64.229 1206.87 64.229C1205.75 64.229 1205.22 64.6597 1205.22 65.3058C1205.22 65.9518 1205.69 66.1545 1206.63 66.3445L1209.24 66.8765C1211.78 67.4085 1212.79 68.4219 1212.79 70.3093C1212.79 72.8428 1210.45 74.5655 1206.96 74.5655C1203.47 74.5655 1201.2 72.8935 1201.03 70.3473H1204.98C1205.09 71.2721 1205.83 71.8167 1207.02 71.8167C1208.21 71.8167 1208.77 71.4367 1208.77 70.7654C1208.77 70.094 1208.39 69.98 1207.41 69.7773L1205.05 69.2833C1202.61 68.7639 1201.32 67.4845 1201.32 65.5718C1201.4 63.089 1203.53 61.5056 1206.97 61.5056L1206.89 61.4929ZM1226.44 74.2615H1222.49V71.9181H1222.41C1222.19 72.6997 1221.71 73.3829 1221.05 73.855C1220.39 74.327 1219.58 74.5598 1218.77 74.5149C1218.16 74.5348 1217.55 74.4251 1216.98 74.1928C1216.41 73.9606 1215.9 73.6111 1215.48 73.1673C1215.05 72.7235 1214.73 72.1954 1214.53 71.6178C1214.32 71.0401 1214.24 70.4258 1214.29 69.8153V61.7969H1218.37V68.9413C1218.37 70.4107 1219.14 71.2087 1220.41 71.2087C1220.71 71.2065 1221 71.1405 1221.27 71.0152C1221.54 70.89 1221.78 70.7084 1221.97 70.4826C1222.17 70.2569 1222.31 69.9923 1222.39 69.7067C1222.48 69.4212 1222.5 69.1213 1222.45 68.8273V61.7969H1226.51L1226.44 74.2615ZM1228.4 61.7842H1232.36V64.191H1232.45C1232.67 63.42 1233.14 62.7432 1233.78 62.2664C1234.43 61.7897 1235.21 61.5399 1236.02 61.5562C1236.82 61.4863 1237.63 61.7189 1238.27 62.2085C1238.91 62.6981 1239.35 63.4096 1239.49 64.2037H1239.67C1239.93 63.4053 1240.44 62.7129 1241.12 62.2342C1241.81 61.7554 1242.64 61.5171 1243.48 61.5562C1244.04 61.5351 1244.59 61.6316 1245.11 61.8394C1245.63 62.0473 1246.09 62.3618 1246.48 62.7624C1246.87 63.163 1247.16 63.6406 1247.35 64.164C1247.54 64.6874 1247.62 65.2449 1247.58 65.7998V74.2742H1243.48V66.8385C1243.48 65.5718 1242.88 64.8624 1241.73 64.8624C1241.47 64.8582 1241.22 64.9093 1240.98 65.0123C1240.75 65.1153 1240.54 65.2676 1240.37 65.4589C1240.2 65.6503 1240.07 65.876 1240 66.1207C1239.92 66.3653 1239.9 66.6232 1239.94 66.8765V74.2742H1236.06V66.8005C1236.06 65.5338 1235.43 64.8624 1234.32 64.8624C1234.06 64.8603 1233.8 64.9136 1233.57 65.0185C1233.33 65.1235 1233.12 65.2777 1232.95 65.4708C1232.77 65.664 1232.65 65.8916 1232.57 66.1384C1232.49 66.3853 1232.47 66.6455 1232.5 66.9018V74.2742H1228.43L1228.4 61.7842Z" fill="#1E1B1B"/>
<path d="M1124.4 58.833C1124.4 56.3119 1123.64 53.8494 1122.21 51.7682C1120.78 49.6871 1118.76 48.0842 1116.41 47.1697C1114.06 46.2551 1111.48 46.0714 1109.02 46.6427C1106.56 47.214 1104.33 48.5136 1102.62 50.3713H1086.79V83.7369H1120.22V68.1435C1121.54 66.9717 1122.59 65.5369 1123.31 63.9326C1124.02 62.3284 1124.4 60.5907 1124.4 58.833ZM1117.96 58.833C1117.97 60.0412 1117.61 61.2229 1116.94 62.2286C1116.27 63.2343 1115.31 64.0189 1114.2 64.4829C1113.08 64.947 1111.85 65.0697 1110.66 64.8356C1109.48 64.6014 1108.38 64.0209 1107.53 63.1675C1106.67 62.3141 1106.09 61.2262 1105.85 60.0415C1105.61 58.8568 1105.73 57.6285 1106.2 56.5121C1106.66 55.3957 1107.44 54.4414 1108.45 53.7699C1109.45 53.0985 1110.64 52.7401 1111.85 52.7401C1113.47 52.7401 1115.02 53.3816 1116.17 54.5239C1117.32 55.6662 1117.96 57.2159 1117.96 58.833ZM1113.79 77.3146H1093.22V56.7936H1099.49C1099.37 57.4668 1099.3 58.1491 1099.3 58.833C1099.3 62.1546 1100.62 65.3392 1102.98 67.6879C1105.33 70.0367 1108.52 71.3576 1111.85 71.361C1112.5 71.3576 1113.15 71.3025 1113.79 71.1963V77.3146Z" fill="#1E1B1B"/>
</g>
</svg>
