<svg width="177" height="64" viewBox="0 0 177 64" fill="none" xmlns="http://www.w3.org/2000/svg">
<rect width="177" height="64" rx="12" fill="#FF6433"/>
<path d="M41.44 39H49.189V37.227H43.321V26.04H41.44V39ZM55.028 39.27C55.97 39.27 56.825 39.033 57.593 38.559C58.361 38.079 58.934 37.404 59.312 36.534L57.467 35.949C56.975 36.981 56.132 37.497 54.938 37.497C54.122 37.497 53.48 37.251 53.012 36.759C52.544 36.267 52.271 35.571 52.193 34.671H59.438C59.504 33.507 59.366 32.502 59.024 31.656C58.682 30.81 58.163 30.159 57.467 29.703C56.771 29.241 55.928 29.01 54.938 29.01C53.99 29.01 53.159 29.223 52.445 29.649C51.731 30.075 51.173 30.678 50.771 31.458C50.375 32.238 50.177 33.159 50.177 34.221C50.177 35.223 50.378 36.105 50.78 36.867C51.188 37.623 51.755 38.214 52.481 38.64C53.213 39.06 54.062 39.27 55.028 39.27ZM55.01 30.675C56.48 30.675 57.314 31.518 57.512 33.204H52.238C52.358 32.382 52.649 31.755 53.111 31.323C53.573 30.891 54.206 30.675 55.01 30.675ZM64.0265 39.27C65.5745 39.27 66.7415 38.709 67.5275 37.587V39H69.1925V33.015C69.1925 32.607 69.1745 32.226 69.1385 31.872C69.1025 31.518 69.0065 31.182 68.8505 30.864C68.5505 30.222 68.0765 29.754 67.4285 29.46C66.7865 29.16 66.0305 29.01 65.1605 29.01C64.0385 29.01 63.1385 29.256 62.4605 29.748C61.7825 30.24 61.3265 30.903 61.0925 31.737L62.8475 32.277C63.0155 31.737 63.3125 31.347 63.7385 31.107C64.1645 30.867 64.6325 30.747 65.1425 30.747C65.8985 30.747 66.4445 30.909 66.7805 31.233C67.1225 31.551 67.3085 32.046 67.3385 32.718C66.5465 32.826 65.7725 32.94 65.0165 33.06C64.2605 33.174 63.6005 33.312 63.0365 33.474C62.2865 33.714 61.7165 34.071 61.3265 34.545C60.9365 35.019 60.7415 35.622 60.7415 36.354C60.7415 36.882 60.8645 37.368 61.1105 37.812C61.3625 38.25 61.7315 38.604 62.2175 38.874C62.7095 39.138 63.3125 39.27 64.0265 39.27ZM64.3595 37.731C63.7595 37.731 63.3155 37.593 63.0275 37.317C62.7455 37.041 62.6045 36.714 62.6045 36.336C62.6045 35.952 62.7305 35.649 62.9825 35.427C63.2405 35.205 63.5615 35.028 63.9455 34.896C64.3535 34.776 64.8335 34.671 65.3855 34.581C65.9435 34.491 66.5885 34.392 67.3205 34.284C67.3145 34.512 67.2995 34.767 67.2755 35.049C67.2515 35.331 67.2005 35.583 67.1225 35.805C67.0505 36.123 66.8975 36.429 66.6635 36.723C66.4355 37.017 66.1265 37.26 65.7365 37.452C65.3525 37.638 64.8935 37.731 64.3595 37.731ZM71.5295 39H73.4285V34.095C73.4285 33.525 73.5185 32.997 73.6985 32.511C73.8785 32.025 74.1965 31.635 74.6525 31.341C74.9765 31.131 75.3335 31.008 75.7235 30.972C76.1135 30.936 76.4645 30.96 76.7765 31.044V29.28C76.3385 29.196 75.8735 29.199 75.3815 29.289C74.8955 29.379 74.4695 29.559 74.1035 29.829C73.7435 30.069 73.4435 30.402 73.2035 30.828V29.28H71.5295V39ZM78.4815 39H80.3895V33.942C80.3895 33.174 80.5005 32.562 80.7225 32.106C80.9505 31.644 81.2505 31.311 81.6225 31.107C81.9945 30.903 82.4055 30.801 82.8555 30.801C83.3715 30.801 83.7915 30.906 84.1155 31.116C84.4395 31.326 84.6885 31.602 84.8625 31.944C85.0365 32.286 85.1535 32.658 85.2135 33.06C85.2795 33.456 85.3125 33.843 85.3125 34.221V39H87.2205V33.6C87.2205 33.3 87.1935 32.952 87.1395 32.556C87.0855 32.16 86.9835 31.755 86.8335 31.341C86.6835 30.927 86.4645 30.546 86.1765 30.198C85.8945 29.844 85.5255 29.559 85.0695 29.343C84.6135 29.127 84.0495 29.019 83.3775 29.019C82.6755 29.019 82.0515 29.145 81.5055 29.397C80.9655 29.649 80.5185 29.997 80.1645 30.441V29.28H78.4815V39ZM93.1592 39H95.0492V32.925C95.0492 32.265 95.2292 31.731 95.5892 31.323C95.9552 30.915 96.4352 30.711 97.0292 30.711C97.6292 30.711 98.1062 30.915 98.4602 31.323C98.8202 31.725 99.0002 32.277 99.0002 32.979L98.9912 39H100.872L100.881 32.925C100.881 32.193 101.076 31.641 101.466 31.269C101.862 30.897 102.327 30.711 102.861 30.711C103.449 30.711 103.923 30.909 104.283 31.305C104.643 31.701 104.823 32.247 104.823 32.943L104.814 39H106.695L106.704 32.493C106.704 31.449 106.413 30.612 105.831 29.982C105.255 29.352 104.445 29.037 103.401 29.037C102.765 29.037 102.189 29.178 101.673 29.46C101.157 29.736 100.749 30.12 100.449 30.612C100.191 30.12 99.8222 29.736 99.3422 29.46C98.8682 29.178 98.2952 29.037 97.6232 29.037C97.0412 29.037 96.5072 29.154 96.0212 29.388C95.5412 29.616 95.1452 29.928 94.8332 30.324V29.28H93.1592V39ZM113.139 39.27C114.105 39.27 114.945 39.054 115.659 38.622C116.373 38.184 116.925 37.581 117.315 36.813C117.711 36.039 117.909 35.145 117.909 34.131C117.909 33.129 117.714 32.244 117.324 31.476C116.934 30.702 116.382 30.099 115.668 29.667C114.954 29.229 114.111 29.01 113.139 29.01C112.185 29.01 111.351 29.226 110.637 29.658C109.923 30.09 109.368 30.69 108.972 31.458C108.576 32.226 108.378 33.117 108.378 34.131C108.378 35.133 108.573 36.021 108.963 36.795C109.353 37.569 109.902 38.175 110.61 38.613C111.324 39.051 112.167 39.27 113.139 39.27ZM113.139 37.497C112.233 37.497 111.546 37.194 111.078 36.588C110.61 35.976 110.376 35.157 110.376 34.131C110.376 33.141 110.601 32.337 111.051 31.719C111.501 31.095 112.197 30.783 113.139 30.783C114.057 30.783 114.747 31.086 115.209 31.692C115.677 32.298 115.911 33.111 115.911 34.131C115.911 35.127 115.68 35.937 115.218 36.561C114.762 37.185 114.069 37.497 113.139 37.497ZM119.887 39H121.786V34.095C121.786 33.525 121.876 32.997 122.056 32.511C122.236 32.025 122.554 31.635 123.01 31.341C123.334 31.131 123.691 31.008 124.081 30.972C124.471 30.936 124.822 30.96 125.134 31.044V29.28C124.696 29.196 124.231 29.199 123.739 29.289C123.253 29.379 122.827 29.559 122.461 29.829C122.101 30.069 121.801 30.402 121.561 30.828V29.28H119.887V39ZM130.983 39.27C131.925 39.27 132.78 39.033 133.548 38.559C134.316 38.079 134.889 37.404 135.267 36.534L133.422 35.949C132.93 36.981 132.087 37.497 130.893 37.497C130.077 37.497 129.435 37.251 128.967 36.759C128.499 36.267 128.226 35.571 128.148 34.671H135.393C135.459 33.507 135.321 32.502 134.979 31.656C134.637 30.81 134.118 30.159 133.422 29.703C132.726 29.241 131.883 29.01 130.893 29.01C129.945 29.01 129.114 29.223 128.4 29.649C127.686 30.075 127.128 30.678 126.726 31.458C126.33 32.238 126.132 33.159 126.132 34.221C126.132 35.223 126.333 36.105 126.735 36.867C127.143 37.623 127.71 38.214 128.436 38.64C129.168 39.06 130.017 39.27 130.983 39.27ZM130.965 30.675C132.435 30.675 133.269 31.518 133.467 33.204H128.193C128.313 32.382 128.604 31.755 129.066 31.323C129.528 30.891 130.161 30.675 130.965 30.675Z" fill="white"/>
</svg>
