<svg width="177" height="64" viewBox="0 0 177 64" fill="none" xmlns="http://www.w3.org/2000/svg">
<rect width="177" height="64" rx="12" fill="#1E1B1B"/>
<path d="M46.669 39.27C45.373 39.27 44.269 38.988 43.357 38.424C42.445 37.854 41.746 37.062 41.26 36.048C40.78 35.034 40.54 33.858 40.54 32.52C40.54 31.182 40.78 30.006 41.26 28.992C41.746 27.978 42.445 27.189 43.357 26.625C44.269 26.055 45.373 25.77 46.669 25.77C48.163 25.77 49.399 26.148 50.377 26.904C51.361 27.66 52.045 28.677 52.429 29.955L50.521 30.468C50.269 29.562 49.819 28.851 49.171 28.335C48.529 27.819 47.695 27.561 46.669 27.561C45.751 27.561 44.986 27.768 44.374 28.182C43.762 28.596 43.3 29.175 42.988 29.919C42.682 30.663 42.529 31.53 42.529 32.52C42.523 33.51 42.673 34.377 42.979 35.121C43.291 35.865 43.753 36.444 44.365 36.858C44.983 37.272 45.751 37.479 46.669 37.479C47.695 37.479 48.529 37.221 49.171 36.705C49.819 36.183 50.269 35.472 50.521 34.572L52.429 35.085C52.045 36.363 51.361 37.38 50.377 38.136C49.399 38.892 48.163 39.27 46.669 39.27ZM58.6294 39.27C57.6574 39.27 56.8144 39.051 56.1004 38.613C55.3864 38.175 54.8344 37.572 54.4444 36.804C54.0604 36.03 53.8684 35.139 53.8684 34.131C53.8684 33.117 54.0664 32.226 54.4624 31.458C54.8584 30.684 55.4134 30.084 56.1274 29.658C56.8414 29.226 57.6754 29.01 58.6294 29.01C59.6014 29.01 60.4444 29.229 61.1584 29.667C61.8724 30.105 62.4244 30.708 62.8144 31.476C63.2044 32.244 63.3994 33.129 63.3994 34.131C63.3994 35.145 63.2014 36.039 62.8054 36.813C62.4154 37.581 61.8634 38.184 61.1494 38.622C60.4354 39.054 59.5954 39.27 58.6294 39.27ZM58.6294 37.497C59.5594 37.497 60.2524 37.185 60.7084 36.561C61.1704 35.931 61.4014 35.121 61.4014 34.131C61.4014 33.117 61.1674 32.307 60.6994 31.701C60.2374 31.089 59.5474 30.783 58.6294 30.783C57.9994 30.783 57.4804 30.927 57.0724 31.215C56.6644 31.497 56.3614 31.89 56.1634 32.394C55.9654 32.892 55.8664 33.471 55.8664 34.131C55.8664 35.151 56.1004 35.967 56.5684 36.579C57.0364 37.191 57.7234 37.497 58.6294 37.497ZM72.1992 39V34.221C72.1992 33.843 72.1662 33.456 72.1002 33.06C72.0402 32.658 71.9202 32.286 71.7402 31.944C71.5662 31.602 71.3172 31.326 70.9932 31.116C70.6752 30.906 70.2582 30.801 69.7422 30.801C69.4062 30.801 69.0882 30.858 68.7882 30.972C68.4882 31.08 68.2242 31.257 67.9962 31.503C67.7742 31.749 67.5972 32.073 67.4652 32.475C67.3392 32.877 67.2762 33.366 67.2762 33.942L66.1062 33.501C66.1062 32.619 66.2712 31.842 66.6012 31.17C66.9312 30.492 67.4052 29.964 68.0232 29.586C68.6412 29.208 69.3882 29.019 70.2642 29.019C70.9362 29.019 71.5002 29.127 71.9562 29.343C72.4122 29.559 72.7812 29.844 73.0632 30.198C73.3512 30.546 73.5702 30.927 73.7202 31.341C73.8702 31.755 73.9722 32.16 74.0262 32.556C74.0802 32.952 74.1072 33.3 74.1072 33.6V39H72.1992ZM65.3682 39V29.28H67.0512V32.088H67.2762V39H65.3682ZM82.0134 39C81.4014 39.12 80.8014 39.171 80.2134 39.153C79.6254 39.135 79.1004 39.021 78.6384 38.811C78.1764 38.601 77.8284 38.271 77.5944 37.821C77.3844 37.419 77.2704 37.011 77.2524 36.597C77.2404 36.177 77.2344 35.703 77.2344 35.175V26.58H79.1244V35.085C79.1244 35.475 79.1274 35.814 79.1334 36.102C79.1454 36.39 79.2084 36.633 79.3224 36.831C79.5384 37.203 79.8804 37.416 80.3484 37.47C80.8224 37.518 81.3774 37.497 82.0134 37.407V39ZM75.3714 30.792V29.28H82.0134V30.792H75.3714ZM86.8077 39.27C86.0877 39.27 85.4847 39.138 84.9987 38.874C84.5127 38.604 84.1437 38.25 83.8917 37.812C83.6457 37.368 83.5227 36.882 83.5227 36.354C83.5227 35.862 83.6097 35.43 83.7837 35.058C83.9577 34.686 84.2157 34.371 84.5577 34.113C84.8997 33.849 85.3197 33.636 85.8177 33.474C86.2497 33.348 86.7387 33.237 87.2847 33.141C87.8307 33.045 88.4037 32.955 89.0037 32.871C89.6097 32.787 90.2097 32.703 90.8037 32.619L90.1197 32.997C90.1317 32.235 89.9697 31.671 89.6337 31.305C89.3037 30.933 88.7337 30.747 87.9237 30.747C87.4137 30.747 86.9457 30.867 86.5197 31.107C86.0937 31.341 85.7967 31.731 85.6287 32.277L83.8737 31.737C84.1137 30.903 84.5697 30.24 85.2417 29.748C85.9197 29.256 86.8197 29.01 87.9417 29.01C88.8117 29.01 89.5677 29.16 90.2097 29.46C90.8577 29.754 91.3317 30.222 91.6317 30.864C91.7877 31.182 91.8837 31.518 91.9197 31.872C91.9557 32.226 91.9737 32.607 91.9737 33.015V39H90.3087V36.777L90.6327 37.065C90.2307 37.809 89.7177 38.364 89.0937 38.73C88.4757 39.09 87.7137 39.27 86.8077 39.27ZM87.1407 37.731C87.6747 37.731 88.1337 37.638 88.5177 37.452C88.9017 37.26 89.2107 37.017 89.4447 36.723C89.6787 36.429 89.8317 36.123 89.9037 35.805C90.0057 35.517 90.0627 35.193 90.0747 34.833C90.0927 34.473 90.1017 34.185 90.1017 33.969L90.7137 34.194C90.1197 34.284 89.5797 34.365 89.0937 34.437C88.6077 34.509 88.1667 34.581 87.7707 34.653C87.3807 34.719 87.0327 34.8 86.7267 34.896C86.4687 34.986 86.2377 35.094 86.0337 35.22C85.8357 35.346 85.6767 35.499 85.5567 35.679C85.4427 35.859 85.3857 36.078 85.3857 36.336C85.3857 36.588 85.4487 36.822 85.5747 37.038C85.7007 37.248 85.8927 37.416 86.1507 37.542C86.4087 37.668 86.7387 37.731 87.1407 37.731ZM98.4688 39.27C97.4728 39.27 96.6268 39.048 95.9308 38.604C95.2348 38.16 94.7008 37.551 94.3288 36.777C93.9628 36.003 93.7768 35.124 93.7708 34.14C93.7768 33.138 93.9688 32.253 94.3468 31.485C94.7248 30.711 95.2648 30.105 95.9668 29.667C96.6688 29.229 97.5118 29.01 98.4958 29.01C99.5578 29.01 100.464 29.274 101.214 29.802C101.97 30.33 102.468 31.053 102.708 31.971L100.836 32.511C100.65 31.965 100.344 31.542 99.9178 31.242C99.4978 30.936 99.0148 30.783 98.4688 30.783C97.8508 30.783 97.3438 30.93 96.9478 31.224C96.5518 31.512 96.2578 31.908 96.0658 32.412C95.8738 32.916 95.7748 33.492 95.7688 34.14C95.7748 35.142 96.0028 35.952 96.4528 36.57C96.9088 37.188 97.5808 37.497 98.4688 37.497C99.0748 37.497 99.5638 37.359 99.9358 37.083C100.314 36.801 100.602 36.399 100.8 35.877L102.708 36.327C102.39 37.275 101.865 38.004 101.133 38.514C100.401 39.018 99.5128 39.27 98.4688 39.27ZM110.103 39C109.491 39.12 108.891 39.171 108.303 39.153C107.715 39.135 107.19 39.021 106.728 38.811C106.266 38.601 105.918 38.271 105.684 37.821C105.474 37.419 105.36 37.011 105.342 36.597C105.33 36.177 105.324 35.703 105.324 35.175V26.58H107.214V35.085C107.214 35.475 107.217 35.814 107.223 36.102C107.235 36.39 107.298 36.633 107.412 36.831C107.628 37.203 107.97 37.416 108.438 37.47C108.912 37.518 109.467 37.497 110.103 37.407V39ZM103.461 30.792V29.28H110.103V30.792H103.461ZM120.922 39.27C119.908 39.27 119.011 39.063 118.231 38.649C117.457 38.229 116.851 37.644 116.413 36.894C115.975 36.138 115.756 35.25 115.756 34.23V26.049L117.664 26.04V34.131C117.664 34.683 117.757 35.169 117.943 35.589C118.129 36.009 118.378 36.36 118.69 36.642C119.002 36.924 119.35 37.137 119.734 37.281C120.124 37.425 120.52 37.497 120.922 37.497C121.33 37.497 121.726 37.425 122.11 37.281C122.5 37.131 122.851 36.915 123.163 36.633C123.475 36.351 123.721 36 123.901 35.58C124.087 35.16 124.18 34.677 124.18 34.131V26.04H126.088V34.23C126.088 35.244 125.869 36.129 125.431 36.885C124.993 37.641 124.384 38.229 123.604 38.649C122.83 39.063 121.936 39.27 120.922 39.27ZM132.323 39.261C131.141 39.261 130.178 39 129.434 38.478C128.69 37.956 128.234 37.221 128.066 36.273L129.992 35.976C130.112 36.48 130.388 36.879 130.82 37.173C131.258 37.461 131.801 37.605 132.449 37.605C133.037 37.605 133.496 37.485 133.826 37.245C134.162 37.005 134.33 36.675 134.33 36.255C134.33 36.009 134.27 35.811 134.15 35.661C134.036 35.505 133.793 35.358 133.421 35.22C133.049 35.082 132.482 34.911 131.72 34.707C130.886 34.491 130.223 34.26 129.731 34.014C129.245 33.762 128.897 33.471 128.687 33.141C128.483 32.805 128.381 32.4 128.381 31.926C128.381 31.338 128.537 30.825 128.849 30.387C129.161 29.949 129.599 29.61 130.163 29.37C130.733 29.13 131.399 29.01 132.161 29.01C132.905 29.01 133.568 29.127 134.15 29.361C134.732 29.595 135.203 29.928 135.563 30.36C135.923 30.786 136.139 31.287 136.211 31.863L134.285 32.214C134.219 31.746 134 31.377 133.628 31.107C133.256 30.837 132.773 30.69 132.179 30.666C131.609 30.642 131.147 30.738 130.793 30.954C130.439 31.164 130.262 31.455 130.262 31.827C130.262 32.043 130.328 32.226 130.46 32.376C130.598 32.526 130.862 32.67 131.252 32.808C131.642 32.946 132.218 33.111 132.98 33.303C133.796 33.513 134.444 33.747 134.924 34.005C135.404 34.257 135.746 34.56 135.95 34.914C136.16 35.262 136.265 35.685 136.265 36.183C136.265 37.143 135.914 37.896 135.212 38.442C134.516 38.988 133.553 39.261 132.323 39.261Z" fill="white"/>
</svg>
