<svg width="206" height="64" viewBox="0 0 206 64" fill="none" xmlns="http://www.w3.org/2000/svg">
<rect width="206" height="64" rx="12" fill="#FF6433"/>
<path d="M45.958 39.27C45.028 39.27 44.188 39.111 43.438 38.793C42.694 38.469 42.079 38.01 41.593 37.416C41.113 36.816 40.801 36.105 40.657 35.283L42.619 34.986C42.817 35.778 43.231 36.396 43.861 36.84C44.491 37.278 45.226 37.497 46.066 37.497C46.588 37.497 47.068 37.416 47.506 37.254C47.944 37.086 48.295 36.849 48.559 36.543C48.829 36.231 48.964 35.859 48.964 35.427C48.964 35.193 48.922 34.986 48.838 34.806C48.76 34.626 48.649 34.47 48.505 34.338C48.367 34.2 48.196 34.083 47.992 33.987C47.794 33.885 47.575 33.798 47.335 33.726L44.014 32.745C43.69 32.649 43.36 32.526 43.024 32.376C42.688 32.22 42.379 32.019 42.097 31.773C41.821 31.521 41.596 31.212 41.422 30.846C41.248 30.474 41.161 30.024 41.161 29.496C41.161 28.698 41.365 28.023 41.773 27.471C42.187 26.913 42.745 26.493 43.447 26.211C44.149 25.923 44.935 25.779 45.805 25.779C46.681 25.791 47.464 25.947 48.154 26.247C48.85 26.547 49.426 26.979 49.882 27.543C50.344 28.101 50.662 28.779 50.836 29.577L48.82 29.919C48.73 29.433 48.538 29.016 48.244 28.668C47.95 28.314 47.59 28.044 47.164 27.858C46.738 27.666 46.276 27.567 45.778 27.561C45.298 27.549 44.857 27.621 44.455 27.777C44.059 27.933 43.741 28.152 43.501 28.434C43.267 28.716 43.15 29.04 43.15 29.406C43.15 29.766 43.255 30.057 43.465 30.279C43.675 30.501 43.933 30.678 44.239 30.81C44.551 30.936 44.86 31.041 45.166 31.125L47.56 31.8C47.86 31.884 48.199 31.998 48.577 32.142C48.961 32.28 49.33 32.475 49.684 32.727C50.044 32.979 50.341 33.315 50.575 33.735C50.809 34.149 50.926 34.671 50.926 35.301C50.926 35.955 50.794 36.531 50.53 37.029C50.266 37.521 49.903 37.935 49.441 38.271C48.985 38.601 48.457 38.85 47.857 39.018C47.257 39.186 46.624 39.27 45.958 39.27ZM57.155 39.27C56.189 39.27 55.34 39.06 54.608 38.64C53.882 38.214 53.315 37.623 52.907 36.867C52.505 36.105 52.304 35.223 52.304 34.221C52.304 33.159 52.502 32.238 52.898 31.458C53.3 30.678 53.858 30.075 54.572 29.649C55.286 29.223 56.117 29.01 57.065 29.01C58.055 29.01 58.898 29.241 59.594 29.703C60.29 30.159 60.809 30.81 61.151 31.656C61.499 32.502 61.637 33.507 61.565 34.671H59.684V33.987C59.672 32.859 59.456 32.025 59.036 31.485C58.622 30.945 57.989 30.675 57.137 30.675C56.195 30.675 55.487 30.972 55.013 31.566C54.539 32.16 54.302 33.018 54.302 34.14C54.302 35.208 54.539 36.036 55.013 36.624C55.487 37.206 56.171 37.497 57.065 37.497C57.653 37.497 58.16 37.365 58.586 37.101C59.018 36.831 59.354 36.447 59.594 35.949L61.439 36.534C61.061 37.404 60.488 38.079 59.72 38.559C58.952 39.033 58.097 39.27 57.155 39.27ZM53.69 34.671V33.204H60.629V34.671H53.69ZM70.1425 39V34.221C70.1425 33.843 70.1095 33.456 70.0435 33.06C69.9835 32.658 69.8635 32.286 69.6835 31.944C69.5095 31.602 69.2605 31.326 68.9365 31.116C68.6185 30.906 68.2015 30.801 67.6855 30.801C67.3495 30.801 67.0315 30.858 66.7315 30.972C66.4315 31.08 66.1675 31.257 65.9395 31.503C65.7175 31.749 65.5405 32.073 65.4085 32.475C65.2825 32.877 65.2195 33.366 65.2195 33.942L64.0495 33.501C64.0495 32.619 64.2145 31.842 64.5445 31.17C64.8745 30.492 65.3485 29.964 65.9665 29.586C66.5845 29.208 67.3315 29.019 68.2075 29.019C68.8795 29.019 69.4435 29.127 69.8995 29.343C70.3555 29.559 70.7245 29.844 71.0065 30.198C71.2945 30.546 71.5135 30.927 71.6635 31.341C71.8135 31.755 71.9155 32.16 71.9695 32.556C72.0235 32.952 72.0505 33.3 72.0505 33.6V39H70.1425ZM63.3115 39V29.28H64.9945V32.088H65.2195V39H63.3115ZM78.1327 39.27C77.2267 39.27 76.4437 39.045 75.7837 38.595C75.1297 38.145 74.6227 37.533 74.2627 36.759C73.9087 35.979 73.7317 35.103 73.7317 34.131C73.7317 33.153 73.9117 32.28 74.2717 31.512C74.6317 30.738 75.1417 30.129 75.8017 29.685C76.4677 29.235 77.2567 29.01 78.1687 29.01C79.0867 29.01 79.8577 29.235 80.4817 29.685C81.1117 30.129 81.5857 30.738 81.9037 31.512C82.2277 32.286 82.3897 33.159 82.3897 34.131C82.3897 35.103 82.2277 35.976 81.9037 36.75C81.5797 37.524 81.1027 38.139 80.4727 38.595C79.8427 39.045 79.0627 39.27 78.1327 39.27ZM78.3937 37.569C79.0117 37.569 79.5157 37.422 79.9057 37.128C80.2957 36.834 80.5807 36.429 80.7607 35.913C80.9407 35.397 81.0307 34.803 81.0307 34.131C81.0307 33.459 80.9377 32.865 80.7517 32.349C80.5717 31.833 80.2897 31.431 79.9057 31.143C79.5277 30.855 79.0447 30.711 78.4567 30.711C77.8327 30.711 77.3197 30.864 76.9177 31.17C76.5157 31.476 76.2157 31.887 76.0177 32.403C75.8257 32.919 75.7297 33.495 75.7297 34.131C75.7297 34.773 75.8257 35.355 76.0177 35.877C76.2157 36.393 76.5097 36.804 76.8997 37.11C77.2957 37.416 77.7937 37.569 78.3937 37.569ZM81.0307 39V32.007H80.8147V26.04H82.7047V39H81.0307ZM100.472 39L100.481 32.943C100.481 32.241 100.301 31.695 99.9414 31.305C99.5814 30.909 99.1074 30.711 98.5194 30.711C98.1594 30.711 97.8294 30.795 97.5294 30.963C97.2354 31.125 96.9954 31.371 96.8094 31.701C96.6294 32.025 96.5394 32.433 96.5394 32.925L95.6304 32.466C95.6184 31.782 95.7624 31.182 96.0624 30.666C96.3684 30.15 96.7824 29.751 97.3044 29.469C97.8264 29.181 98.4114 29.037 99.0594 29.037C100.109 29.037 100.922 29.352 101.498 29.982C102.074 30.612 102.362 31.449 102.362 32.493L102.353 39H100.472ZM88.8174 39V29.28H90.4914V32.088H90.7074V39H88.8174ZM94.6494 39L94.6584 32.979C94.6584 32.271 94.4784 31.716 94.1184 31.314C93.7644 30.912 93.2874 30.711 92.6874 30.711C92.0934 30.711 91.6134 30.915 91.2474 31.323C90.8874 31.731 90.7074 32.265 90.7074 32.925L89.8074 32.349C89.8074 31.713 89.9604 31.146 90.2664 30.648C90.5724 30.15 90.9864 29.757 91.5084 29.469C92.0304 29.181 92.6214 29.037 93.2814 29.037C93.9714 29.037 94.5594 29.184 95.0454 29.478C95.5314 29.766 95.9004 30.171 96.1524 30.693C96.4104 31.215 96.5394 31.821 96.5394 32.511L96.5304 39H94.6494ZM108.887 39.27C107.921 39.27 107.072 39.06 106.34 38.64C105.614 38.214 105.047 37.623 104.639 36.867C104.237 36.105 104.036 35.223 104.036 34.221C104.036 33.159 104.234 32.238 104.63 31.458C105.032 30.678 105.59 30.075 106.304 29.649C107.018 29.223 107.849 29.01 108.797 29.01C109.787 29.01 110.63 29.241 111.326 29.703C112.022 30.159 112.541 30.81 112.883 31.656C113.231 32.502 113.369 33.507 113.297 34.671H111.416V33.987C111.404 32.859 111.188 32.025 110.768 31.485C110.354 30.945 109.721 30.675 108.869 30.675C107.927 30.675 107.219 30.972 106.745 31.566C106.271 32.16 106.034 33.018 106.034 34.14C106.034 35.208 106.271 36.036 106.745 36.624C107.219 37.206 107.903 37.497 108.797 37.497C109.385 37.497 109.892 37.365 110.318 37.101C110.75 36.831 111.086 36.447 111.326 35.949L113.171 36.534C112.793 37.404 112.22 38.079 111.452 38.559C110.684 39.033 109.829 39.27 108.887 39.27ZM105.422 34.671V33.204H112.361V34.671H105.422ZM119.034 39.261C117.852 39.261 116.889 39 116.145 38.478C115.401 37.956 114.945 37.221 114.777 36.273L116.703 35.976C116.823 36.48 117.099 36.879 117.531 37.173C117.969 37.461 118.512 37.605 119.16 37.605C119.748 37.605 120.207 37.485 120.537 37.245C120.873 37.005 121.041 36.675 121.041 36.255C121.041 36.009 120.981 35.811 120.861 35.661C120.747 35.505 120.504 35.358 120.132 35.22C119.76 35.082 119.193 34.911 118.431 34.707C117.597 34.491 116.934 34.26 116.442 34.014C115.956 33.762 115.608 33.471 115.398 33.141C115.194 32.805 115.092 32.4 115.092 31.926C115.092 31.338 115.248 30.825 115.56 30.387C115.872 29.949 116.31 29.61 116.874 29.37C117.444 29.13 118.11 29.01 118.872 29.01C119.616 29.01 120.279 29.127 120.861 29.361C121.443 29.595 121.914 29.928 122.274 30.36C122.634 30.786 122.85 31.287 122.922 31.863L120.996 32.214C120.93 31.746 120.711 31.377 120.339 31.107C119.967 30.837 119.484 30.69 118.89 30.666C118.32 30.642 117.858 30.738 117.504 30.954C117.15 31.164 116.973 31.455 116.973 31.827C116.973 32.043 117.039 32.226 117.171 32.376C117.309 32.526 117.573 32.67 117.963 32.808C118.353 32.946 118.929 33.111 119.691 33.303C120.507 33.513 121.155 33.747 121.635 34.005C122.115 34.257 122.457 34.56 122.661 34.914C122.871 35.262 122.976 35.685 122.976 36.183C122.976 37.143 122.625 37.896 121.923 38.442C121.227 38.988 120.264 39.261 119.034 39.261ZM128.684 39.261C127.502 39.261 126.539 39 125.795 38.478C125.051 37.956 124.595 37.221 124.427 36.273L126.353 35.976C126.473 36.48 126.749 36.879 127.181 37.173C127.619 37.461 128.162 37.605 128.81 37.605C129.398 37.605 129.857 37.485 130.187 37.245C130.523 37.005 130.691 36.675 130.691 36.255C130.691 36.009 130.631 35.811 130.511 35.661C130.397 35.505 130.154 35.358 129.782 35.22C129.41 35.082 128.843 34.911 128.081 34.707C127.247 34.491 126.584 34.26 126.092 34.014C125.606 33.762 125.258 33.471 125.048 33.141C124.844 32.805 124.742 32.4 124.742 31.926C124.742 31.338 124.898 30.825 125.21 30.387C125.522 29.949 125.96 29.61 126.524 29.37C127.094 29.13 127.76 29.01 128.522 29.01C129.266 29.01 129.929 29.127 130.511 29.361C131.093 29.595 131.564 29.928 131.924 30.36C132.284 30.786 132.5 31.287 132.572 31.863L130.646 32.214C130.58 31.746 130.361 31.377 129.989 31.107C129.617 30.837 129.134 30.69 128.54 30.666C127.97 30.642 127.508 30.738 127.154 30.954C126.8 31.164 126.623 31.455 126.623 31.827C126.623 32.043 126.689 32.226 126.821 32.376C126.959 32.526 127.223 32.67 127.613 32.808C128.003 32.946 128.579 33.111 129.341 33.303C130.157 33.513 130.805 33.747 131.285 34.005C131.765 34.257 132.107 34.56 132.311 34.914C132.521 35.262 132.626 35.685 132.626 36.183C132.626 37.143 132.275 37.896 131.573 38.442C130.877 38.988 129.914 39.261 128.684 39.261ZM137.362 39.27C136.642 39.27 136.039 39.138 135.553 38.874C135.067 38.604 134.698 38.25 134.446 37.812C134.2 37.368 134.077 36.882 134.077 36.354C134.077 35.862 134.164 35.43 134.338 35.058C134.512 34.686 134.77 34.371 135.112 34.113C135.454 33.849 135.874 33.636 136.372 33.474C136.804 33.348 137.293 33.237 137.839 33.141C138.385 33.045 138.958 32.955 139.558 32.871C140.164 32.787 140.764 32.703 141.358 32.619L140.674 32.997C140.686 32.235 140.524 31.671 140.188 31.305C139.858 30.933 139.288 30.747 138.478 30.747C137.968 30.747 137.5 30.867 137.074 31.107C136.648 31.341 136.351 31.731 136.183 32.277L134.428 31.737C134.668 30.903 135.124 30.24 135.796 29.748C136.474 29.256 137.374 29.01 138.496 29.01C139.366 29.01 140.122 29.16 140.764 29.46C141.412 29.754 141.886 30.222 142.186 30.864C142.342 31.182 142.438 31.518 142.474 31.872C142.51 32.226 142.528 32.607 142.528 33.015V39H140.863V36.777L141.187 37.065C140.785 37.809 140.272 38.364 139.648 38.73C139.03 39.09 138.268 39.27 137.362 39.27ZM137.695 37.731C138.229 37.731 138.688 37.638 139.072 37.452C139.456 37.26 139.765 37.017 139.999 36.723C140.233 36.429 140.386 36.123 140.458 35.805C140.56 35.517 140.617 35.193 140.629 34.833C140.647 34.473 140.656 34.185 140.656 33.969L141.268 34.194C140.674 34.284 140.134 34.365 139.648 34.437C139.162 34.509 138.721 34.581 138.325 34.653C137.935 34.719 137.587 34.8 137.281 34.896C137.023 34.986 136.792 35.094 136.588 35.22C136.39 35.346 136.231 35.499 136.111 35.679C135.997 35.859 135.94 36.078 135.94 36.336C135.94 36.588 136.003 36.822 136.129 37.038C136.255 37.248 136.447 37.416 136.705 37.542C136.963 37.668 137.293 37.731 137.695 37.731ZM148.87 43.59C148.348 43.59 147.841 43.509 147.349 43.347C146.863 43.185 146.419 42.945 146.017 42.627C145.615 42.315 145.282 41.928 145.018 41.466L146.755 40.584C146.965 40.998 147.265 41.301 147.655 41.493C148.045 41.685 148.456 41.781 148.888 41.781C149.422 41.781 149.878 41.685 150.256 41.493C150.634 41.307 150.919 41.025 151.111 40.647C151.309 40.269 151.405 39.801 151.399 39.243V36.525H151.624V29.28H153.289V39.261C153.289 39.519 153.28 39.765 153.262 39.999C153.244 40.233 153.211 40.467 153.163 40.701C153.025 41.355 152.761 41.895 152.371 42.321C151.987 42.747 151.495 43.065 150.895 43.275C150.301 43.485 149.626 43.59 148.87 43.59ZM148.726 39.27C147.82 39.27 147.037 39.045 146.377 38.595C145.723 38.145 145.216 37.533 144.856 36.759C144.502 35.979 144.325 35.103 144.325 34.131C144.325 33.153 144.505 32.28 144.865 31.512C145.225 30.738 145.735 30.129 146.395 29.685C147.061 29.235 147.85 29.01 148.762 29.01C149.68 29.01 150.451 29.235 151.075 29.685C151.705 30.129 152.179 30.738 152.497 31.512C152.821 32.286 152.983 33.159 152.983 34.131C152.983 35.103 152.821 35.976 152.497 36.75C152.173 37.524 151.696 38.139 151.066 38.595C150.436 39.045 149.656 39.27 148.726 39.27ZM148.987 37.569C149.605 37.569 150.109 37.422 150.499 37.128C150.889 36.834 151.174 36.429 151.354 35.913C151.534 35.397 151.624 34.803 151.624 34.131C151.624 33.459 151.531 32.865 151.345 32.349C151.165 31.833 150.883 31.431 150.499 31.143C150.121 30.855 149.638 30.711 149.05 30.711C148.426 30.711 147.913 30.864 147.511 31.17C147.109 31.476 146.809 31.887 146.611 32.403C146.419 32.919 146.323 33.495 146.323 34.131C146.323 34.773 146.419 35.355 146.611 35.877C146.809 36.393 147.103 36.804 147.493 37.11C147.889 37.416 148.387 37.569 148.987 37.569ZM160.128 39.27C159.162 39.27 158.313 39.06 157.581 38.64C156.855 38.214 156.288 37.623 155.88 36.867C155.478 36.105 155.277 35.223 155.277 34.221C155.277 33.159 155.475 32.238 155.871 31.458C156.273 30.678 156.831 30.075 157.545 29.649C158.259 29.223 159.09 29.01 160.038 29.01C161.028 29.01 161.871 29.241 162.567 29.703C163.263 30.159 163.782 30.81 164.124 31.656C164.472 32.502 164.61 33.507 164.538 34.671H162.657V33.987C162.645 32.859 162.429 32.025 162.009 31.485C161.595 30.945 160.962 30.675 160.11 30.675C159.168 30.675 158.46 30.972 157.986 31.566C157.512 32.16 157.275 33.018 157.275 34.14C157.275 35.208 157.512 36.036 157.986 36.624C158.46 37.206 159.144 37.497 160.038 37.497C160.626 37.497 161.133 37.365 161.559 37.101C161.991 36.831 162.327 36.447 162.567 35.949L164.412 36.534C164.034 37.404 163.461 38.079 162.693 38.559C161.925 39.033 161.07 39.27 160.128 39.27ZM156.663 34.671V33.204H163.602V34.671H156.663Z" fill="white"/>
</svg>
