<svg width="203" height="64" viewBox="0 0 203 64" fill="none" xmlns="http://www.w3.org/2000/svg">
<rect width="203" height="64" rx="12" fill="#FF6433"/>
<path d="M41.26 39V26.04H46.354C47.176 26.04 47.866 26.208 48.424 26.544C48.982 26.88 49.402 27.315 49.684 27.849C49.966 28.377 50.107 28.935 50.107 29.523C50.107 30.237 49.93 30.849 49.576 31.359C49.228 31.869 48.757 32.217 48.163 32.403L48.145 31.962C48.973 32.166 49.609 32.565 50.053 33.159C50.497 33.747 50.719 34.434 50.719 35.22C50.719 35.982 50.566 36.645 50.26 37.209C49.96 37.773 49.519 38.214 48.937 38.532C48.361 38.844 47.662 39 46.84 39H41.26ZM43.168 37.209H46.552C46.978 37.209 47.359 37.128 47.695 36.966C48.037 36.804 48.304 36.573 48.496 36.273C48.694 35.967 48.793 35.604 48.793 35.184C48.793 34.794 48.706 34.443 48.532 34.131C48.364 33.813 48.118 33.564 47.794 33.384C47.476 33.198 47.101 33.105 46.669 33.105H43.168V37.209ZM43.168 31.332H46.327C46.675 31.332 46.987 31.263 47.263 31.125C47.545 30.981 47.767 30.777 47.929 30.513C48.097 30.243 48.181 29.919 48.181 29.541C48.181 29.037 48.013 28.623 47.677 28.299C47.341 27.975 46.891 27.813 46.327 27.813H43.168V31.332ZM56.731 39.27C55.759 39.27 54.916 39.051 54.202 38.613C53.488 38.175 52.936 37.572 52.546 36.804C52.162 36.03 51.97 35.139 51.97 34.131C51.97 33.117 52.168 32.226 52.564 31.458C52.96 30.684 53.515 30.084 54.229 29.658C54.943 29.226 55.777 29.01 56.731 29.01C57.703 29.01 58.546 29.229 59.26 29.667C59.974 30.105 60.526 30.708 60.916 31.476C61.306 32.244 61.501 33.129 61.501 34.131C61.501 35.145 61.303 36.039 60.907 36.813C60.517 37.581 59.965 38.184 59.251 38.622C58.537 39.054 57.697 39.27 56.731 39.27ZM56.731 37.497C57.661 37.497 58.354 37.185 58.81 36.561C59.272 35.931 59.503 35.121 59.503 34.131C59.503 33.117 59.269 32.307 58.801 31.701C58.339 31.089 57.649 30.783 56.731 30.783C56.101 30.783 55.582 30.927 55.174 31.215C54.766 31.497 54.463 31.89 54.265 32.394C54.067 32.892 53.968 33.471 53.968 34.131C53.968 35.151 54.202 35.967 54.67 36.579C55.138 37.191 55.825 37.497 56.731 37.497ZM67.6998 39.27C66.7278 39.27 65.8848 39.051 65.1708 38.613C64.4568 38.175 63.9048 37.572 63.5148 36.804C63.1308 36.03 62.9388 35.139 62.9388 34.131C62.9388 33.117 63.1368 32.226 63.5328 31.458C63.9288 30.684 64.4838 30.084 65.1978 29.658C65.9118 29.226 66.7458 29.01 67.6998 29.01C68.6718 29.01 69.5148 29.229 70.2288 29.667C70.9428 30.105 71.4948 30.708 71.8848 31.476C72.2748 32.244 72.4698 33.129 72.4698 34.131C72.4698 35.145 72.2718 36.039 71.8758 36.813C71.4858 37.581 70.9338 38.184 70.2198 38.622C69.5058 39.054 68.6658 39.27 67.6998 39.27ZM67.6998 37.497C68.6298 37.497 69.3228 37.185 69.7788 36.561C70.2408 35.931 70.4718 35.121 70.4718 34.131C70.4718 33.117 70.2378 32.307 69.7698 31.701C69.3078 31.089 68.6178 30.783 67.6998 30.783C67.0698 30.783 66.5508 30.927 66.1428 31.215C65.7348 31.497 65.4318 31.89 65.2338 32.394C65.0358 32.892 64.9368 33.471 64.9368 34.131C64.9368 35.151 65.1708 35.967 65.6388 36.579C66.1068 37.191 66.7938 37.497 67.6998 37.497ZM74.4385 39L74.4475 26.04H76.3555V33.96L80.1715 29.28H82.5655L78.5335 34.14L82.9795 39H80.4235L76.3555 34.32V39H74.4385ZM90.2355 39.27C89.5155 39.27 88.9125 39.138 88.4265 38.874C87.9405 38.604 87.5715 38.25 87.3195 37.812C87.0735 37.368 86.9505 36.882 86.9505 36.354C86.9505 35.862 87.0375 35.43 87.2115 35.058C87.3855 34.686 87.6435 34.371 87.9855 34.113C88.3275 33.849 88.7475 33.636 89.2455 33.474C89.6775 33.348 90.1665 33.237 90.7125 33.141C91.2585 33.045 91.8315 32.955 92.4315 32.871C93.0375 32.787 93.6375 32.703 94.2315 32.619L93.5475 32.997C93.5595 32.235 93.3975 31.671 93.0615 31.305C92.7315 30.933 92.1615 30.747 91.3515 30.747C90.8415 30.747 90.3735 30.867 89.9475 31.107C89.5215 31.341 89.2245 31.731 89.0565 32.277L87.3015 31.737C87.5415 30.903 87.9975 30.24 88.6695 29.748C89.3475 29.256 90.2475 29.01 91.3695 29.01C92.2395 29.01 92.9955 29.16 93.6375 29.46C94.2855 29.754 94.7595 30.222 95.0595 30.864C95.2155 31.182 95.3115 31.518 95.3475 31.872C95.3835 32.226 95.4015 32.607 95.4015 33.015V39H93.7365V36.777L94.0605 37.065C93.6585 37.809 93.1455 38.364 92.5215 38.73C91.9035 39.09 91.1415 39.27 90.2355 39.27ZM90.5685 37.731C91.1025 37.731 91.5615 37.638 91.9455 37.452C92.3295 37.26 92.6385 37.017 92.8725 36.723C93.1065 36.429 93.2595 36.123 93.3315 35.805C93.4335 35.517 93.4905 35.193 93.5025 34.833C93.5205 34.473 93.5295 34.185 93.5295 33.969L94.1415 34.194C93.5475 34.284 93.0075 34.365 92.5215 34.437C92.0355 34.509 91.5945 34.581 91.1985 34.653C90.8085 34.719 90.4605 34.8 90.1545 34.896C89.8965 34.986 89.6655 35.094 89.4615 35.22C89.2635 35.346 89.1045 35.499 88.9845 35.679C88.8705 35.859 88.8135 36.078 88.8135 36.336C88.8135 36.588 88.8765 36.822 89.0025 37.038C89.1285 37.248 89.3205 37.416 89.5785 37.542C89.8365 37.668 90.1665 37.731 90.5685 37.731ZM105.059 39.261C103.877 39.261 102.914 39 102.17 38.478C101.426 37.956 100.97 37.221 100.802 36.273L102.728 35.976C102.848 36.48 103.124 36.879 103.556 37.173C103.994 37.461 104.537 37.605 105.185 37.605C105.773 37.605 106.232 37.485 106.562 37.245C106.898 37.005 107.066 36.675 107.066 36.255C107.066 36.009 107.006 35.811 106.886 35.661C106.772 35.505 106.529 35.358 106.157 35.22C105.785 35.082 105.218 34.911 104.456 34.707C103.622 34.491 102.959 34.26 102.467 34.014C101.981 33.762 101.633 33.471 101.423 33.141C101.219 32.805 101.117 32.4 101.117 31.926C101.117 31.338 101.273 30.825 101.585 30.387C101.897 29.949 102.335 29.61 102.899 29.37C103.469 29.13 104.135 29.01 104.897 29.01C105.641 29.01 106.304 29.127 106.886 29.361C107.468 29.595 107.939 29.928 108.299 30.36C108.659 30.786 108.875 31.287 108.947 31.863L107.021 32.214C106.955 31.746 106.736 31.377 106.364 31.107C105.992 30.837 105.509 30.69 104.915 30.666C104.345 30.642 103.883 30.738 103.529 30.954C103.175 31.164 102.998 31.455 102.998 31.827C102.998 32.043 103.064 32.226 103.196 32.376C103.334 32.526 103.598 32.67 103.988 32.808C104.378 32.946 104.954 33.111 105.716 33.303C106.532 33.513 107.18 33.747 107.66 34.005C108.14 34.257 108.482 34.56 108.686 34.914C108.896 35.262 109.001 35.685 109.001 36.183C109.001 37.143 108.65 37.896 107.948 38.442C107.252 38.988 106.289 39.261 105.059 39.261ZM115.303 39.27C114.337 39.27 113.488 39.06 112.756 38.64C112.03 38.214 111.463 37.623 111.055 36.867C110.653 36.105 110.452 35.223 110.452 34.221C110.452 33.159 110.65 32.238 111.046 31.458C111.448 30.678 112.006 30.075 112.72 29.649C113.434 29.223 114.265 29.01 115.213 29.01C116.203 29.01 117.046 29.241 117.742 29.703C118.438 30.159 118.957 30.81 119.299 31.656C119.647 32.502 119.785 33.507 119.713 34.671H117.832V33.987C117.82 32.859 117.604 32.025 117.184 31.485C116.77 30.945 116.137 30.675 115.285 30.675C114.343 30.675 113.635 30.972 113.161 31.566C112.687 32.16 112.45 33.018 112.45 34.14C112.45 35.208 112.687 36.036 113.161 36.624C113.635 37.206 114.319 37.497 115.213 37.497C115.801 37.497 116.308 37.365 116.734 37.101C117.166 36.831 117.502 36.447 117.742 35.949L119.587 36.534C119.209 37.404 118.636 38.079 117.868 38.559C117.1 39.033 116.245 39.27 115.303 39.27ZM111.838 34.671V33.204H118.777V34.671H111.838ZM121.733 39V29.28H123.407V31.638L123.173 31.332C123.293 31.02 123.449 30.735 123.641 30.477C123.833 30.213 124.055 29.997 124.307 29.829C124.553 29.649 124.826 29.511 125.126 29.415C125.432 29.313 125.744 29.253 126.062 29.235C126.38 29.211 126.686 29.226 126.98 29.28V31.044C126.662 30.96 126.308 30.936 125.918 30.972C125.534 31.008 125.18 31.131 124.856 31.341C124.55 31.539 124.307 31.779 124.127 32.061C123.953 32.343 123.827 32.658 123.749 33.006C123.671 33.348 123.632 33.711 123.632 34.095V39H121.733ZM131.322 39L127.794 29.28H129.693L132.276 36.642L134.859 29.28H136.758L133.23 39H131.322ZM138.559 27.687V25.86H140.44V27.687H138.559ZM138.559 39V29.28H140.44V39H138.559ZM147.301 39.27C146.305 39.27 145.459 39.048 144.763 38.604C144.067 38.16 143.533 37.551 143.161 36.777C142.795 36.003 142.609 35.124 142.603 34.14C142.609 33.138 142.801 32.253 143.179 31.485C143.557 30.711 144.097 30.105 144.799 29.667C145.501 29.229 146.344 29.01 147.328 29.01C148.39 29.01 149.296 29.274 150.046 29.802C150.802 30.33 151.3 31.053 151.54 31.971L149.668 32.511C149.482 31.965 149.176 31.542 148.75 31.242C148.33 30.936 147.847 30.783 147.301 30.783C146.683 30.783 146.176 30.93 145.78 31.224C145.384 31.512 145.09 31.908 144.898 32.412C144.706 32.916 144.607 33.492 144.601 34.14C144.607 35.142 144.835 35.952 145.285 36.57C145.741 37.188 146.413 37.497 147.301 37.497C147.907 37.497 148.396 37.359 148.768 37.083C149.146 36.801 149.434 36.399 149.632 35.877L151.54 36.327C151.222 37.275 150.697 38.004 149.965 38.514C149.233 39.018 148.345 39.27 147.301 39.27ZM157.421 39.27C156.455 39.27 155.606 39.06 154.874 38.64C154.148 38.214 153.581 37.623 153.173 36.867C152.771 36.105 152.57 35.223 152.57 34.221C152.57 33.159 152.768 32.238 153.164 31.458C153.566 30.678 154.124 30.075 154.838 29.649C155.552 29.223 156.383 29.01 157.331 29.01C158.321 29.01 159.164 29.241 159.86 29.703C160.556 30.159 161.075 30.81 161.417 31.656C161.765 32.502 161.903 33.507 161.831 34.671H159.95V33.987C159.938 32.859 159.722 32.025 159.302 31.485C158.888 30.945 158.255 30.675 157.403 30.675C156.461 30.675 155.753 30.972 155.279 31.566C154.805 32.16 154.568 33.018 154.568 34.14C154.568 35.208 154.805 36.036 155.279 36.624C155.753 37.206 156.437 37.497 157.331 37.497C157.919 37.497 158.426 37.365 158.852 37.101C159.284 36.831 159.62 36.447 159.86 35.949L161.705 36.534C161.327 37.404 160.754 38.079 159.986 38.559C159.218 39.033 158.363 39.27 157.421 39.27ZM153.956 34.671V33.204H160.895V34.671H153.956Z" fill="white"/>
</svg>
