<svg width="375" height="56" viewBox="0 0 375 56" fill="none" xmlns="http://www.w3.org/2000/svg">
<path d="M45.26 47H47.033V38.126L51.227 47H52.082L56.267 38.126V46.991H58.049V34.04H56.33L51.659 43.787L46.961 34.04H45.26V47ZM64.7915 47.27C65.7575 47.27 66.5975 47.054 67.3115 46.622C68.0255 46.184 68.5775 45.581 68.9675 44.813C69.3635 44.039 69.5615 43.145 69.5615 42.131C69.5615 41.129 69.3665 40.244 68.9765 39.476C68.5865 38.702 68.0345 38.099 67.3205 37.667C66.6065 37.229 65.7635 37.01 64.7915 37.01C63.8375 37.01 63.0035 37.226 62.2895 37.658C61.5755 38.09 61.0205 38.69 60.6245 39.458C60.2285 40.226 60.0305 41.117 60.0305 42.131C60.0305 43.133 60.2255 44.021 60.6155 44.795C61.0055 45.569 61.5545 46.175 62.2625 46.613C62.9765 47.051 63.8195 47.27 64.7915 47.27ZM64.7915 45.497C63.8855 45.497 63.1985 45.194 62.7305 44.588C62.2625 43.976 62.0285 43.157 62.0285 42.131C62.0285 41.141 62.2535 40.337 62.7035 39.719C63.1535 39.095 63.8495 38.783 64.7915 38.783C65.7095 38.783 66.3995 39.086 66.8615 39.692C67.3295 40.298 67.5635 41.111 67.5635 42.131C67.5635 43.127 67.3325 43.937 66.8705 44.561C66.4145 45.185 65.7215 45.497 64.7915 45.497ZM71.5303 47H73.4383V41.942C73.4383 41.174 73.5493 40.562 73.7713 40.106C73.9993 39.644 74.2993 39.311 74.6713 39.107C75.0433 38.903 75.4543 38.801 75.9043 38.801C76.4203 38.801 76.8403 38.906 77.1643 39.116C77.4883 39.326 77.7373 39.602 77.9113 39.944C78.0853 40.286 78.2023 40.658 78.2623 41.06C78.3283 41.456 78.3613 41.843 78.3613 42.221V47H80.2693V41.6C80.2693 41.3 80.2423 40.952 80.1883 40.556C80.1343 40.16 80.0323 39.755 79.8823 39.341C79.7323 38.927 79.5133 38.546 79.2253 38.198C78.9433 37.844 78.5743 37.559 78.1183 37.343C77.6623 37.127 77.0983 37.019 76.4263 37.019C75.7243 37.019 75.1003 37.145 74.5543 37.397C74.0143 37.649 73.5673 37.997 73.2133 38.441V37.28H71.5303V47ZM86.3515 47.27C86.9635 47.27 87.5095 47.168 87.9895 46.964C88.4755 46.76 88.8955 46.475 89.2495 46.109V47H90.9235V34.04H89.0335V37.946C88.6975 37.646 88.3075 37.415 87.8635 37.253C87.4195 37.091 86.9275 37.01 86.3875 37.01C85.4755 37.01 84.6865 37.235 84.0205 37.685C83.3605 38.129 82.8505 38.738 82.4905 39.512C82.1305 40.28 81.9505 41.153 81.9505 42.131C81.9505 43.103 82.1275 43.976 82.4815 44.75C82.8415 45.524 83.3515 46.139 84.0115 46.595C84.6715 47.045 85.4515 47.27 86.3515 47.27ZM86.6125 45.569C86.0125 45.569 85.5145 45.416 85.1185 45.11C84.7225 44.804 84.4285 44.393 84.2365 43.877C84.0445 43.355 83.9485 42.773 83.9485 42.131C83.9485 41.495 84.0445 40.919 84.2365 40.403C84.4345 39.887 84.7345 39.476 85.1365 39.17C85.5385 38.864 86.0515 38.711 86.6755 38.711C87.5635 38.711 88.2145 39.029 88.6285 39.665C89.0425 40.301 89.2495 41.123 89.2495 42.131C89.2495 43.139 89.0425 43.964 88.6285 44.606C88.2145 45.248 87.5425 45.569 86.6125 45.569ZM96.1866 47.27C97.7346 47.27 98.9016 46.709 99.6876 45.587V47H101.353V41.015C101.353 40.607 101.335 40.226 101.299 39.872C101.263 39.518 101.167 39.182 101.011 38.864C100.711 38.222 100.237 37.754 99.5886 37.46C98.9466 37.16 98.1906 37.01 97.3206 37.01C96.1986 37.01 95.2986 37.256 94.6206 37.748C93.9426 38.24 93.4866 38.903 93.2526 39.737L95.0076 40.277C95.1756 39.737 95.4726 39.347 95.8986 39.107C96.3246 38.867 96.7926 38.747 97.3026 38.747C98.0586 38.747 98.6046 38.909 98.9406 39.233C99.2826 39.551 99.4686 40.046 99.4986 40.718C98.7066 40.826 97.9326 40.94 97.1766 41.06C96.4206 41.174 95.7606 41.312 95.1966 41.474C94.4466 41.714 93.8766 42.071 93.4866 42.545C93.0966 43.019 92.9016 43.622 92.9016 44.354C92.9016 44.882 93.0246 45.368 93.2706 45.812C93.5226 46.25 93.8916 46.604 94.3776 46.874C94.8696 47.138 95.4726 47.27 96.1866 47.27ZM96.5196 45.731C95.9196 45.731 95.4756 45.593 95.1876 45.317C94.9056 45.041 94.7646 44.714 94.7646 44.336C94.7646 43.952 94.8906 43.649 95.1426 43.427C95.4006 43.205 95.7216 43.028 96.1056 42.896C96.5136 42.776 96.9936 42.671 97.5456 42.581C98.1036 42.491 98.7486 42.392 99.4806 42.284C99.4746 42.512 99.4596 42.767 99.4356 43.049C99.4116 43.331 99.3606 43.583 99.2826 43.805C99.2106 44.123 99.0576 44.429 98.8236 44.723C98.5956 45.017 98.2866 45.26 97.8966 45.452C97.5126 45.638 97.0536 45.731 96.5196 45.731ZM104.459 51.32H106.25L111.614 37.28H109.706L106.961 44.588L104.09 37.28H102.128L106.061 46.955L104.459 51.32ZM122.189 47V45.407C121.553 45.503 120.998 45.524 120.524 45.47C120.056 45.41 119.714 45.197 119.498 44.831C119.384 44.633 119.321 44.39 119.309 44.102C119.303 43.814 119.3 43.475 119.3 43.085V38.792H122.189V37.28H119.3V34.58H117.41V37.28H115.547V38.792H117.41V43.175C117.41 43.703 117.416 44.177 117.428 44.597C117.446 45.011 117.56 45.419 117.77 45.821C118.01 46.271 118.361 46.601 118.823 46.811C119.285 47.021 119.81 47.135 120.398 47.153C120.986 47.171 121.583 47.12 122.189 47ZM128.002 47.27C128.968 47.27 129.808 47.054 130.522 46.622C131.236 46.184 131.788 45.581 132.178 44.813C132.574 44.039 132.772 43.145 132.772 42.131C132.772 41.129 132.577 40.244 132.187 39.476C131.797 38.702 131.245 38.099 130.531 37.667C129.817 37.229 128.974 37.01 128.002 37.01C127.048 37.01 126.214 37.226 125.5 37.658C124.786 38.09 124.231 38.69 123.835 39.458C123.439 40.226 123.241 41.117 123.241 42.131C123.241 43.133 123.436 44.021 123.826 44.795C124.216 45.569 124.765 46.175 125.473 46.613C126.187 47.051 127.03 47.27 128.002 47.27ZM128.002 45.497C127.096 45.497 126.409 45.194 125.941 44.588C125.473 43.976 125.239 43.157 125.239 42.131C125.239 41.141 125.464 40.337 125.914 39.719C126.364 39.095 127.06 38.783 128.002 38.783C128.92 38.783 129.61 39.086 130.072 39.692C130.54 40.298 130.774 41.111 130.774 42.131C130.774 43.127 130.543 43.937 130.081 44.561C129.625 45.185 128.932 45.497 128.002 45.497ZM138.354 47H140.235V41.465H144.951V39.575H140.235V35.921H146.031V34.04H138.354V47ZM147.653 47H149.552V42.095C149.552 41.525 149.642 40.997 149.822 40.511C150.002 40.025 150.32 39.635 150.776 39.341C151.1 39.131 151.457 39.008 151.847 38.972C152.237 38.936 152.588 38.96 152.9 39.044V37.28C152.462 37.196 151.997 37.199 151.505 37.289C151.019 37.379 150.593 37.559 150.227 37.829C149.867 38.069 149.567 38.402 149.327 38.828V37.28H147.653V47ZM154.794 35.687H156.675V33.86H154.794V35.687ZM154.794 47H156.675V37.28H154.794V47ZM163.238 47.27C163.85 47.27 164.396 47.168 164.876 46.964C165.362 46.76 165.782 46.475 166.136 46.109V47H167.81V34.04H165.92V37.946C165.584 37.646 165.194 37.415 164.75 37.253C164.306 37.091 163.814 37.01 163.274 37.01C162.362 37.01 161.573 37.235 160.907 37.685C160.247 38.129 159.737 38.738 159.377 39.512C159.017 40.28 158.837 41.153 158.837 42.131C158.837 43.103 159.014 43.976 159.368 44.75C159.728 45.524 160.238 46.139 160.898 46.595C161.558 47.045 162.338 47.27 163.238 47.27ZM163.499 45.569C162.899 45.569 162.401 45.416 162.005 45.11C161.609 44.804 161.315 44.393 161.123 43.877C160.931 43.355 160.835 42.773 160.835 42.131C160.835 41.495 160.931 40.919 161.123 40.403C161.321 39.887 161.621 39.476 162.023 39.17C162.425 38.864 162.938 38.711 163.562 38.711C164.45 38.711 165.101 39.029 165.515 39.665C165.929 40.301 166.136 41.123 166.136 42.131C166.136 43.139 165.929 43.964 165.515 44.606C165.101 45.248 164.429 45.569 163.499 45.569ZM173.073 47.27C174.621 47.27 175.788 46.709 176.574 45.587V47H178.239V41.015C178.239 40.607 178.221 40.226 178.185 39.872C178.149 39.518 178.053 39.182 177.897 38.864C177.597 38.222 177.123 37.754 176.475 37.46C175.833 37.16 175.077 37.01 174.207 37.01C173.085 37.01 172.185 37.256 171.507 37.748C170.829 38.24 170.373 38.903 170.139 39.737L171.894 40.277C172.062 39.737 172.359 39.347 172.785 39.107C173.211 38.867 173.679 38.747 174.189 38.747C174.945 38.747 175.491 38.909 175.827 39.233C176.169 39.551 176.355 40.046 176.385 40.718C175.593 40.826 174.819 40.94 174.063 41.06C173.307 41.174 172.647 41.312 172.083 41.474C171.333 41.714 170.763 42.071 170.373 42.545C169.983 43.019 169.788 43.622 169.788 44.354C169.788 44.882 169.911 45.368 170.157 45.812C170.409 46.25 170.778 46.604 171.264 46.874C171.756 47.138 172.359 47.27 173.073 47.27ZM173.406 45.731C172.806 45.731 172.362 45.593 172.074 45.317C171.792 45.041 171.651 44.714 171.651 44.336C171.651 43.952 171.777 43.649 172.029 43.427C172.287 43.205 172.608 43.028 172.992 42.896C173.4 42.776 173.88 42.671 174.432 42.581C174.99 42.491 175.635 42.392 176.367 42.284C176.361 42.512 176.346 42.767 176.322 43.049C176.298 43.331 176.247 43.583 176.169 43.805C176.097 44.123 175.944 44.429 175.71 44.723C175.482 45.017 175.173 45.26 174.783 45.452C174.399 45.638 173.94 45.731 173.406 45.731ZM181.345 51.32H183.136L188.5 37.28H186.592L183.847 44.588L180.976 37.28H179.014L182.947 46.955L181.345 51.32ZM197.726 33.779C196.916 33.779 196.175 33.974 195.503 34.364C194.831 34.748 194.291 35.27 193.883 35.93C193.481 36.584 193.28 37.316 193.28 38.126C193.28 38.936 193.46 39.662 193.82 40.304C194.186 40.946 194.684 41.453 195.314 41.825C195.944 42.197 196.664 42.383 197.474 42.383C198.008 42.383 198.515 42.281 198.995 42.077C199.475 41.873 199.898 41.588 200.264 41.222V42.77C200.264 43.244 200.147 43.688 199.913 44.102C199.685 44.516 199.364 44.852 198.95 45.11C198.542 45.362 198.071 45.488 197.537 45.488C197.117 45.488 196.721 45.395 196.349 45.209C195.983 45.017 195.677 44.762 195.431 44.444L194.054 45.731C194.492 46.241 195.011 46.625 195.611 46.883C196.211 47.141 196.853 47.27 197.537 47.27C198.449 47.27 199.253 47.072 199.949 46.676C200.651 46.28 201.197 45.728 201.587 45.02C201.983 44.306 202.181 43.475 202.181 42.527V38.396C202.181 37.508 201.983 36.716 201.587 36.02C201.197 35.324 200.663 34.778 199.985 34.382C199.313 33.98 198.56 33.779 197.726 33.779ZM197.726 35.588C198.194 35.588 198.62 35.705 199.004 35.939C199.388 36.167 199.694 36.473 199.922 36.857C200.15 37.241 200.264 37.664 200.264 38.126C200.264 38.594 200.147 39.02 199.913 39.404C199.685 39.788 199.379 40.094 198.995 40.322C198.611 40.55 198.185 40.664 197.717 40.664C197.249 40.664 196.823 40.55 196.439 40.322C196.055 40.094 195.749 39.788 195.521 39.404C195.299 39.02 195.188 38.594 195.188 38.126C195.188 37.658 195.302 37.232 195.53 36.848C195.758 36.464 196.064 36.158 196.448 35.93C196.832 35.702 197.258 35.588 197.726 35.588ZM205.414 45.74H207.403V43.751H205.414V45.74ZM205.423 40.529H207.412V38.54H205.423V40.529ZM215.118 47.27C216 47.27 216.78 47.078 217.458 46.694C218.136 46.304 218.667 45.77 219.051 45.092C219.441 44.408 219.636 43.628 219.636 42.752V38.288C219.636 37.406 219.441 36.626 219.051 35.948C218.667 35.27 218.136 34.739 217.458 34.355C216.78 33.965 216 33.77 215.118 33.77C214.242 33.77 213.462 33.965 212.778 34.355C212.1 34.739 211.566 35.27 211.176 35.948C210.792 36.626 210.6 37.406 210.6 38.288V42.752C210.6 43.628 210.792 44.408 211.176 45.092C211.566 45.77 212.1 46.304 212.778 46.694C213.462 47.078 214.242 47.27 215.118 47.27ZM215.118 45.47C214.638 45.47 214.2 45.356 213.804 45.128C213.408 44.894 213.093 44.579 212.859 44.183C212.631 43.787 212.517 43.349 212.517 42.869V38.153C212.517 37.673 212.631 37.238 212.859 36.848C213.093 36.452 213.408 36.14 213.804 35.912C214.2 35.678 214.638 35.561 215.118 35.561C215.604 35.561 216.042 35.678 216.432 35.912C216.828 36.14 217.14 36.452 217.368 36.848C217.602 37.238 217.719 37.673 217.719 38.153V42.869C217.719 43.349 217.602 43.787 217.368 44.183C217.14 44.579 216.828 44.894 216.432 45.128C216.042 45.356 215.604 45.47 215.118 45.47ZM226.667 47.27C227.549 47.27 228.329 47.078 229.007 46.694C229.685 46.304 230.216 45.77 230.6 45.092C230.99 44.408 231.185 43.628 231.185 42.752V38.288C231.185 37.406 230.99 36.626 230.6 35.948C230.216 35.27 229.685 34.739 229.007 34.355C228.329 33.965 227.549 33.77 226.667 33.77C225.791 33.77 225.011 33.965 224.327 34.355C223.649 34.739 223.115 35.27 222.725 35.948C222.341 36.626 222.149 37.406 222.149 38.288V42.752C222.149 43.628 222.341 44.408 222.725 45.092C223.115 45.77 223.649 46.304 224.327 46.694C225.011 47.078 225.791 47.27 226.667 47.27ZM226.667 45.47C226.187 45.47 225.749 45.356 225.353 45.128C224.957 44.894 224.642 44.579 224.408 44.183C224.18 43.787 224.066 43.349 224.066 42.869V38.153C224.066 37.673 224.18 37.238 224.408 36.848C224.642 36.452 224.957 36.14 225.353 35.912C225.749 35.678 226.187 35.561 226.667 35.561C227.153 35.561 227.591 35.678 227.981 35.912C228.377 36.14 228.689 36.452 228.917 36.848C229.151 37.238 229.268 37.673 229.268 38.153V42.869C229.268 43.349 229.151 43.787 228.917 44.183C228.689 44.579 228.377 44.894 227.981 45.128C227.591 45.356 227.153 45.47 226.667 45.47ZM236.401 47H238.354L239.299 44.075H244.618L245.581 47H247.534L243.322 34.04H240.613L236.401 47ZM239.875 42.311L241.945 35.921L244.042 42.311H239.875ZM249.149 47H250.922V38.126L255.116 47H255.971L260.156 38.126V46.991H261.938V34.04H260.219L255.548 43.787L250.85 34.04H249.149V47ZM273.625 47V45.407C272.989 45.503 272.434 45.524 271.96 45.47C271.492 45.41 271.15 45.197 270.934 44.831C270.82 44.633 270.757 44.39 270.745 44.102C270.739 43.814 270.736 43.475 270.736 43.085V38.792H273.625V37.28H270.736V34.58H268.846V37.28H266.983V38.792H268.846V43.175C268.846 43.703 268.852 44.177 268.864 44.597C268.882 45.011 268.996 45.419 269.206 45.821C269.446 46.271 269.797 46.601 270.259 46.811C270.721 47.021 271.246 47.135 271.834 47.153C272.422 47.171 273.019 47.12 273.625 47ZM279.438 47.27C280.404 47.27 281.244 47.054 281.958 46.622C282.672 46.184 283.224 45.581 283.614 44.813C284.01 44.039 284.208 43.145 284.208 42.131C284.208 41.129 284.013 40.244 283.623 39.476C283.233 38.702 282.681 38.099 281.967 37.667C281.253 37.229 280.41 37.01 279.438 37.01C278.484 37.01 277.65 37.226 276.936 37.658C276.222 38.09 275.667 38.69 275.271 39.458C274.875 40.226 274.677 41.117 274.677 42.131C274.677 43.133 274.872 44.021 275.262 44.795C275.652 45.569 276.201 46.175 276.909 46.613C277.623 47.051 278.466 47.27 279.438 47.27ZM279.438 45.497C278.532 45.497 277.845 45.194 277.377 44.588C276.909 43.976 276.675 43.157 276.675 42.131C276.675 41.141 276.9 40.337 277.35 39.719C277.8 39.095 278.496 38.783 279.438 38.783C280.356 38.783 281.046 39.086 281.508 39.692C281.976 40.298 282.21 41.111 282.21 42.131C282.21 43.127 281.979 43.937 281.517 44.561C281.061 45.185 280.368 45.497 279.438 45.497ZM295.652 47H297.569V34.04H295.652L293.213 35.498V37.595L295.652 36.11V47ZM305.505 47.27C306.387 47.27 307.167 47.078 307.845 46.694C308.523 46.304 309.054 45.77 309.438 45.092C309.828 44.408 310.023 43.628 310.023 42.752V38.288C310.023 37.406 309.828 36.626 309.438 35.948C309.054 35.27 308.523 34.739 307.845 34.355C307.167 33.965 306.387 33.77 305.505 33.77C304.629 33.77 303.849 33.965 303.165 34.355C302.487 34.739 301.953 35.27 301.563 35.948C301.179 36.626 300.987 37.406 300.987 38.288V42.752C300.987 43.628 301.179 44.408 301.563 45.092C301.953 45.77 302.487 46.304 303.165 46.694C303.849 47.078 304.629 47.27 305.505 47.27ZM305.505 45.47C305.025 45.47 304.587 45.356 304.191 45.128C303.795 44.894 303.48 44.579 303.246 44.183C303.018 43.787 302.904 43.349 302.904 42.869V38.153C302.904 37.673 303.018 37.238 303.246 36.848C303.48 36.452 303.795 36.14 304.191 35.912C304.587 35.678 305.025 35.561 305.505 35.561C305.991 35.561 306.429 35.678 306.819 35.912C307.215 36.14 307.527 36.452 307.755 36.848C307.989 37.238 308.106 37.673 308.106 38.153V42.869C308.106 43.349 307.989 43.787 307.755 44.183C307.527 44.579 307.215 44.894 306.819 45.128C306.429 45.356 305.991 45.47 305.505 45.47ZM313.255 45.74H315.244V43.751H313.255V45.74ZM313.264 40.529H315.253V38.54H313.264V40.529ZM322.96 47.27C323.842 47.27 324.622 47.078 325.3 46.694C325.978 46.304 326.509 45.77 326.893 45.092C327.283 44.408 327.478 43.628 327.478 42.752V38.288C327.478 37.406 327.283 36.626 326.893 35.948C326.509 35.27 325.978 34.739 325.3 34.355C324.622 33.965 323.842 33.77 322.96 33.77C322.084 33.77 321.304 33.965 320.62 34.355C319.942 34.739 319.408 35.27 319.018 35.948C318.634 36.626 318.442 37.406 318.442 38.288V42.752C318.442 43.628 318.634 44.408 319.018 45.092C319.408 45.77 319.942 46.304 320.62 46.694C321.304 47.078 322.084 47.27 322.96 47.27ZM322.96 45.47C322.48 45.47 322.042 45.356 321.646 45.128C321.25 44.894 320.935 44.579 320.701 44.183C320.473 43.787 320.359 43.349 320.359 42.869V38.153C320.359 37.673 320.473 37.238 320.701 36.848C320.935 36.452 321.25 36.14 321.646 35.912C322.042 35.678 322.48 35.561 322.96 35.561C323.446 35.561 323.884 35.678 324.274 35.912C324.67 36.14 324.982 36.452 325.21 36.848C325.444 37.238 325.561 37.673 325.561 38.153V42.869C325.561 43.349 325.444 43.787 325.21 44.183C324.982 44.579 324.67 44.894 324.274 45.128C323.884 45.356 323.446 45.47 322.96 45.47ZM334.508 47.27C335.39 47.27 336.17 47.078 336.848 46.694C337.526 46.304 338.057 45.77 338.441 45.092C338.831 44.408 339.026 43.628 339.026 42.752V38.288C339.026 37.406 338.831 36.626 338.441 35.948C338.057 35.27 337.526 34.739 336.848 34.355C336.17 33.965 335.39 33.77 334.508 33.77C333.632 33.77 332.852 33.965 332.168 34.355C331.49 34.739 330.956 35.27 330.566 35.948C330.182 36.626 329.99 37.406 329.99 38.288V42.752C329.99 43.628 330.182 44.408 330.566 45.092C330.956 45.77 331.49 46.304 332.168 46.694C332.852 47.078 333.632 47.27 334.508 47.27ZM334.508 45.47C334.028 45.47 333.59 45.356 333.194 45.128C332.798 44.894 332.483 44.579 332.249 44.183C332.021 43.787 331.907 43.349 331.907 42.869V38.153C331.907 37.673 332.021 37.238 332.249 36.848C332.483 36.452 332.798 36.14 333.194 35.912C333.59 35.678 334.028 35.561 334.508 35.561C334.994 35.561 335.432 35.678 335.822 35.912C336.218 36.14 336.53 36.452 336.758 36.848C336.992 37.238 337.109 37.673 337.109 38.153V42.869C337.109 43.349 336.992 43.787 336.758 44.183C336.53 44.579 336.218 44.894 335.822 45.128C335.432 45.356 334.994 45.47 334.508 45.47ZM347.846 47H349.799L350.744 44.075H356.063L357.026 47H358.979L354.767 34.04H352.058L347.846 47ZM351.32 42.311L353.39 35.921L355.487 42.311H351.32ZM360.594 47H362.367V38.126L366.561 47H367.416L371.601 38.126V46.991H373.383V34.04H371.664L366.993 43.787L362.295 34.04H360.594V47Z" fill="#1E1B1B"/>
<path d="M47.576 18L44.24 6.48H45.728L48.288 15.592L50.84 6.488L52.336 6.48L54.896 15.592L57.448 6.48H58.944L55.608 18H54.184L51.592 8.968L49 18H47.576ZM63.0984 18.24C62.2504 18.24 61.509 18.0533 60.8744 17.68C60.245 17.3013 59.7544 16.776 59.4024 16.104C59.0504 15.4267 58.8744 14.6373 58.8744 13.736C58.8744 12.792 59.0477 11.976 59.3944 11.288C59.741 10.5947 60.2237 10.0613 60.8424 9.688C61.4664 9.30933 62.197 9.12 63.0344 9.12C63.9037 9.12 64.6424 9.32 65.2504 9.72C65.8637 10.12 66.3224 10.6907 66.6264 11.432C66.9357 12.1733 67.069 13.056 67.0264 14.08H65.5864V13.568C65.5704 12.5067 65.3544 11.7147 64.9384 11.192C64.5224 10.664 63.9037 10.4 63.0824 10.4C62.2024 10.4 61.533 10.6827 61.0744 11.248C60.6157 11.8133 60.3864 12.624 60.3864 13.68C60.3864 14.6987 60.6157 15.488 61.0744 16.048C61.533 16.608 62.1864 16.888 63.0344 16.888C63.605 16.888 64.101 16.7573 64.5224 16.496C64.9437 16.2347 65.2744 15.8587 65.5144 15.368L66.8824 15.84C66.5464 16.6027 66.0397 17.1947 65.3624 17.616C64.6904 18.032 63.9357 18.24 63.0984 18.24ZM59.9064 14.08V12.936H66.2904V14.08H59.9064ZM74.4666 18.24C73.8213 18.24 73.28 18.1227 72.8426 17.888C72.4106 17.648 72.0826 17.3333 71.8586 16.944C71.64 16.5547 71.5306 16.128 71.5306 15.664C71.5306 15.2107 71.616 14.8187 71.7866 14.488C71.9626 14.152 72.208 13.8747 72.5226 13.656C72.8373 13.432 73.2133 13.256 73.6506 13.128C74.0613 13.016 74.52 12.92 75.0266 12.84C75.5386 12.7547 76.056 12.6773 76.5786 12.608C77.1013 12.5387 77.5893 12.472 78.0426 12.408L77.5306 12.704C77.5466 11.936 77.392 11.368 77.0666 11C76.7466 10.632 76.192 10.448 75.4026 10.448C74.88 10.448 74.4213 10.568 74.0266 10.808C73.6373 11.0427 73.3626 11.4267 73.2026 11.96L71.8506 11.552C72.0586 10.7947 72.4613 10.2 73.0586 9.768C73.656 9.336 74.4426 9.12 75.4186 9.12C76.2026 9.12 76.8746 9.26133 77.4346 9.544C78 9.82133 78.4053 10.2427 78.6506 10.808C78.7733 11.0747 78.8506 11.3653 78.8826 11.68C78.9146 11.9893 78.9306 12.3147 78.9306 12.656V18H77.6666V15.928L77.9626 16.12C77.6373 16.8187 77.1813 17.3467 76.5946 17.704C76.0133 18.0613 75.304 18.24 74.4666 18.24ZM74.6826 17.048C75.1946 17.048 75.6373 16.9573 76.0106 16.776C76.3893 16.5893 76.6933 16.3467 76.9226 16.048C77.152 15.744 77.3013 15.4133 77.3706 15.056C77.4506 14.7893 77.4933 14.4933 77.4986 14.168C77.5093 13.8373 77.5146 13.584 77.5146 13.408L78.0106 13.624C77.5466 13.688 77.0906 13.7493 76.6426 13.808C76.1946 13.8667 75.7706 13.9307 75.3706 14C74.9706 14.064 74.6106 14.1413 74.2906 14.232C74.056 14.3067 73.8346 14.4027 73.6266 14.52C73.424 14.6373 73.2586 14.7893 73.1306 14.976C73.008 15.1573 72.9466 15.384 72.9466 15.656C72.9466 15.8907 73.0053 16.1147 73.1226 16.328C73.2453 16.5413 73.432 16.7147 73.6826 16.848C73.9386 16.9813 74.272 17.048 74.6826 17.048ZM81.0106 18V9.36H82.2826V11.448L82.0746 11.176C82.176 10.9093 82.3066 10.664 82.4666 10.44C82.632 10.216 82.816 10.032 83.0186 9.888C83.2426 9.70667 83.496 9.568 83.7786 9.472C84.0613 9.376 84.3493 9.32 84.6426 9.304C84.936 9.28267 85.2106 9.30133 85.4666 9.36V10.696C85.168 10.616 84.84 10.5947 84.4826 10.632C84.1253 10.6693 83.7946 10.8 83.4906 11.024C83.2133 11.2213 82.9973 11.4613 82.8426 11.744C82.6933 12.0267 82.5893 12.3333 82.5306 12.664C82.472 12.9893 82.4426 13.3227 82.4426 13.664V18H81.0106ZM90.5671 18.24C89.7191 18.24 88.9778 18.0533 88.3431 17.68C87.7138 17.3013 87.2231 16.776 86.8711 16.104C86.5191 15.4267 86.3431 14.6373 86.3431 13.736C86.3431 12.792 86.5165 11.976 86.8631 11.288C87.2098 10.5947 87.6925 10.0613 88.3111 9.688C88.9351 9.30933 89.6658 9.12 90.5031 9.12C91.3725 9.12 92.1111 9.32 92.7191 9.72C93.3325 10.12 93.7911 10.6907 94.0951 11.432C94.4045 12.1733 94.5378 13.056 94.4951 14.08H93.0551V13.568C93.0391 12.5067 92.8231 11.7147 92.4071 11.192C91.9911 10.664 91.3725 10.4 90.5511 10.4C89.6711 10.4 89.0018 10.6827 88.5431 11.248C88.0845 11.8133 87.8551 12.624 87.8551 13.68C87.8551 14.6987 88.0845 15.488 88.5431 16.048C89.0018 16.608 89.6551 16.888 90.5031 16.888C91.0738 16.888 91.5698 16.7573 91.9911 16.496C92.4125 16.2347 92.7431 15.8587 92.9831 15.368L94.3511 15.84C94.0151 16.6027 93.5085 17.1947 92.8311 17.616C92.1591 18.032 91.4045 18.24 90.5671 18.24ZM87.3751 14.08V12.936H93.7591V14.08H87.3751ZM103.159 18.24C102.301 18.24 101.559 18.0453 100.935 17.656C100.317 17.2667 99.8394 16.728 99.5034 16.04C99.1674 15.352 98.9994 14.5627 98.9994 13.672C98.9994 12.7653 99.17 11.9707 99.5114 11.288C99.8527 10.6053 100.335 10.0747 100.959 9.696C101.583 9.312 102.317 9.12 103.159 9.12C104.023 9.12 104.767 9.31467 105.391 9.704C106.015 10.088 106.493 10.624 106.823 11.312C107.159 11.9947 107.327 12.7813 107.327 13.672C107.327 14.5733 107.159 15.368 106.823 16.056C106.487 16.7387 106.007 17.2747 105.383 17.664C104.759 18.048 104.018 18.24 103.159 18.24ZM103.159 16.888C104.055 16.888 104.722 16.5893 105.159 15.992C105.597 15.3947 105.815 14.6213 105.815 13.672C105.815 12.696 105.594 11.92 105.151 11.344C104.709 10.7627 104.045 10.472 103.159 10.472C102.557 10.472 102.061 10.608 101.671 10.88C101.282 11.152 100.991 11.528 100.799 12.008C100.607 12.488 100.511 13.0427 100.511 13.672C100.511 14.6427 100.735 15.4213 101.183 16.008C101.631 16.5947 102.29 16.888 103.159 16.888ZM113.057 18.24C112.246 18.24 111.563 18.04 111.009 17.64C110.454 17.2347 110.033 16.688 109.745 16C109.462 15.3067 109.321 14.5307 109.321 13.672C109.321 12.8027 109.462 12.024 109.745 11.336C110.033 10.648 110.454 10.1067 111.009 9.712C111.569 9.31733 112.254 9.12 113.065 9.12C113.865 9.12 114.553 9.32 115.129 9.72C115.71 10.1147 116.155 10.656 116.465 11.344C116.774 12.032 116.929 12.808 116.929 13.672C116.929 14.536 116.774 15.312 116.465 16C116.155 16.688 115.71 17.2347 115.129 17.64C114.553 18.04 113.862 18.24 113.057 18.24ZM109.081 21.84V9.36H110.353V15.72H110.513V21.84H109.081ZM112.881 16.936C113.451 16.936 113.923 16.792 114.297 16.504C114.67 16.216 114.95 15.8267 115.137 15.336C115.323 14.84 115.417 14.2853 115.417 13.672C115.417 13.064 115.323 12.5147 115.137 12.024C114.955 11.5333 114.673 11.144 114.289 10.856C113.91 10.568 113.427 10.424 112.841 10.424C112.281 10.424 111.817 10.5627 111.449 10.84C111.081 11.112 110.806 11.4933 110.625 11.984C110.443 12.4693 110.353 13.032 110.353 13.672C110.353 14.3013 110.441 14.864 110.617 15.36C110.798 15.8507 111.075 16.2373 111.449 16.52C111.822 16.7973 112.299 16.936 112.881 16.936ZM122.427 18.24C121.579 18.24 120.837 18.0533 120.203 17.68C119.573 17.3013 119.083 16.776 118.731 16.104C118.379 15.4267 118.203 14.6373 118.203 13.736C118.203 12.792 118.376 11.976 118.723 11.288C119.069 10.5947 119.552 10.0613 120.171 9.688C120.795 9.30933 121.525 9.12 122.363 9.12C123.232 9.12 123.971 9.32 124.579 9.72C125.192 10.12 125.651 10.6907 125.955 11.432C126.264 12.1733 126.397 13.056 126.355 14.08H124.915V13.568C124.899 12.5067 124.683 11.7147 124.267 11.192C123.851 10.664 123.232 10.4 122.411 10.4C121.531 10.4 120.861 10.6827 120.403 11.248C119.944 11.8133 119.715 12.624 119.715 13.68C119.715 14.6987 119.944 15.488 120.403 16.048C120.861 16.608 121.515 16.888 122.363 16.888C122.933 16.888 123.429 16.7573 123.851 16.496C124.272 16.2347 124.603 15.8587 124.843 15.368L126.211 15.84C125.875 16.6027 125.368 17.1947 124.691 17.616C124.019 18.032 123.264 18.24 122.427 18.24ZM119.235 14.08V12.936H125.619V14.08H119.235ZM134.053 18V13.672C134.053 13.2613 134.016 12.8667 133.941 12.488C133.872 12.1093 133.747 11.7707 133.565 11.472C133.389 11.168 133.149 10.928 132.845 10.752C132.547 10.576 132.168 10.488 131.709 10.488C131.352 10.488 131.027 10.5493 130.733 10.672C130.445 10.7893 130.197 10.9707 129.989 11.216C129.781 11.4613 129.619 11.7707 129.501 12.144C129.389 12.512 129.333 12.9467 129.333 13.448L128.397 13.16C128.397 12.3227 128.547 11.6053 128.845 11.008C129.149 10.4053 129.573 9.944 130.117 9.624C130.667 9.29867 131.312 9.136 132.053 9.136C132.613 9.136 133.091 9.224 133.485 9.4C133.88 9.576 134.208 9.81067 134.469 10.104C134.731 10.392 134.936 10.7173 135.085 11.08C135.235 11.4373 135.339 11.8027 135.397 12.176C135.461 12.544 135.493 12.8933 135.493 13.224V18H134.053ZM127.893 18V9.36H129.173V11.672H129.333V18H127.893Z" fill="#939191"/>
<path d="M26.4224 16.5459C23.5009 13.6241 19.6161 12.0151 15.4844 12.0151C11.3526 12.0151 7.46789 13.6241 4.54635 16.5459C1.62462 19.4674 0.015625 23.3522 0.015625 27.4839C0.015625 31.6156 1.62462 35.5004 4.54635 38.4219C7.46789 41.3436 11.3526 42.9526 15.4844 42.9526C19.6161 42.9526 23.5009 41.3436 26.4224 38.4219C29.3441 35.5004 30.9531 31.6156 30.9531 27.4839C30.9531 23.3522 29.3441 19.4674 26.4224 16.5459ZM15.4844 40.5356C8.28778 40.5356 2.43262 34.6805 2.43262 27.4839C2.43262 20.2873 8.28778 14.4321 15.4844 14.4321C22.681 14.4321 28.5361 20.2873 28.5361 27.4839C28.5361 34.6805 22.681 40.5356 15.4844 40.5356ZM17.8009 28.1741L22.1979 32.5486L20.4932 34.2624L16.0435 29.835C15.8639 29.8778 15.677 29.9009 15.4844 29.9009C14.1496 29.9009 13.0674 28.8187 13.0674 27.4839C13.0674 26.6145 13.5266 25.8526 14.2155 25.4268V16.9095H15.424H16.6324V25.3566C17.3879 25.7654 17.9014 26.5645 17.9014 27.4839C17.9014 27.7237 17.8659 27.9552 17.8009 28.1741Z" fill="#E2E6E9"/>
</svg>
