<svg width="586" height="362" viewBox="0 0 586 362" fill="none" xmlns="http://www.w3.org/2000/svg">
<g filter="url(#filter0_d_482_1633)">
<rect x="130" y="102" width="326" height="102" rx="51" fill="white" shape-rendering="crispEdges"/>
<rect x="124" y="96" width="338" height="114" rx="57" stroke="#E1E1E1" stroke-opacity="0.43" stroke-width="12" shape-rendering="crispEdges"/>
</g>
<path d="M254.757 137.524C255.951 136.181 258.049 136.181 259.243 137.524L263.757 142.605C264.045 142.93 264.4 143.188 264.798 143.361L271.025 146.085C272.672 146.805 273.32 148.801 272.411 150.351L268.974 156.214C268.755 156.589 268.619 157.006 268.576 157.438L267.911 164.202C267.735 165.99 266.037 167.224 264.282 166.838L257.643 165.381C257.219 165.288 256.781 165.288 256.357 165.381L249.718 166.838C247.963 167.224 246.265 165.99 246.089 164.202L245.424 157.438C245.381 157.006 245.245 156.589 245.026 156.214L241.589 150.351C240.68 148.801 241.328 146.805 242.975 146.085L249.202 143.361C249.6 143.188 249.955 142.93 250.243 142.605L254.757 137.524Z" fill="#FFB648"/>
<path d="M292.757 137.524C293.951 136.181 296.049 136.181 297.243 137.524L301.757 142.605C302.045 142.93 302.4 143.188 302.798 143.361L309.025 146.085C310.672 146.805 311.32 148.801 310.411 150.351L306.974 156.214C306.755 156.589 306.619 157.006 306.576 157.438L305.911 164.202C305.735 165.99 304.037 167.224 302.282 166.838L295.643 165.381C295.219 165.288 294.781 165.288 294.357 165.381L287.718 166.838C285.963 167.224 284.265 165.99 284.089 164.202L283.424 157.438C283.381 157.006 283.245 156.589 283.026 156.214L279.589 150.351C278.68 148.801 279.328 146.805 280.975 146.085L287.202 143.361C287.6 143.188 287.955 142.93 288.243 142.605L292.757 137.524Z" fill="#FFB648"/>
<path d="M329.757 137.524C330.951 136.181 333.049 136.181 334.243 137.524L338.757 142.605C339.045 142.93 339.4 143.188 339.798 143.361L346.025 146.085C347.672 146.805 348.32 148.801 347.411 150.351L343.974 156.214C343.755 156.589 343.619 157.006 343.576 157.438L342.911 164.202C342.735 165.99 341.037 167.224 339.282 166.838L332.643 165.381C332.219 165.288 331.781 165.288 331.357 165.381L324.718 166.838C322.963 167.224 321.265 165.99 321.089 164.202L320.424 157.438C320.381 157.006 320.245 156.589 320.026 156.214L316.589 150.351C315.68 148.801 316.328 146.805 317.975 146.085L324.202 143.361C324.6 143.188 324.955 142.93 325.243 142.605L329.757 137.524Z" fill="#FFB648"/>
<path d="M367.757 137.524C368.951 136.181 371.049 136.181 372.243 137.524L376.757 142.605C377.045 142.93 377.4 143.188 377.798 143.361L384.025 146.085C385.672 146.805 386.32 148.801 385.411 150.351L381.974 156.214C381.755 156.589 381.619 157.006 381.576 157.438L380.911 164.202C380.735 165.99 379.037 167.224 377.282 166.838L370.643 165.381C370.219 165.288 369.781 165.288 369.357 165.381L362.718 166.838C360.963 167.224 359.265 165.99 359.089 164.202L358.424 157.438C358.381 157.006 358.245 156.589 358.026 156.214L354.589 150.351C353.68 148.801 354.328 146.805 355.975 146.085L362.202 143.361C362.6 143.188 362.955 142.93 363.243 142.605L367.757 137.524Z" fill="#FFB648"/>
<path d="M403.757 137.524C404.951 136.181 407.049 136.181 408.243 137.524L412.757 142.605C413.045 142.93 413.4 143.188 413.798 143.361L420.025 146.085C421.672 146.805 422.32 148.801 421.411 150.351L417.974 156.214C417.755 156.589 417.619 157.006 417.576 157.438L416.911 164.202C416.735 165.99 415.037 167.224 413.282 166.838L406.643 165.381C406.219 165.288 405.781 165.288 405.357 165.381L398.718 166.838C396.963 167.224 395.265 165.99 395.089 164.202L394.424 157.438C394.381 157.006 394.245 156.589 394.026 156.214L390.589 150.351C389.68 148.801 390.328 146.805 391.975 146.085L398.202 143.361C398.6 143.188 398.955 142.93 399.243 142.605L403.757 137.524Z" fill="#D7D1C7"/>
<mask id="mask0_482_1633" style="mask-type:alpha" maskUnits="userSpaceOnUse" x="390" y="136" width="32" height="31">
<path d="M403.757 137.524C404.951 136.181 407.049 136.181 408.243 137.524L412.757 142.605C413.045 142.93 413.4 143.188 413.798 143.361L420.025 146.085C421.672 146.805 422.32 148.801 421.411 150.351L417.974 156.214C417.755 156.589 417.619 157.006 417.576 157.438L416.911 164.202C416.735 165.99 415.037 167.224 413.282 166.838L406.643 165.381C406.219 165.288 405.781 165.288 405.357 165.381L398.718 166.838C396.963 167.224 395.265 165.99 395.089 164.202L394.424 157.438C394.381 157.006 394.245 156.589 394.026 156.214L390.589 150.351C389.68 148.801 390.328 146.805 391.975 146.085L398.202 143.361C398.6 143.188 398.955 142.93 399.243 142.605L403.757 137.524Z" fill="#D7D1C7"/>
</mask>
<g mask="url(#mask0_482_1633)">
<rect x="405" y="173" width="16" height="43" transform="rotate(-180 405 173)" fill="#FFB648"/>
</g>
<path opacity="0.7" d="M170.12 174V162.48H174.672C174.784 162.48 174.917 162.485 175.072 162.496C175.227 162.501 175.376 162.517 175.52 162.544C176.144 162.64 176.667 162.853 177.088 163.184C177.515 163.515 177.835 163.933 178.048 164.44C178.261 164.941 178.368 165.499 178.368 166.112C178.368 167.003 178.136 167.776 177.672 168.432C177.208 169.083 176.528 169.491 175.632 169.656L175.088 169.744H171.544V174H170.12ZM176.976 174L174.704 169.312L176.112 168.88L178.608 174H176.976ZM171.544 168.392H174.624C174.725 168.392 174.84 168.387 174.968 168.376C175.101 168.365 175.227 168.347 175.344 168.32C175.712 168.235 176.011 168.08 176.24 167.856C176.475 167.627 176.645 167.36 176.752 167.056C176.859 166.747 176.912 166.432 176.912 166.112C176.912 165.792 176.859 165.48 176.752 165.176C176.645 164.867 176.475 164.597 176.24 164.368C176.011 164.139 175.712 163.984 175.344 163.904C175.227 163.872 175.101 163.853 174.968 163.848C174.84 163.837 174.725 163.832 174.624 163.832H171.544V168.392ZM182.826 174.24C182.181 174.24 181.639 174.123 181.202 173.888C180.77 173.648 180.442 173.333 180.218 172.944C179.999 172.555 179.89 172.128 179.89 171.664C179.89 171.211 179.975 170.819 180.146 170.488C180.322 170.152 180.567 169.875 180.882 169.656C181.197 169.432 181.573 169.256 182.01 169.128C182.421 169.016 182.879 168.92 183.386 168.84C183.898 168.755 184.415 168.677 184.938 168.608C185.461 168.539 185.949 168.472 186.402 168.408L185.89 168.704C185.906 167.936 185.751 167.368 185.426 167C185.106 166.632 184.551 166.448 183.762 166.448C183.239 166.448 182.781 166.568 182.386 166.808C181.997 167.043 181.722 167.427 181.562 167.96L180.21 167.552C180.418 166.795 180.821 166.2 181.418 165.768C182.015 165.336 182.802 165.12 183.778 165.12C184.562 165.12 185.234 165.261 185.794 165.544C186.359 165.821 186.765 166.243 187.01 166.808C187.133 167.075 187.21 167.365 187.242 167.68C187.274 167.989 187.29 168.315 187.29 168.656V174H186.026V171.928L186.322 172.12C185.997 172.819 185.541 173.347 184.954 173.704C184.373 174.061 183.663 174.24 182.826 174.24ZM183.042 173.048C183.554 173.048 183.997 172.957 184.37 172.776C184.749 172.589 185.053 172.347 185.282 172.048C185.511 171.744 185.661 171.413 185.73 171.056C185.81 170.789 185.853 170.493 185.858 170.168C185.869 169.837 185.874 169.584 185.874 169.408L186.37 169.624C185.906 169.688 185.45 169.749 185.002 169.808C184.554 169.867 184.13 169.931 183.73 170C183.33 170.064 182.97 170.141 182.65 170.232C182.415 170.307 182.194 170.403 181.986 170.52C181.783 170.637 181.618 170.789 181.49 170.976C181.367 171.157 181.306 171.384 181.306 171.656C181.306 171.891 181.365 172.115 181.482 172.328C181.605 172.541 181.791 172.715 182.042 172.848C182.298 172.981 182.631 173.048 183.042 173.048ZM194.194 174C193.682 174.101 193.175 174.141 192.674 174.12C192.178 174.104 191.735 174.005 191.346 173.824C190.957 173.637 190.661 173.349 190.458 172.96C190.287 172.619 190.194 172.275 190.178 171.928C190.167 171.576 190.162 171.179 190.162 170.736V162.96H191.586V170.672C191.586 171.024 191.589 171.325 191.594 171.576C191.605 171.827 191.661 172.043 191.762 172.224C191.954 172.565 192.258 172.765 192.674 172.824C193.095 172.883 193.602 172.867 194.194 172.776V174ZM188.41 166.536V165.36H194.194V166.536H188.41ZM196.108 163.832V162.36H197.532V163.832H196.108ZM196.108 174V165.36H197.532V174H196.108ZM206.085 174V169.672C206.085 169.261 206.047 168.867 205.973 168.488C205.903 168.109 205.778 167.771 205.597 167.472C205.421 167.168 205.181 166.928 204.877 166.752C204.578 166.576 204.199 166.488 203.741 166.488C203.383 166.488 203.058 166.549 202.765 166.672C202.477 166.789 202.229 166.971 202.021 167.216C201.813 167.461 201.65 167.771 201.533 168.144C201.421 168.512 201.365 168.947 201.365 169.448L200.429 169.16C200.429 168.323 200.578 167.605 200.877 167.008C201.181 166.405 201.605 165.944 202.149 165.624C202.698 165.299 203.343 165.136 204.085 165.136C204.645 165.136 205.122 165.224 205.517 165.4C205.911 165.576 206.239 165.811 206.501 166.104C206.762 166.392 206.967 166.717 207.117 167.08C207.266 167.437 207.37 167.803 207.429 168.176C207.493 168.544 207.525 168.893 207.525 169.224V174H206.085ZM199.925 174V165.36H201.205V167.672H201.365V174H199.925ZM213.1 178.08C212.647 178.08 212.204 178.011 211.772 177.872C211.34 177.733 210.943 177.523 210.58 177.24C210.223 176.963 209.924 176.611 209.684 176.184L210.988 175.496C211.202 175.917 211.503 176.224 211.892 176.416C212.287 176.608 212.692 176.704 213.108 176.704C213.658 176.704 214.114 176.603 214.476 176.4C214.839 176.203 215.106 175.907 215.276 175.512C215.452 175.117 215.538 174.627 215.532 174.04V171.68H215.7V165.36H216.964V174.056C216.964 174.291 216.956 174.517 216.94 174.736C216.93 174.955 216.903 175.171 216.86 175.384C216.748 175.997 216.527 176.501 216.196 176.896C215.866 177.296 215.439 177.592 214.916 177.784C214.394 177.981 213.788 178.08 213.1 178.08ZM212.996 174.24C212.191 174.24 211.5 174.04 210.924 173.64C210.348 173.235 209.903 172.688 209.588 172C209.279 171.312 209.124 170.536 209.124 169.672C209.124 168.808 209.279 168.032 209.588 167.344C209.903 166.656 210.348 166.115 210.924 165.72C211.5 165.32 212.188 165.12 212.988 165.12C213.804 165.12 214.49 165.317 215.044 165.712C215.599 166.107 216.018 166.648 216.3 167.336C216.588 168.024 216.732 168.803 216.732 169.672C216.732 170.531 216.588 171.307 216.3 172C216.018 172.688 215.599 173.235 215.044 173.64C214.49 174.04 213.807 174.24 212.996 174.24ZM213.172 172.936C213.754 172.936 214.231 172.797 214.604 172.52C214.978 172.237 215.252 171.851 215.428 171.36C215.61 170.864 215.7 170.301 215.7 169.672C215.7 169.032 215.61 168.469 215.428 167.984C215.252 167.493 214.98 167.112 214.612 166.84C214.244 166.563 213.778 166.424 213.212 166.424C212.626 166.424 212.14 166.568 211.756 166.856C211.378 167.144 211.095 167.533 210.908 168.024C210.727 168.515 210.636 169.064 210.636 169.672C210.636 170.285 210.73 170.84 210.916 171.336C211.103 171.827 211.383 172.216 211.756 172.504C212.135 172.792 212.607 172.936 213.172 172.936Z" fill="black"/>
<path d="M177 153H179.544V149.988H181.26V147.612H179.544V142.932H177V147.612H172.068L177.684 135.72H174.816L169.2 147.612V149.988H177V153ZM183.384 153H186.036V150.348H183.384V153ZM194.223 153.36C195.303 153.36 196.295 153.1 197.199 152.58C198.111 152.06 198.843 151.364 199.395 150.492C199.947 149.612 200.223 148.636 200.223 147.564C200.223 146.484 199.979 145.516 199.491 144.66C199.011 143.804 198.347 143.132 197.499 142.644C196.659 142.148 195.699 141.9 194.619 141.9C194.107 141.9 193.591 141.98 193.071 142.14C192.559 142.3 192.091 142.532 191.667 142.836L191.955 138.084H199.035V135.72H189.711L189.183 144.804L191.367 145.572C191.639 145.212 192.019 144.892 192.507 144.612C192.995 144.324 193.591 144.18 194.295 144.18C194.911 144.18 195.475 144.332 195.987 144.636C196.507 144.932 196.919 145.336 197.223 145.848C197.535 146.36 197.691 146.932 197.691 147.564C197.691 148.18 197.539 148.744 197.235 149.256C196.931 149.768 196.523 150.176 196.011 150.48C195.499 150.784 194.927 150.936 194.295 150.936C193.575 150.936 192.899 150.712 192.267 150.264C191.643 149.808 191.231 149.196 191.031 148.428L188.619 149.076C188.859 149.916 189.251 150.66 189.795 151.308C190.339 151.948 190.991 152.452 191.751 152.82C192.511 153.18 193.335 153.36 194.223 153.36ZM206.74 135.72H209.272L204.664 153H202.132L206.74 135.72ZM216.807 153.36C217.887 153.36 218.879 153.1 219.783 152.58C220.695 152.06 221.427 151.364 221.979 150.492C222.531 149.612 222.807 148.636 222.807 147.564C222.807 146.484 222.563 145.516 222.075 144.66C221.595 143.804 220.931 143.132 220.083 142.644C219.243 142.148 218.283 141.9 217.203 141.9C216.691 141.9 216.175 141.98 215.655 142.14C215.143 142.3 214.675 142.532 214.251 142.836L214.539 138.084H221.619V135.72H212.295L211.767 144.804L213.951 145.572C214.223 145.212 214.603 144.892 215.091 144.612C215.579 144.324 216.175 144.18 216.879 144.18C217.495 144.18 218.059 144.332 218.571 144.636C219.091 144.932 219.503 145.336 219.807 145.848C220.119 146.36 220.275 146.932 220.275 147.564C220.275 148.18 220.123 148.744 219.819 149.256C219.515 149.768 219.107 150.176 218.595 150.48C218.083 150.784 217.511 150.936 216.879 150.936C216.159 150.936 215.483 150.712 214.851 150.264C214.227 149.808 213.815 149.196 213.615 148.428L211.203 149.076C211.443 149.916 211.835 150.66 212.379 151.308C212.923 151.948 213.575 152.452 214.335 152.82C215.095 153.18 215.919 153.36 216.807 153.36Z" fill="black"/>
<defs>
<filter id="filter0_d_482_1633" x="0" y="0" width="586" height="362" filterUnits="userSpaceOnUse" color-interpolation-filters="sRGB">
<feFlood flood-opacity="0" result="BackgroundImageFix"/>
<feColorMatrix in="SourceAlpha" type="matrix" values="0 0 0 0 0 0 0 0 0 0 0 0 0 0 0 0 0 0 127 0" result="hardAlpha"/>
<feOffset dy="28"/>
<feGaussianBlur stdDeviation="59"/>
<feComposite in2="hardAlpha" operator="out"/>
<feColorMatrix type="matrix" values="0 0 0 0 0.427425 0 0 0 0 0.42375 0 0 0 0 0.45 0 0 0 0.12 0"/>
<feBlend mode="normal" in2="BackgroundImageFix" result="effect1_dropShadow_482_1633"/>
<feBlend mode="normal" in="SourceGraphic" in2="effect1_dropShadow_482_1633" result="shape"/>
</filter>
</defs>
</svg>
