<svg width="62" height="62" viewBox="0 0 62 62" fill="none" xmlns="http://www.w3.org/2000/svg">
<g filter="url(#filter0_i_482_1323)">
<circle cx="31" cy="31" r="31" fill="#1E1B1B"/>
</g>
<path d="M18 31C17.4477 31 17 31.4477 17 32C17 32.5523 17.4477 33 18 33V31ZM44.7071 32.7071C45.0976 32.3166 45.0976 31.6834 44.7071 31.2929L38.3431 24.9289C37.9526 24.5384 37.3195 24.5384 36.9289 24.9289C36.5384 25.3195 36.5384 25.9526 36.9289 26.3431L42.5858 32L36.9289 37.6569C36.5384 38.0474 36.5384 38.6805 36.9289 39.0711C37.3195 39.4616 37.9526 39.4616 38.3431 39.0711L44.7071 32.7071ZM18 33H44V31H18V33Z" fill="#F2F2F2"/>
<defs>
<filter id="filter0_i_482_1323" x="0" y="0" width="62" height="66" filterUnits="userSpaceOnUse" color-interpolation-filters="sRGB">
<feFlood flood-opacity="0" result="BackgroundImageFix"/>
<feBlend mode="normal" in="SourceGraphic" in2="BackgroundImageFix" result="shape"/>
<feColorMatrix in="SourceAlpha" type="matrix" values="0 0 0 0 0 0 0 0 0 0 0 0 0 0 0 0 0 0 127 0" result="hardAlpha"/>
<feOffset dy="4"/>
<feGaussianBlur stdDeviation="2"/>
<feComposite in2="hardAlpha" operator="arithmetic" k2="-1" k3="1"/>
<feColorMatrix type="matrix" values="0 0 0 0 0 0 0 0 0 0 0 0 0 0 0 0 0 0 0.25 0"/>
<feBlend mode="normal" in2="shape" result="effect1_innerShadow_482_1323"/>
</filter>
</defs>
</svg>
