<svg width="542" height="362" viewBox="0 0 542 362" fill="none" xmlns="http://www.w3.org/2000/svg">
<g filter="url(#filter0_d_482_1626)">
<rect x="130" y="102" width="281.635" height="102" rx="51" fill="url(#paint0_linear_482_1626)" shape-rendering="crispEdges"/>
<rect x="124" y="96" width="293.635" height="114" rx="57" stroke="#E1E1E1" stroke-opacity="0.43" stroke-width="12" shape-rendering="crispEdges"/>
</g>
<path d="M236.892 160.36C237.868 160.36 238.764 160.236 239.58 159.988C240.396 159.732 241.128 159.368 241.776 158.896L243.228 160.348L244.812 158.74L243.36 157.288C244.488 155.728 245.052 153.752 245.052 151.36C245.052 149.576 244.732 148.012 244.092 146.668C243.452 145.316 242.524 144.26 241.308 143.5C240.092 142.74 238.62 142.36 236.892 142.36C235.164 142.36 233.692 142.74 232.476 143.5C231.26 144.26 230.328 145.316 229.68 146.668C229.04 148.012 228.72 149.576 228.72 151.36C228.72 153.144 229.04 154.712 229.68 156.064C230.328 157.408 231.26 158.46 232.476 159.22C233.692 159.98 235.164 160.36 236.892 160.36ZM236.892 157.972C235.06 157.956 233.68 157.344 232.752 156.136C231.832 154.928 231.376 153.336 231.384 151.36C231.392 150.04 231.596 148.884 231.996 147.892C232.404 146.892 233.016 146.116 233.832 145.564C234.648 145.004 235.668 144.732 236.892 144.748C238.732 144.756 240.108 145.364 241.02 146.572C241.932 147.78 242.388 149.376 242.388 151.36C242.388 152.984 242.092 154.34 241.5 155.428L240.012 153.94L238.404 155.548L239.988 157.132C239.14 157.7 238.108 157.98 236.892 157.972ZM251.61 160.348C252.546 160.348 253.374 160.18 254.094 159.844C254.822 159.508 255.422 159.044 255.894 158.452V160H258.126V147.04H255.594V153.784C255.594 154.808 255.446 155.628 255.15 156.244C254.854 156.852 254.454 157.292 253.95 157.564C253.454 157.836 252.906 157.972 252.306 157.972C251.618 157.972 251.058 157.832 250.626 157.552C250.194 157.272 249.862 156.904 249.63 156.448C249.398 155.992 249.238 155.5 249.15 154.972C249.07 154.436 249.03 153.916 249.03 153.412V147.04H246.486V154.24C246.486 154.64 246.522 155.104 246.594 155.632C246.666 156.16 246.802 156.7 247.002 157.252C247.202 157.804 247.49 158.316 247.866 158.788C248.25 159.252 248.746 159.628 249.354 159.916C249.962 160.204 250.714 160.348 251.61 160.348ZM261.011 144.916H263.519V142.48H261.011V144.916ZM261.011 160H263.519V147.04H261.011V160ZM271.947 160.36C273.339 160.36 274.523 160.024 275.499 159.352C276.475 158.68 277.175 157.708 277.599 156.436L275.055 155.836C274.791 156.532 274.407 157.068 273.903 157.444C273.407 157.812 272.755 157.996 271.947 157.996C270.763 157.996 269.867 157.584 269.259 156.76C268.659 155.936 268.355 154.856 268.347 153.52C268.355 152.224 268.647 151.156 269.223 150.316C269.807 149.468 270.715 149.044 271.947 149.044C272.675 149.044 273.319 149.248 273.879 149.656C274.447 150.056 274.855 150.62 275.103 151.348L277.599 150.628C277.279 149.412 276.615 148.452 275.607 147.748C274.607 147.036 273.399 146.68 271.983 146.68C270.679 146.68 269.555 146.972 268.611 147.556C267.675 148.14 266.955 148.948 266.451 149.98C265.947 151.004 265.691 152.184 265.683 153.52C265.691 154.832 265.939 156.004 266.427 157.036C266.923 158.068 267.635 158.88 268.563 159.472C269.499 160.064 270.627 160.36 271.947 160.36ZM279.311 160H281.867V153.76L287.291 160H290.699L284.771 153.52L290.147 147.04H286.955L281.867 153.28V142.72H279.323L279.311 160ZM300.23 160.348C301.87 160.348 303.154 159.984 304.082 159.256C305.018 158.528 305.486 157.524 305.486 156.244C305.486 155.572 305.346 155.004 305.066 154.54C304.794 154.076 304.338 153.676 303.698 153.34C303.058 152.996 302.194 152.684 301.106 152.404C300.09 152.148 299.322 151.928 298.802 151.744C298.29 151.552 297.942 151.36 297.758 151.168C297.574 150.968 297.482 150.724 297.482 150.436C297.482 149.94 297.718 149.552 298.19 149.272C298.662 148.984 299.278 148.856 300.038 148.888C300.83 148.92 301.474 149.12 301.97 149.488C302.466 149.848 302.758 150.336 302.846 150.952L305.414 150.484C305.27 149.332 304.706 148.412 303.722 147.724C302.738 147.028 301.502 146.68 300.014 146.68C298.494 146.68 297.274 147.036 296.354 147.748C295.434 148.452 294.974 149.392 294.974 150.568C294.974 151.2 295.11 151.74 295.382 152.188C295.662 152.628 296.126 153.012 296.774 153.34C297.43 153.668 298.314 153.98 299.426 154.276C300.442 154.548 301.198 154.776 301.694 154.96C302.19 155.144 302.514 155.34 302.666 155.548C302.826 155.748 302.906 156.012 302.906 156.34C302.906 156.9 302.682 157.34 302.234 157.66C301.794 157.98 301.182 158.14 300.398 158.14C299.534 158.14 298.81 157.948 298.226 157.564C297.65 157.18 297.282 156.648 297.122 155.968L294.554 156.364C294.778 157.628 295.386 158.608 296.378 159.304C297.37 160 298.654 160.348 300.23 160.348ZM313.169 160.36C314.425 160.36 315.565 160.044 316.589 159.412C317.613 158.772 318.377 157.872 318.881 156.712L316.421 155.932C315.765 157.308 314.641 157.996 313.049 157.996C311.961 157.996 311.105 157.668 310.481 157.012C309.857 156.356 309.493 155.428 309.389 154.228H319.049C319.137 152.676 318.953 151.336 318.497 150.208C318.041 149.08 317.349 148.212 316.421 147.604C315.493 146.988 314.369 146.68 313.049 146.68C311.785 146.68 310.677 146.964 309.725 147.532C308.773 148.1 308.029 148.904 307.493 149.944C306.965 150.984 306.701 152.212 306.701 153.628C306.701 154.964 306.969 156.14 307.505 157.156C308.049 158.164 308.805 158.952 309.773 159.52C310.749 160.08 311.881 160.36 313.169 160.36ZM313.145 148.9C315.105 148.9 316.217 150.024 316.481 152.272H309.449C309.609 151.176 309.997 150.34 310.613 149.764C311.229 149.188 312.073 148.9 313.145 148.9ZM321.022 160H323.554V153.46C323.554 152.7 323.674 151.996 323.914 151.348C324.154 150.7 324.578 150.18 325.186 149.788C325.618 149.508 326.094 149.344 326.614 149.296C327.134 149.248 327.602 149.28 328.018 149.392V147.04C327.434 146.928 326.814 146.932 326.158 147.052C325.51 147.172 324.942 147.412 324.454 147.772C323.974 148.092 323.574 148.536 323.254 149.104V147.04H321.022V160ZM333.087 160H335.631L340.335 147.04H337.803L334.359 156.856L330.915 147.04H328.383L333.087 160ZM342.017 144.916H344.525V142.48H342.017V144.916ZM342.017 160H344.525V147.04H342.017V160ZM352.952 160.36C354.344 160.36 355.528 160.024 356.504 159.352C357.48 158.68 358.18 157.708 358.604 156.436L356.06 155.836C355.796 156.532 355.412 157.068 354.908 157.444C354.412 157.812 353.76 157.996 352.952 157.996C351.768 157.996 350.872 157.584 350.264 156.76C349.664 155.936 349.36 154.856 349.352 153.52C349.36 152.224 349.652 151.156 350.228 150.316C350.812 149.468 351.72 149.044 352.952 149.044C353.68 149.044 354.324 149.248 354.884 149.656C355.452 150.056 355.86 150.62 356.108 151.348L358.604 150.628C358.284 149.412 357.62 148.452 356.612 147.748C355.612 147.036 354.404 146.68 352.988 146.68C351.684 146.68 350.56 146.972 349.616 147.556C348.68 148.14 347.96 148.948 347.456 149.98C346.952 151.004 346.696 152.184 346.688 153.52C346.696 154.832 346.944 156.004 347.432 157.036C347.928 158.068 348.64 158.88 349.568 159.472C350.504 160.064 351.632 160.36 352.952 160.36ZM365.726 160.36C366.982 160.36 368.122 160.044 369.146 159.412C370.17 158.772 370.934 157.872 371.438 156.712L368.978 155.932C368.322 157.308 367.198 157.996 365.606 157.996C364.518 157.996 363.662 157.668 363.038 157.012C362.414 156.356 362.05 155.428 361.946 154.228H371.606C371.694 152.676 371.51 151.336 371.054 150.208C370.598 149.08 369.906 148.212 368.978 147.604C368.05 146.988 366.926 146.68 365.606 146.68C364.342 146.68 363.234 146.964 362.282 147.532C361.33 148.1 360.586 148.904 360.05 149.944C359.522 150.984 359.258 152.212 359.258 153.628C359.258 154.964 359.526 156.14 360.062 157.156C360.606 158.164 361.362 158.952 362.33 159.52C363.306 160.08 364.438 160.36 365.726 160.36ZM365.702 148.9C367.662 148.9 368.774 150.024 369.038 152.272H362.006C362.166 151.176 362.554 150.34 363.17 149.764C363.786 149.188 364.63 148.9 365.702 148.9Z" fill="#1E1B1B"/>
<ellipse cx="178.763" cy="152" rx="34.8312" ry="35" fill="#5CBA99"/>
<path d="M188.832 160H190.528V155.504C190.528 154.821 190.627 154.277 190.824 153.872C191.027 153.461 191.294 153.165 191.624 152.984C191.955 152.803 192.32 152.712 192.72 152.712C193.179 152.712 193.552 152.805 193.84 152.992C194.128 153.179 194.35 153.424 194.504 153.728C194.659 154.032 194.763 154.363 194.816 154.72C194.875 155.072 194.904 155.416 194.904 155.752V160H196.6V155.2C196.6 154.933 196.576 154.624 196.528 154.272C196.48 153.92 196.39 153.56 196.256 153.192C196.123 152.824 195.928 152.485 195.672 152.176C195.422 151.861 195.094 151.608 194.688 151.416C194.283 151.224 193.782 151.128 193.184 151.128C192.56 151.128 192.006 151.24 191.52 151.464C191.04 151.688 190.643 151.997 190.328 152.392V148.48H188.832V160ZM198.684 160H200.372V155.64C200.372 155.133 200.452 154.664 200.612 154.232C200.772 153.8 201.055 153.453 201.46 153.192C201.748 153.005 202.065 152.896 202.412 152.864C202.759 152.832 203.071 152.853 203.348 152.928V151.36C202.959 151.285 202.545 151.288 202.108 151.368C201.676 151.448 201.297 151.608 200.972 151.848C200.652 152.061 200.385 152.357 200.172 152.736V151.36H198.684V160Z" fill="white"/>
<path d="M158.069 160.988H169.757V158.6H161.945L166.949 154.136C167.573 153.584 168.093 153.072 168.509 152.6C168.925 152.128 169.237 151.616 169.445 151.064C169.653 150.504 169.757 149.832 169.757 149.048C169.757 147.952 169.505 146.976 169.001 146.12C168.505 145.264 167.825 144.592 166.961 144.104C166.097 143.608 165.121 143.36 164.033 143.36C162.889 143.36 161.869 143.6 160.973 144.08C160.085 144.552 159.389 145.212 158.885 146.06C158.381 146.9 158.129 147.88 158.129 149H160.697C160.689 148.416 160.825 147.88 161.105 147.392C161.393 146.896 161.785 146.5 162.281 146.204C162.777 145.9 163.345 145.748 163.985 145.748C164.913 145.748 165.677 146.06 166.277 146.684C166.877 147.308 167.177 148.084 167.177 149.012C167.177 149.5 167.065 149.988 166.841 150.476C166.625 150.956 166.213 151.468 165.605 152.012L158.081 158.756L158.069 160.988ZM178.766 161H181.31V157.988H183.026V155.612H181.31V150.932H178.766V155.612H173.834L179.45 143.72H176.582L170.966 155.612V157.988H178.766V161Z" fill="white"/>
<defs>
<filter id="filter0_d_482_1626" x="0" y="0" width="541.635" height="362" filterUnits="userSpaceOnUse" color-interpolation-filters="sRGB">
<feFlood flood-opacity="0" result="BackgroundImageFix"/>
<feColorMatrix in="SourceAlpha" type="matrix" values="0 0 0 0 0 0 0 0 0 0 0 0 0 0 0 0 0 0 127 0" result="hardAlpha"/>
<feOffset dy="28"/>
<feGaussianBlur stdDeviation="59"/>
<feComposite in2="hardAlpha" operator="out"/>
<feColorMatrix type="matrix" values="0 0 0 0 0.427425 0 0 0 0 0.42375 0 0 0 0 0.45 0 0 0 0.12 0"/>
<feBlend mode="normal" in2="BackgroundImageFix" result="effect1_dropShadow_482_1626"/>
<feBlend mode="normal" in="SourceGraphic" in2="effect1_dropShadow_482_1626" result="shape"/>
</filter>
<linearGradient id="paint0_linear_482_1626" x1="246.933" y1="-8.99999" x2="352.852" y2="325.707" gradientUnits="userSpaceOnUse">
<stop stop-color="white"/>
<stop offset="1" stop-color="white"/>
</linearGradient>
</defs>
</svg>
