<svg width="167" height="24" viewBox="0 0 167 24" fill="none" xmlns="http://www.w3.org/2000/svg">
<g clip-path="url(#clip0_482_1264)">
<path d="M24 12C24 5.37258 18.6274 0 12 0C5.37258 0 0 5.37258 0 12C0 17.9895 4.3882 22.954 10.125 23.8542V15.4688H7.07812V12H10.125V9.35625C10.125 6.34875 11.9166 4.6875 14.6576 4.6875C15.9701 4.6875 17.3438 4.92188 17.3438 4.92188V7.875H15.8306C14.34 7.875 13.875 8.80008 13.875 9.75V12H17.2031L16.6711 15.4688H13.875V23.8542C19.6118 22.954 24 17.9895 24 12Z" fill="white"/>
</g>
<g clip-path="url(#clip1_482_1264)">
<path d="M55.2167 21.7497C64.271 21.7497 69.2248 14.2465 69.2248 7.74162C69.2248 7.53068 69.2201 7.31505 69.2107 7.10412C70.1744 6.40722 71.006 5.54401 71.6665 4.55505C70.769 4.95436 69.8161 5.21514 68.8404 5.32849C69.8678 4.71266 70.637 3.74523 71.0056 2.60552C70.0391 3.17831 68.9821 3.58237 67.8799 3.80037C67.1373 3.01132 66.1555 2.48887 65.0862 2.31381C64.0169 2.13874 62.9197 2.32081 61.9642 2.83185C61.0088 3.3429 60.2483 4.15446 59.8004 5.14107C59.3524 6.12767 59.2419 7.23437 59.486 8.29005C57.529 8.19185 55.6144 7.68346 53.8665 6.79785C52.1185 5.91225 50.5762 4.66919 49.3395 3.14927C48.7109 4.233 48.5186 5.5154 48.8015 6.73585C49.0845 7.95629 49.8216 9.0232 50.8629 9.71974C50.0811 9.69492 49.3165 9.48444 48.6321 9.10568V9.16662C48.6314 10.3039 49.0246 11.4063 49.7448 12.2865C50.465 13.1667 51.4678 13.7703 52.5828 13.9947C51.8586 14.1929 51.0985 14.2218 50.3613 14.0791C50.676 15.0572 51.2881 15.9126 52.1123 16.5261C52.9365 17.1395 53.9316 17.4804 54.9588 17.501C53.2149 18.8709 51.0607 19.6139 48.8431 19.6104C48.4498 19.6098 48.0569 19.5857 47.6665 19.5382C49.9194 20.9835 52.54 21.7511 55.2167 21.7497Z" fill="white"/>
</g>
<g clip-path="url(#clip2_482_1264)">
<path d="M107.333 2.16094C110.54 2.16094 110.919 2.175 112.18 2.23125C113.352 2.28281 113.985 2.47969 114.407 2.64375C114.965 2.85938 115.368 3.12188 115.785 3.53906C116.207 3.96094 116.465 4.35938 116.68 4.91719C116.844 5.33906 117.041 5.97656 117.093 7.14375C117.149 8.40937 117.163 8.78906 117.163 11.9906C117.163 15.1969 117.149 15.5766 117.093 16.8375C117.041 18.0094 116.844 18.6422 116.68 19.0641C116.465 19.6219 116.202 20.025 115.785 20.4422C115.363 20.8641 114.965 21.1219 114.407 21.3375C113.985 21.5016 113.348 21.6984 112.18 21.75C110.915 21.8062 110.535 21.8203 107.333 21.8203C104.127 21.8203 103.748 21.8062 102.487 21.75C101.315 21.6984 100.682 21.5016 100.26 21.3375C99.7022 21.1219 99.2991 20.8594 98.8819 20.4422C98.4601 20.0203 98.2022 19.6219 97.9866 19.0641C97.8226 18.6422 97.6257 18.0047 97.5741 16.8375C97.5179 15.5719 97.5038 15.1922 97.5038 11.9906C97.5038 8.78438 97.5179 8.40469 97.5741 7.14375C97.6257 5.97187 97.8226 5.33906 97.9866 4.91719C98.2022 4.35938 98.4647 3.95625 98.8819 3.53906C99.3038 3.11719 99.7022 2.85938 100.26 2.64375C100.682 2.47969 101.319 2.28281 102.487 2.23125C103.748 2.175 104.127 2.16094 107.333 2.16094ZM107.333 0C104.076 0 103.668 0.0140625 102.388 0.0703125C101.113 0.126563 100.237 0.332812 99.4772 0.628125C98.6851 0.9375 98.0147 1.34531 97.3491 2.01562C96.6788 2.68125 96.271 3.35156 95.9616 4.13906C95.6663 4.90313 95.4601 5.775 95.4038 7.05C95.3476 8.33437 95.3335 8.74219 95.3335 12C95.3335 15.2578 95.3476 15.6656 95.4038 16.9453C95.4601 18.2203 95.6663 19.0969 95.9616 19.8563C96.271 20.6484 96.6788 21.3188 97.3491 21.9844C98.0147 22.65 98.6851 23.0625 99.4726 23.3672C100.237 23.6625 101.108 23.8687 102.383 23.925C103.663 23.9812 104.071 23.9953 107.329 23.9953C110.587 23.9953 110.994 23.9812 112.274 23.925C113.549 23.8687 114.426 23.6625 115.185 23.3672C115.973 23.0625 116.643 22.65 117.308 21.9844C117.974 21.3188 118.387 20.6484 118.691 19.8609C118.987 19.0969 119.193 18.225 119.249 16.95C119.305 15.6703 119.319 15.2625 119.319 12.0047C119.319 8.74688 119.305 8.33906 119.249 7.05938C119.193 5.78438 118.987 4.90781 118.691 4.14844C118.396 3.35156 117.988 2.68125 117.318 2.01562C116.652 1.35 115.982 0.9375 115.194 0.632812C114.43 0.3375 113.558 0.13125 112.283 0.075C110.999 0.0140625 110.591 0 107.333 0Z" fill="white"/>
<path d="M107.333 5.83594C103.93 5.83594 101.169 8.59688 101.169 12C101.169 15.4031 103.93 18.1641 107.333 18.1641C110.737 18.1641 113.498 15.4031 113.498 12C113.498 8.59688 110.737 5.83594 107.333 5.83594ZM107.333 15.9984C105.126 15.9984 103.335 14.2078 103.335 12C103.335 9.79219 105.126 8.00156 107.333 8.00156C109.541 8.00156 111.332 9.79219 111.332 12C111.332 14.2078 109.541 15.9984 107.333 15.9984Z" fill="white"/>
<path d="M115.18 5.59238C115.18 6.38926 114.533 7.03145 113.741 7.03145C112.944 7.03145 112.302 6.38457 112.302 5.59238C112.302 4.79551 112.949 4.15332 113.741 4.15332C114.533 4.15332 115.18 4.8002 115.18 5.59238Z" fill="white"/>
</g>
<g clip-path="url(#clip3_482_1264)">
<path d="M165.223 0H144.772C143.792 0 143 0.773438 143 1.72969V22.2656C143 23.2219 143.792 24 144.772 24H165.223C166.203 24 167 23.2219 167 22.2703V1.72969C167 0.773438 166.203 0 165.223 0ZM150.12 20.4516H146.558V8.99531H150.12V20.4516ZM148.339 7.43438C147.195 7.43438 146.272 6.51094 146.272 5.37187C146.272 4.23281 147.195 3.30937 148.339 3.30937C149.478 3.30937 150.402 4.23281 150.402 5.37187C150.402 6.50625 149.478 7.43438 148.339 7.43438ZM163.452 20.4516H159.894V14.8828C159.894 13.5562 159.87 11.8453 158.042 11.8453C156.191 11.8453 155.909 13.2937 155.909 14.7891V20.4516H152.356V8.99531H155.769V10.5609H155.816C156.289 9.66094 157.452 8.70938 159.181 8.70938C162.786 8.70938 163.452 11.0813 163.452 14.1656V20.4516Z" fill="white"/>
</g>
<defs>
<clipPath id="clip0_482_1264">
<rect width="24" height="24" fill="white"/>
</clipPath>
<clipPath id="clip1_482_1264">
<rect width="24" height="24" fill="white" transform="translate(47.6665)"/>
</clipPath>
<clipPath id="clip2_482_1264">
<rect width="24" height="24" fill="white" transform="translate(95.3335)"/>
</clipPath>
<clipPath id="clip3_482_1264">
<rect width="24" height="24" fill="white" transform="translate(143)"/>
</clipPath>
</defs>
</svg>
