<svg width="432" height="165" viewBox="0 0 432 165" fill="none" xmlns="http://www.w3.org/2000/svg">
<path opacity="0.6" d="M100.491 92H102.372V80.813H106.683V79.04H96.18V80.813H100.491V92ZM108.114 92H110.022V86.942C110.022 86.174 110.133 85.562 110.355 85.106C110.583 84.644 110.883 84.311 111.255 84.107C111.627 83.903 112.038 83.801 112.488 83.801C113.004 83.801 113.424 83.906 113.748 84.116C114.072 84.326 114.321 84.602 114.495 84.944C114.669 85.286 114.786 85.658 114.846 86.06C114.912 86.456 114.945 86.843 114.945 87.221V92H116.853V86.6C116.853 86.3 116.826 85.952 116.772 85.556C116.718 85.16 116.616 84.755 116.466 84.341C116.316 83.927 116.097 83.546 115.809 83.198C115.527 82.844 115.158 82.559 114.702 82.343C114.246 82.127 113.682 82.019 113.01 82.019C112.308 82.019 111.684 82.145 111.138 82.397C110.598 82.649 110.151 82.997 109.797 83.441V79.04H108.114V92ZM119.198 92H121.097V87.095C121.097 86.525 121.187 85.997 121.367 85.511C121.547 85.025 121.865 84.635 122.321 84.341C122.645 84.131 123.002 84.008 123.392 83.972C123.782 83.936 124.133 83.96 124.445 84.044V82.28C124.007 82.196 123.542 82.199 123.05 82.289C122.564 82.379 122.138 82.559 121.772 82.829C121.412 83.069 121.112 83.402 120.872 83.828V82.28H119.198V92ZM130.204 92.27C131.17 92.27 132.01 92.054 132.724 91.622C133.438 91.184 133.99 90.581 134.38 89.813C134.776 89.039 134.974 88.145 134.974 87.131C134.974 86.129 134.779 85.244 134.389 84.476C133.999 83.702 133.447 83.099 132.733 82.667C132.019 82.229 131.176 82.01 130.204 82.01C129.25 82.01 128.416 82.226 127.702 82.658C126.988 83.09 126.433 83.69 126.037 84.458C125.641 85.226 125.443 86.117 125.443 87.131C125.443 88.133 125.638 89.021 126.028 89.795C126.418 90.569 126.967 91.175 127.675 91.613C128.389 92.051 129.232 92.27 130.204 92.27ZM130.204 90.497C129.298 90.497 128.611 90.194 128.143 89.588C127.675 88.976 127.441 88.157 127.441 87.131C127.441 86.141 127.666 85.337 128.116 84.719C128.566 84.095 129.262 83.783 130.204 83.783C131.122 83.783 131.812 84.086 132.274 84.692C132.742 85.298 132.976 86.111 132.976 87.131C132.976 88.127 132.745 88.937 132.283 89.561C131.827 90.185 131.134 90.497 130.204 90.497ZM140.614 92.261C141.316 92.261 141.937 92.135 142.477 91.883C143.023 91.631 143.473 91.283 143.827 90.839V92H145.501V82.28H143.602V87.338C143.602 88.106 143.491 88.721 143.269 89.183C143.047 89.639 142.747 89.969 142.369 90.173C141.997 90.377 141.586 90.479 141.136 90.479C140.62 90.479 140.2 90.374 139.876 90.164C139.552 89.954 139.303 89.678 139.129 89.336C138.955 88.994 138.835 88.625 138.769 88.229C138.709 87.827 138.679 87.437 138.679 87.059V82.28H136.771V87.68C136.771 87.98 136.798 88.328 136.852 88.724C136.906 89.12 137.008 89.525 137.158 89.939C137.308 90.353 137.524 90.737 137.806 91.091C138.094 91.439 138.466 91.721 138.922 91.937C139.378 92.153 139.942 92.261 140.614 92.261ZM151.887 92.27C152.439 92.27 152.937 92.186 153.381 92.018C153.825 91.856 154.218 91.625 154.56 91.325V92.243C154.572 93.077 154.356 93.707 153.912 94.133C153.474 94.565 152.853 94.781 152.049 94.781C151.617 94.781 151.206 94.685 150.816 94.493C150.426 94.301 150.126 93.998 149.916 93.584L148.179 94.466C148.575 95.156 149.121 95.681 149.817 96.041C150.513 96.407 151.251 96.59 152.031 96.59C153.165 96.59 154.113 96.353 154.875 95.879C155.637 95.411 156.12 94.685 156.324 93.701C156.372 93.473 156.405 93.239 156.423 92.999C156.441 92.765 156.45 92.519 156.45 92.261V82.28H154.785V83.153C154.437 82.793 154.023 82.514 153.543 82.316C153.063 82.112 152.523 82.01 151.923 82.01C151.011 82.01 150.222 82.235 149.556 82.685C148.896 83.129 148.386 83.738 148.026 84.512C147.666 85.28 147.486 86.153 147.486 87.131C147.486 88.103 147.663 88.976 148.017 89.75C148.377 90.524 148.887 91.139 149.547 91.595C150.207 92.045 150.987 92.27 151.887 92.27ZM152.148 90.569C151.548 90.569 151.05 90.416 150.654 90.11C150.258 89.804 149.964 89.393 149.772 88.877C149.58 88.355 149.484 87.773 149.484 87.131C149.484 86.495 149.58 85.919 149.772 85.403C149.97 84.887 150.27 84.476 150.672 84.17C151.074 83.864 151.587 83.711 152.211 83.711C153.099 83.711 153.75 84.029 154.164 84.665C154.578 85.301 154.785 86.123 154.785 87.131C154.785 88.139 154.578 88.964 154.164 89.606C153.75 90.248 153.078 90.569 152.148 90.569ZM158.968 92H160.876V86.942C160.876 86.174 160.987 85.562 161.209 85.106C161.437 84.644 161.737 84.311 162.109 84.107C162.481 83.903 162.892 83.801 163.342 83.801C163.858 83.801 164.278 83.906 164.602 84.116C164.926 84.326 165.175 84.602 165.349 84.944C165.523 85.286 165.64 85.658 165.7 86.06C165.766 86.456 165.799 86.843 165.799 87.221V92H167.707V86.6C167.707 86.3 167.68 85.952 167.626 85.556C167.572 85.16 167.47 84.755 167.32 84.341C167.17 83.927 166.951 83.546 166.663 83.198C166.381 82.844 166.012 82.559 165.556 82.343C165.1 82.127 164.536 82.019 163.864 82.019C163.162 82.019 162.538 82.145 161.992 82.397C161.452 82.649 161.005 82.997 160.651 83.441V79.04H158.968V92ZM176.886 92H178.767V80.813H183.078V79.04H172.575V80.813H176.886V92ZM183.621 92H185.52V87.095C185.52 86.525 185.61 85.997 185.79 85.511C185.97 85.025 186.288 84.635 186.744 84.341C187.068 84.131 187.425 84.008 187.815 83.972C188.205 83.936 188.556 83.96 188.868 84.044V82.28C188.43 82.196 187.965 82.199 187.473 82.289C186.987 82.379 186.561 82.559 186.195 82.829C185.835 83.069 185.535 83.402 185.295 83.828V82.28H183.621V92ZM194.245 92.261C194.947 92.261 195.568 92.135 196.108 91.883C196.654 91.631 197.104 91.283 197.458 90.839V92H199.132V82.28H197.233V87.338C197.233 88.106 197.122 88.721 196.9 89.183C196.678 89.639 196.378 89.969 196 90.173C195.628 90.377 195.217 90.479 194.767 90.479C194.251 90.479 193.831 90.374 193.507 90.164C193.183 89.954 192.934 89.678 192.76 89.336C192.586 88.994 192.466 88.625 192.4 88.229C192.34 87.827 192.31 87.437 192.31 87.059V82.28H190.402V87.68C190.402 87.98 190.429 88.328 190.483 88.724C190.537 89.12 190.639 89.525 190.789 89.939C190.939 90.353 191.155 90.737 191.437 91.091C191.725 91.439 192.097 91.721 192.553 91.937C193.009 92.153 193.573 92.261 194.245 92.261ZM205.967 92.27C206.909 92.27 207.764 92.033 208.532 91.559C209.3 91.079 209.873 90.404 210.251 89.534L208.406 88.949C207.914 89.981 207.071 90.497 205.877 90.497C205.061 90.497 204.419 90.251 203.951 89.759C203.483 89.267 203.21 88.571 203.132 87.671H210.377C210.443 86.507 210.305 85.502 209.963 84.656C209.621 83.81 209.102 83.159 208.406 82.703C207.71 82.241 206.867 82.01 205.877 82.01C204.929 82.01 204.098 82.223 203.384 82.649C202.67 83.075 202.112 83.678 201.71 84.458C201.314 85.238 201.116 86.159 201.116 87.221C201.116 88.223 201.317 89.105 201.719 89.867C202.127 90.623 202.694 91.214 203.42 91.64C204.152 92.06 205.001 92.27 205.967 92.27ZM205.949 83.675C207.419 83.675 208.253 84.518 208.451 86.204H203.177C203.297 85.382 203.588 84.755 204.05 84.323C204.512 83.891 205.145 83.675 205.949 83.675ZM216 92H217.881V87.347H221.319L223.578 92H225.729L223.281 86.978C224.019 86.66 224.571 86.165 224.937 85.493C225.303 84.821 225.486 84.053 225.486 83.189C225.486 82.139 225.216 81.239 224.676 80.489C224.136 79.739 223.323 79.28 222.237 79.112C222.069 79.082 221.892 79.064 221.706 79.058C221.52 79.046 221.364 79.04 221.238 79.04H216V92ZM217.881 85.565V80.813H221.166C221.286 80.813 221.418 80.819 221.562 80.831C221.712 80.843 221.853 80.867 221.985 80.903C222.561 81.035 222.969 81.329 223.209 81.785C223.449 82.241 223.569 82.709 223.569 83.189C223.569 83.663 223.449 84.131 223.209 84.593C222.969 85.049 222.561 85.346 221.985 85.484C221.853 85.514 221.712 85.535 221.562 85.547C221.418 85.559 221.286 85.565 221.166 85.565H217.881ZM227.887 80.687H229.768V78.86H227.887V80.687ZM227.887 92H229.768V82.28H227.887V92ZM236.629 92.27C237.673 92.27 238.561 92.018 239.293 91.514C240.025 91.01 240.55 90.281 240.868 89.327L238.96 88.877C238.762 89.399 238.474 89.801 238.096 90.083C237.724 90.359 237.235 90.497 236.629 90.497C235.741 90.497 235.069 90.188 234.613 89.57C234.163 88.952 233.935 88.142 233.929 87.14C233.935 86.168 234.154 85.367 234.586 84.737C235.024 84.101 235.705 83.783 236.629 83.783C237.175 83.783 237.658 83.936 238.078 84.242C238.504 84.542 238.81 84.965 238.996 85.511L240.868 84.971C240.628 84.059 240.13 83.339 239.374 82.811C238.624 82.277 237.718 82.01 236.656 82.01C235.678 82.01 234.835 82.229 234.127 82.667C233.425 83.105 232.885 83.711 232.507 84.485C232.129 85.253 231.937 86.138 231.931 87.14C231.937 88.124 232.123 89.003 232.489 89.777C232.861 90.551 233.395 91.16 234.091 91.604C234.793 92.048 235.639 92.27 236.629 92.27ZM242.692 92H244.6V86.942C244.6 86.174 244.711 85.562 244.933 85.106C245.161 84.644 245.461 84.311 245.833 84.107C246.205 83.903 246.616 83.801 247.066 83.801C247.582 83.801 248.002 83.906 248.326 84.116C248.65 84.326 248.899 84.602 249.073 84.944C249.247 85.286 249.364 85.658 249.424 86.06C249.49 86.456 249.523 86.843 249.523 87.221V92H251.431V86.6C251.431 86.3 251.404 85.952 251.35 85.556C251.296 85.16 251.194 84.755 251.044 84.341C250.894 83.927 250.675 83.546 250.387 83.198C250.105 82.844 249.736 82.559 249.28 82.343C248.824 82.127 248.26 82.019 247.588 82.019C246.886 82.019 246.262 82.145 245.716 82.397C245.176 82.649 244.729 82.997 244.375 83.441V79.04H242.692V92ZM256.479 92H258.432L259.377 89.075H264.696L265.659 92H267.612L263.4 79.04H260.691L256.479 92ZM259.953 87.311L262.023 80.921L264.12 87.311H259.953ZM274.789 92V90.407C274.153 90.503 273.598 90.524 273.124 90.47C272.656 90.41 272.314 90.197 272.098 89.831C271.984 89.633 271.921 89.39 271.909 89.102C271.903 88.814 271.9 88.475 271.9 88.085V83.792H274.789V82.28H271.9V79.58H270.01V82.28H268.147V83.792H270.01V88.175C270.01 88.703 270.016 89.177 270.028 89.597C270.046 90.011 270.16 90.419 270.37 90.821C270.61 91.271 270.961 91.601 271.423 91.811C271.885 92.021 272.41 92.135 272.998 92.153C273.586 92.171 274.183 92.12 274.789 92ZM281.314 92V90.407C280.678 90.503 280.123 90.524 279.649 90.47C279.181 90.41 278.839 90.197 278.623 89.831C278.509 89.633 278.446 89.39 278.434 89.102C278.428 88.814 278.425 88.475 278.425 88.085V83.792H281.314V82.28H278.425V79.58H276.535V82.28H274.672V83.792H276.535V88.175C276.535 88.703 276.541 89.177 276.553 89.597C276.571 90.011 276.685 90.419 276.895 90.821C277.135 91.271 277.486 91.601 277.948 91.811C278.41 92.021 278.935 92.135 279.523 92.153C280.111 92.171 280.708 92.12 281.314 92ZM287.653 92.27C288.595 92.27 289.45 92.033 290.218 91.559C290.986 91.079 291.559 90.404 291.937 89.534L290.092 88.949C289.6 89.981 288.757 90.497 287.563 90.497C286.747 90.497 286.105 90.251 285.637 89.759C285.169 89.267 284.896 88.571 284.818 87.671H292.063C292.129 86.507 291.991 85.502 291.649 84.656C291.307 83.81 290.788 83.159 290.092 82.703C289.396 82.241 288.553 82.01 287.563 82.01C286.615 82.01 285.784 82.223 285.07 82.649C284.356 83.075 283.798 83.678 283.396 84.458C283 85.238 282.802 86.159 282.802 87.221C282.802 88.223 283.003 89.105 283.405 89.867C283.813 90.623 284.38 91.214 285.106 91.64C285.838 92.06 286.687 92.27 287.653 92.27ZM287.635 83.675C289.105 83.675 289.939 84.518 290.137 86.204H284.863C284.983 85.382 285.274 84.755 285.736 84.323C286.198 83.891 286.831 83.675 287.635 83.675ZM293.81 92H295.718V86.942C295.718 86.174 295.829 85.562 296.051 85.106C296.279 84.644 296.579 84.311 296.951 84.107C297.323 83.903 297.734 83.801 298.184 83.801C298.7 83.801 299.12 83.906 299.444 84.116C299.768 84.326 300.017 84.602 300.191 84.944C300.365 85.286 300.482 85.658 300.542 86.06C300.608 86.456 300.641 86.843 300.641 87.221V92H302.549V86.6C302.549 86.3 302.522 85.952 302.468 85.556C302.414 85.16 302.312 84.755 302.162 84.341C302.012 83.927 301.793 83.546 301.505 83.198C301.223 82.844 300.854 82.559 300.398 82.343C299.942 82.127 299.378 82.019 298.706 82.019C298.004 82.019 297.38 82.145 296.834 82.397C296.294 82.649 295.847 82.997 295.493 83.441V82.28H293.81V92ZM308.631 92.27C309.243 92.27 309.789 92.168 310.269 91.964C310.755 91.76 311.175 91.475 311.529 91.109V92H313.203V79.04H311.313V82.946C310.977 82.646 310.587 82.415 310.143 82.253C309.699 82.091 309.207 82.01 308.667 82.01C307.755 82.01 306.966 82.235 306.3 82.685C305.64 83.129 305.13 83.738 304.77 84.512C304.41 85.28 304.23 86.153 304.23 87.131C304.23 88.103 304.407 88.976 304.761 89.75C305.121 90.524 305.631 91.139 306.291 91.595C306.951 92.045 307.731 92.27 308.631 92.27ZM308.892 90.569C308.292 90.569 307.794 90.416 307.398 90.11C307.002 89.804 306.708 89.393 306.516 88.877C306.324 88.355 306.228 87.773 306.228 87.131C306.228 86.495 306.324 85.919 306.516 85.403C306.714 84.887 307.014 84.476 307.416 84.17C307.818 83.864 308.331 83.711 308.955 83.711C309.843 83.711 310.494 84.029 310.908 84.665C311.322 85.301 311.529 86.123 311.529 87.131C311.529 88.139 311.322 88.964 310.908 89.606C310.494 90.248 309.822 90.569 308.892 90.569ZM320.032 92.27C320.974 92.27 321.829 92.033 322.597 91.559C323.365 91.079 323.938 90.404 324.316 89.534L322.471 88.949C321.979 89.981 321.136 90.497 319.942 90.497C319.126 90.497 318.484 90.251 318.016 89.759C317.548 89.267 317.275 88.571 317.197 87.671H324.442C324.508 86.507 324.37 85.502 324.028 84.656C323.686 83.81 323.167 83.159 322.471 82.703C321.775 82.241 320.932 82.01 319.942 82.01C318.994 82.01 318.163 82.223 317.449 82.649C316.735 83.075 316.177 83.678 315.775 84.458C315.379 85.238 315.181 86.159 315.181 87.221C315.181 88.223 315.382 89.105 315.784 89.867C316.192 90.623 316.759 91.214 317.485 91.64C318.217 92.06 319.066 92.27 320.032 92.27ZM320.014 83.675C321.484 83.675 322.318 84.518 322.516 86.204H317.242C317.362 85.382 317.653 84.755 318.115 84.323C318.577 83.891 319.21 83.675 320.014 83.675ZM330.322 92.27C330.934 92.27 331.48 92.168 331.96 91.964C332.446 91.76 332.866 91.475 333.22 91.109V92H334.894V79.04H333.004V82.946C332.668 82.646 332.278 82.415 331.834 82.253C331.39 82.091 330.898 82.01 330.358 82.01C329.446 82.01 328.657 82.235 327.991 82.685C327.331 83.129 326.821 83.738 326.461 84.512C326.101 85.28 325.921 86.153 325.921 87.131C325.921 88.103 326.098 88.976 326.452 89.75C326.812 90.524 327.322 91.139 327.982 91.595C328.642 92.045 329.422 92.27 330.322 92.27ZM330.583 90.569C329.983 90.569 329.485 90.416 329.089 90.11C328.693 89.804 328.399 89.393 328.207 88.877C328.015 88.355 327.919 87.773 327.919 87.131C327.919 86.495 328.015 85.919 328.207 85.403C328.405 84.887 328.705 84.476 329.107 84.17C329.509 83.864 330.022 83.711 330.646 83.711C331.534 83.711 332.185 84.029 332.599 84.665C333.013 85.301 333.22 86.123 333.22 87.131C333.22 88.139 333.013 88.964 332.599 89.606C332.185 90.248 331.513 90.569 330.583 90.569ZM344.877 92.27C345.489 92.27 346.035 92.168 346.515 91.964C347.001 91.76 347.421 91.475 347.775 91.109V92H349.449V79.04H347.559V82.946C347.223 82.646 346.833 82.415 346.389 82.253C345.945 82.091 345.453 82.01 344.913 82.01C344.001 82.01 343.212 82.235 342.546 82.685C341.886 83.129 341.376 83.738 341.016 84.512C340.656 85.28 340.476 86.153 340.476 87.131C340.476 88.103 340.653 88.976 341.007 89.75C341.367 90.524 341.877 91.139 342.537 91.595C343.197 92.045 343.977 92.27 344.877 92.27ZM345.138 90.569C344.538 90.569 344.04 90.416 343.644 90.11C343.248 89.804 342.954 89.393 342.762 88.877C342.57 88.355 342.474 87.773 342.474 87.131C342.474 86.495 342.57 85.919 342.762 85.403C342.96 84.887 343.26 84.476 343.662 84.17C344.064 83.864 344.577 83.711 345.201 83.711C346.089 83.711 346.74 84.029 347.154 84.665C347.568 85.301 347.775 86.123 347.775 87.131C347.775 88.139 347.568 88.964 347.154 89.606C346.74 90.248 346.068 90.569 345.138 90.569ZM356.188 92.27C357.154 92.27 357.994 92.054 358.708 91.622C359.422 91.184 359.974 90.581 360.364 89.813C360.76 89.039 360.958 88.145 360.958 87.131C360.958 86.129 360.763 85.244 360.373 84.476C359.983 83.702 359.431 83.099 358.717 82.667C358.003 82.229 357.16 82.01 356.188 82.01C355.234 82.01 354.4 82.226 353.686 82.658C352.972 83.09 352.417 83.69 352.021 84.458C351.625 85.226 351.427 86.117 351.427 87.131C351.427 88.133 351.622 89.021 352.012 89.795C352.402 90.569 352.951 91.175 353.659 91.613C354.373 92.051 355.216 92.27 356.188 92.27ZM356.188 90.497C355.282 90.497 354.595 90.194 354.127 89.588C353.659 88.976 353.425 88.157 353.425 87.131C353.425 86.141 353.65 85.337 354.1 84.719C354.55 84.095 355.246 83.783 356.188 83.783C357.106 83.783 357.796 84.086 358.258 84.692C358.726 85.298 358.96 86.111 358.96 87.131C358.96 88.127 358.729 88.937 358.267 89.561C357.811 90.185 357.118 90.497 356.188 90.497ZM367.247 92.27C368.189 92.27 369.044 92.033 369.812 91.559C370.58 91.079 371.153 90.404 371.531 89.534L369.686 88.949C369.194 89.981 368.351 90.497 367.157 90.497C366.341 90.497 365.699 90.251 365.231 89.759C364.763 89.267 364.49 88.571 364.412 87.671H371.657C371.723 86.507 371.585 85.502 371.243 84.656C370.901 83.81 370.382 83.159 369.686 82.703C368.99 82.241 368.147 82.01 367.157 82.01C366.209 82.01 365.378 82.223 364.664 82.649C363.95 83.075 363.392 83.678 362.99 84.458C362.594 85.238 362.396 86.159 362.396 87.221C362.396 88.223 362.597 89.105 362.999 89.867C363.407 90.623 363.974 91.214 364.7 91.64C365.432 92.06 366.281 92.27 367.247 92.27ZM367.229 83.675C368.699 83.675 369.533 84.518 369.731 86.204H364.457C364.577 85.382 364.868 84.755 365.33 84.323C365.792 83.891 366.425 83.675 367.229 83.675ZM377.393 92.261C378.623 92.261 379.586 91.988 380.282 91.442C380.984 90.896 381.335 90.143 381.335 89.183C381.335 88.679 381.23 88.253 381.02 87.905C380.816 87.557 380.474 87.257 379.994 87.005C379.514 86.747 378.866 86.513 378.05 86.303C377.288 86.111 376.712 85.946 376.322 85.808C375.938 85.664 375.677 85.52 375.539 85.376C375.401 85.226 375.332 85.043 375.332 84.827C375.332 84.455 375.509 84.164 375.863 83.954C376.217 83.738 376.679 83.642 377.249 83.666C377.843 83.69 378.326 83.84 378.698 84.116C379.07 84.386 379.289 84.752 379.355 85.214L381.281 84.863C381.173 83.999 380.75 83.309 380.012 82.793C379.274 82.271 378.347 82.01 377.231 82.01C376.091 82.01 375.176 82.277 374.486 82.811C373.796 83.339 373.451 84.044 373.451 84.926C373.451 85.4 373.553 85.805 373.757 86.141C373.967 86.471 374.315 86.759 374.801 87.005C375.293 87.251 375.956 87.485 376.79 87.707C377.552 87.911 378.119 88.082 378.491 88.22C378.863 88.358 379.106 88.505 379.22 88.661C379.34 88.811 379.4 89.009 379.4 89.255C379.4 89.675 379.232 90.005 378.896 90.245C378.566 90.485 378.107 90.605 377.519 90.605C376.871 90.605 376.328 90.461 375.89 90.173C375.458 89.885 375.182 89.486 375.062 88.976L373.136 89.273C373.304 90.221 373.76 90.956 374.504 91.478C375.248 92 376.211 92.261 377.393 92.261ZM386.921 92H388.829V86.942C388.829 86.174 388.94 85.562 389.162 85.106C389.39 84.644 389.69 84.311 390.062 84.107C390.434 83.903 390.845 83.801 391.295 83.801C391.811 83.801 392.231 83.906 392.555 84.116C392.879 84.326 393.128 84.602 393.302 84.944C393.476 85.286 393.593 85.658 393.653 86.06C393.719 86.456 393.752 86.843 393.752 87.221V92H395.66V86.6C395.66 86.3 395.633 85.952 395.579 85.556C395.525 85.16 395.423 84.755 395.273 84.341C395.123 83.927 394.904 83.546 394.616 83.198C394.334 82.844 393.965 82.559 393.509 82.343C393.053 82.127 392.489 82.019 391.817 82.019C391.115 82.019 390.491 82.145 389.945 82.397C389.405 82.649 388.958 82.997 388.604 83.441V82.28H386.921V92ZM402.102 92.27C403.068 92.27 403.908 92.054 404.622 91.622C405.336 91.184 405.888 90.581 406.278 89.813C406.674 89.039 406.872 88.145 406.872 87.131C406.872 86.129 406.677 85.244 406.287 84.476C405.897 83.702 405.345 83.099 404.631 82.667C403.917 82.229 403.074 82.01 402.102 82.01C401.148 82.01 400.314 82.226 399.6 82.658C398.886 83.09 398.331 83.69 397.935 84.458C397.539 85.226 397.341 86.117 397.341 87.131C397.341 88.133 397.536 89.021 397.926 89.795C398.316 90.569 398.865 91.175 399.573 91.613C400.287 92.051 401.13 92.27 402.102 92.27ZM402.102 90.497C401.196 90.497 400.509 90.194 400.041 89.588C399.573 88.976 399.339 88.157 399.339 87.131C399.339 86.141 399.564 85.337 400.014 84.719C400.464 84.095 401.16 83.783 402.102 83.783C403.02 83.783 403.71 84.086 404.172 84.692C404.64 85.298 404.874 86.111 404.874 87.131C404.874 88.127 404.643 88.937 404.181 89.561C403.725 90.185 403.032 90.497 402.102 90.497ZM101.571 124.27C102.513 124.27 103.368 124.033 104.136 123.559C104.904 123.079 105.477 122.404 105.855 121.534L104.01 120.949C103.518 121.981 102.675 122.497 101.481 122.497C100.665 122.497 100.023 122.251 99.555 121.759C99.087 121.267 98.814 120.571 98.736 119.671H105.981C106.047 118.507 105.909 117.502 105.567 116.656C105.225 115.81 104.706 115.159 104.01 114.703C103.314 114.241 102.471 114.01 101.481 114.01C100.533 114.01 99.702 114.223 98.988 114.649C98.274 115.075 97.716 115.678 97.314 116.458C96.918 117.238 96.72 118.159 96.72 119.221C96.72 120.223 96.921 121.105 97.323 121.867C97.731 122.623 98.298 123.214 99.024 123.64C99.756 124.06 100.605 124.27 101.571 124.27ZM101.553 115.675C103.023 115.675 103.857 116.518 104.055 118.204H98.781C98.901 117.382 99.192 116.755 99.654 116.323C100.116 115.891 100.749 115.675 101.553 115.675ZM107.728 124H109.636V118.942C109.636 118.174 109.747 117.562 109.969 117.106C110.197 116.644 110.497 116.311 110.869 116.107C111.241 115.903 111.652 115.801 112.102 115.801C112.618 115.801 113.038 115.906 113.362 116.116C113.686 116.326 113.935 116.602 114.109 116.944C114.283 117.286 114.4 117.658 114.46 118.06C114.526 118.456 114.559 118.843 114.559 119.221V124H116.467V118.6C116.467 118.3 116.44 117.952 116.386 117.556C116.332 117.16 116.23 116.755 116.08 116.341C115.93 115.927 115.711 115.546 115.423 115.198C115.141 114.844 114.772 114.559 114.316 114.343C113.86 114.127 113.296 114.019 112.624 114.019C111.922 114.019 111.298 114.145 110.752 114.397C110.212 114.649 109.765 114.997 109.411 115.441V114.28H107.728V124ZM122.549 124.27C123.161 124.27 123.707 124.168 124.187 123.964C124.673 123.76 125.093 123.475 125.447 123.109V124H127.121V111.04H125.231V114.946C124.895 114.646 124.505 114.415 124.061 114.253C123.617 114.091 123.125 114.01 122.585 114.01C121.673 114.01 120.884 114.235 120.218 114.685C119.558 115.129 119.048 115.738 118.688 116.512C118.328 117.28 118.148 118.153 118.148 119.131C118.148 120.103 118.325 120.976 118.679 121.75C119.039 122.524 119.549 123.139 120.209 123.595C120.869 124.045 121.649 124.27 122.549 124.27ZM122.81 122.569C122.21 122.569 121.712 122.416 121.316 122.11C120.92 121.804 120.626 121.393 120.434 120.877C120.242 120.355 120.146 119.773 120.146 119.131C120.146 118.495 120.242 117.919 120.434 117.403C120.632 116.887 120.932 116.476 121.334 116.17C121.736 115.864 122.249 115.711 122.873 115.711C123.761 115.711 124.412 116.029 124.826 116.665C125.24 117.301 125.447 118.123 125.447 119.131C125.447 120.139 125.24 120.964 124.826 121.606C124.412 122.248 123.74 122.569 122.81 122.569ZM133.422 112.687H135.303V110.86H133.422V112.687ZM133.422 124H135.303V114.28H133.422V124ZM143.568 124V122.407C142.932 122.503 142.377 122.524 141.903 122.47C141.435 122.41 141.093 122.197 140.877 121.831C140.763 121.633 140.7 121.39 140.688 121.102C140.682 120.814 140.679 120.475 140.679 120.085V115.792H143.568V114.28H140.679V111.58H138.789V114.28H136.926V115.792H138.789V120.175C138.789 120.703 138.795 121.177 138.807 121.597C138.825 122.011 138.939 122.419 139.149 122.821C139.389 123.271 139.74 123.601 140.202 123.811C140.664 124.021 141.189 124.135 141.777 124.153C142.365 124.171 142.962 124.12 143.568 124ZM149.212 124H151.12V118.942C151.12 118.174 151.231 117.562 151.453 117.106C151.681 116.644 151.981 116.311 152.353 116.107C152.725 115.903 153.136 115.801 153.586 115.801C154.102 115.801 154.522 115.906 154.846 116.116C155.17 116.326 155.419 116.602 155.593 116.944C155.767 117.286 155.884 117.658 155.944 118.06C156.01 118.456 156.043 118.843 156.043 119.221V124H157.951V118.6C157.951 118.3 157.924 117.952 157.87 117.556C157.816 117.16 157.714 116.755 157.564 116.341C157.414 115.927 157.195 115.546 156.907 115.198C156.625 114.844 156.256 114.559 155.8 114.343C155.344 114.127 154.78 114.019 154.108 114.019C153.406 114.019 152.782 114.145 152.236 114.397C151.696 114.649 151.249 114.997 150.895 115.441V111.04H149.212V124ZM160.475 112.687H162.356V110.86H160.475V112.687ZM160.475 124H162.356V114.28H160.475V124ZM168.776 124.261C170.006 124.261 170.969 123.988 171.665 123.442C172.367 122.896 172.718 122.143 172.718 121.183C172.718 120.679 172.613 120.253 172.403 119.905C172.199 119.557 171.857 119.257 171.377 119.005C170.897 118.747 170.249 118.513 169.433 118.303C168.671 118.111 168.095 117.946 167.705 117.808C167.321 117.664 167.06 117.52 166.922 117.376C166.784 117.226 166.715 117.043 166.715 116.827C166.715 116.455 166.892 116.164 167.246 115.954C167.6 115.738 168.062 115.642 168.632 115.666C169.226 115.69 169.709 115.84 170.081 116.116C170.453 116.386 170.672 116.752 170.738 117.214L172.664 116.863C172.556 115.999 172.133 115.309 171.395 114.793C170.657 114.271 169.73 114.01 168.614 114.01C167.474 114.01 166.559 114.277 165.869 114.811C165.179 115.339 164.834 116.044 164.834 116.926C164.834 117.4 164.936 117.805 165.14 118.141C165.35 118.471 165.698 118.759 166.184 119.005C166.676 119.251 167.339 119.485 168.173 119.707C168.935 119.911 169.502 120.082 169.874 120.22C170.246 120.358 170.489 120.505 170.603 120.661C170.723 120.811 170.783 121.009 170.783 121.255C170.783 121.675 170.615 122.005 170.279 122.245C169.949 122.485 169.49 122.605 168.902 122.605C168.254 122.605 167.711 122.461 167.273 122.173C166.841 121.885 166.565 121.486 166.445 120.976L164.519 121.273C164.687 122.221 165.143 122.956 165.887 123.478C166.631 124 167.594 124.261 168.776 124.261ZM178.304 124H180.194V117.925C180.194 117.265 180.374 116.731 180.734 116.323C181.1 115.915 181.58 115.711 182.174 115.711C182.774 115.711 183.251 115.915 183.605 116.323C183.965 116.725 184.145 117.277 184.145 117.979L184.136 124H186.017L186.026 117.925C186.026 117.193 186.221 116.641 186.611 116.269C187.007 115.897 187.472 115.711 188.006 115.711C188.594 115.711 189.068 115.909 189.428 116.305C189.788 116.701 189.968 117.247 189.968 117.943L189.959 124H191.84L191.849 117.493C191.849 116.449 191.558 115.612 190.976 114.982C190.4 114.352 189.59 114.037 188.546 114.037C187.91 114.037 187.334 114.178 186.818 114.46C186.302 114.736 185.894 115.12 185.594 115.612C185.336 115.12 184.967 114.736 184.487 114.46C184.013 114.178 183.44 114.037 182.768 114.037C182.186 114.037 181.652 114.154 181.166 114.388C180.686 114.616 180.29 114.928 179.978 115.324V114.28H178.304V124ZM198.284 124.27C199.25 124.27 200.09 124.054 200.804 123.622C201.518 123.184 202.07 122.581 202.46 121.813C202.856 121.039 203.054 120.145 203.054 119.131C203.054 118.129 202.859 117.244 202.469 116.476C202.079 115.702 201.527 115.099 200.813 114.667C200.099 114.229 199.256 114.01 198.284 114.01C197.33 114.01 196.496 114.226 195.782 114.658C195.068 115.09 194.513 115.69 194.117 116.458C193.721 117.226 193.523 118.117 193.523 119.131C193.523 120.133 193.718 121.021 194.108 121.795C194.498 122.569 195.047 123.175 195.755 123.613C196.469 124.051 197.312 124.27 198.284 124.27ZM198.284 122.497C197.378 122.497 196.691 122.194 196.223 121.588C195.755 120.976 195.521 120.157 195.521 119.131C195.521 118.141 195.746 117.337 196.196 116.719C196.646 116.095 197.342 115.783 198.284 115.783C199.202 115.783 199.892 116.086 200.354 116.692C200.822 117.298 201.056 118.111 201.056 119.131C201.056 120.127 200.825 120.937 200.363 121.561C199.907 122.185 199.214 122.497 198.284 122.497ZM210.593 124V122.407C209.957 122.503 209.402 122.524 208.928 122.47C208.46 122.41 208.118 122.197 207.902 121.831C207.788 121.633 207.725 121.39 207.713 121.102C207.707 120.814 207.704 120.475 207.704 120.085V115.792H210.593V114.28H207.704V111.58H205.814V114.28H203.951V115.792H205.814V120.175C205.814 120.703 205.82 121.177 205.832 121.597C205.85 122.011 205.964 122.419 206.174 122.821C206.414 123.271 206.765 123.601 207.227 123.811C207.689 124.021 208.214 124.135 208.802 124.153C209.39 124.171 209.987 124.12 210.593 124ZM212.634 124H214.542V118.942C214.542 118.174 214.653 117.562 214.875 117.106C215.103 116.644 215.403 116.311 215.775 116.107C216.147 115.903 216.558 115.801 217.008 115.801C217.524 115.801 217.944 115.906 218.268 116.116C218.592 116.326 218.841 116.602 219.015 116.944C219.189 117.286 219.306 117.658 219.366 118.06C219.432 118.456 219.465 118.843 219.465 119.221V124H221.373V118.6C221.373 118.3 221.346 117.952 221.292 117.556C221.238 117.16 221.136 116.755 220.986 116.341C220.836 115.927 220.617 115.546 220.329 115.198C220.047 114.844 219.678 114.559 219.222 114.343C218.766 114.127 218.202 114.019 217.53 114.019C216.828 114.019 216.204 114.145 215.658 114.397C215.118 114.649 214.671 114.997 214.317 115.441V111.04H212.634V124ZM228.028 124.27C228.97 124.27 229.825 124.033 230.593 123.559C231.361 123.079 231.934 122.404 232.312 121.534L230.467 120.949C229.975 121.981 229.132 122.497 227.938 122.497C227.122 122.497 226.48 122.251 226.012 121.759C225.544 121.267 225.271 120.571 225.193 119.671H232.438C232.504 118.507 232.366 117.502 232.024 116.656C231.682 115.81 231.163 115.159 230.467 114.703C229.771 114.241 228.928 114.01 227.938 114.01C226.99 114.01 226.159 114.223 225.445 114.649C224.731 115.075 224.173 115.678 223.771 116.458C223.375 117.238 223.177 118.159 223.177 119.221C223.177 120.223 223.378 121.105 223.78 121.867C224.188 122.623 224.755 123.214 225.481 123.64C226.213 124.06 227.062 124.27 228.028 124.27ZM228.01 115.675C229.48 115.675 230.314 116.518 230.512 118.204H225.238C225.358 117.382 225.649 116.755 226.111 116.323C226.573 115.891 227.206 115.675 228.01 115.675ZM234.457 124H236.356V119.095C236.356 118.525 236.446 117.997 236.626 117.511C236.806 117.025 237.124 116.635 237.58 116.341C237.904 116.131 238.261 116.008 238.651 115.972C239.041 115.936 239.392 115.96 239.704 116.044V114.28C239.266 114.196 238.801 114.199 238.309 114.289C237.823 114.379 237.397 114.559 237.031 114.829C236.671 115.069 236.371 115.402 236.131 115.828V114.28H234.457V124ZM248.739 124.261C249.969 124.261 250.932 123.988 251.628 123.442C252.33 122.896 252.681 122.143 252.681 121.183C252.681 120.679 252.576 120.253 252.366 119.905C252.162 119.557 251.82 119.257 251.34 119.005C250.86 118.747 250.212 118.513 249.396 118.303C248.634 118.111 248.058 117.946 247.668 117.808C247.284 117.664 247.023 117.52 246.885 117.376C246.747 117.226 246.678 117.043 246.678 116.827C246.678 116.455 246.855 116.164 247.209 115.954C247.563 115.738 248.025 115.642 248.595 115.666C249.189 115.69 249.672 115.84 250.044 116.116C250.416 116.386 250.635 116.752 250.701 117.214L252.627 116.863C252.519 115.999 252.096 115.309 251.358 114.793C250.62 114.271 249.693 114.01 248.577 114.01C247.437 114.01 246.522 114.277 245.832 114.811C245.142 115.339 244.797 116.044 244.797 116.926C244.797 117.4 244.899 117.805 245.103 118.141C245.313 118.471 245.661 118.759 246.147 119.005C246.639 119.251 247.302 119.485 248.136 119.707C248.898 119.911 249.465 120.082 249.837 120.22C250.209 120.358 250.452 120.505 250.566 120.661C250.686 120.811 250.746 121.009 250.746 121.255C250.746 121.675 250.578 122.005 250.242 122.245C249.912 122.485 249.453 122.605 248.865 122.605C248.217 122.605 247.674 122.461 247.236 122.173C246.804 121.885 246.528 121.486 246.408 120.976L244.482 121.273C244.65 122.221 245.106 122.956 245.85 123.478C246.594 124 247.557 124.261 248.739 124.261ZM254.852 112.687H256.733V110.86H254.852V112.687ZM254.852 124H256.733V114.28H254.852V124ZM259.427 124H261.335V118.942C261.335 118.174 261.446 117.562 261.668 117.106C261.896 116.644 262.196 116.311 262.568 116.107C262.94 115.903 263.351 115.801 263.801 115.801C264.317 115.801 264.737 115.906 265.061 116.116C265.385 116.326 265.634 116.602 265.808 116.944C265.982 117.286 266.099 117.658 266.159 118.06C266.225 118.456 266.258 118.843 266.258 119.221V124H268.166V118.6C268.166 118.3 268.139 117.952 268.085 117.556C268.031 117.16 267.929 116.755 267.779 116.341C267.629 115.927 267.41 115.546 267.122 115.198C266.84 114.844 266.471 114.559 266.015 114.343C265.559 114.127 264.995 114.019 264.323 114.019C263.621 114.019 262.997 114.145 262.451 114.397C261.911 114.649 261.464 114.997 261.11 115.441V114.28H259.427V124ZM274.545 124.27C275.589 124.27 276.477 124.018 277.209 123.514C277.941 123.01 278.466 122.281 278.784 121.327L276.876 120.877C276.678 121.399 276.39 121.801 276.012 122.083C275.64 122.359 275.151 122.497 274.545 122.497C273.657 122.497 272.985 122.188 272.529 121.57C272.079 120.952 271.851 120.142 271.845 119.14C271.851 118.168 272.07 117.367 272.502 116.737C272.94 116.101 273.621 115.783 274.545 115.783C275.091 115.783 275.574 115.936 275.994 116.242C276.42 116.542 276.726 116.965 276.912 117.511L278.784 116.971C278.544 116.059 278.046 115.339 277.29 114.811C276.54 114.277 275.634 114.01 274.572 114.01C273.594 114.01 272.751 114.229 272.043 114.667C271.341 115.105 270.801 115.711 270.423 116.485C270.045 117.253 269.853 118.138 269.847 119.14C269.853 120.124 270.039 121.003 270.405 121.777C270.777 122.551 271.311 123.16 272.007 123.604C272.709 124.048 273.555 124.27 274.545 124.27ZM284.665 124.27C285.607 124.27 286.462 124.033 287.23 123.559C287.998 123.079 288.571 122.404 288.949 121.534L287.104 120.949C286.612 121.981 285.769 122.497 284.575 122.497C283.759 122.497 283.117 122.251 282.649 121.759C282.181 121.267 281.908 120.571 281.83 119.671H289.075C289.141 118.507 289.003 117.502 288.661 116.656C288.319 115.81 287.8 115.159 287.104 114.703C286.408 114.241 285.565 114.01 284.575 114.01C283.627 114.01 282.796 114.223 282.082 114.649C281.368 115.075 280.81 115.678 280.408 116.458C280.012 117.238 279.814 118.159 279.814 119.221C279.814 120.223 280.015 121.105 280.417 121.867C280.825 122.623 281.392 123.214 282.118 123.64C282.85 124.06 283.699 124.27 284.665 124.27ZM284.647 115.675C286.117 115.675 286.951 116.518 287.149 118.204H281.875C281.995 117.382 282.286 116.755 282.748 116.323C283.21 115.891 283.843 115.675 284.647 115.675ZM294.698 124H296.597V119.095C296.597 118.525 296.687 117.997 296.867 117.511C297.047 117.025 297.365 116.635 297.821 116.341C298.145 116.131 298.502 116.008 298.892 115.972C299.282 115.936 299.633 115.96 299.945 116.044V114.28C299.507 114.196 299.042 114.199 298.55 114.289C298.064 114.379 297.638 114.559 297.272 114.829C296.912 115.069 296.612 115.402 296.372 115.828V114.28H294.698V124ZM305.794 124.27C306.736 124.27 307.591 124.033 308.359 123.559C309.127 123.079 309.7 122.404 310.078 121.534L308.233 120.949C307.741 121.981 306.898 122.497 305.704 122.497C304.888 122.497 304.246 122.251 303.778 121.759C303.31 121.267 303.037 120.571 302.959 119.671H310.204C310.27 118.507 310.132 117.502 309.79 116.656C309.448 115.81 308.929 115.159 308.233 114.703C307.537 114.241 306.694 114.01 305.704 114.01C304.756 114.01 303.925 114.223 303.211 114.649C302.497 115.075 301.939 115.678 301.537 116.458C301.141 117.238 300.943 118.159 300.943 119.221C300.943 120.223 301.144 121.105 301.546 121.867C301.954 122.623 302.521 123.214 303.247 123.64C303.979 124.06 304.828 124.27 305.794 124.27ZM305.776 115.675C307.246 115.675 308.08 116.518 308.278 118.204H303.004C303.124 117.382 303.415 116.755 303.877 116.323C304.339 115.891 304.972 115.675 305.776 115.675ZM314.792 124.27C316.34 124.27 317.507 123.709 318.293 122.587V124H319.958V118.015C319.958 117.607 319.94 117.226 319.904 116.872C319.868 116.518 319.772 116.182 319.616 115.864C319.316 115.222 318.842 114.754 318.194 114.46C317.552 114.16 316.796 114.01 315.926 114.01C314.804 114.01 313.904 114.256 313.226 114.748C312.548 115.24 312.092 115.903 311.858 116.737L313.613 117.277C313.781 116.737 314.078 116.347 314.504 116.107C314.93 115.867 315.398 115.747 315.908 115.747C316.664 115.747 317.21 115.909 317.546 116.233C317.888 116.551 318.074 117.046 318.104 117.718C317.312 117.826 316.538 117.94 315.782 118.06C315.026 118.174 314.366 118.312 313.802 118.474C313.052 118.714 312.482 119.071 312.092 119.545C311.702 120.019 311.507 120.622 311.507 121.354C311.507 121.882 311.63 122.368 311.876 122.812C312.128 123.25 312.497 123.604 312.983 123.874C313.475 124.138 314.078 124.27 314.792 124.27ZM315.125 122.731C314.525 122.731 314.081 122.593 313.793 122.317C313.511 122.041 313.37 121.714 313.37 121.336C313.37 120.952 313.496 120.649 313.748 120.427C314.006 120.205 314.327 120.028 314.711 119.896C315.119 119.776 315.599 119.671 316.151 119.581C316.709 119.491 317.354 119.392 318.086 119.284C318.08 119.512 318.065 119.767 318.041 120.049C318.017 120.331 317.966 120.583 317.888 120.805C317.816 121.123 317.663 121.429 317.429 121.723C317.201 122.017 316.892 122.26 316.502 122.452C316.118 122.638 315.659 122.731 315.125 122.731ZM322.475 124H324.356V110.77H322.475V124ZM330.653 124H332.561V118.942C332.561 118.174 332.672 117.562 332.894 117.106C333.122 116.644 333.422 116.311 333.794 116.107C334.166 115.903 334.577 115.801 335.027 115.801C335.543 115.801 335.963 115.906 336.287 116.116C336.611 116.326 336.86 116.602 337.034 116.944C337.208 117.286 337.325 117.658 337.385 118.06C337.451 118.456 337.484 118.843 337.484 119.221V124H339.392V118.6C339.392 118.3 339.365 117.952 339.311 117.556C339.257 117.16 339.155 116.755 339.005 116.341C338.855 115.927 338.636 115.546 338.348 115.198C338.066 114.844 337.697 114.559 337.241 114.343C336.785 114.127 336.221 114.019 335.549 114.019C334.847 114.019 334.223 114.145 333.677 114.397C333.137 114.649 332.69 114.997 332.336 115.441V111.04H330.653V124ZM344.482 124.27C346.03 124.27 347.197 123.709 347.983 122.587V124H349.648V118.015C349.648 117.607 349.63 117.226 349.594 116.872C349.558 116.518 349.462 116.182 349.306 115.864C349.006 115.222 348.532 114.754 347.884 114.46C347.242 114.16 346.486 114.01 345.616 114.01C344.494 114.01 343.594 114.256 342.916 114.748C342.238 115.24 341.782 115.903 341.548 116.737L343.303 117.277C343.471 116.737 343.768 116.347 344.194 116.107C344.62 115.867 345.088 115.747 345.598 115.747C346.354 115.747 346.9 115.909 347.236 116.233C347.578 116.551 347.764 117.046 347.794 117.718C347.002 117.826 346.228 117.94 345.472 118.06C344.716 118.174 344.056 118.312 343.492 118.474C342.742 118.714 342.172 119.071 341.782 119.545C341.392 120.019 341.197 120.622 341.197 121.354C341.197 121.882 341.32 122.368 341.566 122.812C341.818 123.25 342.187 123.604 342.673 123.874C343.165 124.138 343.768 124.27 344.482 124.27ZM344.815 122.731C344.215 122.731 343.771 122.593 343.483 122.317C343.201 122.041 343.06 121.714 343.06 121.336C343.06 120.952 343.186 120.649 343.438 120.427C343.696 120.205 344.017 120.028 344.401 119.896C344.809 119.776 345.289 119.671 345.841 119.581C346.399 119.491 347.044 119.392 347.776 119.284C347.77 119.512 347.755 119.767 347.731 120.049C347.707 120.331 347.656 120.583 347.578 120.805C347.506 121.123 347.353 121.429 347.119 121.723C346.891 122.017 346.582 122.26 346.192 122.452C345.808 122.638 345.349 122.731 344.815 122.731ZM355.846 124.27C356.458 124.27 357.004 124.168 357.484 123.964C357.97 123.76 358.39 123.475 358.744 123.109V124H360.418V111.04H358.528V114.946C358.192 114.646 357.802 114.415 357.358 114.253C356.914 114.091 356.422 114.01 355.882 114.01C354.97 114.01 354.181 114.235 353.515 114.685C352.855 115.129 352.345 115.738 351.985 116.512C351.625 117.28 351.445 118.153 351.445 119.131C351.445 120.103 351.622 120.976 351.976 121.75C352.336 122.524 352.846 123.139 353.506 123.595C354.166 124.045 354.946 124.27 355.846 124.27ZM356.107 122.569C355.507 122.569 355.009 122.416 354.613 122.11C354.217 121.804 353.923 121.393 353.731 120.877C353.539 120.355 353.443 119.773 353.443 119.131C353.443 118.495 353.539 117.919 353.731 117.403C353.929 116.887 354.229 116.476 354.631 116.17C355.033 115.864 355.546 115.711 356.17 115.711C357.058 115.711 357.709 116.029 358.123 116.665C358.537 117.301 358.744 118.123 358.744 119.131C358.744 120.139 358.537 120.964 358.123 121.606C357.709 122.248 357.037 122.569 356.107 122.569ZM366.53 124H368.438V118.942C368.438 118.174 368.549 117.562 368.771 117.106C368.999 116.644 369.299 116.311 369.671 116.107C370.043 115.903 370.454 115.801 370.904 115.801C371.42 115.801 371.84 115.906 372.164 116.116C372.488 116.326 372.737 116.602 372.911 116.944C373.085 117.286 373.202 117.658 373.262 118.06C373.328 118.456 373.361 118.843 373.361 119.221V124H375.269V118.6C375.269 118.3 375.242 117.952 375.188 117.556C375.134 117.16 375.032 116.755 374.882 116.341C374.732 115.927 374.513 115.546 374.225 115.198C373.943 114.844 373.574 114.559 373.118 114.343C372.662 114.127 372.098 114.019 371.426 114.019C370.724 114.019 370.1 114.145 369.554 114.397C369.014 114.649 368.567 114.997 368.213 115.441V111.04H366.53V124ZM380.359 124.27C381.907 124.27 383.074 123.709 383.86 122.587V124H385.525V118.015C385.525 117.607 385.507 117.226 385.471 116.872C385.435 116.518 385.339 116.182 385.183 115.864C384.883 115.222 384.409 114.754 383.761 114.46C383.119 114.16 382.363 114.01 381.493 114.01C380.371 114.01 379.471 114.256 378.793 114.748C378.115 115.24 377.659 115.903 377.425 116.737L379.18 117.277C379.348 116.737 379.645 116.347 380.071 116.107C380.497 115.867 380.965 115.747 381.475 115.747C382.231 115.747 382.777 115.909 383.113 116.233C383.455 116.551 383.641 117.046 383.671 117.718C382.879 117.826 382.105 117.94 381.349 118.06C380.593 118.174 379.933 118.312 379.369 118.474C378.619 118.714 378.049 119.071 377.659 119.545C377.269 120.019 377.074 120.622 377.074 121.354C377.074 121.882 377.197 122.368 377.443 122.812C377.695 123.25 378.064 123.604 378.55 123.874C379.042 124.138 379.645 124.27 380.359 124.27ZM380.692 122.731C380.092 122.731 379.648 122.593 379.36 122.317C379.078 122.041 378.937 121.714 378.937 121.336C378.937 120.952 379.063 120.649 379.315 120.427C379.573 120.205 379.894 120.028 380.278 119.896C380.686 119.776 381.166 119.671 381.718 119.581C382.276 119.491 382.921 119.392 383.653 119.284C383.647 119.512 383.632 119.767 383.608 120.049C383.584 120.331 383.533 120.583 383.455 120.805C383.383 121.123 383.23 121.429 382.996 121.723C382.768 122.017 382.459 122.26 382.069 122.452C381.685 122.638 381.226 122.731 380.692 122.731ZM388.042 124H389.923V110.77H388.042V124ZM393.516 124H395.397V115.792H397.854V114.28H395.397V113.578C395.397 112.738 395.838 112.318 396.72 112.318H397.854V110.77H396.63C396.39 110.77 396.123 110.782 395.829 110.806C395.535 110.824 395.241 110.887 394.947 110.995C394.659 111.103 394.389 111.295 394.137 111.571C393.825 111.913 393.642 112.3 393.588 112.732C393.54 113.164 393.516 113.566 393.516 113.938V114.28H391.905V115.792H393.516V124ZM101.571 156.27C102.513 156.27 103.368 156.033 104.136 155.559C104.904 155.079 105.477 154.404 105.855 153.534L104.01 152.949C103.518 153.981 102.675 154.497 101.481 154.497C100.665 154.497 100.023 154.251 99.555 153.759C99.087 153.267 98.814 152.571 98.736 151.671H105.981C106.047 150.507 105.909 149.502 105.567 148.656C105.225 147.81 104.706 147.159 104.01 146.703C103.314 146.241 102.471 146.01 101.481 146.01C100.533 146.01 99.702 146.223 98.988 146.649C98.274 147.075 97.716 147.678 97.314 148.458C96.918 149.238 96.72 150.159 96.72 151.221C96.72 152.223 96.921 153.105 97.323 153.867C97.731 154.623 98.298 155.214 99.024 155.64C99.756 156.06 100.605 156.27 101.571 156.27ZM101.553 147.675C103.023 147.675 103.857 148.518 104.055 150.204H98.781C98.901 149.382 99.192 148.755 99.654 148.323C100.116 147.891 100.749 147.675 101.553 147.675ZM110.277 156H112.185L115.713 146.28H113.814L111.231 153.642L108.648 146.28H106.749L110.277 156ZM121.294 156.27C122.236 156.27 123.091 156.033 123.859 155.559C124.627 155.079 125.2 154.404 125.578 153.534L123.733 152.949C123.241 153.981 122.398 154.497 121.204 154.497C120.388 154.497 119.746 154.251 119.278 153.759C118.81 153.267 118.537 152.571 118.459 151.671H125.704C125.77 150.507 125.632 149.502 125.29 148.656C124.948 147.81 124.429 147.159 123.733 146.703C123.037 146.241 122.194 146.01 121.204 146.01C120.256 146.01 119.425 146.223 118.711 146.649C117.997 147.075 117.439 147.678 117.037 148.458C116.641 149.238 116.443 150.159 116.443 151.221C116.443 152.223 116.644 153.105 117.046 153.867C117.454 154.623 118.021 155.214 118.747 155.64C119.479 156.06 120.328 156.27 121.294 156.27ZM121.276 147.675C122.746 147.675 123.58 148.518 123.778 150.204H118.504C118.624 149.382 118.915 148.755 119.377 148.323C119.839 147.891 120.472 147.675 121.276 147.675ZM127.723 156H129.622V151.095C129.622 150.525 129.712 149.997 129.892 149.511C130.072 149.025 130.39 148.635 130.846 148.341C131.17 148.131 131.527 148.008 131.917 147.972C132.307 147.936 132.658 147.96 132.97 148.044V146.28C132.532 146.196 132.067 146.199 131.575 146.289C131.089 146.379 130.663 146.559 130.297 146.829C129.937 147.069 129.637 147.402 129.397 147.828V146.28H127.723V156ZM135.752 160.32H137.543L142.907 146.28H140.999L138.254 153.588L135.383 146.28H133.421L137.354 155.955L135.752 160.32ZM143.199 156H145.188V154.011H143.199V156Z" fill="#1E1B1B"/>
<path d="M98.24 49V25.96H107.376C108.933 25.96 110.208 26.2747 111.2 26.904C112.203 27.5227 112.944 28.3173 113.424 29.288C113.915 30.2587 114.16 31.2613 114.16 32.296C114.16 33.5653 113.856 34.6427 113.248 35.528C112.651 36.4133 111.835 37.0107 110.8 37.32V36.52C112.251 36.8507 113.349 37.5387 114.096 38.584C114.853 39.6293 115.232 40.8187 115.232 42.152C115.232 43.5173 114.971 44.712 114.448 45.736C113.925 46.76 113.147 47.56 112.112 48.136C111.088 48.712 109.819 49 108.304 49H98.24ZM102.144 45.368H107.824C108.496 45.368 109.099 45.2347 109.632 44.968C110.165 44.6907 110.581 44.3067 110.88 43.816C111.189 43.3147 111.344 42.7227 111.344 42.04C111.344 41.4213 111.211 40.8667 110.944 40.376C110.677 39.8853 110.288 39.496 109.776 39.208C109.264 38.9093 108.651 38.76 107.936 38.76H102.144V45.368ZM102.144 35.16H107.328C107.883 35.16 108.379 35.0533 108.816 34.84C109.253 34.6267 109.6 34.312 109.856 33.896C110.112 33.48 110.24 32.968 110.24 32.36C110.24 31.56 109.984 30.8933 109.472 30.36C108.96 29.8267 108.245 29.56 107.328 29.56H102.144V35.16ZM125.1 49.48C123.372 49.48 121.862 49.0907 120.572 48.312C119.281 47.5333 118.278 46.4613 117.564 45.096C116.86 43.72 116.508 42.1413 116.508 40.36C116.508 38.5467 116.87 36.9573 117.596 35.592C118.321 34.2267 119.329 33.16 120.62 32.392C121.91 31.624 123.404 31.24 125.1 31.24C126.838 31.24 128.353 31.6293 129.644 32.408C130.934 33.1867 131.937 34.264 132.652 35.64C133.366 37.0053 133.724 38.5787 133.724 40.36C133.724 42.152 133.361 43.736 132.636 45.112C131.921 46.4773 130.918 47.5493 129.628 48.328C128.337 49.096 126.828 49.48 125.1 49.48ZM125.1 45.864C126.636 45.864 127.777 45.352 128.524 44.328C129.27 43.304 129.644 41.9813 129.644 40.36C129.644 38.6853 129.265 37.352 128.508 36.36C127.75 35.3573 126.614 34.856 125.1 34.856C124.065 34.856 123.212 35.0907 122.54 35.56C121.878 36.0187 121.388 36.664 121.068 37.496C120.748 38.3173 120.588 39.272 120.588 40.36C120.588 42.0347 120.966 43.3733 121.724 44.376C122.492 45.368 123.617 45.864 125.1 45.864ZM143.921 49.48C142.193 49.48 140.683 49.0907 139.393 48.312C138.102 47.5333 137.099 46.4613 136.385 45.096C135.681 43.72 135.329 42.1413 135.329 40.36C135.329 38.5467 135.691 36.9573 136.417 35.592C137.142 34.2267 138.15 33.16 139.441 32.392C140.731 31.624 142.225 31.24 143.921 31.24C145.659 31.24 147.174 31.6293 148.465 32.408C149.755 33.1867 150.758 34.264 151.473 35.64C152.187 37.0053 152.545 38.5787 152.545 40.36C152.545 42.152 152.182 43.736 151.457 45.112C150.742 46.4773 149.739 47.5493 148.449 48.328C147.158 49.096 145.649 49.48 143.921 49.48ZM143.921 45.864C145.457 45.864 146.598 45.352 147.345 44.328C148.091 43.304 148.465 41.9813 148.465 40.36C148.465 38.6853 148.086 37.352 147.329 36.36C146.571 35.3573 145.435 34.856 143.921 34.856C142.886 34.856 142.033 35.0907 141.361 35.56C140.699 36.0187 140.209 36.664 139.889 37.496C139.569 38.3173 139.409 39.272 139.409 40.36C139.409 42.0347 139.787 43.3733 140.545 44.376C141.313 45.368 142.438 45.864 143.921 45.864ZM155.078 49L155.11 25.96H159.014V40.04L165.334 31.72H170.15L163.446 40.36L170.726 49H165.622L159.014 40.68V49H155.078ZM181.647 49.48C180.399 49.48 179.343 49.2453 178.479 48.776C177.615 48.296 176.959 47.6613 176.511 46.872C176.074 46.0827 175.855 45.2133 175.855 44.264C175.855 43.432 175.994 42.6853 176.271 42.024C176.548 41.352 176.975 40.776 177.551 40.296C178.127 39.8053 178.874 39.4053 179.791 39.096C180.484 38.872 181.295 38.6693 182.223 38.488C183.162 38.3067 184.175 38.1413 185.263 37.992C186.362 37.832 187.508 37.6613 188.703 37.48L187.327 38.264C187.338 37.0693 187.071 36.1893 186.527 35.624C185.983 35.0587 185.066 34.776 183.775 34.776C182.996 34.776 182.244 34.9573 181.519 35.32C180.794 35.6827 180.287 36.3067 179.999 37.192L176.479 36.088C176.906 34.6267 177.716 33.4533 178.911 32.568C180.116 31.6827 181.738 31.24 183.775 31.24C185.311 31.24 186.66 31.4907 187.823 31.992C188.996 32.4933 189.866 33.3147 190.431 34.456C190.74 35.064 190.927 35.688 190.991 36.328C191.055 36.9573 191.087 37.6453 191.087 38.392V49H187.711V45.256L188.271 45.864C187.492 47.112 186.58 48.0293 185.535 48.616C184.5 49.192 183.204 49.48 181.647 49.48ZM182.415 46.408C183.29 46.408 184.036 46.2533 184.655 45.944C185.274 45.6347 185.764 45.256 186.127 44.808C186.5 44.36 186.751 43.9387 186.879 43.544C187.082 43.0533 187.194 42.4933 187.215 41.864C187.247 41.224 187.263 40.7067 187.263 40.312L188.447 40.664C187.284 40.8453 186.287 41.0053 185.455 41.144C184.623 41.2827 183.908 41.416 183.311 41.544C182.714 41.6613 182.186 41.7947 181.727 41.944C181.279 42.104 180.9 42.2907 180.591 42.504C180.282 42.7173 180.042 42.9627 179.871 43.24C179.711 43.5173 179.631 43.8427 179.631 44.216C179.631 44.6427 179.738 45.0213 179.951 45.352C180.164 45.672 180.474 45.928 180.879 46.12C181.295 46.312 181.807 46.408 182.415 46.408ZM206.244 49V40.68C206.244 40.136 206.207 39.5333 206.132 38.872C206.058 38.2107 205.882 37.576 205.604 36.968C205.338 36.3493 204.932 35.8427 204.388 35.448C203.855 35.0533 203.13 34.856 202.212 34.856C201.722 34.856 201.236 34.936 200.756 35.096C200.276 35.256 199.839 35.5333 199.444 35.928C199.06 36.312 198.751 36.8453 198.516 37.528C198.282 38.2 198.164 39.064 198.164 40.12L195.876 39.144C195.876 37.672 196.159 36.3387 196.724 35.144C197.3 33.9493 198.143 33 199.252 32.296C200.362 31.5813 201.727 31.224 203.348 31.224C204.628 31.224 205.684 31.4373 206.516 31.864C207.348 32.2907 208.01 32.8347 208.5 33.496C208.991 34.1573 209.354 34.8613 209.588 35.608C209.823 36.3547 209.972 37.064 210.036 37.736C210.111 38.3973 210.148 38.936 210.148 39.352V49H206.244ZM194.26 49V31.72H197.7V37.08H198.164V49H194.26ZM217.21 49L224.474 25.96H230.122L237.386 49H233.418L226.826 28.328H227.69L221.178 49H217.21ZM221.258 44.008V40.408H233.354V44.008H221.258ZM247.623 49.48C245.937 49.48 244.524 49.08 243.383 48.28C242.241 47.48 241.383 46.392 240.807 45.016C240.231 43.6293 239.943 42.0773 239.943 40.36C239.943 38.6213 240.231 37.064 240.807 35.688C241.383 34.312 242.225 33.2293 243.335 32.44C244.455 31.64 245.836 31.24 247.479 31.24C249.111 31.24 250.524 31.64 251.719 32.44C252.924 33.2293 253.857 34.312 254.519 35.688C255.18 37.0533 255.511 38.6107 255.511 40.36C255.511 42.088 255.185 43.64 254.535 45.016C253.884 46.392 252.967 47.48 251.783 48.28C250.599 49.08 249.212 49.48 247.623 49.48ZM239.287 56.68V31.72H242.695V43.848H243.175V56.68H239.287ZM247.031 46.024C248.033 46.024 248.86 45.7733 249.511 45.272C250.161 44.7707 250.641 44.0933 250.951 43.24C251.271 42.376 251.431 41.416 251.431 40.36C251.431 39.3147 251.271 38.3653 250.951 37.512C250.631 36.648 250.135 35.9653 249.463 35.464C248.791 34.952 247.937 34.696 246.903 34.696C245.921 34.696 245.121 34.936 244.503 35.416C243.884 35.8853 243.425 36.5467 243.127 37.4C242.839 38.2427 242.695 39.2293 242.695 40.36C242.695 41.48 242.839 42.4667 243.127 43.32C243.425 44.1733 243.889 44.84 244.519 45.32C245.159 45.7893 245.996 46.024 247.031 46.024ZM266.381 49.48C264.696 49.48 263.283 49.08 262.141 48.28C261 47.48 260.141 46.392 259.565 45.016C258.989 43.6293 258.701 42.0773 258.701 40.36C258.701 38.6213 258.989 37.064 259.565 35.688C260.141 34.312 260.984 33.2293 262.093 32.44C263.213 31.64 264.595 31.24 266.237 31.24C267.869 31.24 269.283 31.64 270.477 32.44C271.683 33.2293 272.616 34.312 273.277 35.688C273.939 37.0533 274.269 38.6107 274.269 40.36C274.269 42.088 273.944 43.64 273.293 45.016C272.643 46.392 271.725 47.48 270.541 48.28C269.357 49.08 267.971 49.48 266.381 49.48ZM258.045 56.68V31.72H261.453V43.848H261.933V56.68H258.045ZM265.789 46.024C266.792 46.024 267.619 45.7733 268.269 45.272C268.92 44.7707 269.4 44.0933 269.709 43.24C270.029 42.376 270.189 41.416 270.189 40.36C270.189 39.3147 270.029 38.3653 269.709 37.512C269.389 36.648 268.893 35.9653 268.221 35.464C267.549 34.952 266.696 34.696 265.661 34.696C264.68 34.696 263.88 34.936 263.261 35.416C262.643 35.8853 262.184 36.5467 261.885 37.4C261.597 38.2427 261.453 39.2293 261.453 40.36C261.453 41.48 261.597 42.4667 261.885 43.32C262.184 44.1733 262.648 44.84 263.277 45.32C263.917 45.7893 264.755 46.024 265.789 46.024ZM284.468 49.48C282.74 49.48 281.231 49.0907 279.94 48.312C278.65 47.5333 277.647 46.4613 276.932 45.096C276.228 43.72 275.876 42.1413 275.876 40.36C275.876 38.5467 276.239 36.9573 276.964 35.592C277.69 34.2267 278.698 33.16 279.988 32.392C281.279 31.624 282.772 31.24 284.468 31.24C286.207 31.24 287.722 31.6293 289.012 32.408C290.303 33.1867 291.306 34.264 292.02 35.64C292.735 37.0053 293.092 38.5787 293.092 40.36C293.092 42.152 292.73 43.736 292.004 45.112C291.29 46.4773 290.287 47.5493 288.996 48.328C287.706 49.096 286.196 49.48 284.468 49.48ZM284.468 45.864C286.004 45.864 287.146 45.352 287.892 44.328C288.639 43.304 289.012 41.9813 289.012 40.36C289.012 38.6853 288.634 37.352 287.876 36.36C287.119 35.3573 285.983 34.856 284.468 34.856C283.434 34.856 282.58 35.0907 281.908 35.56C281.247 36.0187 280.756 36.664 280.436 37.496C280.116 38.3173 279.956 39.272 279.956 40.36C279.956 42.0347 280.335 43.3733 281.092 44.376C281.86 45.368 282.986 45.864 284.468 45.864ZM295.977 29.096V25.56H299.833V29.096H295.977ZM295.977 49V31.72H299.833V49H295.977ZM315.618 49V40.68C315.618 40.136 315.581 39.5333 315.506 38.872C315.432 38.2107 315.256 37.576 314.978 36.968C314.712 36.3493 314.306 35.8427 313.762 35.448C313.229 35.0533 312.504 34.856 311.586 34.856C311.096 34.856 310.61 34.936 310.13 35.096C309.65 35.256 309.213 35.5333 308.818 35.928C308.434 36.312 308.125 36.8453 307.89 37.528C307.656 38.2 307.538 39.064 307.538 40.12L305.25 39.144C305.25 37.672 305.533 36.3387 306.098 35.144C306.674 33.9493 307.517 33 308.626 32.296C309.736 31.5813 311.101 31.224 312.722 31.224C314.002 31.224 315.058 31.4373 315.89 31.864C316.722 32.2907 317.384 32.8347 317.874 33.496C318.365 34.1573 318.728 34.8613 318.962 35.608C319.197 36.3547 319.346 37.064 319.41 37.736C319.485 38.3973 319.522 38.936 319.522 39.352V49H315.618ZM303.634 49V31.72H307.074V37.08H307.538V49H303.634ZM332.865 49C331.724 49.2133 330.604 49.304 329.505 49.272C328.417 49.2507 327.441 49.0533 326.577 48.68C325.713 48.296 325.057 47.6933 324.609 46.872C324.215 46.1253 324.007 45.3627 323.985 44.584C323.964 43.8053 323.953 42.9253 323.953 41.944V26.92H327.793V41.72C327.793 42.4133 327.799 43.0213 327.809 43.544C327.831 44.0667 327.943 44.4933 328.145 44.824C328.529 45.464 329.143 45.8213 329.985 45.896C330.828 45.9707 331.788 45.928 332.865 45.768V49ZM320.817 34.744V31.72H332.865V34.744H320.817ZM356.373 49V38.504C356.373 37.32 356.08 36.3973 355.493 35.736C354.907 35.064 354.112 34.728 353.109 34.728C352.491 34.728 351.936 34.872 351.445 35.16C350.955 35.4373 350.565 35.8533 350.277 36.408C349.989 36.952 349.845 37.6027 349.845 38.36L348.133 37.352C348.123 36.1573 348.389 35.1067 348.933 34.2C349.488 33.2827 350.235 32.568 351.173 32.056C352.112 31.544 353.157 31.288 354.309 31.288C356.219 31.288 357.68 31.864 358.693 33.016C359.717 34.1573 360.229 35.6613 360.229 37.528V49H356.373ZM335.589 49V31.72H338.997V37.08H339.477V49H335.589ZM346.005 49V38.552C346.005 37.3467 345.712 36.408 345.125 35.736C344.539 35.064 343.739 34.728 342.725 34.728C341.744 34.728 340.955 35.064 340.357 35.736C339.771 36.408 339.477 37.2827 339.477 38.36L337.749 37.208C337.749 36.088 338.027 35.08 338.581 34.184C339.136 33.288 339.883 32.584 340.821 32.072C341.771 31.5493 342.832 31.288 344.005 31.288C345.296 31.288 346.373 31.5653 347.237 32.12C348.112 32.664 348.763 33.4107 349.189 34.36C349.627 35.2987 349.845 36.36 349.845 37.544V49H346.005ZM371.017 49.48C369.268 49.48 367.732 49.1013 366.409 48.344C365.087 47.5867 364.052 46.536 363.305 45.192C362.569 43.848 362.201 42.3013 362.201 40.552C362.201 38.664 362.564 37.0267 363.289 35.64C364.015 34.2427 365.023 33.16 366.313 32.392C367.604 31.624 369.097 31.24 370.793 31.24C372.585 31.24 374.105 31.6613 375.353 32.504C376.612 33.336 377.545 34.5147 378.153 36.04C378.761 37.5653 378.991 39.3627 378.841 41.432H375.017V40.024C375.007 38.1467 374.676 36.776 374.025 35.912C373.375 35.048 372.351 34.616 370.953 34.616C369.375 34.616 368.201 35.1067 367.433 36.088C366.665 37.0587 366.281 38.4827 366.281 40.36C366.281 42.1093 366.665 43.464 367.433 44.424C368.201 45.384 369.321 45.864 370.793 45.864C371.743 45.864 372.559 45.656 373.241 45.24C373.935 44.8133 374.468 44.2 374.841 43.4L378.649 44.552C377.988 46.1093 376.964 47.32 375.577 48.184C374.201 49.048 372.681 49.48 371.017 49.48ZM365.065 41.432V38.52H376.953V41.432H365.065ZM392.934 49V40.68C392.934 40.136 392.897 39.5333 392.822 38.872C392.748 38.2107 392.572 37.576 392.294 36.968C392.028 36.3493 391.622 35.8427 391.078 35.448C390.545 35.0533 389.82 34.856 388.902 34.856C388.412 34.856 387.926 34.936 387.446 35.096C386.966 35.256 386.529 35.5333 386.134 35.928C385.75 36.312 385.441 36.8453 385.206 37.528C384.972 38.2 384.854 39.064 384.854 40.12L382.566 39.144C382.566 37.672 382.849 36.3387 383.414 35.144C383.99 33.9493 384.833 33 385.942 32.296C387.052 31.5813 388.417 31.224 390.038 31.224C391.318 31.224 392.374 31.4373 393.206 31.864C394.038 32.2907 394.7 32.8347 395.19 33.496C395.681 34.1573 396.044 34.8613 396.278 35.608C396.513 36.3547 396.662 37.064 396.726 37.736C396.801 38.3973 396.838 38.936 396.838 39.352V49H392.934ZM380.95 49V31.72H384.39V37.08H384.854V49H380.95ZM410.182 49C409.04 49.2133 407.92 49.304 406.822 49.272C405.734 49.2507 404.758 49.0533 403.894 48.68C403.03 48.296 402.374 47.6933 401.926 46.872C401.531 46.1253 401.323 45.3627 401.302 44.584C401.28 43.8053 401.27 42.9253 401.27 41.944V26.92H405.11V41.72C405.11 42.4133 405.115 43.0213 405.126 43.544C405.147 44.0667 405.259 44.4933 405.462 44.824C405.846 45.464 406.459 45.8213 407.302 45.896C408.144 45.9707 409.104 45.928 410.182 45.768V49ZM398.134 34.744V31.72H410.182V34.744H398.134Z" fill="#1E1B1B"/>
<circle cx="36" cy="36" r="36" fill="#661CE7"/>
<path d="M28.528 48.48C26.896 48.48 25.456 48.1333 24.208 47.44C22.96 46.736 21.984 45.76 21.28 44.512C20.5867 43.264 20.24 41.824 20.24 40.192V32.768C20.24 31.136 20.5867 29.696 21.28 28.448C21.984 27.2 22.96 26.2293 24.208 25.536C25.456 24.832 26.896 24.48 28.528 24.48C30.16 24.48 31.5947 24.832 32.832 25.536C34.08 26.2293 35.056 27.2 35.76 28.448C36.464 29.696 36.816 31.136 36.816 32.768V40.192C36.816 41.824 36.464 43.264 35.76 44.512C35.056 45.76 34.08 46.736 32.832 47.44C31.5947 48.1333 30.16 48.48 28.528 48.48ZM28.528 44.816C29.3387 44.816 30.0747 44.624 30.736 44.24C31.3973 43.8453 31.92 43.3227 32.304 42.672C32.688 42.0107 32.88 41.2747 32.88 40.464V32.48C32.88 31.6587 32.688 30.9227 32.304 30.272C31.92 29.6107 31.3973 29.088 30.736 28.704C30.0747 28.3093 29.3387 28.112 28.528 28.112C27.7173 28.112 26.9813 28.3093 26.32 28.704C25.6587 29.088 25.136 29.6107 24.752 30.272C24.368 30.9227 24.176 31.6587 24.176 32.48V40.464C24.176 41.2747 24.368 42.0107 24.752 42.672C25.136 43.3227 25.6587 43.8453 26.32 44.24C26.9813 44.624 27.7173 44.816 28.528 44.816ZM40.6625 47.968V44.608L50.5185 35.824C51.2865 35.1413 51.8198 34.496 52.1185 33.888C52.4172 33.28 52.5665 32.6933 52.5665 32.128C52.5665 31.36 52.4012 30.6773 52.0705 30.08C51.7398 29.472 51.2812 28.992 50.6945 28.64C50.1185 28.288 49.4518 28.112 48.6945 28.112C47.8945 28.112 47.1852 28.2987 46.5665 28.672C45.9585 29.0347 45.4838 29.52 45.1425 30.128C44.8012 30.736 44.6412 31.392 44.6625 32.096H40.6945C40.6945 30.56 41.0358 29.2213 41.7185 28.08C42.4118 26.9387 43.3612 26.0533 44.5665 25.424C45.7825 24.7947 47.1852 24.48 48.7745 24.48C50.2465 24.48 51.5692 24.8107 52.7425 25.472C53.9158 26.1227 54.8385 27.0293 55.5105 28.192C56.1825 29.344 56.5185 30.672 56.5185 32.176C56.5185 33.2747 56.3692 34.1973 56.0705 34.944C55.7718 35.6907 55.3238 36.3787 54.7265 37.008C54.1398 37.6373 53.4092 38.336 52.5345 39.104L45.5425 45.296L45.1905 44.336H56.5185V47.968H40.6625Z" fill="white"/>
<mask id="mask0_482_1552" style="mask-type:alpha" maskUnits="userSpaceOnUse" x="0" y="0" width="72" height="72">
<circle cx="36" cy="36" r="36" fill="#661CE7"/>
</mask>
<g mask="url(#mask0_482_1552)">
<circle cx="36" cy="72" r="21" fill="white" fill-opacity="0.24"/>
</g>
</svg>
