<svg width="432" height="165" viewBox="0 0 432 165" fill="none" xmlns="http://www.w3.org/2000/svg">
<path d="M107.744 49.48C106.251 49.48 104.848 49.2187 103.536 48.696C102.235 48.1627 101.088 47.384 100.096 46.36C99.1147 45.336 98.3467 44.0827 97.792 42.6C97.2373 41.1067 96.96 39.4 96.96 37.48C96.96 34.9627 97.4293 32.8133 98.368 31.032C99.3067 29.24 100.592 27.8693 102.224 26.92C103.856 25.96 105.696 25.48 107.744 25.48C110.581 25.48 112.827 26.1413 114.48 27.464C116.144 28.776 117.269 30.6213 117.856 33L113.92 33.624C113.483 32.2587 112.768 31.1707 111.776 30.36C110.784 29.5387 109.52 29.128 107.984 29.128C106.437 29.1067 105.152 29.4427 104.128 30.136C103.104 30.8293 102.331 31.8053 101.808 33.064C101.296 34.3227 101.04 35.7947 101.04 37.48C101.04 39.1653 101.296 40.632 101.808 41.88C102.32 43.1173 103.088 44.0827 104.112 44.776C105.147 45.4693 106.437 45.8267 107.984 45.848C109.147 45.8587 110.165 45.6507 111.04 45.224C111.915 44.7867 112.629 44.1307 113.184 43.256C113.739 42.3707 114.112 41.2667 114.304 39.944H110.24V36.92H118.4C118.421 37.0907 118.437 37.3413 118.448 37.672C118.459 38.0027 118.464 38.2 118.464 38.264C118.464 40.44 118.032 42.376 117.168 44.072C116.315 45.7573 115.088 47.08 113.488 48.04C111.888 49 109.973 49.48 107.744 49.48ZM128.574 49.48C126.824 49.48 125.288 49.1013 123.966 48.344C122.643 47.5867 121.608 46.536 120.862 45.192C120.126 43.848 119.758 42.3013 119.758 40.552C119.758 38.664 120.12 37.0267 120.846 35.64C121.571 34.2427 122.579 33.16 123.87 32.392C125.16 31.624 126.654 31.24 128.35 31.24C130.142 31.24 131.662 31.6613 132.91 32.504C134.168 33.336 135.102 34.5147 135.71 36.04C136.318 37.5653 136.547 39.3627 136.398 41.432H132.574V40.024C132.563 38.1467 132.232 36.776 131.582 35.912C130.931 35.048 129.907 34.616 128.51 34.616C126.931 34.616 125.758 35.1067 124.99 36.088C124.222 37.0587 123.838 38.4827 123.838 40.36C123.838 42.1093 124.222 43.464 124.99 44.424C125.758 45.384 126.878 45.864 128.35 45.864C129.299 45.864 130.115 45.656 130.798 45.24C131.491 44.8133 132.024 44.2 132.398 43.4L136.206 44.552C135.544 46.1093 134.52 47.32 133.134 48.184C131.758 49.048 130.238 49.48 128.574 49.48ZM122.622 41.432V38.52H134.51V41.432H122.622ZM149.136 49C147.994 49.2133 146.874 49.304 145.776 49.272C144.688 49.2507 143.712 49.0533 142.848 48.68C141.984 48.296 141.328 47.6933 140.88 46.872C140.485 46.1253 140.277 45.3627 140.256 44.584C140.234 43.8053 140.224 42.9253 140.224 41.944V26.92H144.064V41.72C144.064 42.4133 144.069 43.0213 144.08 43.544C144.101 44.0667 144.213 44.4933 144.416 44.824C144.8 45.464 145.413 45.8213 146.256 45.896C147.098 45.9707 148.058 45.928 149.136 45.768V49ZM137.088 34.744V31.72H149.136V34.744H137.088ZM159.609 56.68L162.938 47.544L163.002 50.232L155.465 31.72H159.482L164.826 45.416H163.802L169.002 31.72H172.858L163.226 56.68H159.609ZM181.291 49.48C179.563 49.48 178.053 49.0907 176.763 48.312C175.472 47.5333 174.469 46.4613 173.755 45.096C173.051 43.72 172.699 42.1413 172.699 40.36C172.699 38.5467 173.061 36.9573 173.787 35.592C174.512 34.2267 175.52 33.16 176.811 32.392C178.101 31.624 179.595 31.24 181.291 31.24C183.029 31.24 184.544 31.6293 185.835 32.408C187.125 33.1867 188.128 34.264 188.843 35.64C189.557 37.0053 189.915 38.5787 189.915 40.36C189.915 42.152 189.552 43.736 188.827 45.112C188.112 46.4773 187.109 47.5493 185.819 48.328C184.528 49.096 183.019 49.48 181.291 49.48ZM181.291 45.864C182.827 45.864 183.968 45.352 184.715 44.328C185.461 43.304 185.835 41.9813 185.835 40.36C185.835 38.6853 185.456 37.352 184.699 36.36C183.941 35.3573 182.805 34.856 181.291 34.856C180.256 34.856 179.403 35.0907 178.731 35.56C178.069 36.0187 177.579 36.664 177.259 37.496C176.939 38.3173 176.779 39.272 176.779 40.36C176.779 42.0347 177.157 43.3733 177.915 44.376C178.683 45.368 179.808 45.864 181.291 45.864ZM198.96 49.496C197.68 49.496 196.624 49.2827 195.792 48.856C194.96 48.4293 194.299 47.8853 193.808 47.224C193.317 46.5627 192.955 45.8587 192.72 45.112C192.485 44.3653 192.331 43.6613 192.256 43C192.192 42.328 192.16 41.784 192.16 41.368V31.72H196.064V40.04C196.064 40.5733 196.101 41.176 196.176 41.848C196.251 42.5093 196.421 43.1493 196.688 43.768C196.965 44.376 197.371 44.8773 197.904 45.272C198.448 45.6667 199.179 45.864 200.096 45.864C200.587 45.864 201.072 45.784 201.552 45.624C202.032 45.464 202.464 45.192 202.848 44.808C203.243 44.4133 203.557 43.8747 203.792 43.192C204.027 42.5093 204.144 41.6453 204.144 40.6L206.432 41.576C206.432 43.048 206.144 44.3813 205.568 45.576C205.003 46.7707 204.165 47.7253 203.056 48.44C201.947 49.144 200.581 49.496 198.96 49.496ZM204.608 49V43.64H204.144V31.72H208.016V49H204.608ZM211.551 49V31.72H214.959V35.928L214.543 35.384C214.757 34.808 215.039 34.2853 215.391 33.816C215.754 33.336 216.186 32.9413 216.687 32.632C217.114 32.344 217.583 32.12 218.095 31.96C218.618 31.7893 219.151 31.688 219.695 31.656C220.239 31.6133 220.767 31.6347 221.279 31.72V35.32C220.767 35.1707 220.175 35.1227 219.503 35.176C218.842 35.2293 218.245 35.416 217.711 35.736C217.178 36.024 216.741 36.392 216.399 36.84C216.069 37.288 215.823 37.8 215.663 38.376C215.503 38.9413 215.423 39.5547 215.423 40.216V49H211.551ZM237.347 49.48C235.661 49.48 234.141 49.1867 232.787 48.6C231.443 48.0133 230.333 47.176 229.459 46.088C228.595 44.9893 228.045 43.688 227.811 42.184L231.811 41.576C232.152 42.9413 232.851 43.9973 233.907 44.744C234.973 45.4907 236.2 45.864 237.587 45.864C238.408 45.864 239.181 45.736 239.907 45.48C240.632 45.224 241.219 44.8507 241.667 44.36C242.125 43.8693 242.355 43.2667 242.355 42.552C242.355 42.232 242.301 41.9387 242.195 41.672C242.088 41.3947 241.928 41.1493 241.715 40.936C241.512 40.7227 241.245 40.5307 240.915 40.36C240.595 40.1787 240.221 40.024 239.795 39.896L233.843 38.136C233.331 37.9867 232.776 37.7893 232.179 37.544C231.592 37.288 231.032 36.9413 230.499 36.504C229.976 36.056 229.544 35.4907 229.203 34.808C228.872 34.1147 228.707 33.2613 228.707 32.248C228.707 30.7653 229.08 29.5227 229.827 28.52C230.584 27.5067 231.597 26.7493 232.867 26.248C234.147 25.7467 235.565 25.5013 237.123 25.512C238.701 25.5227 240.109 25.7947 241.347 26.328C242.584 26.8507 243.619 27.6133 244.451 28.616C245.283 29.6187 245.869 30.8293 246.211 32.248L242.067 32.968C241.896 32.1573 241.565 31.4693 241.075 30.904C240.595 30.328 240.003 29.8907 239.299 29.592C238.605 29.2933 237.864 29.1333 237.075 29.112C236.307 29.1013 235.592 29.2187 234.931 29.464C234.28 29.6987 233.752 30.04 233.347 30.488C232.952 30.936 232.755 31.4587 232.755 32.056C232.755 32.6213 232.925 33.0853 233.267 33.448C233.608 33.8 234.029 34.0827 234.531 34.296C235.043 34.4987 235.56 34.6693 236.083 34.808L240.211 35.96C240.776 36.1093 241.411 36.312 242.115 36.568C242.819 36.824 243.496 37.1813 244.147 37.64C244.797 38.0987 245.331 38.7013 245.747 39.448C246.173 40.1947 246.387 41.144 246.387 42.296C246.387 43.4907 246.136 44.5413 245.635 45.448C245.144 46.344 244.477 47.0907 243.635 47.688C242.792 48.2853 241.827 48.7333 240.739 49.032C239.661 49.3307 238.531 49.48 237.347 49.48ZM256.746 49.48C254.997 49.48 253.461 49.1013 252.138 48.344C250.815 47.5867 249.781 46.536 249.034 45.192C248.298 43.848 247.93 42.3013 247.93 40.552C247.93 38.664 248.293 37.0267 249.018 35.64C249.743 34.2427 250.751 33.16 252.042 32.392C253.333 31.624 254.826 31.24 256.522 31.24C258.314 31.24 259.834 31.6613 261.082 32.504C262.341 33.336 263.274 34.5147 263.882 36.04C264.49 37.5653 264.719 39.3627 264.57 41.432H260.746V40.024C260.735 38.1467 260.405 36.776 259.754 35.912C259.103 35.048 258.079 34.616 256.682 34.616C255.103 34.616 253.93 35.1067 253.162 36.088C252.394 37.0587 252.01 38.4827 252.01 40.36C252.01 42.1093 252.394 43.464 253.162 44.424C253.93 45.384 255.05 45.864 256.522 45.864C257.471 45.864 258.287 45.656 258.97 45.24C259.663 44.8133 260.197 44.2 260.57 43.4L264.378 44.552C263.717 46.1093 262.693 47.32 261.306 48.184C259.93 49.048 258.41 49.48 256.746 49.48ZM250.794 41.432V38.52H262.682V41.432H250.794ZM267.18 49V31.72H270.588V35.928L270.172 35.384C270.385 34.808 270.668 34.2853 271.02 33.816C271.383 33.336 271.815 32.9413 272.316 32.632C272.743 32.344 273.212 32.12 273.724 31.96C274.247 31.7893 274.78 31.688 275.324 31.656C275.868 31.6133 276.396 31.6347 276.908 31.72V35.32C276.396 35.1707 275.804 35.1227 275.132 35.176C274.471 35.2293 273.873 35.416 273.34 35.736C272.807 36.024 272.369 36.392 272.028 36.84C271.697 37.288 271.452 37.8 271.292 38.376C271.132 38.9413 271.052 39.5547 271.052 40.216V49H267.18ZM283.673 49L277.401 31.72H281.257L285.609 44.248L289.945 31.72H293.817L287.545 49H283.673ZM296.049 29.096V25.56H299.905V29.096H296.049ZM296.049 49V31.72H299.905V49H296.049ZM311.241 49.48C309.46 49.48 307.94 49.0853 306.681 48.296C305.423 47.496 304.457 46.408 303.785 45.032C303.124 43.656 302.788 42.0987 302.777 40.36C302.788 38.5893 303.135 37.0213 303.817 35.656C304.511 34.28 305.492 33.2027 306.761 32.424C308.031 31.6347 309.54 31.24 311.289 31.24C313.252 31.24 314.911 31.736 316.265 32.728C317.631 33.7093 318.521 35.0533 318.937 36.76L315.097 37.8C314.799 36.872 314.303 36.152 313.609 35.64C312.916 35.1173 312.127 34.856 311.241 34.856C310.239 34.856 309.412 35.096 308.761 35.576C308.111 36.0453 307.631 36.696 307.321 37.528C307.012 38.36 306.857 39.304 306.857 40.36C306.857 42.0027 307.225 43.3307 307.961 44.344C308.697 45.3573 309.791 45.864 311.241 45.864C312.265 45.864 313.071 45.6293 313.657 45.16C314.255 44.6907 314.703 44.0133 315.001 43.128L318.937 44.008C318.404 45.768 317.471 47.1227 316.137 48.072C314.804 49.0107 313.172 49.48 311.241 49.48ZM328.571 49.48C326.822 49.48 325.286 49.1013 323.963 48.344C322.64 47.5867 321.606 46.536 320.859 45.192C320.123 43.848 319.755 42.3013 319.755 40.552C319.755 38.664 320.118 37.0267 320.843 35.64C321.568 34.2427 322.576 33.16 323.867 32.392C325.158 31.624 326.651 31.24 328.347 31.24C330.139 31.24 331.659 31.6613 332.907 32.504C334.166 33.336 335.099 34.5147 335.707 36.04C336.315 37.5653 336.544 39.3627 336.395 41.432H332.571V40.024C332.56 38.1467 332.23 36.776 331.579 35.912C330.928 35.048 329.904 34.616 328.507 34.616C326.928 34.616 325.755 35.1067 324.987 36.088C324.219 37.0587 323.835 38.4827 323.835 40.36C323.835 42.1093 324.219 43.464 324.987 44.424C325.755 45.384 326.875 45.864 328.347 45.864C329.296 45.864 330.112 45.656 330.795 45.24C331.488 44.8133 332.022 44.2 332.395 43.4L336.203 44.552C335.542 46.1093 334.518 47.32 333.131 48.184C331.755 49.048 330.235 49.48 328.571 49.48ZM322.619 41.432V38.52H334.507V41.432H322.619ZM344.451 49V25.96H351.795C351.987 25.96 352.366 25.9653 352.931 25.976C353.507 25.9867 354.062 26.024 354.595 26.088C356.419 26.3227 357.961 26.9733 359.219 28.04C360.489 29.096 361.449 30.4453 362.099 32.088C362.75 33.7307 363.075 35.528 363.075 37.48C363.075 39.432 362.75 41.2293 362.099 42.872C361.449 44.5147 360.489 45.8693 359.219 46.936C357.961 47.992 356.419 48.6373 354.595 48.872C354.073 48.936 353.523 48.9733 352.947 48.984C352.371 48.9947 351.987 49 351.795 49H344.451ZM348.371 45.368H351.795C352.115 45.368 352.521 45.3573 353.011 45.336C353.513 45.3147 353.955 45.2667 354.339 45.192C355.427 44.9893 356.313 44.504 356.995 43.736C357.678 42.968 358.179 42.0347 358.499 40.936C358.83 39.8373 358.995 38.6853 358.995 37.48C358.995 36.232 358.83 35.0587 358.499 33.96C358.169 32.8613 357.657 31.9387 356.963 31.192C356.281 30.4453 355.406 29.9707 354.339 29.768C353.955 29.6827 353.513 29.6347 353.011 29.624C352.521 29.6027 352.115 29.592 351.795 29.592H348.371V45.368ZM373.53 49.48C371.802 49.48 370.292 49.0907 369.002 48.312C367.711 47.5333 366.708 46.4613 365.994 45.096C365.29 43.72 364.938 42.1413 364.938 40.36C364.938 38.5467 365.3 36.9573 366.026 35.592C366.751 34.2267 367.759 33.16 369.05 32.392C370.34 31.624 371.834 31.24 373.53 31.24C375.268 31.24 376.783 31.6293 378.074 32.408C379.364 33.1867 380.367 34.264 381.082 35.64C381.796 37.0053 382.154 38.5787 382.154 40.36C382.154 42.152 381.791 43.736 381.066 45.112C380.351 46.4773 379.348 47.5493 378.058 48.328C376.767 49.096 375.258 49.48 373.53 49.48ZM373.53 45.864C375.066 45.864 376.207 45.352 376.954 44.328C377.7 43.304 378.074 41.9813 378.074 40.36C378.074 38.6853 377.695 37.352 376.938 36.36C376.18 35.3573 375.044 34.856 373.53 34.856C372.495 34.856 371.642 35.0907 370.97 35.56C370.308 36.0187 369.818 36.664 369.498 37.496C369.178 38.3173 369.018 39.272 369.018 40.36C369.018 42.0347 369.396 43.3733 370.154 44.376C370.922 45.368 372.047 45.864 373.53 45.864ZM396.671 49V40.68C396.671 40.136 396.633 39.5333 396.559 38.872C396.484 38.2107 396.308 37.576 396.031 36.968C395.764 36.3493 395.359 35.8427 394.815 35.448C394.281 35.0533 393.556 34.856 392.639 34.856C392.148 34.856 391.663 34.936 391.183 35.096C390.703 35.256 390.265 35.5333 389.871 35.928C389.487 36.312 389.177 36.8453 388.943 37.528C388.708 38.2 388.591 39.064 388.591 40.12L386.303 39.144C386.303 37.672 386.585 36.3387 387.151 35.144C387.727 33.9493 388.569 33 389.679 32.296C390.788 31.5813 392.153 31.224 393.775 31.224C395.055 31.224 396.111 31.4373 396.943 31.864C397.775 32.2907 398.436 32.8347 398.927 33.496C399.417 34.1573 399.78 34.8613 400.015 35.608C400.249 36.3547 400.399 37.064 400.463 37.736C400.537 38.3973 400.575 38.936 400.575 39.352V49H396.671ZM384.687 49V31.72H388.127V37.08H388.591V49H384.687ZM411.365 49.48C409.615 49.48 408.079 49.1013 406.757 48.344C405.434 47.5867 404.399 46.536 403.653 45.192C402.917 43.848 402.549 42.3013 402.549 40.552C402.549 38.664 402.911 37.0267 403.637 35.64C404.362 34.2427 405.37 33.16 406.661 32.392C407.951 31.624 409.445 31.24 411.141 31.24C412.933 31.24 414.453 31.6613 415.701 32.504C416.959 33.336 417.893 34.5147 418.501 36.04C419.109 37.5653 419.338 39.3627 419.189 41.432H415.365V40.024C415.354 38.1467 415.023 36.776 414.373 35.912C413.722 35.048 412.698 34.616 411.301 34.616C409.722 34.616 408.549 35.1067 407.781 36.088C407.013 37.0587 406.629 38.4827 406.629 40.36C406.629 42.1093 407.013 43.464 407.781 44.424C408.549 45.384 409.669 45.864 411.141 45.864C412.09 45.864 412.906 45.656 413.589 45.24C414.282 44.8133 414.815 44.2 415.189 43.4L418.997 44.552C418.335 46.1093 417.311 47.32 415.925 48.184C414.549 49.048 413.029 49.48 411.365 49.48ZM405.413 41.432V38.52H417.301V41.432H405.413Z" fill="#1E1B1B"/>
<path opacity="0.6" d="M100.491 92H102.372V80.813H106.683V79.04H96.18V80.813H100.491V92ZM108.114 92H110.022V86.942C110.022 86.174 110.133 85.562 110.355 85.106C110.583 84.644 110.883 84.311 111.255 84.107C111.627 83.903 112.038 83.801 112.488 83.801C113.004 83.801 113.424 83.906 113.748 84.116C114.072 84.326 114.321 84.602 114.495 84.944C114.669 85.286 114.786 85.658 114.846 86.06C114.912 86.456 114.945 86.843 114.945 87.221V92H116.853V86.6C116.853 86.3 116.826 85.952 116.772 85.556C116.718 85.16 116.616 84.755 116.466 84.341C116.316 83.927 116.097 83.546 115.809 83.198C115.527 82.844 115.158 82.559 114.702 82.343C114.246 82.127 113.682 82.019 113.01 82.019C112.308 82.019 111.684 82.145 111.138 82.397C110.598 82.649 110.151 82.997 109.797 83.441V79.04H108.114V92ZM119.198 92H121.097V87.095C121.097 86.525 121.187 85.997 121.367 85.511C121.547 85.025 121.865 84.635 122.321 84.341C122.645 84.131 123.002 84.008 123.392 83.972C123.782 83.936 124.133 83.96 124.445 84.044V82.28C124.007 82.196 123.542 82.199 123.05 82.289C122.564 82.379 122.138 82.559 121.772 82.829C121.412 83.069 121.112 83.402 120.872 83.828V82.28H119.198V92ZM130.204 92.27C131.17 92.27 132.01 92.054 132.724 91.622C133.438 91.184 133.99 90.581 134.38 89.813C134.776 89.039 134.974 88.145 134.974 87.131C134.974 86.129 134.779 85.244 134.389 84.476C133.999 83.702 133.447 83.099 132.733 82.667C132.019 82.229 131.176 82.01 130.204 82.01C129.25 82.01 128.416 82.226 127.702 82.658C126.988 83.09 126.433 83.69 126.037 84.458C125.641 85.226 125.443 86.117 125.443 87.131C125.443 88.133 125.638 89.021 126.028 89.795C126.418 90.569 126.967 91.175 127.675 91.613C128.389 92.051 129.232 92.27 130.204 92.27ZM130.204 90.497C129.298 90.497 128.611 90.194 128.143 89.588C127.675 88.976 127.441 88.157 127.441 87.131C127.441 86.141 127.666 85.337 128.116 84.719C128.566 84.095 129.262 83.783 130.204 83.783C131.122 83.783 131.812 84.086 132.274 84.692C132.742 85.298 132.976 86.111 132.976 87.131C132.976 88.127 132.745 88.937 132.283 89.561C131.827 90.185 131.134 90.497 130.204 90.497ZM140.614 92.261C141.316 92.261 141.937 92.135 142.477 91.883C143.023 91.631 143.473 91.283 143.827 90.839V92H145.501V82.28H143.602V87.338C143.602 88.106 143.491 88.721 143.269 89.183C143.047 89.639 142.747 89.969 142.369 90.173C141.997 90.377 141.586 90.479 141.136 90.479C140.62 90.479 140.2 90.374 139.876 90.164C139.552 89.954 139.303 89.678 139.129 89.336C138.955 88.994 138.835 88.625 138.769 88.229C138.709 87.827 138.679 87.437 138.679 87.059V82.28H136.771V87.68C136.771 87.98 136.798 88.328 136.852 88.724C136.906 89.12 137.008 89.525 137.158 89.939C137.308 90.353 137.524 90.737 137.806 91.091C138.094 91.439 138.466 91.721 138.922 91.937C139.378 92.153 139.942 92.261 140.614 92.261ZM151.887 92.27C152.439 92.27 152.937 92.186 153.381 92.018C153.825 91.856 154.218 91.625 154.56 91.325V92.243C154.572 93.077 154.356 93.707 153.912 94.133C153.474 94.565 152.853 94.781 152.049 94.781C151.617 94.781 151.206 94.685 150.816 94.493C150.426 94.301 150.126 93.998 149.916 93.584L148.179 94.466C148.575 95.156 149.121 95.681 149.817 96.041C150.513 96.407 151.251 96.59 152.031 96.59C153.165 96.59 154.113 96.353 154.875 95.879C155.637 95.411 156.12 94.685 156.324 93.701C156.372 93.473 156.405 93.239 156.423 92.999C156.441 92.765 156.45 92.519 156.45 92.261V82.28H154.785V83.153C154.437 82.793 154.023 82.514 153.543 82.316C153.063 82.112 152.523 82.01 151.923 82.01C151.011 82.01 150.222 82.235 149.556 82.685C148.896 83.129 148.386 83.738 148.026 84.512C147.666 85.28 147.486 86.153 147.486 87.131C147.486 88.103 147.663 88.976 148.017 89.75C148.377 90.524 148.887 91.139 149.547 91.595C150.207 92.045 150.987 92.27 151.887 92.27ZM152.148 90.569C151.548 90.569 151.05 90.416 150.654 90.11C150.258 89.804 149.964 89.393 149.772 88.877C149.58 88.355 149.484 87.773 149.484 87.131C149.484 86.495 149.58 85.919 149.772 85.403C149.97 84.887 150.27 84.476 150.672 84.17C151.074 83.864 151.587 83.711 152.211 83.711C153.099 83.711 153.75 84.029 154.164 84.665C154.578 85.301 154.785 86.123 154.785 87.131C154.785 88.139 154.578 88.964 154.164 89.606C153.75 90.248 153.078 90.569 152.148 90.569ZM158.968 92H160.876V86.942C160.876 86.174 160.987 85.562 161.209 85.106C161.437 84.644 161.737 84.311 162.109 84.107C162.481 83.903 162.892 83.801 163.342 83.801C163.858 83.801 164.278 83.906 164.602 84.116C164.926 84.326 165.175 84.602 165.349 84.944C165.523 85.286 165.64 85.658 165.7 86.06C165.766 86.456 165.799 86.843 165.799 87.221V92H167.707V86.6C167.707 86.3 167.68 85.952 167.626 85.556C167.572 85.16 167.47 84.755 167.32 84.341C167.17 83.927 166.951 83.546 166.663 83.198C166.381 82.844 166.012 82.559 165.556 82.343C165.1 82.127 164.536 82.019 163.864 82.019C163.162 82.019 162.538 82.145 161.992 82.397C161.452 82.649 161.005 82.997 160.651 83.441V79.04H158.968V92ZM176.886 92H178.767V80.813H183.078V79.04H172.575V80.813H176.886V92ZM183.621 92H185.52V87.095C185.52 86.525 185.61 85.997 185.79 85.511C185.97 85.025 186.288 84.635 186.744 84.341C187.068 84.131 187.425 84.008 187.815 83.972C188.205 83.936 188.556 83.96 188.868 84.044V82.28C188.43 82.196 187.965 82.199 187.473 82.289C186.987 82.379 186.561 82.559 186.195 82.829C185.835 83.069 185.535 83.402 185.295 83.828V82.28H183.621V92ZM194.245 92.261C194.947 92.261 195.568 92.135 196.108 91.883C196.654 91.631 197.104 91.283 197.458 90.839V92H199.132V82.28H197.233V87.338C197.233 88.106 197.122 88.721 196.9 89.183C196.678 89.639 196.378 89.969 196 90.173C195.628 90.377 195.217 90.479 194.767 90.479C194.251 90.479 193.831 90.374 193.507 90.164C193.183 89.954 192.934 89.678 192.76 89.336C192.586 88.994 192.466 88.625 192.4 88.229C192.34 87.827 192.31 87.437 192.31 87.059V82.28H190.402V87.68C190.402 87.98 190.429 88.328 190.483 88.724C190.537 89.12 190.639 89.525 190.789 89.939C190.939 90.353 191.155 90.737 191.437 91.091C191.725 91.439 192.097 91.721 192.553 91.937C193.009 92.153 193.573 92.261 194.245 92.261ZM205.967 92.27C206.909 92.27 207.764 92.033 208.532 91.559C209.3 91.079 209.873 90.404 210.251 89.534L208.406 88.949C207.914 89.981 207.071 90.497 205.877 90.497C205.061 90.497 204.419 90.251 203.951 89.759C203.483 89.267 203.21 88.571 203.132 87.671H210.377C210.443 86.507 210.305 85.502 209.963 84.656C209.621 83.81 209.102 83.159 208.406 82.703C207.71 82.241 206.867 82.01 205.877 82.01C204.929 82.01 204.098 82.223 203.384 82.649C202.67 83.075 202.112 83.678 201.71 84.458C201.314 85.238 201.116 86.159 201.116 87.221C201.116 88.223 201.317 89.105 201.719 89.867C202.127 90.623 202.694 91.214 203.42 91.64C204.152 92.06 205.001 92.27 205.967 92.27ZM205.949 83.675C207.419 83.675 208.253 84.518 208.451 86.204H203.177C203.297 85.382 203.588 84.755 204.05 84.323C204.512 83.891 205.145 83.675 205.949 83.675ZM216 92H217.881V87.347H221.319L223.578 92H225.729L223.281 86.978C224.019 86.66 224.571 86.165 224.937 85.493C225.303 84.821 225.486 84.053 225.486 83.189C225.486 82.139 225.216 81.239 224.676 80.489C224.136 79.739 223.323 79.28 222.237 79.112C222.069 79.082 221.892 79.064 221.706 79.058C221.52 79.046 221.364 79.04 221.238 79.04H216V92ZM217.881 85.565V80.813H221.166C221.286 80.813 221.418 80.819 221.562 80.831C221.712 80.843 221.853 80.867 221.985 80.903C222.561 81.035 222.969 81.329 223.209 81.785C223.449 82.241 223.569 82.709 223.569 83.189C223.569 83.663 223.449 84.131 223.209 84.593C222.969 85.049 222.561 85.346 221.985 85.484C221.853 85.514 221.712 85.535 221.562 85.547C221.418 85.559 221.286 85.565 221.166 85.565H217.881ZM227.887 80.687H229.768V78.86H227.887V80.687ZM227.887 92H229.768V82.28H227.887V92ZM236.629 92.27C237.673 92.27 238.561 92.018 239.293 91.514C240.025 91.01 240.55 90.281 240.868 89.327L238.96 88.877C238.762 89.399 238.474 89.801 238.096 90.083C237.724 90.359 237.235 90.497 236.629 90.497C235.741 90.497 235.069 90.188 234.613 89.57C234.163 88.952 233.935 88.142 233.929 87.14C233.935 86.168 234.154 85.367 234.586 84.737C235.024 84.101 235.705 83.783 236.629 83.783C237.175 83.783 237.658 83.936 238.078 84.242C238.504 84.542 238.81 84.965 238.996 85.511L240.868 84.971C240.628 84.059 240.13 83.339 239.374 82.811C238.624 82.277 237.718 82.01 236.656 82.01C235.678 82.01 234.835 82.229 234.127 82.667C233.425 83.105 232.885 83.711 232.507 84.485C232.129 85.253 231.937 86.138 231.931 87.14C231.937 88.124 232.123 89.003 232.489 89.777C232.861 90.551 233.395 91.16 234.091 91.604C234.793 92.048 235.639 92.27 236.629 92.27ZM242.692 92H244.6V86.942C244.6 86.174 244.711 85.562 244.933 85.106C245.161 84.644 245.461 84.311 245.833 84.107C246.205 83.903 246.616 83.801 247.066 83.801C247.582 83.801 248.002 83.906 248.326 84.116C248.65 84.326 248.899 84.602 249.073 84.944C249.247 85.286 249.364 85.658 249.424 86.06C249.49 86.456 249.523 86.843 249.523 87.221V92H251.431V86.6C251.431 86.3 251.404 85.952 251.35 85.556C251.296 85.16 251.194 84.755 251.044 84.341C250.894 83.927 250.675 83.546 250.387 83.198C250.105 82.844 249.736 82.559 249.28 82.343C248.824 82.127 248.26 82.019 247.588 82.019C246.886 82.019 246.262 82.145 245.716 82.397C245.176 82.649 244.729 82.997 244.375 83.441V79.04H242.692V92ZM256.479 92H258.432L259.377 89.075H264.696L265.659 92H267.612L263.4 79.04H260.691L256.479 92ZM259.953 87.311L262.023 80.921L264.12 87.311H259.953ZM274.789 92V90.407C274.153 90.503 273.598 90.524 273.124 90.47C272.656 90.41 272.314 90.197 272.098 89.831C271.984 89.633 271.921 89.39 271.909 89.102C271.903 88.814 271.9 88.475 271.9 88.085V83.792H274.789V82.28H271.9V79.58H270.01V82.28H268.147V83.792H270.01V88.175C270.01 88.703 270.016 89.177 270.028 89.597C270.046 90.011 270.16 90.419 270.37 90.821C270.61 91.271 270.961 91.601 271.423 91.811C271.885 92.021 272.41 92.135 272.998 92.153C273.586 92.171 274.183 92.12 274.789 92ZM281.314 92V90.407C280.678 90.503 280.123 90.524 279.649 90.47C279.181 90.41 278.839 90.197 278.623 89.831C278.509 89.633 278.446 89.39 278.434 89.102C278.428 88.814 278.425 88.475 278.425 88.085V83.792H281.314V82.28H278.425V79.58H276.535V82.28H274.672V83.792H276.535V88.175C276.535 88.703 276.541 89.177 276.553 89.597C276.571 90.011 276.685 90.419 276.895 90.821C277.135 91.271 277.486 91.601 277.948 91.811C278.41 92.021 278.935 92.135 279.523 92.153C280.111 92.171 280.708 92.12 281.314 92ZM287.653 92.27C288.595 92.27 289.45 92.033 290.218 91.559C290.986 91.079 291.559 90.404 291.937 89.534L290.092 88.949C289.6 89.981 288.757 90.497 287.563 90.497C286.747 90.497 286.105 90.251 285.637 89.759C285.169 89.267 284.896 88.571 284.818 87.671H292.063C292.129 86.507 291.991 85.502 291.649 84.656C291.307 83.81 290.788 83.159 290.092 82.703C289.396 82.241 288.553 82.01 287.563 82.01C286.615 82.01 285.784 82.223 285.07 82.649C284.356 83.075 283.798 83.678 283.396 84.458C283 85.238 282.802 86.159 282.802 87.221C282.802 88.223 283.003 89.105 283.405 89.867C283.813 90.623 284.38 91.214 285.106 91.64C285.838 92.06 286.687 92.27 287.653 92.27ZM287.635 83.675C289.105 83.675 289.939 84.518 290.137 86.204H284.863C284.983 85.382 285.274 84.755 285.736 84.323C286.198 83.891 286.831 83.675 287.635 83.675ZM293.81 92H295.718V86.942C295.718 86.174 295.829 85.562 296.051 85.106C296.279 84.644 296.579 84.311 296.951 84.107C297.323 83.903 297.734 83.801 298.184 83.801C298.7 83.801 299.12 83.906 299.444 84.116C299.768 84.326 300.017 84.602 300.191 84.944C300.365 85.286 300.482 85.658 300.542 86.06C300.608 86.456 300.641 86.843 300.641 87.221V92H302.549V86.6C302.549 86.3 302.522 85.952 302.468 85.556C302.414 85.16 302.312 84.755 302.162 84.341C302.012 83.927 301.793 83.546 301.505 83.198C301.223 82.844 300.854 82.559 300.398 82.343C299.942 82.127 299.378 82.019 298.706 82.019C298.004 82.019 297.38 82.145 296.834 82.397C296.294 82.649 295.847 82.997 295.493 83.441V82.28H293.81V92ZM308.631 92.27C309.243 92.27 309.789 92.168 310.269 91.964C310.755 91.76 311.175 91.475 311.529 91.109V92H313.203V79.04H311.313V82.946C310.977 82.646 310.587 82.415 310.143 82.253C309.699 82.091 309.207 82.01 308.667 82.01C307.755 82.01 306.966 82.235 306.3 82.685C305.64 83.129 305.13 83.738 304.77 84.512C304.41 85.28 304.23 86.153 304.23 87.131C304.23 88.103 304.407 88.976 304.761 89.75C305.121 90.524 305.631 91.139 306.291 91.595C306.951 92.045 307.731 92.27 308.631 92.27ZM308.892 90.569C308.292 90.569 307.794 90.416 307.398 90.11C307.002 89.804 306.708 89.393 306.516 88.877C306.324 88.355 306.228 87.773 306.228 87.131C306.228 86.495 306.324 85.919 306.516 85.403C306.714 84.887 307.014 84.476 307.416 84.17C307.818 83.864 308.331 83.711 308.955 83.711C309.843 83.711 310.494 84.029 310.908 84.665C311.322 85.301 311.529 86.123 311.529 87.131C311.529 88.139 311.322 88.964 310.908 89.606C310.494 90.248 309.822 90.569 308.892 90.569ZM320.032 92.27C320.974 92.27 321.829 92.033 322.597 91.559C323.365 91.079 323.938 90.404 324.316 89.534L322.471 88.949C321.979 89.981 321.136 90.497 319.942 90.497C319.126 90.497 318.484 90.251 318.016 89.759C317.548 89.267 317.275 88.571 317.197 87.671H324.442C324.508 86.507 324.37 85.502 324.028 84.656C323.686 83.81 323.167 83.159 322.471 82.703C321.775 82.241 320.932 82.01 319.942 82.01C318.994 82.01 318.163 82.223 317.449 82.649C316.735 83.075 316.177 83.678 315.775 84.458C315.379 85.238 315.181 86.159 315.181 87.221C315.181 88.223 315.382 89.105 315.784 89.867C316.192 90.623 316.759 91.214 317.485 91.64C318.217 92.06 319.066 92.27 320.032 92.27ZM320.014 83.675C321.484 83.675 322.318 84.518 322.516 86.204H317.242C317.362 85.382 317.653 84.755 318.115 84.323C318.577 83.891 319.21 83.675 320.014 83.675ZM330.322 92.27C330.934 92.27 331.48 92.168 331.96 91.964C332.446 91.76 332.866 91.475 333.22 91.109V92H334.894V79.04H333.004V82.946C332.668 82.646 332.278 82.415 331.834 82.253C331.39 82.091 330.898 82.01 330.358 82.01C329.446 82.01 328.657 82.235 327.991 82.685C327.331 83.129 326.821 83.738 326.461 84.512C326.101 85.28 325.921 86.153 325.921 87.131C325.921 88.103 326.098 88.976 326.452 89.75C326.812 90.524 327.322 91.139 327.982 91.595C328.642 92.045 329.422 92.27 330.322 92.27ZM330.583 90.569C329.983 90.569 329.485 90.416 329.089 90.11C328.693 89.804 328.399 89.393 328.207 88.877C328.015 88.355 327.919 87.773 327.919 87.131C327.919 86.495 328.015 85.919 328.207 85.403C328.405 84.887 328.705 84.476 329.107 84.17C329.509 83.864 330.022 83.711 330.646 83.711C331.534 83.711 332.185 84.029 332.599 84.665C333.013 85.301 333.22 86.123 333.22 87.131C333.22 88.139 333.013 88.964 332.599 89.606C332.185 90.248 331.513 90.569 330.583 90.569ZM344.877 92.27C345.489 92.27 346.035 92.168 346.515 91.964C347.001 91.76 347.421 91.475 347.775 91.109V92H349.449V79.04H347.559V82.946C347.223 82.646 346.833 82.415 346.389 82.253C345.945 82.091 345.453 82.01 344.913 82.01C344.001 82.01 343.212 82.235 342.546 82.685C341.886 83.129 341.376 83.738 341.016 84.512C340.656 85.28 340.476 86.153 340.476 87.131C340.476 88.103 340.653 88.976 341.007 89.75C341.367 90.524 341.877 91.139 342.537 91.595C343.197 92.045 343.977 92.27 344.877 92.27ZM345.138 90.569C344.538 90.569 344.04 90.416 343.644 90.11C343.248 89.804 342.954 89.393 342.762 88.877C342.57 88.355 342.474 87.773 342.474 87.131C342.474 86.495 342.57 85.919 342.762 85.403C342.96 84.887 343.26 84.476 343.662 84.17C344.064 83.864 344.577 83.711 345.201 83.711C346.089 83.711 346.74 84.029 347.154 84.665C347.568 85.301 347.775 86.123 347.775 87.131C347.775 88.139 347.568 88.964 347.154 89.606C346.74 90.248 346.068 90.569 345.138 90.569ZM356.188 92.27C357.154 92.27 357.994 92.054 358.708 91.622C359.422 91.184 359.974 90.581 360.364 89.813C360.76 89.039 360.958 88.145 360.958 87.131C360.958 86.129 360.763 85.244 360.373 84.476C359.983 83.702 359.431 83.099 358.717 82.667C358.003 82.229 357.16 82.01 356.188 82.01C355.234 82.01 354.4 82.226 353.686 82.658C352.972 83.09 352.417 83.69 352.021 84.458C351.625 85.226 351.427 86.117 351.427 87.131C351.427 88.133 351.622 89.021 352.012 89.795C352.402 90.569 352.951 91.175 353.659 91.613C354.373 92.051 355.216 92.27 356.188 92.27ZM356.188 90.497C355.282 90.497 354.595 90.194 354.127 89.588C353.659 88.976 353.425 88.157 353.425 87.131C353.425 86.141 353.65 85.337 354.1 84.719C354.55 84.095 355.246 83.783 356.188 83.783C357.106 83.783 357.796 84.086 358.258 84.692C358.726 85.298 358.96 86.111 358.96 87.131C358.96 88.127 358.729 88.937 358.267 89.561C357.811 90.185 357.118 90.497 356.188 90.497ZM367.247 92.27C368.189 92.27 369.044 92.033 369.812 91.559C370.58 91.079 371.153 90.404 371.531 89.534L369.686 88.949C369.194 89.981 368.351 90.497 367.157 90.497C366.341 90.497 365.699 90.251 365.231 89.759C364.763 89.267 364.49 88.571 364.412 87.671H371.657C371.723 86.507 371.585 85.502 371.243 84.656C370.901 83.81 370.382 83.159 369.686 82.703C368.99 82.241 368.147 82.01 367.157 82.01C366.209 82.01 365.378 82.223 364.664 82.649C363.95 83.075 363.392 83.678 362.99 84.458C362.594 85.238 362.396 86.159 362.396 87.221C362.396 88.223 362.597 89.105 362.999 89.867C363.407 90.623 363.974 91.214 364.7 91.64C365.432 92.06 366.281 92.27 367.247 92.27ZM367.229 83.675C368.699 83.675 369.533 84.518 369.731 86.204H364.457C364.577 85.382 364.868 84.755 365.33 84.323C365.792 83.891 366.425 83.675 367.229 83.675ZM377.393 92.261C378.623 92.261 379.586 91.988 380.282 91.442C380.984 90.896 381.335 90.143 381.335 89.183C381.335 88.679 381.23 88.253 381.02 87.905C380.816 87.557 380.474 87.257 379.994 87.005C379.514 86.747 378.866 86.513 378.05 86.303C377.288 86.111 376.712 85.946 376.322 85.808C375.938 85.664 375.677 85.52 375.539 85.376C375.401 85.226 375.332 85.043 375.332 84.827C375.332 84.455 375.509 84.164 375.863 83.954C376.217 83.738 376.679 83.642 377.249 83.666C377.843 83.69 378.326 83.84 378.698 84.116C379.07 84.386 379.289 84.752 379.355 85.214L381.281 84.863C381.173 83.999 380.75 83.309 380.012 82.793C379.274 82.271 378.347 82.01 377.231 82.01C376.091 82.01 375.176 82.277 374.486 82.811C373.796 83.339 373.451 84.044 373.451 84.926C373.451 85.4 373.553 85.805 373.757 86.141C373.967 86.471 374.315 86.759 374.801 87.005C375.293 87.251 375.956 87.485 376.79 87.707C377.552 87.911 378.119 88.082 378.491 88.22C378.863 88.358 379.106 88.505 379.22 88.661C379.34 88.811 379.4 89.009 379.4 89.255C379.4 89.675 379.232 90.005 378.896 90.245C378.566 90.485 378.107 90.605 377.519 90.605C376.871 90.605 376.328 90.461 375.89 90.173C375.458 89.885 375.182 89.486 375.062 88.976L373.136 89.273C373.304 90.221 373.76 90.956 374.504 91.478C375.248 92 376.211 92.261 377.393 92.261ZM386.921 92H388.829V86.942C388.829 86.174 388.94 85.562 389.162 85.106C389.39 84.644 389.69 84.311 390.062 84.107C390.434 83.903 390.845 83.801 391.295 83.801C391.811 83.801 392.231 83.906 392.555 84.116C392.879 84.326 393.128 84.602 393.302 84.944C393.476 85.286 393.593 85.658 393.653 86.06C393.719 86.456 393.752 86.843 393.752 87.221V92H395.66V86.6C395.66 86.3 395.633 85.952 395.579 85.556C395.525 85.16 395.423 84.755 395.273 84.341C395.123 83.927 394.904 83.546 394.616 83.198C394.334 82.844 393.965 82.559 393.509 82.343C393.053 82.127 392.489 82.019 391.817 82.019C391.115 82.019 390.491 82.145 389.945 82.397C389.405 82.649 388.958 82.997 388.604 83.441V82.28H386.921V92ZM402.102 92.27C403.068 92.27 403.908 92.054 404.622 91.622C405.336 91.184 405.888 90.581 406.278 89.813C406.674 89.039 406.872 88.145 406.872 87.131C406.872 86.129 406.677 85.244 406.287 84.476C405.897 83.702 405.345 83.099 404.631 82.667C403.917 82.229 403.074 82.01 402.102 82.01C401.148 82.01 400.314 82.226 399.6 82.658C398.886 83.09 398.331 83.69 397.935 84.458C397.539 85.226 397.341 86.117 397.341 87.131C397.341 88.133 397.536 89.021 397.926 89.795C398.316 90.569 398.865 91.175 399.573 91.613C400.287 92.051 401.13 92.27 402.102 92.27ZM402.102 90.497C401.196 90.497 400.509 90.194 400.041 89.588C399.573 88.976 399.339 88.157 399.339 87.131C399.339 86.141 399.564 85.337 400.014 84.719C400.464 84.095 401.16 83.783 402.102 83.783C403.02 83.783 403.71 84.086 404.172 84.692C404.64 85.298 404.874 86.111 404.874 87.131C404.874 88.127 404.643 88.937 404.181 89.561C403.725 90.185 403.032 90.497 402.102 90.497ZM101.571 124.27C102.513 124.27 103.368 124.033 104.136 123.559C104.904 123.079 105.477 122.404 105.855 121.534L104.01 120.949C103.518 121.981 102.675 122.497 101.481 122.497C100.665 122.497 100.023 122.251 99.555 121.759C99.087 121.267 98.814 120.571 98.736 119.671H105.981C106.047 118.507 105.909 117.502 105.567 116.656C105.225 115.81 104.706 115.159 104.01 114.703C103.314 114.241 102.471 114.01 101.481 114.01C100.533 114.01 99.702 114.223 98.988 114.649C98.274 115.075 97.716 115.678 97.314 116.458C96.918 117.238 96.72 118.159 96.72 119.221C96.72 120.223 96.921 121.105 97.323 121.867C97.731 122.623 98.298 123.214 99.024 123.64C99.756 124.06 100.605 124.27 101.571 124.27ZM101.553 115.675C103.023 115.675 103.857 116.518 104.055 118.204H98.781C98.901 117.382 99.192 116.755 99.654 116.323C100.116 115.891 100.749 115.675 101.553 115.675ZM107.728 124H109.636V118.942C109.636 118.174 109.747 117.562 109.969 117.106C110.197 116.644 110.497 116.311 110.869 116.107C111.241 115.903 111.652 115.801 112.102 115.801C112.618 115.801 113.038 115.906 113.362 116.116C113.686 116.326 113.935 116.602 114.109 116.944C114.283 117.286 114.4 117.658 114.46 118.06C114.526 118.456 114.559 118.843 114.559 119.221V124H116.467V118.6C116.467 118.3 116.44 117.952 116.386 117.556C116.332 117.16 116.23 116.755 116.08 116.341C115.93 115.927 115.711 115.546 115.423 115.198C115.141 114.844 114.772 114.559 114.316 114.343C113.86 114.127 113.296 114.019 112.624 114.019C111.922 114.019 111.298 114.145 110.752 114.397C110.212 114.649 109.765 114.997 109.411 115.441V114.28H107.728V124ZM122.549 124.27C123.161 124.27 123.707 124.168 124.187 123.964C124.673 123.76 125.093 123.475 125.447 123.109V124H127.121V111.04H125.231V114.946C124.895 114.646 124.505 114.415 124.061 114.253C123.617 114.091 123.125 114.01 122.585 114.01C121.673 114.01 120.884 114.235 120.218 114.685C119.558 115.129 119.048 115.738 118.688 116.512C118.328 117.28 118.148 118.153 118.148 119.131C118.148 120.103 118.325 120.976 118.679 121.75C119.039 122.524 119.549 123.139 120.209 123.595C120.869 124.045 121.649 124.27 122.549 124.27ZM122.81 122.569C122.21 122.569 121.712 122.416 121.316 122.11C120.92 121.804 120.626 121.393 120.434 120.877C120.242 120.355 120.146 119.773 120.146 119.131C120.146 118.495 120.242 117.919 120.434 117.403C120.632 116.887 120.932 116.476 121.334 116.17C121.736 115.864 122.249 115.711 122.873 115.711C123.761 115.711 124.412 116.029 124.826 116.665C125.24 117.301 125.447 118.123 125.447 119.131C125.447 120.139 125.24 120.964 124.826 121.606C124.412 122.248 123.74 122.569 122.81 122.569ZM133.422 112.687H135.303V110.86H133.422V112.687ZM133.422 124H135.303V114.28H133.422V124ZM143.568 124V122.407C142.932 122.503 142.377 122.524 141.903 122.47C141.435 122.41 141.093 122.197 140.877 121.831C140.763 121.633 140.7 121.39 140.688 121.102C140.682 120.814 140.679 120.475 140.679 120.085V115.792H143.568V114.28H140.679V111.58H138.789V114.28H136.926V115.792H138.789V120.175C138.789 120.703 138.795 121.177 138.807 121.597C138.825 122.011 138.939 122.419 139.149 122.821C139.389 123.271 139.74 123.601 140.202 123.811C140.664 124.021 141.189 124.135 141.777 124.153C142.365 124.171 142.962 124.12 143.568 124ZM149.212 124H151.12V118.942C151.12 118.174 151.231 117.562 151.453 117.106C151.681 116.644 151.981 116.311 152.353 116.107C152.725 115.903 153.136 115.801 153.586 115.801C154.102 115.801 154.522 115.906 154.846 116.116C155.17 116.326 155.419 116.602 155.593 116.944C155.767 117.286 155.884 117.658 155.944 118.06C156.01 118.456 156.043 118.843 156.043 119.221V124H157.951V118.6C157.951 118.3 157.924 117.952 157.87 117.556C157.816 117.16 157.714 116.755 157.564 116.341C157.414 115.927 157.195 115.546 156.907 115.198C156.625 114.844 156.256 114.559 155.8 114.343C155.344 114.127 154.78 114.019 154.108 114.019C153.406 114.019 152.782 114.145 152.236 114.397C151.696 114.649 151.249 114.997 150.895 115.441V111.04H149.212V124ZM160.475 112.687H162.356V110.86H160.475V112.687ZM160.475 124H162.356V114.28H160.475V124ZM168.776 124.261C170.006 124.261 170.969 123.988 171.665 123.442C172.367 122.896 172.718 122.143 172.718 121.183C172.718 120.679 172.613 120.253 172.403 119.905C172.199 119.557 171.857 119.257 171.377 119.005C170.897 118.747 170.249 118.513 169.433 118.303C168.671 118.111 168.095 117.946 167.705 117.808C167.321 117.664 167.06 117.52 166.922 117.376C166.784 117.226 166.715 117.043 166.715 116.827C166.715 116.455 166.892 116.164 167.246 115.954C167.6 115.738 168.062 115.642 168.632 115.666C169.226 115.69 169.709 115.84 170.081 116.116C170.453 116.386 170.672 116.752 170.738 117.214L172.664 116.863C172.556 115.999 172.133 115.309 171.395 114.793C170.657 114.271 169.73 114.01 168.614 114.01C167.474 114.01 166.559 114.277 165.869 114.811C165.179 115.339 164.834 116.044 164.834 116.926C164.834 117.4 164.936 117.805 165.14 118.141C165.35 118.471 165.698 118.759 166.184 119.005C166.676 119.251 167.339 119.485 168.173 119.707C168.935 119.911 169.502 120.082 169.874 120.22C170.246 120.358 170.489 120.505 170.603 120.661C170.723 120.811 170.783 121.009 170.783 121.255C170.783 121.675 170.615 122.005 170.279 122.245C169.949 122.485 169.49 122.605 168.902 122.605C168.254 122.605 167.711 122.461 167.273 122.173C166.841 121.885 166.565 121.486 166.445 120.976L164.519 121.273C164.687 122.221 165.143 122.956 165.887 123.478C166.631 124 167.594 124.261 168.776 124.261ZM178.304 124H180.194V117.925C180.194 117.265 180.374 116.731 180.734 116.323C181.1 115.915 181.58 115.711 182.174 115.711C182.774 115.711 183.251 115.915 183.605 116.323C183.965 116.725 184.145 117.277 184.145 117.979L184.136 124H186.017L186.026 117.925C186.026 117.193 186.221 116.641 186.611 116.269C187.007 115.897 187.472 115.711 188.006 115.711C188.594 115.711 189.068 115.909 189.428 116.305C189.788 116.701 189.968 117.247 189.968 117.943L189.959 124H191.84L191.849 117.493C191.849 116.449 191.558 115.612 190.976 114.982C190.4 114.352 189.59 114.037 188.546 114.037C187.91 114.037 187.334 114.178 186.818 114.46C186.302 114.736 185.894 115.12 185.594 115.612C185.336 115.12 184.967 114.736 184.487 114.46C184.013 114.178 183.44 114.037 182.768 114.037C182.186 114.037 181.652 114.154 181.166 114.388C180.686 114.616 180.29 114.928 179.978 115.324V114.28H178.304V124ZM198.284 124.27C199.25 124.27 200.09 124.054 200.804 123.622C201.518 123.184 202.07 122.581 202.46 121.813C202.856 121.039 203.054 120.145 203.054 119.131C203.054 118.129 202.859 117.244 202.469 116.476C202.079 115.702 201.527 115.099 200.813 114.667C200.099 114.229 199.256 114.01 198.284 114.01C197.33 114.01 196.496 114.226 195.782 114.658C195.068 115.09 194.513 115.69 194.117 116.458C193.721 117.226 193.523 118.117 193.523 119.131C193.523 120.133 193.718 121.021 194.108 121.795C194.498 122.569 195.047 123.175 195.755 123.613C196.469 124.051 197.312 124.27 198.284 124.27ZM198.284 122.497C197.378 122.497 196.691 122.194 196.223 121.588C195.755 120.976 195.521 120.157 195.521 119.131C195.521 118.141 195.746 117.337 196.196 116.719C196.646 116.095 197.342 115.783 198.284 115.783C199.202 115.783 199.892 116.086 200.354 116.692C200.822 117.298 201.056 118.111 201.056 119.131C201.056 120.127 200.825 120.937 200.363 121.561C199.907 122.185 199.214 122.497 198.284 122.497ZM210.593 124V122.407C209.957 122.503 209.402 122.524 208.928 122.47C208.46 122.41 208.118 122.197 207.902 121.831C207.788 121.633 207.725 121.39 207.713 121.102C207.707 120.814 207.704 120.475 207.704 120.085V115.792H210.593V114.28H207.704V111.58H205.814V114.28H203.951V115.792H205.814V120.175C205.814 120.703 205.82 121.177 205.832 121.597C205.85 122.011 205.964 122.419 206.174 122.821C206.414 123.271 206.765 123.601 207.227 123.811C207.689 124.021 208.214 124.135 208.802 124.153C209.39 124.171 209.987 124.12 210.593 124ZM212.634 124H214.542V118.942C214.542 118.174 214.653 117.562 214.875 117.106C215.103 116.644 215.403 116.311 215.775 116.107C216.147 115.903 216.558 115.801 217.008 115.801C217.524 115.801 217.944 115.906 218.268 116.116C218.592 116.326 218.841 116.602 219.015 116.944C219.189 117.286 219.306 117.658 219.366 118.06C219.432 118.456 219.465 118.843 219.465 119.221V124H221.373V118.6C221.373 118.3 221.346 117.952 221.292 117.556C221.238 117.16 221.136 116.755 220.986 116.341C220.836 115.927 220.617 115.546 220.329 115.198C220.047 114.844 219.678 114.559 219.222 114.343C218.766 114.127 218.202 114.019 217.53 114.019C216.828 114.019 216.204 114.145 215.658 114.397C215.118 114.649 214.671 114.997 214.317 115.441V111.04H212.634V124ZM228.028 124.27C228.97 124.27 229.825 124.033 230.593 123.559C231.361 123.079 231.934 122.404 232.312 121.534L230.467 120.949C229.975 121.981 229.132 122.497 227.938 122.497C227.122 122.497 226.48 122.251 226.012 121.759C225.544 121.267 225.271 120.571 225.193 119.671H232.438C232.504 118.507 232.366 117.502 232.024 116.656C231.682 115.81 231.163 115.159 230.467 114.703C229.771 114.241 228.928 114.01 227.938 114.01C226.99 114.01 226.159 114.223 225.445 114.649C224.731 115.075 224.173 115.678 223.771 116.458C223.375 117.238 223.177 118.159 223.177 119.221C223.177 120.223 223.378 121.105 223.78 121.867C224.188 122.623 224.755 123.214 225.481 123.64C226.213 124.06 227.062 124.27 228.028 124.27ZM228.01 115.675C229.48 115.675 230.314 116.518 230.512 118.204H225.238C225.358 117.382 225.649 116.755 226.111 116.323C226.573 115.891 227.206 115.675 228.01 115.675ZM234.457 124H236.356V119.095C236.356 118.525 236.446 117.997 236.626 117.511C236.806 117.025 237.124 116.635 237.58 116.341C237.904 116.131 238.261 116.008 238.651 115.972C239.041 115.936 239.392 115.96 239.704 116.044V114.28C239.266 114.196 238.801 114.199 238.309 114.289C237.823 114.379 237.397 114.559 237.031 114.829C236.671 115.069 236.371 115.402 236.131 115.828V114.28H234.457V124ZM248.739 124.261C249.969 124.261 250.932 123.988 251.628 123.442C252.33 122.896 252.681 122.143 252.681 121.183C252.681 120.679 252.576 120.253 252.366 119.905C252.162 119.557 251.82 119.257 251.34 119.005C250.86 118.747 250.212 118.513 249.396 118.303C248.634 118.111 248.058 117.946 247.668 117.808C247.284 117.664 247.023 117.52 246.885 117.376C246.747 117.226 246.678 117.043 246.678 116.827C246.678 116.455 246.855 116.164 247.209 115.954C247.563 115.738 248.025 115.642 248.595 115.666C249.189 115.69 249.672 115.84 250.044 116.116C250.416 116.386 250.635 116.752 250.701 117.214L252.627 116.863C252.519 115.999 252.096 115.309 251.358 114.793C250.62 114.271 249.693 114.01 248.577 114.01C247.437 114.01 246.522 114.277 245.832 114.811C245.142 115.339 244.797 116.044 244.797 116.926C244.797 117.4 244.899 117.805 245.103 118.141C245.313 118.471 245.661 118.759 246.147 119.005C246.639 119.251 247.302 119.485 248.136 119.707C248.898 119.911 249.465 120.082 249.837 120.22C250.209 120.358 250.452 120.505 250.566 120.661C250.686 120.811 250.746 121.009 250.746 121.255C250.746 121.675 250.578 122.005 250.242 122.245C249.912 122.485 249.453 122.605 248.865 122.605C248.217 122.605 247.674 122.461 247.236 122.173C246.804 121.885 246.528 121.486 246.408 120.976L244.482 121.273C244.65 122.221 245.106 122.956 245.85 123.478C246.594 124 247.557 124.261 248.739 124.261ZM254.852 112.687H256.733V110.86H254.852V112.687ZM254.852 124H256.733V114.28H254.852V124ZM259.427 124H261.335V118.942C261.335 118.174 261.446 117.562 261.668 117.106C261.896 116.644 262.196 116.311 262.568 116.107C262.94 115.903 263.351 115.801 263.801 115.801C264.317 115.801 264.737 115.906 265.061 116.116C265.385 116.326 265.634 116.602 265.808 116.944C265.982 117.286 266.099 117.658 266.159 118.06C266.225 118.456 266.258 118.843 266.258 119.221V124H268.166V118.6C268.166 118.3 268.139 117.952 268.085 117.556C268.031 117.16 267.929 116.755 267.779 116.341C267.629 115.927 267.41 115.546 267.122 115.198C266.84 114.844 266.471 114.559 266.015 114.343C265.559 114.127 264.995 114.019 264.323 114.019C263.621 114.019 262.997 114.145 262.451 114.397C261.911 114.649 261.464 114.997 261.11 115.441V114.28H259.427V124ZM274.545 124.27C275.589 124.27 276.477 124.018 277.209 123.514C277.941 123.01 278.466 122.281 278.784 121.327L276.876 120.877C276.678 121.399 276.39 121.801 276.012 122.083C275.64 122.359 275.151 122.497 274.545 122.497C273.657 122.497 272.985 122.188 272.529 121.57C272.079 120.952 271.851 120.142 271.845 119.14C271.851 118.168 272.07 117.367 272.502 116.737C272.94 116.101 273.621 115.783 274.545 115.783C275.091 115.783 275.574 115.936 275.994 116.242C276.42 116.542 276.726 116.965 276.912 117.511L278.784 116.971C278.544 116.059 278.046 115.339 277.29 114.811C276.54 114.277 275.634 114.01 274.572 114.01C273.594 114.01 272.751 114.229 272.043 114.667C271.341 115.105 270.801 115.711 270.423 116.485C270.045 117.253 269.853 118.138 269.847 119.14C269.853 120.124 270.039 121.003 270.405 121.777C270.777 122.551 271.311 123.16 272.007 123.604C272.709 124.048 273.555 124.27 274.545 124.27ZM284.665 124.27C285.607 124.27 286.462 124.033 287.23 123.559C287.998 123.079 288.571 122.404 288.949 121.534L287.104 120.949C286.612 121.981 285.769 122.497 284.575 122.497C283.759 122.497 283.117 122.251 282.649 121.759C282.181 121.267 281.908 120.571 281.83 119.671H289.075C289.141 118.507 289.003 117.502 288.661 116.656C288.319 115.81 287.8 115.159 287.104 114.703C286.408 114.241 285.565 114.01 284.575 114.01C283.627 114.01 282.796 114.223 282.082 114.649C281.368 115.075 280.81 115.678 280.408 116.458C280.012 117.238 279.814 118.159 279.814 119.221C279.814 120.223 280.015 121.105 280.417 121.867C280.825 122.623 281.392 123.214 282.118 123.64C282.85 124.06 283.699 124.27 284.665 124.27ZM284.647 115.675C286.117 115.675 286.951 116.518 287.149 118.204H281.875C281.995 117.382 282.286 116.755 282.748 116.323C283.21 115.891 283.843 115.675 284.647 115.675ZM294.698 124H296.597V119.095C296.597 118.525 296.687 117.997 296.867 117.511C297.047 117.025 297.365 116.635 297.821 116.341C298.145 116.131 298.502 116.008 298.892 115.972C299.282 115.936 299.633 115.96 299.945 116.044V114.28C299.507 114.196 299.042 114.199 298.55 114.289C298.064 114.379 297.638 114.559 297.272 114.829C296.912 115.069 296.612 115.402 296.372 115.828V114.28H294.698V124ZM305.794 124.27C306.736 124.27 307.591 124.033 308.359 123.559C309.127 123.079 309.7 122.404 310.078 121.534L308.233 120.949C307.741 121.981 306.898 122.497 305.704 122.497C304.888 122.497 304.246 122.251 303.778 121.759C303.31 121.267 303.037 120.571 302.959 119.671H310.204C310.27 118.507 310.132 117.502 309.79 116.656C309.448 115.81 308.929 115.159 308.233 114.703C307.537 114.241 306.694 114.01 305.704 114.01C304.756 114.01 303.925 114.223 303.211 114.649C302.497 115.075 301.939 115.678 301.537 116.458C301.141 117.238 300.943 118.159 300.943 119.221C300.943 120.223 301.144 121.105 301.546 121.867C301.954 122.623 302.521 123.214 303.247 123.64C303.979 124.06 304.828 124.27 305.794 124.27ZM305.776 115.675C307.246 115.675 308.08 116.518 308.278 118.204H303.004C303.124 117.382 303.415 116.755 303.877 116.323C304.339 115.891 304.972 115.675 305.776 115.675ZM314.792 124.27C316.34 124.27 317.507 123.709 318.293 122.587V124H319.958V118.015C319.958 117.607 319.94 117.226 319.904 116.872C319.868 116.518 319.772 116.182 319.616 115.864C319.316 115.222 318.842 114.754 318.194 114.46C317.552 114.16 316.796 114.01 315.926 114.01C314.804 114.01 313.904 114.256 313.226 114.748C312.548 115.24 312.092 115.903 311.858 116.737L313.613 117.277C313.781 116.737 314.078 116.347 314.504 116.107C314.93 115.867 315.398 115.747 315.908 115.747C316.664 115.747 317.21 115.909 317.546 116.233C317.888 116.551 318.074 117.046 318.104 117.718C317.312 117.826 316.538 117.94 315.782 118.06C315.026 118.174 314.366 118.312 313.802 118.474C313.052 118.714 312.482 119.071 312.092 119.545C311.702 120.019 311.507 120.622 311.507 121.354C311.507 121.882 311.63 122.368 311.876 122.812C312.128 123.25 312.497 123.604 312.983 123.874C313.475 124.138 314.078 124.27 314.792 124.27ZM315.125 122.731C314.525 122.731 314.081 122.593 313.793 122.317C313.511 122.041 313.37 121.714 313.37 121.336C313.37 120.952 313.496 120.649 313.748 120.427C314.006 120.205 314.327 120.028 314.711 119.896C315.119 119.776 315.599 119.671 316.151 119.581C316.709 119.491 317.354 119.392 318.086 119.284C318.08 119.512 318.065 119.767 318.041 120.049C318.017 120.331 317.966 120.583 317.888 120.805C317.816 121.123 317.663 121.429 317.429 121.723C317.201 122.017 316.892 122.26 316.502 122.452C316.118 122.638 315.659 122.731 315.125 122.731ZM322.475 124H324.356V110.77H322.475V124ZM330.653 124H332.561V118.942C332.561 118.174 332.672 117.562 332.894 117.106C333.122 116.644 333.422 116.311 333.794 116.107C334.166 115.903 334.577 115.801 335.027 115.801C335.543 115.801 335.963 115.906 336.287 116.116C336.611 116.326 336.86 116.602 337.034 116.944C337.208 117.286 337.325 117.658 337.385 118.06C337.451 118.456 337.484 118.843 337.484 119.221V124H339.392V118.6C339.392 118.3 339.365 117.952 339.311 117.556C339.257 117.16 339.155 116.755 339.005 116.341C338.855 115.927 338.636 115.546 338.348 115.198C338.066 114.844 337.697 114.559 337.241 114.343C336.785 114.127 336.221 114.019 335.549 114.019C334.847 114.019 334.223 114.145 333.677 114.397C333.137 114.649 332.69 114.997 332.336 115.441V111.04H330.653V124ZM344.482 124.27C346.03 124.27 347.197 123.709 347.983 122.587V124H349.648V118.015C349.648 117.607 349.63 117.226 349.594 116.872C349.558 116.518 349.462 116.182 349.306 115.864C349.006 115.222 348.532 114.754 347.884 114.46C347.242 114.16 346.486 114.01 345.616 114.01C344.494 114.01 343.594 114.256 342.916 114.748C342.238 115.24 341.782 115.903 341.548 116.737L343.303 117.277C343.471 116.737 343.768 116.347 344.194 116.107C344.62 115.867 345.088 115.747 345.598 115.747C346.354 115.747 346.9 115.909 347.236 116.233C347.578 116.551 347.764 117.046 347.794 117.718C347.002 117.826 346.228 117.94 345.472 118.06C344.716 118.174 344.056 118.312 343.492 118.474C342.742 118.714 342.172 119.071 341.782 119.545C341.392 120.019 341.197 120.622 341.197 121.354C341.197 121.882 341.32 122.368 341.566 122.812C341.818 123.25 342.187 123.604 342.673 123.874C343.165 124.138 343.768 124.27 344.482 124.27ZM344.815 122.731C344.215 122.731 343.771 122.593 343.483 122.317C343.201 122.041 343.06 121.714 343.06 121.336C343.06 120.952 343.186 120.649 343.438 120.427C343.696 120.205 344.017 120.028 344.401 119.896C344.809 119.776 345.289 119.671 345.841 119.581C346.399 119.491 347.044 119.392 347.776 119.284C347.77 119.512 347.755 119.767 347.731 120.049C347.707 120.331 347.656 120.583 347.578 120.805C347.506 121.123 347.353 121.429 347.119 121.723C346.891 122.017 346.582 122.26 346.192 122.452C345.808 122.638 345.349 122.731 344.815 122.731ZM355.846 124.27C356.458 124.27 357.004 124.168 357.484 123.964C357.97 123.76 358.39 123.475 358.744 123.109V124H360.418V111.04H358.528V114.946C358.192 114.646 357.802 114.415 357.358 114.253C356.914 114.091 356.422 114.01 355.882 114.01C354.97 114.01 354.181 114.235 353.515 114.685C352.855 115.129 352.345 115.738 351.985 116.512C351.625 117.28 351.445 118.153 351.445 119.131C351.445 120.103 351.622 120.976 351.976 121.75C352.336 122.524 352.846 123.139 353.506 123.595C354.166 124.045 354.946 124.27 355.846 124.27ZM356.107 122.569C355.507 122.569 355.009 122.416 354.613 122.11C354.217 121.804 353.923 121.393 353.731 120.877C353.539 120.355 353.443 119.773 353.443 119.131C353.443 118.495 353.539 117.919 353.731 117.403C353.929 116.887 354.229 116.476 354.631 116.17C355.033 115.864 355.546 115.711 356.17 115.711C357.058 115.711 357.709 116.029 358.123 116.665C358.537 117.301 358.744 118.123 358.744 119.131C358.744 120.139 358.537 120.964 358.123 121.606C357.709 122.248 357.037 122.569 356.107 122.569ZM366.53 124H368.438V118.942C368.438 118.174 368.549 117.562 368.771 117.106C368.999 116.644 369.299 116.311 369.671 116.107C370.043 115.903 370.454 115.801 370.904 115.801C371.42 115.801 371.84 115.906 372.164 116.116C372.488 116.326 372.737 116.602 372.911 116.944C373.085 117.286 373.202 117.658 373.262 118.06C373.328 118.456 373.361 118.843 373.361 119.221V124H375.269V118.6C375.269 118.3 375.242 117.952 375.188 117.556C375.134 117.16 375.032 116.755 374.882 116.341C374.732 115.927 374.513 115.546 374.225 115.198C373.943 114.844 373.574 114.559 373.118 114.343C372.662 114.127 372.098 114.019 371.426 114.019C370.724 114.019 370.1 114.145 369.554 114.397C369.014 114.649 368.567 114.997 368.213 115.441V111.04H366.53V124ZM380.359 124.27C381.907 124.27 383.074 123.709 383.86 122.587V124H385.525V118.015C385.525 117.607 385.507 117.226 385.471 116.872C385.435 116.518 385.339 116.182 385.183 115.864C384.883 115.222 384.409 114.754 383.761 114.46C383.119 114.16 382.363 114.01 381.493 114.01C380.371 114.01 379.471 114.256 378.793 114.748C378.115 115.24 377.659 115.903 377.425 116.737L379.18 117.277C379.348 116.737 379.645 116.347 380.071 116.107C380.497 115.867 380.965 115.747 381.475 115.747C382.231 115.747 382.777 115.909 383.113 116.233C383.455 116.551 383.641 117.046 383.671 117.718C382.879 117.826 382.105 117.94 381.349 118.06C380.593 118.174 379.933 118.312 379.369 118.474C378.619 118.714 378.049 119.071 377.659 119.545C377.269 120.019 377.074 120.622 377.074 121.354C377.074 121.882 377.197 122.368 377.443 122.812C377.695 123.25 378.064 123.604 378.55 123.874C379.042 124.138 379.645 124.27 380.359 124.27ZM380.692 122.731C380.092 122.731 379.648 122.593 379.36 122.317C379.078 122.041 378.937 121.714 378.937 121.336C378.937 120.952 379.063 120.649 379.315 120.427C379.573 120.205 379.894 120.028 380.278 119.896C380.686 119.776 381.166 119.671 381.718 119.581C382.276 119.491 382.921 119.392 383.653 119.284C383.647 119.512 383.632 119.767 383.608 120.049C383.584 120.331 383.533 120.583 383.455 120.805C383.383 121.123 383.23 121.429 382.996 121.723C382.768 122.017 382.459 122.26 382.069 122.452C381.685 122.638 381.226 122.731 380.692 122.731ZM388.042 124H389.923V110.77H388.042V124ZM393.516 124H395.397V115.792H397.854V114.28H395.397V113.578C395.397 112.738 395.838 112.318 396.72 112.318H397.854V110.77H396.63C396.39 110.77 396.123 110.782 395.829 110.806C395.535 110.824 395.241 110.887 394.947 110.995C394.659 111.103 394.389 111.295 394.137 111.571C393.825 111.913 393.642 112.3 393.588 112.732C393.54 113.164 393.516 113.566 393.516 113.938V114.28H391.905V115.792H393.516V124ZM101.571 156.27C102.513 156.27 103.368 156.033 104.136 155.559C104.904 155.079 105.477 154.404 105.855 153.534L104.01 152.949C103.518 153.981 102.675 154.497 101.481 154.497C100.665 154.497 100.023 154.251 99.555 153.759C99.087 153.267 98.814 152.571 98.736 151.671H105.981C106.047 150.507 105.909 149.502 105.567 148.656C105.225 147.81 104.706 147.159 104.01 146.703C103.314 146.241 102.471 146.01 101.481 146.01C100.533 146.01 99.702 146.223 98.988 146.649C98.274 147.075 97.716 147.678 97.314 148.458C96.918 149.238 96.72 150.159 96.72 151.221C96.72 152.223 96.921 153.105 97.323 153.867C97.731 154.623 98.298 155.214 99.024 155.64C99.756 156.06 100.605 156.27 101.571 156.27ZM101.553 147.675C103.023 147.675 103.857 148.518 104.055 150.204H98.781C98.901 149.382 99.192 148.755 99.654 148.323C100.116 147.891 100.749 147.675 101.553 147.675ZM110.277 156H112.185L115.713 146.28H113.814L111.231 153.642L108.648 146.28H106.749L110.277 156ZM121.294 156.27C122.236 156.27 123.091 156.033 123.859 155.559C124.627 155.079 125.2 154.404 125.578 153.534L123.733 152.949C123.241 153.981 122.398 154.497 121.204 154.497C120.388 154.497 119.746 154.251 119.278 153.759C118.81 153.267 118.537 152.571 118.459 151.671H125.704C125.77 150.507 125.632 149.502 125.29 148.656C124.948 147.81 124.429 147.159 123.733 146.703C123.037 146.241 122.194 146.01 121.204 146.01C120.256 146.01 119.425 146.223 118.711 146.649C117.997 147.075 117.439 147.678 117.037 148.458C116.641 149.238 116.443 150.159 116.443 151.221C116.443 152.223 116.644 153.105 117.046 153.867C117.454 154.623 118.021 155.214 118.747 155.64C119.479 156.06 120.328 156.27 121.294 156.27ZM121.276 147.675C122.746 147.675 123.58 148.518 123.778 150.204H118.504C118.624 149.382 118.915 148.755 119.377 148.323C119.839 147.891 120.472 147.675 121.276 147.675ZM127.723 156H129.622V151.095C129.622 150.525 129.712 149.997 129.892 149.511C130.072 149.025 130.39 148.635 130.846 148.341C131.17 148.131 131.527 148.008 131.917 147.972C132.307 147.936 132.658 147.96 132.97 148.044V146.28C132.532 146.196 132.067 146.199 131.575 146.289C131.089 146.379 130.663 146.559 130.297 146.829C129.937 147.069 129.637 147.402 129.397 147.828V146.28H127.723V156ZM135.752 160.32H137.543L142.907 146.28H140.999L138.254 153.588L135.383 146.28H133.421L137.354 155.955L135.752 160.32ZM143.199 156H145.188V154.011H143.199V156Z" fill="#1E1B1B"/>
<circle cx="36" cy="36" r="36" fill="#661CE7"/>
<path d="M28.528 48.48C26.896 48.48 25.456 48.1333 24.208 47.44C22.96 46.736 21.984 45.76 21.28 44.512C20.5867 43.264 20.24 41.824 20.24 40.192V32.768C20.24 31.136 20.5867 29.696 21.28 28.448C21.984 27.2 22.96 26.2293 24.208 25.536C25.456 24.832 26.896 24.48 28.528 24.48C30.16 24.48 31.5947 24.832 32.832 25.536C34.08 26.2293 35.056 27.2 35.76 28.448C36.464 29.696 36.816 31.136 36.816 32.768V40.192C36.816 41.824 36.464 43.264 35.76 44.512C35.056 45.76 34.08 46.736 32.832 47.44C31.5947 48.1333 30.16 48.48 28.528 48.48ZM28.528 44.816C29.3387 44.816 30.0747 44.624 30.736 44.24C31.3973 43.8453 31.92 43.3227 32.304 42.672C32.688 42.0107 32.88 41.2747 32.88 40.464V32.48C32.88 31.6587 32.688 30.9227 32.304 30.272C31.92 29.6107 31.3973 29.088 30.736 28.704C30.0747 28.3093 29.3387 28.112 28.528 28.112C27.7173 28.112 26.9813 28.3093 26.32 28.704C25.6587 29.088 25.136 29.6107 24.752 30.272C24.368 30.9227 24.176 31.6587 24.176 32.48V40.464C24.176 41.2747 24.368 42.0107 24.752 42.672C25.136 43.3227 25.6587 43.8453 26.32 44.24C26.9813 44.624 27.7173 44.816 28.528 44.816ZM47.8945 48.432C46.7425 48.432 45.6545 48.208 44.6305 47.76C43.6065 47.312 42.7158 46.6773 41.9585 45.856C41.2118 45.0347 40.6732 44.064 40.3425 42.944L44.0705 41.936C44.3372 42.8533 44.8225 43.5627 45.5265 44.064C46.2412 44.5547 47.0252 44.7947 47.8785 44.784C48.6358 44.784 49.3132 44.608 49.9105 44.256C50.5078 43.904 50.9772 43.4293 51.3185 42.832C51.6598 42.224 51.8305 41.5467 51.8305 40.8C51.8305 39.6587 51.4625 38.704 50.7265 37.936C49.9905 37.168 49.0412 36.784 47.8785 36.784C47.5265 36.784 47.1798 36.832 46.8385 36.928C46.5078 37.024 46.1878 37.1573 45.8785 37.328L44.1185 34.288L51.8625 27.664L52.1985 28.592H41.2385V24.96H55.3665V28.608L49.1425 34.592L49.1105 33.456C50.5078 33.552 51.6972 33.9413 52.6785 34.624C53.6705 35.3067 54.4278 36.1867 54.9505 37.264C55.4838 38.3413 55.7505 39.52 55.7505 40.8C55.7505 42.2507 55.3932 43.552 54.6785 44.704C53.9745 45.856 53.0252 46.768 51.8305 47.44C50.6465 48.1013 49.3345 48.432 47.8945 48.432Z" fill="white"/>
<mask id="mask0_482_1541" style="mask-type:alpha" maskUnits="userSpaceOnUse" x="0" y="0" width="72" height="72">
<circle cx="36" cy="36" r="36" fill="#661CE7"/>
</mask>
<g mask="url(#mask0_482_1541)">
<circle cx="36" cy="72" r="21" fill="white" fill-opacity="0.24"/>
</g>
</svg>
