<svg width="140" height="48" viewBox="0 0 140 48" fill="none" xmlns="http://www.w3.org/2000/svg">
<g filter="url(#filter0_b_703_92)">
<path d="M16 24C16 17.3726 21.3726 12 28 12C34.6274 12 40 17.3726 40 24C40 30.6274 34.6274 36 28 36C21.3726 36 16 30.6274 16 24Z" fill="#1E1B1B"/>
</g>
<path d="M24.9927 25.7144V22.18C24.9927 20.6734 24.9927 19.92 25.4834 19.6296C25.9741 19.3392 26.6345 19.7018 27.9552 20.4269L30.9846 22.0901C32.3231 22.8249 32.9924 23.1924 33.0071 23.7668C33.0218 24.3412 32.3722 24.7424 31.0731 25.5448L28.0437 27.416C26.6936 28.2499 26.0185 28.6668 25.5056 28.3807C24.9927 28.0947 24.9927 27.3012 24.9927 25.7144Z" fill="white"/>
<path d="M51.3047 25.2734V29.5H49.3281V18.125H53.6797C54.9505 18.125 55.9583 18.4557 56.7031 19.1172C57.4531 19.7786 57.8281 20.6536 57.8281 21.7422C57.8281 22.8568 57.4609 23.724 56.7266 24.3438C55.9974 24.9635 54.974 25.2734 53.6562 25.2734H51.3047ZM51.3047 23.6875H53.6797C54.3828 23.6875 54.9193 23.5234 55.2891 23.1953C55.6589 22.862 55.8438 22.3828 55.8438 21.7578C55.8438 21.1432 55.6562 20.6536 55.2812 20.2891C54.9062 19.9193 54.3906 19.7292 53.7344 19.7188H51.3047V23.6875ZM61.3984 29.5H59.5V17.5L61.3984 17.5V29.5ZM68.5234 29.5C68.4401 29.3385 68.3672 29.0755 68.3047 28.7109C67.7005 29.3411 66.9609 29.6563 66.0859 29.6563C65.237 29.6563 64.5443 29.4141 64.0078 28.9297C63.4714 28.4453 63.2031 27.8464 63.2031 27.1328C63.2031 26.2318 63.5365 25.5417 64.2031 25.0625C64.875 24.5781 65.8333 24.3359 67.0781 24.3359H68.2422V23.7813C68.2422 23.3438 68.1198 22.9948 67.875 22.7344C67.6302 22.4688 67.2578 22.3359 66.7578 22.3359C66.3255 22.3359 65.9714 22.4453 65.6953 22.6641C65.4193 22.8776 65.2812 23.151 65.2812 23.4844L63.3828 23.4844C63.3828 23.0208 63.5365 22.5885 63.8438 22.1875C64.151 21.7813 64.5677 21.4635 65.0938 21.2344C65.625 21.0052 66.2161 20.8906 66.8672 20.8906C67.8568 20.8906 68.6458 21.1406 69.2344 21.6406C69.8229 22.1354 70.125 22.8333 70.1406 23.7344V27.5469C70.1406 28.3073 70.2474 28.9141 70.4609 29.3672V29.5H68.5234ZM66.4375 28.1328C66.8125 28.1328 67.1641 28.0417 67.4922 27.8594C67.8255 27.6771 68.0755 27.4323 68.2422 27.125V25.5313H67.2188C66.5156 25.5313 65.987 25.6536 65.6328 25.8984C65.2786 26.1432 65.1016 26.4896 65.1016 26.9375C65.1016 27.3021 65.2214 27.5938 65.4609 27.8125C65.7057 28.026 66.0312 28.1328 66.4375 28.1328ZM74.9609 26.7813L76.6797 21.0469L78.7031 21.0469L75.3438 30.7813C74.8281 32.2031 73.9531 32.9141 72.7188 32.9141C72.4427 32.9141 72.138 32.8672 71.8047 32.7734V31.3047L72.1641 31.3281C72.6432 31.3281 73.0026 31.2396 73.2422 31.0625C73.487 30.8906 73.6797 30.599 73.8203 30.1875L74.0938 29.4609L71.125 21.0469H73.1719L74.9609 26.7813ZM87.9766 27.0234L90.8672 18.125H93.0391L88.9453 29.5H87.0312L82.9531 18.125H85.1172L87.9766 27.0234ZM96.1641 29.5H94.2656V21.0469H96.1641V29.5ZM94.1484 18.8516C94.1484 18.5599 94.2396 18.3177 94.4219 18.125C94.6094 17.9323 94.875 17.8359 95.2188 17.8359C95.5625 17.8359 95.8281 17.9323 96.0156 18.125C96.2031 18.3177 96.2969 18.5599 96.2969 18.8516C96.2969 19.138 96.2031 19.3776 96.0156 19.5703C95.8281 19.7578 95.5625 19.8516 95.2188 19.8516C94.875 19.8516 94.6094 19.7578 94.4219 19.5703C94.2396 19.3776 94.1484 19.138 94.1484 18.8516ZM97.8828 25.2109C97.8828 23.9089 98.1849 22.8646 98.7891 22.0781C99.3932 21.2865 100.203 20.8906 101.219 20.8906C102.115 20.8906 102.839 21.2031 103.391 21.8281V17.5L105.289 17.5V29.5H103.57L103.477 28.625C102.909 29.3125 102.151 29.6563 101.203 29.6563C100.214 29.6563 99.4115 29.2578 98.7969 28.4609C98.1875 27.6641 97.8828 26.5807 97.8828 25.2109ZM99.7812 25.375C99.7812 26.2344 99.9453 26.9063 100.273 27.3906C100.607 27.8698 101.078 28.1094 101.688 28.1094C102.464 28.1094 103.031 27.763 103.391 27.0703V23.4609C103.042 22.7839 102.479 22.4453 101.703 22.4453C101.089 22.4453 100.615 22.6901 100.281 23.1797C99.9479 23.6641 99.7812 24.3958 99.7812 25.375ZM110.992 29.6563C109.789 29.6563 108.812 29.2786 108.062 28.5234C107.318 27.763 106.945 26.7526 106.945 25.4922V25.2578C106.945 24.4141 107.107 23.6615 107.43 23C107.758 22.3333 108.216 21.8151 108.805 21.4453C109.393 21.0755 110.049 20.8906 110.773 20.8906C111.924 20.8906 112.812 21.2578 113.438 21.9922C114.068 22.7266 114.383 23.7656 114.383 25.1094V25.875H108.859C108.917 26.5729 109.148 27.125 109.555 27.5313C109.966 27.9375 110.482 28.1406 111.102 28.1406C111.971 28.1406 112.68 27.7891 113.227 27.0859L114.25 28.0625C113.911 28.5677 113.458 28.9609 112.891 29.2422C112.328 29.5182 111.695 29.6563 110.992 29.6563ZM110.766 22.4141C110.245 22.4141 109.823 22.5964 109.5 22.9609C109.182 23.3255 108.979 23.8333 108.891 24.4844H112.508V24.3438C112.466 23.7083 112.297 23.2292 112 22.9063C111.703 22.5781 111.292 22.4141 110.766 22.4141ZM115.508 25.1953C115.508 24.3672 115.672 23.6224 116 22.9609C116.328 22.2943 116.789 21.7839 117.383 21.4297C117.977 21.0703 118.659 20.8906 119.43 20.8906C120.57 20.8906 121.495 21.2578 122.203 21.9922C122.917 22.7266 123.302 23.7005 123.359 24.9141L123.367 25.3594C123.367 26.1927 123.206 26.9375 122.883 27.5938C122.565 28.25 122.107 28.7578 121.508 29.1172C120.914 29.4766 120.227 29.6563 119.445 29.6563C118.253 29.6563 117.297 29.2604 116.578 28.4688C115.865 27.6719 115.508 26.612 115.508 25.2891V25.1953ZM117.406 25.3594C117.406 26.2292 117.586 26.9115 117.945 27.4063C118.305 27.8958 118.805 28.1406 119.445 28.1406C120.086 28.1406 120.583 27.8906 120.938 27.3906C121.297 26.8906 121.477 26.1589 121.477 25.1953C121.477 24.3411 121.292 23.6641 120.922 23.1641C120.557 22.6641 120.06 22.4141 119.43 22.4141C118.81 22.4141 118.318 22.6615 117.953 23.1563C117.589 23.6458 117.406 24.3802 117.406 25.3594Z" fill="#1E1B1B"/>
<defs>
<filter id="filter0_b_703_92" x="-64" y="-68" width="184" height="184" filterUnits="userSpaceOnUse" color-interpolation-filters="sRGB">
<feFlood flood-opacity="0" result="BackgroundImageFix"/>
<feGaussianBlur in="BackgroundImageFix" stdDeviation="40"/>
<feComposite in2="SourceAlpha" operator="in" result="effect1_backgroundBlur_703_92"/>
<feBlend mode="normal" in="SourceGraphic" in2="effect1_backgroundBlur_703_92" result="shape"/>
</filter>
</defs>
</svg>
